<mxfile host="Electron" modified="2023-08-07T18:19:09.777Z" agent="Mozilla/5.0 (X11; Linux x86_64) AppleWebKit/537.36 (KHTML, like Gecko) draw.io/21.3.7 Chrome/112.0.5615.204 Electron/24.5.0 Safari/537.36" etag="ciNlfNsYKdz4ORCVPoaP" version="21.3.7" type="device">
  <diagram name="Page-1" id="Htip2oopdPtkWYqZCWUr">
    <mxGraphModel dx="1434" dy="975" grid="1" gridSize="10" guides="1" tooltips="1" connect="1" arrows="1" fold="1" page="1" pageScale="1" pageWidth="1169" pageHeight="827" math="0" shadow="0">
      <root>
        <mxCell id="0" />
        <mxCell id="1" parent="0" />
        <mxCell id="ZgNNGTYw98eAhwDFOAmk-1" value="" style="shape=image;verticalLabelPosition=bottom;labelBackgroundColor=default;verticalAlign=top;aspect=fixed;imageAspect=0;image=data:image/png,iVBORw0KGgoAAAANSUhEUgAAAjEAAAGfCAIAAAAh8xSgAAC82ElEQVR4nO29d3xU1fY+vJPoFULv0kQFRECFK4qASrEgTYrSQXrvJYQu0muooRdpUgVEEGwgogh2KV4EBAGl9xKK90re5zvP76x3ZxJShkkymaznj/mcOXPOmbPO2Xs9a6299tr3RUZGGoVCoVAofAD3JfcNKBQKhULx/6CcpFAoFApfgXKSQqFQKHwFykkKhUKh8BUoJykUCoXCV6CcpFAoFApfgXKSQqFQKHwFykkKhUKh8BUoJykUCoXCV6CcpFAoFApfgXKSQqFQKHwFykkKhUKh8BUoJykUCoXCV6CcpFAoFApfgXKSQqFQKHwFykkKhUKh8BUoJykUCoXCV6CcpFAoFApfgXKSQqFQKHwFykkKhUKh8BUoJykUCoXCV6CcpFAoFApfgXKSQqFQKHwFykkKheL/cOfOncDAQGzcunUrTZo0N27c6NWr13PPPVe6dOn7779/9OjR77777pEjR7Zt29aqVSueEhkZGRAQ4Hb6f//7XxyPjf/973/33Xef/PTPP/+MHTu2SZMmefLkwQH2uQqFQDlJoVD8H0AbJA8QEnjlr7/+6tix448//jhp0qR27dp98803AwYMaNGiBfbPnTsXX69evZo7d24cnz9//j59+kyePPnMmTMRERHh4eFDhgzB9pUrVxYuXIhTli9fjnPBZOvWrdu3b9/06dOzZMkCiiJjKRQ2tE0oFIr/83hISNjAV/gxhQoVwtcSJUq0bNkSDs2zzz47cuTIAwcOYBtHNm7cuHDhwmCXcePGYRv8tGbNmgoVKly6dOns2bPgrfnz58+cOXPLli13XAADZcyYsXr16s2aNcMGCUldJUV0KCcpFIr/i7Mx4EZIIA4AbeDXoKAgEAlJ68aNG9wAr+BXnHjt2rXHH3981KhROPHcuXMPPPAAT8RZOAwH//3335cvXxZXDD/havg1eaRV+DCUkxQKhSEhkXXAQOAMsg4dGpBH1qxZBwwYAJ8Jh+XIkSM4ODh9+vT4lWflzZs3bdq0Xbt2zZQp0/Dhw8FJ3bp1u3XrVocOHT777LOQkJCffvoJZxUtWjQ0NHTOnDnZs2dXD0kRI5STFArF/8tHoFsjDhM9IXo2YWFh9Jz69u3LnSCVcePGYc/SpUtxZHh4eKQL2D9hwgQcgOvcvn0b23SzsKeeC/hKJwnO07/+9a/kFFvhe1BOUigURtIN/vvf/5InKlas+OWXXxpXCA5Mg52gEOPyqEAqxkm64/gTDyNpgW8qVKiwbds2bDCIx4tLMFD+SwlJER3KSQqFwtBxIfcYl9u0fft28g25RxK7ZYP74f0YF98w7icEhk9ekHtwmHzlf9lDVgqFQDlJoVAYphvIGA+T4rjNneLcyAb3C69IwgIJjL/Kp319bishKWKEcpJCoVAofAXKSQqFQqHwFSgnKRQKhcJXoJykUCgUCl+BcpJCoVAofAXKSQqFQqHwFSgnKRQKhcJXoJyUIuG2Mo1UdA4ICLh9+zYnz8sxxqn6zDKa8ilzHgNccDtFkarAV8+lj9g88JXTYNlCOJ1IJ7omF/jk8YLwXo4ePRoSEpI5c+bChQs//vjjeE1vvvkm3mCzZs2WLVvWunXrfv36tWvXDj9BFUyePBnncgqzsfr42bNnhw4dmjZt2nHjxsk7tfVJckmqCiiFgUTCVvX3339LOTJWw0SzQytk2bFZs2YdOHAALRI7ZdIiQULCKWi+ixYtkmaqhJRqwUmyrHSH5gHdJ3W7bfWkzJT0EIuTJQTx2b9//xkzZuTMmRPv6P3336dliTcIe3Ts2LF16tQBV2XLlm3mzJly+u7du+fMmYOvhQoV6t69OytudOnSZfr06SQh49ItvlCpXXVQCgNLs6AZwSD67rvvBg0atGvXrqpVq5JOqEe47sBXX321YsUKtlc6SfSHuIooiQ3bxqEiXTsglQMNABbM22+/PXLkyJ49e9Kyge6DST58+PBevXpR8RktwZC0oPPK8Aar1p47dy5r1qzszrBB0d9ZdOP69etbtmzp27cv3tTp06d79Ojx3HPPNWrUCGeVKFEC9MN3ShM2e/bsOBGqwLhePc0RCagko7zKSSkPbDHQDqGhocOGDStTpsy77767efPmKlWqFCxYcMOGDZcvX27RosVPP/00YcIEOPjbtm176aWX0AS/+OKLCxcuTJ06dcSIEWCjpk2boi3CaPr999/nzZuXO3fu5JZMkZxAu+rYsePgwYP79esHEsKeXLlyXbx4EYqvc+fOgS4k9z2mOoA2GPmwC7enT58efTxHjhx4NYzmkUgyZMhQt27dMWPG4A3Ci4KFwfAJaOzHH3+ElsC5BQoUgJFBP+l/LpDn8BPL7ya7YaqclMIgcf8GDRrg66RJk/B11qxZHTp0eOWVV0BLL7zwAlx4tK2nn366T58+s2fPxpE1a9aEL1W2bFmcvmfPnjNnzqDtPvXUU7CSYBTv2LFj69atTZo0SW7hFMkGxoSh/mBco1HB4sZOrs6HVoR2IiHiZNdZqQrytCVcj649atSoli1bwsp87LHHihUrBivzk08+6dSpU3BwcMOGDbt27frNN99cuXIFOgGvb8qUKTixlAtyWeiB48eP4zrgKlix1apVS5s2Lcvv2oNPyQLlpBQGNk1Z4cbOTWBc+O233+ag9MyZM+nRw81HU8Yx8hN4C478b7/9BhUDmwsMx4CyrmeTaiGFVgcNGgT7Gk3CuGJ02NOtWzeGidwqgifzHacOsKq6PG10T7wF8NAHH3zAJBT8VLt2bdoK8IRwzLRp0/C5ZcsWRul5Ii/CMCDDd48++igMVuEeDk77gjesnJTCIMPLHFXicDRsHDQ+NNZWrVrB3cmTJw+sXTQyDj5x7YAWLVo0b94c/NS/f//x48dfu3atVq1aO3fuxKUyZsx44cIFnK6ElGqBt099BFsbhjZcJerBLl265MiRw7jaG3QWaUkJKVlAXmHYjYPBpBwxJblGMO0GqAUZK+IpJCTj0iGMAXKMitfkeDP/KHm9YeWkFAYSEtuTuEetW7dmM2rsArdXrlyJxgePnj4QuKpRo0b0pcBJ5LaqVaviUuXKlStfvjwPU6ROyOIUUEwDBw4MDw+/efMmNB22jaP1SEvJfaepC+IkyRq+Ehoh5TAZjweTq9j9sZNvjQxkHyaqw42l+KvmOKQASF+VDZMI4QtJ5pY9bnMFbOPFXtKGO91SvbnBE8UZt7/KTskslz0+KG+iQuXlfqZo4mbSpUsHP3vixIlwmDJkyGCcBWHjc3tip4vxbieOx75tP3N5Gm5BJ3k7TC51m6jndjNy2ejyppT3a78de0kqeTgygcxYD4EbeP4yW9EWlvmTXNheLhLjA7EvmGSDTMpJcYCNnimSMsYrs03lhXG/B6FYubI0MnrTxtXsZKIck0G9Ll10qLypU15ax9zDlM7ffvuN2XcJgr2uOWgJcvGhQUZ5gJKRLGdxm4+FT4PbsiItzXl7yVo6BOLeuVlUhIyB+d/7tVedt3lISJohO+bsievDReuZp2fHWmxG55VJ+W7mbNKYTcpJcUDWx2TAnV83bdo0b968Xbt2nT59mtFYe+JqgmC3LSI4ODh9+vTly5dv2bLlq6++yii/m6+deFB5TaqUd9GiRVu2bLl48SI1KTkjbdq0Cb2+jMmTV5grkStXrpdeeqlRo0avv/46daWoUTH/haikkIRxKUEmQ+MT29iw3R0Oh5io3gkPkDCXv75fcWuETngn9irAblIbx2KQU9zqtsjMRbdcJ64aHOSCV24+dignxQsSOsB2hw4dduzY0bt37+nTp+fJk8ceVPS4wdmd88aNG1evXv3000/79OlTrlw5yY2xI8KJDZU3tckLx2jatGk5c+Y0VpzHg3oNQie2Xvvzzz8hb0hIyPr160EG8iSjO2pyOo/hFfgKoi++LuMl/CpqWh51LPKm9PcrhCSMbiyDgLJANGYu0D2SoD0PZgRPvCs8SbeMCaEieeBJU3tMOSkOiNHH3tKlS5fz58/v27dPQtWBTmUOzxocrxPo1A5h4hNQv379Zs2aNWnShPU/3Hps4kHlTbXyGsvqp1LzIJYl4SD5C3zNnz9/axcaNGjQrVu3qVOn4l+g++D3iB8jt0edKO6a6ESa/PYgPwnJHguxuSFOeVP0+5X/lRdnrBEsqREVYKXbCXiwUJRxBVoZwLRfutCPmCZJk+GinBQHxJQD1q5du2XLlv3790tTtsf9PGtwvA5tFrtfcZbie++9V7x48Q0bNtSsWdMtBJ9IUHlTp7x3nLpBvEkq8QCn9Gr8IUMXHOyxU/WwvXLlysKFC2/cuLFGjRogJEnnoz0uA/IyusNgmox5yOiRbePLn5KNbB0di7wp/f1KPFAE5Fd+4sEGuuaWGWsoiM9HcvoZ6OMTtmcmycCYRFPJuEnTPo1yUnwg4Wb0qJCQEPGXpUjUrVu3OIbpgW8rb51fORRsh3R79+69ZMkStOk7SZWjqfKmQnnFF+HtCT14dnFxVgKt4XdcGU9y4MCBixcvrlq1apCrlNH8+fN///3377//vnHjxvhHMf+NM+FBXgcfl5CNUMjbb7/dtm3bBx98UOKBbgM8fvl+ySi44c8+++zixYsNGzYU2san+D1ymLxfqbZsv3ehVd62PQtNtu8k1VwR5aQ4EGnNCfjiiy/CwsKkm0lqv0yWvhfflt1GrskKVGhV6L39+/c3UbM5Ew8qb+qU1zjxOsnX8sxPMhYDCW3IOAeeZOXKlUNDQ7H9yy+/fPnll/369evUqdPhw4fnzJnzww8/XLhw4aGHHsIpefLk6du3L27v1KlT4Ixp06aNHDny+PHj169fB421a9cOih709tZbb23duvXQoUMzZsxIly6d26RvmS7qf+9XgnKsFB7kmjtv11Gl/1S3bt0PPvjg4MGD7du3/+qrr44dO/buu+9evnwZj/HcuXPDhw/HI7158+a1a9d27Njx008/Pf/883hBs2bNKlCgQJMmTSpWrEjf1LOW4BmUk+KAHek+f/583rx5+VXe0D2+KjvIIDsDnUQaNAgYgGg9bo6z2LMm6kC026wO22KNngXrViqGO31T3sSDyis/ySAEv3ps1ItmlyuIxY09IBv8L/aULFnyueeeGz16NBiF6rtBgwaPPfbY+PHjw8PD4TZdunQJnk316tVx/F9//fXnn3/OcWHLli3Qv6wfmilTpgoVKrRp0yZLliz8Lzt2Z4vg4++Xvp0EFfn522+/jR07FvunTp0KT6hYsWIgb3D2yZMnZ86c+fHHH4OPz5w5g5+M6/WNGjUK/4UTW7du/eSTT0L8nDlznj17Fr4ULojnieNfffXV1atX4yHv3Llz+/bteCB48uD4SpUqLViwAFcAh7Vq1YrXFAvGVjKJDeWkFAbb9Iu0phBKJ2SflPFbnmU77xzGtEc+cW7z5s0XLVqUPCIpUgFkvMpYCyLYKi9t2rSMnmXPnp2NHO2zUKFCgwcPxinwlnguPTBeDf4TM8Xx1c7lE/2eZOHQe0eAkzF4x5oAO3fuXHiH+fLlw1d4gSAS+IVgqXXr1sGnWbt27Zo1a0AwHCXC8QMGDBDyoPgvvfQSnNF9+/bBGf3kk0+++eYb9HSc2K1btyNHjmzbtg3ExtlIcie41MKFC7/99lu4s7lz57ZTFpMGykkpDPY0NzQXdEg0IDSs1157LVeuXJ9//jnMIthQH3744UcffXT79u169epduXLlmWeeefrpp+G/z5s3LyQkBCc+8sgjderUQSMuXLjwE0888fXXX+M6LVq0SG75FP4JKjU668xoQCOED9GrVy80S7oFaNVgJklJQNvOnz8/tGfmzJlHjBiRJk2aDh064Fdo6s2bN/fo0WPPnj3/+te/4D106dJl1apVjJhJYCAg6jqWvg97LM24yJV1UY3j/DGmyuSFiIgIbkPkGzdukOCHDx9++vRpPCI80n//+984pXLlyujv8CaxAXZn8W8cMGXKlFmzZsFVgorgBYUOcSnwVqNGjTjIxNgg78rjUcYEQTkphcHOXuUkbbRO+NpVqlRBs3vxxRfR4Pbu3bt+/XoYUKAlEJJxzZmACgh0rQT4119/FSlSBIbniRMnsmTJ0r17d/R5cBgIKQnmbCpSJ+xsBcmhmDhxIn995513JAtu6NCh2KDXPnr0aEmQw8EydYnZ5LxaXRfsaLbbZJ3kEjmhkEi7uI/ghnbt2qF7Tpo0KTg4GPtBzJGuksr4tVKlSiDjmzdvVqhQgdl09CkJDgdmzZr15MmTOAA9/cCBA02bNhWLtm3btjBJa9WqhT3M8uCUJjxwBkjr16//6quvGicMwznLSfAclJNSGOzw7h1rPgT7IRoZeiYYiIcxuEHXCsDxGTNmfOWVV9q0acMmC9eqcePGIDDOt1dCUiQSxNZGS0NbZWkGmdHJXGRjhaaNM3lTws5kNTtnXaZS4TC39AS3mLbvQ1LmZA8eRenSpWEs8itIGrKAmEFLNWrUcJs8RIsz0imzJFkJ2P/xxx/zuX322Wc8GBfh03733XdlBPqhhx56++23cdlaLkhVJ4l/Js38OaOclOIgNlSks4YxOi1aHvbAW4JhlS1bNphLFStWxDZcKJiQpUqVgu25detWnPLSSy/hsN27d6O558mTB44UaAld+urVqwsWLMApKSvcoUgpoAnF9OsAZ5YMf5J6dExc5lQYibzZFV0Z2iKZ8TBsSKVX+aMY8w58HHKrdpqDcYqfilAgJLqYMg+J4suqSMbJn7zjTAS2gx84QOJv9sK11CeStSgZmAB3UsPonFlFDJDpgfyK7RYtWjCI17BhQ7jbbNCdO3fu2LEjTKTz588/8cQTq1evlla+YsUK4yRBgaKYVApySk6pFP4Oe7DEHsY3zjwkN2NI7HSyF1OrJUGU4x9Sni66/S5TPlOWjSWDYbKYmZ2wwJ1kFM464mO546xGQWGlXq1xni0vThKyZyXL/woJ0bviFYSQmBiVZGkOykkpElOmTPn999/Zqvr06ZMzZ04ZipSmg6/VqlXjV7v4GA+zTR5JHzdJNUtGkdoQ6JQbkOF6t0KfdjEC42qTbtNRxQ8Qfgpyal272e+RUSuFpwjY8Q8maxirVhCpgukJ0lvFp5TYmng88qxIJ4yI2tXtZM6scXV5u+6tVFLnxFtxj2gEaOwuRcJ+c2LZGSvOm9AL2mfxyt27d49+mMyKCLBWVwqw5sDbhxE2jbndGK9DKzX6/cc4X8EW3G2mlFtrjnMV7UTqADKX0O0FGWtI/E7UmmnSRQOshRLkajK8YV/Tfqpu6ch3YlqHJvGGPeIvr2gxt5uxFRxnEfFpUNlJwzDxsGlk/iy/us1vtSN1hNul7PZmvyD7FFHi8Xm/bjacXNBmAmmHbgkIJloL57n3mCXEm8FlJVbpNrHJnhsrj0XekfQ1ydZj55Wn4TYJxFgKKsgpFGvTlbEacNIUYDXKSV6HXWbfOD2NekH0OI+5efNmLGsBsP/jEw2ItbOkFIrXbzXSKrvJnVJxGa1Q7lMi0fbylDR4gxzwdLcD5ETpvaLlZYjbWEvsSM/07ky9GOWV4fTAqKskmKjlqOVuRUYJRsmwvOg4UYLGyjcLsGrtMHCaLO83FnndIBwD3LhxIzg4mCbzHadggbyda9euZciQIXZaTa72fDd5ZTjWRJtaKypeDAg5y579I23gjlVfVaJeCTWnAqKuTU5f0DjGGb0idjR7ZVi7pRln0I6LYhgriCdNlD1RygnaJfKk6q5bp6OYEidMgjiKcpKXYc9dZ6Nne5KewDQhbEPRx/KOI52lUNAgbt26ZbydFGcv3DljxoyWLVtCrUhfkiUAcADukweLlcQTpVdTHC6+EmRV0jSOJ+GWQiodQ0pvMZAdXUAvhrDvJi/7qgzk2kaDvdiM9FWxW/EJtmZl60grQV/GA7g6dXTNwk9xsJL4/cYiL0+UcQhjTeEEIZmog+e22sKV70QryO2G5GrPscsrTHPHmZoTYM1qoiJ2yxFgO5eMDOMwgX0zHvj3ZGvbK6W5RjUS4KyNZM8TkoOjl7OTGxbXltt2T/wnapFcyYZwm41k9/2kCewrJ3kfEtkw0YZqJFLM7hFL2w10ZszZ9rUX7RSxoXCrISEhffr0weeAAQNE+/zLBQpyv7PItAQH7rgm09n2I4uGcV69xLjElJO1WIxrWpUEBMQ6C3CVrQxw1oKLMcaVGPKCccXFcQt0sE8y3BHkLEJqR2noPtordZJcqT5ogfJE+hnG8jWT6/3GIq/977bpTc3ON+621rhUL43ObW7wQXltB50vRV4i5WVXdQtYSeslD92xKnLZozUJvX/JI5DcObdBXwkkyjwhsR6EcthDYSqxsZlo5TMiXUuBsKtGRh11u+MUAJQ9/BeJ9GjsLqVCyqLQ8mIb6tatW48ePVavXv32228b6/XHHn2WgHv02Pe9Q4JmwLhx4/r37z9+/PiJEyf27Nmzb9++mTJlwr1x7WrbULrjlNeUAJ0dyJIoH+lHViIwVsf+x1pm1FiqhGOqEjkxzphtYsuL94KXwuRaW6ew59vmhbGWjo60yi2Ln2cc55gHk8mov6AjJOtJ+nayvN+7yRvjRSRdmF/p6hkr3UCql/7jrDcRyy35lLz2QCm9drwv+rW2FmZbZUfgKXYY1g5z8eEEWpnoCYI4KBLhNJZjKkat3fVsqUNcyJkzZ6BrwuIdJ4PcHgwbO3YsjgRbC4/ar54hHD4ZsTBsU2Pjxo3Lli1btWrVPb+rOKCc5GWwQa9cuRINvVatWjL3Am0ILZvHSKuNPXxhF/rlHi8Orti5N+i3o0ePPnv2LBof+vO0adO6du0KG9OWiF1aUnGMo5pHjRqF/t+mTZuFCxfK8BgOPnHiBLgNnbxt27bbt2+vW7fuo48+yh5lXK2chY6kHxrHEnSzo70l8t3kDQsLg/KCsOyrHDKhf2MsM5N0K+kM7NL82qJFC8j++++/f/PNN82aNTNO5q68XHKzzWGR1mKgJmnf793kjTFTAFLny5dvx44dTzzxBF7xu+++a4/qU4XxlP3798OaQbOpWbPm3W7JB+WVsBs2xNEXeuCbghYuVqzYhg0bGjdunDdvXvkX/LR+/Xpc+dtvv+VwGh7O9evX06dP78H941Zfe+21AgUKwKXu2LFjuXLltm7dumDBArQ6XBBd0s6toEdlj3eSTRmpYyfq0KHDnDlzxA7AT3BqW7dujTvEa8LXZ599tkyZMrgyxPnpp5/27dvHlwvuWbNmDW5j9uzZly9fHjhwIC7SqlWr2rVr4ycvva7YoJzkZbBN4C2iP+/evXvIkCFZsmRh0APt5tChQ2gEUFKNGjV68cUXTazdkh349u3bosi8eJ92EJwjtBIKQKudMGHCb7/9JkdOmTKlbNmyp0+f3rZtG2xPqKdnnnnm66+/rlChApQRWjPU8aBBg0BO77zzDqQrXLjw448/jp4MExXNGhYcDps0adLUqVPxtUiRIjly5ECXgyrPli0bVN6xY8fCw8OxLZkgkiAgc1ASSV6apSNGjNi7d69xtC31joTaGabD5/Dhw/FwHn74YWiN5s2b482iY+M5QDGhtx88eLBhw4YrVqyA/kKXTpcuHR7XmTNnIDjkJTOJc3mfayVWk+Tv927y2ueKM4R7q1GjBswOGMi4cwjVuXNnPIqMGTOOHDny9ddfL1GixOHDh/Er2nbLli3vxLrEjk/JK94SFfEvv/zy0UcfQTpwKkwoGFLdu3fv1KkTmj1a8l9//QX6+fnnn6GmoejRhiMiItCYn3zyyYoVK0LX44GQpUhIHuTm4DZAbPPnz8e5IKfPPvsMbMpZgzATN23aVK1aNdztmDFjwLU4Bvf22GOP4U/RuU6ePMkqq0uXLoXOwc6mTZuif6FL4qx169ah50LtMMS6efPml19+GQfAYsYpsAsPHDjw/vvvG5fxhHeEi4CTvvrqqyVLluCnGTNm4OW2a9cOnT0JEsGNcpLXIflUaDd4qWi4aGqhoaHG1RtnzZqVKVMmNOL//Oc/eMexXIedh8Mz9FECvFq/i1aV+CXZs2e/ePEiPSE03G7dug0bNoyW4x3XPCfwB468cOHCli1bwKZXr15t0qRJ1apVP//885IlS4Ki0O3Rb48ePQqbGnoKWhs6GqYlehH6GDagwXPnzo2LfPrppx988AEr7FWpUqV06dI5c+YEab3wwgscT2LkIc5hc6/Iy7hNPxegUGS8QfIajJPTgU84DVBPrPD/hgu42hdffAEFDQqHjsOTwfP5+OOPsadBgwaQCKocouHvGMakXhZXKenf793ktRnCjk2BTWErfPnllxAEkr7yyivgXZYIwel46WgY2I9XDLsk9vvxKXnlFfDcf//732PHjoUNgQOgwfGy0PhBSOADkBBouHLlyjDFcOfwFV566SUuO1SoUCGaGpHOVAHby08oJFAGhjt16hR9MuwB98Cy4QHwWmyR0R/PnTsHmwBsijuHmwV/Hd0QNiXaHt7OkSNH8ARAoiAt1mJAA0ZvNc40L4Y64Ur++eef+MRzYIAavRV9/Pz583iSdL8YM7znFxU3lJMSBcwR4IiChO+w59KlS/Cp4UbQ/I/FnrLjY9FHnu8d9mAvLDLQJG+1R48egwcPDg4OlhABjsQNg2bQSaChwCW9evWC4YaeI9YodTfkRXcFG/GysMJgRYKTcuXKBTHRzdAxYK+Bn4wzNoPTQX5yBXuMwbvjDfGUN3oWE5OysB/26U8//QSrAj4uu7ctO0+sX78+PEVoK3Rp7IGbKLqYAzO2CjM+8H5F3gBrlQRCXAq8bpDQfa61IUjVzEgGLTEibWfiyUBRpDVtU1IbfEfe6LeB9gx7om/fvkOHDoVtcZ+rSLlkFjBWhtPhJeMAu+fy/UpujseGlAwawRdHRzt27BhvEq4PvFXeNmwdeEU4DGoEXhpujAFzZprAI1+7du0ff/zBSJ1x+VhgppUrV8IgplWUOXNmYTgchoPBvvg7/NGUKVPwSZ+JbAScOHECnzIgem9vKV5QTvI+2GOhttCT+/TpU7BgQeawQVV16dIFvvajjz4KExvt3ot90oOblCQ6qFFsd+/efciQIRw1YZ4Yk+XYgUFIoBZYjl27dkXbpTiScIVfcTpaP1wf9CUI+OCDD65ZswYKCxQFi7Vnz54wqGGjoc8z7wP0PH/+/KZNm4KicOVBgwbhH6kFTNTlUJNFXg4PSOIvrgB3AWYpFDS+1qxZE/QDh69Vq1a4+d69e7dv3x5HovdCxnr16uEKTV1Ab8cbx/MhG9lT8RMVHsgr50pGFiTCMTgFzXXp0qUvv/xyu3btvv766+LFi6OFQ3U2a9aMAb0NGzYsXrwY0qG1P/7444xPMp/NDpH5lLySwEJtW7169blz58IRbNu2LQwpKm7SMOSCNw8xFy1alDVrVhhbaAzDhw8HB+zatQt9fOrUqaRqu/UmVAR4M7gyTB/0I9wPGg/aGB7gnj174KXRPOISvRQBLSpnzpzYHjBgAHgLrPPEE09AdlhOuBn0QXTVChUqwLWC5wcHiFHT119/HXyGpgt7ETc8e/ZsvNMAJ0MHr6xWrVp4rbh+eHj4wYMHQerwL9GLvR5uvRuUkxIFtWvX5vD48uXLxfwZNWoUNtatWycWZTJyEgfqObyBrtuyZUt0M/mVuaTSBLGBXsq4E1o8zmrdujV/XbZsGS41YcIEygIeEntKhrtxAAw9HADZhWw+/vhjHtmkSRMT1WW0XRBvDYMnVF6a+VTK97lmFOJmVq9ezQOwzfFeHPbcc89RXtAq/kXeL3QKPKoApzyzVIvx+lxgr8gbY1OEQp88eTI2wLL0bpl2xWeSO3du6GgOAULTValShfpdsg0lVzMJODih8hqnpo5xeW/Q19DFbLHwDLAnQ4YM9OBxKRIeZMRXPJAAp35PTxeMNQJnotaYiD9Aflu3bjVW/gj+F0YtI6jvvvvu888/H+gs5kkjiVM1wBxyEdwwbhVkiadBbYOrsQYm9sALfO+992Ah0RMicFigU1acxnSbNm3AUsY1vPT000/Dx+KfosHDCkmoXB5AOcn7+MdZuCzSKkUjM8YDrQLJyXiTQVa5RthTMj9D5mpIB5ZpOsYRTWbq/OPUKOMpOJJZ4zIaxPiAnazF7iplhu3HwhuQhGPj1byshMrrdg9u8/PdUord/oWa0a7nxtMZ/DFWlm3iIaHy2ufK0AhFkwPkyUhCmnGy/O2hMhOV5JLGuE6ovP849Uapju0ZP0FWPVO7NRrXm73PmT0qYVjp73ecZSM86Nocu7XrfPOy7EowAf9xrQAgEw/Yfug8yZQj3gOtYfECZfwMNhN7peTES3+U2hB2rhPvRF4l/Mhq1ap5+HoSAuUk70NUtm2XSRNne7KD78lyk0InuB+ZNCOdU7qZcVYOpN/AU4wTKuGn9HlOJzTWEp+8jvyXqGbptNK7ZHppIj2ZhMrLs0Qd29En0deSKe42AT7IqYVhHC1jq3iTJOtUJVReO+hkP/k7VhkOvl+J84j6s6sXQl6xYIikSdZKqLw8mKkrkEIWgKAvQltKzuKGW20tWdvpvqiTUu2ZxQmCW1HaIKc8YKBTN0QokwfIfHMmgsuRbl7gHatwn7wmY43t2fMx7JYpBYrIxN6NpccC5SQv445TAs64tJK8RfE27PeajLE7sbOMU2WEnZC5GOLZSHuV5m5rYanOwHpi4gWKGyF+g7FMP+kY/N9bt25x1MG+N68zU0LlJeVQC9MJEJEl8YE3D43gVpeFDYBKgVomwKlMEWhVxvOKXF6UNyBqIpyMKhnHyzdOYEo0oPyLnCgOSpKpMM/kFRNBpiLJ6TINwI0GINr169eDg4PtlmyXjDPWJFYPRLAJSSJ4dlhCHrL9F3ei1dyzt4XnpOcap8arTBYU9pX/veOUNDTRwhtJYE4pJ3kZgU45feMU1OELFmvUbiXJyEkBVp6V2Mh2QzeOMxRpVSozzjxWmWRDzeW26ECgU8eF1hkDC5x2aleB5OlSFI6KXv7IeJWzPZBXdAHzDyUGYgczOeBkota7lLiHzK79x6peET1WlhjwQF7bVZKLGOfFcQ/zU4KsJSfc/lSMd2M5l0nAwR7Ia/slEiUTrpVf7dpRnH4kj0gMkSCret59Tj3TBN1/pJN2Yaww4/3OqkVCDOLimKg+jU0/0hSNq2NKeFzyuWkqkfDsEI5by/+fs3aiZKkkzXCDcpKXIWEuaZd25cf7nNXJ2I6TkZbc1ESkVetetu9YFeyNFYGMdNLS5CKifaRslwzmS1419ZoU0RJTWrKHRWubqMGWZJHXTYdK3EMGzyQMa4+g2EHLSKfWKneKNUrfK7F1dELlDXDgNvwT6SrCa5zBMCo1Md5N1NFTE7U+r0SZkqCRJ1ResRsCrDUs5IbpXUlVrUinTk+gVYT3TtSSj0LVATFVE44TAda6R/K4xKsTXRHgjFJLKEKkZixReo2Ib8ecjesF8USy6R2njriMmAZYw8ByJ0HW0laJDeWkOCCusbzj2OMS8pO0S9mQNyoNJfa+esepaOAW7pevMXrc0oLlv7ghhZPtm5SGbvcoW14TUxxGtqU/SLsXi1tyAdxkF8hP4o7YasWWK5ZHFH/YCsv2A9zer8jrdrDcvx0Asa/vdp/yq/yvrR3syGT09+sNcRMsr5tvJBvy9W6DYdGJJ3rvCLCyKH1EXvu9uAlioia2yDF2nxUZ5Sy3Bn83eY3FgjbZGMeec/PPTLQ1k4QU7ZCp28iWm0kXaY2AGqcSv3h1JloKj3GyJUWN2GXXbUGM9RLtt2krzAS8RReUk+KATUW2Y5s0f22sCIM91++OUwvVOKaNHB/kzKqR6/zjrAQhcbNAq5KxbeW5MZwvyJsEf6ryJvafyl8bldfS17bzEelKjvjHtfILXVL7YCnLJEFjITw52C0UaddvJYPaNyAMatu1JCHJ1hPikaQkTmmw66kHWPO9bPrxmJCMclKcsOO8/3ip9lqCwBiCiWYJSosR00aS3CQ7KNCp4c07t4tS25Hrf5w1kMT39zV5Ew+++X4TDypvEiO6vIHWUlsSNxPOuOOs9BpppdIxEVwGYv9xapCL/2QTEnfK0gTCYdLxGfeTMTA7+hrgjJ6Kn2Rn68k6n5FRqwzLYW5rpwV6VCVdOSm+kJB0YLSlGBMJbgxhx8ftoISMWARZC2LKfBE7/03GMO2JJpJEK0kHviZvYv8vofIm9j+qvHaoDfqdNU/dYvucbBToLFohXTvAyR+xR8WY8BngLFoonf1/1mKAMmgkhDF8+PA2bdrkzJkTR27evDkiIiJXrlwTJkxYsWKF5Aa7xZndYnc8QKaT4yKrVq1aunQp1wA0Tq0jz56bclIcoP0ioWS3YHSiIjBa3rD8u0Th2C5r1qy5du3aAwcOdOnSZcuWLYcOHVqyZMmIESOEorp3737lypXz589jZ8mSJWWYXcIIQk6+Jq/HLTueUHlV3kRCjPKWL1++Tp06ISEh+Dp06NA//vhj+vTp2Jg0aRLus23btiwIuWbNGjAHjnzyySfHjx//+++/z549G3T11FNPsQLyxIkTwUMvv/zy888/f+nSJXxlgWPG7QOdfHcTdY0++meXL19mLrhx+Um4Wp48eRo1aoQDBg8efPHiRfDKnDlzPvjgg++++w4XGT16NIlz79692DauantZs2YNCwu7fv16jx49atSogYOZo0HqsoemEgrlpLgh2VN4DXid+Ewa446N6cKFCxkzZuQeec2yVikTE7Jly3bt2jVYK9iJje3bt6OxGiv5FRto2d9+++0XX3yxa9eub775BiKg6b/yyivibEkenQ/Km6hQeVXexECM8oI5fv755xs3boCBwCXGWUyPQbObN29myJDhhRdeGDly5Llz50BIOAC8BaaBN4OzSpcuDbYARfXr12/KlCllypQBG50+fXrgwIHYD0nXr1//5Zdf4q9BXW+88QauvGzZsn379uEKkydPxmH4U9xAr169YLbCfoWd+uabb4JCwFInT56E5Tpz5kwcdvDgQRwPCoQ7JQsE4y+mTp2aLl269u3b43PMmDGZM2cGj4IX7Um1Ac6cRcYkE/rclJPigJ3BAkUPdwTvIAn+V8J0MEDAHNEPkPmqaH+wUz788MO//voL9ssnn3yyc+fOFi1a8DDeORo0XCU0ZbRXtEWwUaVKlXBw5cqV7REmGfP0QXkTCSqvypsYuJu8sCbBFjAKf/3119atW8M9Yi1j4wz5/ONa7jJHjhw//PAD+uO2bdtKlCgBP2bVqlXVq1cHY+HIggULglro9MArwq+nTp3iuXCtQEWRTjV6sEKBAgUOHDiAjo9TQJBz585t164dDobGWLp0KQxZEiT2nDlzJn/+/Ljsgw8++Ntvv+XLly88PLx3795fffXVhg0bnn766SNHjuDGcPDt27dxNRwW6VpujTmEdu6DzBb3AMpJcSDIqinSsGHDYcOGJU2blrgzXHsYTSZqeqWMDDFE/tprr8GDxk1WrVo1NDSUQWq7rg++wuqZMWPG999/jxbDkpRBzoQ4SSJnMNqn5E3s/1V5Vd7EwN3kRS+rX79+x44d06ZN27lzZxyQK1cukAF6ohTahwM0b948eCGLFy9+7733sOfHH388fvx4zZo1mRcH6zNv3rzs+7gyvj700EPG5ZktX758165d2A/ma9CgATo7/B7shN8jXguIDU4Mk6HkPnFu9uzZwTqBrmVZXnrppatXr/7jWgvj4YcfDgsLw36QE3wp0FL69OmhQ+Bj4VL0AqlJ6FExxVemTicUyklxQOZIYgM2CLyQunXrrlmzxlidym3eXIKuL8OGd6JOjOfFmzdv/txzz8E+ohMj/ygeMV0lNBEYSvXq1UP7OHz4cLNmzSQWx6xQ1kqAYwSXH442U2ikYpB8MhDsg/ImHmJ5v8YZNLaTaBmgkNE4OwXWTm6O/mTcZm9Qdp+SN7W934TKG/14uwHEU15o6qxZs2bOnLmia6kIzsl97LHHcCT6aUhICAgGxDBgwID//Oc/cJLgjrCMd5s2bUAVW7du7dq1KzwbMBZOhInZqVOniIgIDvPgXxo1asQK7lw/CdeHFzVw4EC4SpkyZcKjgAb46aefcM9VqlTp0qULvBxsUBw4Rrgm+BL6pHjx4o8++ig0Rrp06eCWUSjQOf4dv3br1g0PAbcEhdO9e3djTduS12onmicIyklxgOTPURY84lmzZuFF4oWh9cA7wfuWdEy3WUHxhDRoac2MHcOzHjt2LPhj9uzZJqbimG746KOPmOr68ccf2x3GuNrlhAkT+Bfz58+XmQcLFiywVxYIdCbipQh5vYW7ydu7d2/Ka6JW+zZWuU8ykJTeCXLq03Ccj/F0meEowHWuXbu2fv16n5I3tb1fD+QNdCru3GdV3eZP8ZcXrg++wnkimS1ZsgR3NXz4cLkNXApOEjZGjBiBbVAXLz5nzhx87t+/3/5HsAs8Eqn8ZD9PyMKGir6PT5AW7mHSpEliNnFBCs4Y+e6771asWFG7du3w8PAAV/0z/ATaY0BFIi7PPPPMqlWrpIWDLHm1DRs2QGomOEhxKY+L4yknxQHO3WGmAMOmeG14BwsXLgwNDYX3GujMNoANgvbh2b8EWDVd0JjQyOA7w4VHt4l/0bBAa43UQ4cOTZ48mbl5hQoVgnUjrcQ252WiuG0DphR5vYK7yQvCHjJkCIxW40wokbsSm9dYSbHGmuohFcboj3LN03+cusvYyJAhwyuvvOJT8qa29+uBvLZQfKEB1jTBeMobYM3eNc58dmpzE3VMl+sQRjqFkf5xFogKdMCf8F+cnARDh6NN8o9iOck0eSnlEOiUVKbZVLZsWVnbjHnqxkmkinQqionHI1NrRYqqVatycSneiUTwPHtlyklxIMApmxFo1T543QX7sH+sRU08hljZAU7VTu6XEEEs8zn+caqass0VLlwYtpjbMVI41a3Rm6glcFKEvN5CLPK6lVoJdFLwRZlKH5ZSeNJLZeqGFPoTkQOculC+Jq99WGp4v/Zhccob5CqP4qZn3WJT8ZGXa3kYR30HOQW9uHCGlObCTq7XLjEx/nV0zyzSKdwHQrKrsUi1IWm0AVZquMyxFe+Qd2iXtw9y6h6REY1Tzegfp2i63Sn41xwR4K+RVv2hBEE5KQ7Ii7Sda9oOMjvM3ENW6x1XYXxeJyBqsU7jGCnR14iLDvYZWaqHO2m/s13y+vYAEht9kFXVSs71fXm9hVjkNVFrQke6FohipI52t0Q77UvxdPZeJptERl32jW/BB+VNbe83ofLaRUu5h4ySIHnd1Lf8r52yFOisZiT0Jm4ZqS7IWhQmwFl21h7ptN0ju/oD/06ePA4GIdmek3CejKTeby3VaJzaE3ecyv3G5U7xgsJkxipF7cErU06KA9Im5KVGL0YpVXw8uD7dcG5LXEiCaXy1Uggrlm7M5iVfI50Z4Gym0RcSNVY1hwBnBQ0x4X1fXm8hlvfLB0jtIOQEQrJVidsarG4L2wQ5UzWjV271QXlT2/tNkLx3oi5WGRERkS5dOuORvHZsjXvEdpSMCYm22awmIT57aNNEJVTxC020ZQDFzOIzl+4vS/HK/8qJQqUyimacQKU9yGoLZSfxevbKlJPiAJ++HfuOdIY3ZYZQjEOd8b8+N9xCB26WXYCzGsrdriOjQWz9doCbG/YSA7QQ7UoQtnQpQl5vIRZ55cZsqubx0gNlEV726vucpamNowJsu9VEXZHW1+RNbe83QfLKW+OrJyHZAbr4y2vXluS2VBVi1IulTqUOHnuojIcxk9AeG7bzQinv/c4SSvgK7pGFaBmp4/3Icu/iSLkVw6S8coe2+KRJDhrJnkhrNZAgT/M2jXJSnJB4rnGMZcZ2/7EW1LEr+Hr8F27ergw/ys745LHYvrOxjETjWIV2RJsNNMiZpWTLklLkvXfc7f0aJ7Xh6NGj/fr1S58+/aOPPlq0aNF/XPNL8NCaNGmyaNGijh07hoaGtmvXrkiRInChJk2aJJ3QTkC6efNm//798dgnTpxonLR7n5I3tb3fhMrLUgvUuZzNY4+4JEjeO061FGPV4OddBTgTXcUlkuNlsIcmETmSvoubIBI85IkyXGRc+RduNxnprFtmXyfIWufif84K8TxLmrfcnm17uT0Qz1xt5aR4ISDqIjom2opBxtM6x/LuxW2399s749OB7au53afsFz9dYn1ysNvQiO/L6y1El9c4vD5o0KDJkyfnypULT2DlypUSSb9+/ToIpk6dOoULF86aNeuMGTNkGODXX39duHAhNEiBAgV69uwJQa5evdq9e/epU6eaqH3ed+RNbe/XM3ndRhCNR/LafxTgDHcJOdleHeNm91nLvEZaOfRuNywtU1xVt18DnQLhQVELfsud2LFNe0jsfquac+xPxkQ1AjyDcpJCEQMkcnLmzBlWt/zHNZv4H6daMzY2bdrECYPnz58PCQkpUaJE8+bN8fXxxx8fP358kFNtHU5StmzZQEvs0h7H2RV+DCEn2WPns0lgzXa8xO3jTgmEfvnll6dOnWrYsCEOu3HjBlpmo0aNwsLCFi9eHBwcfJ+z3NF9zjIZElqUgBs9HlmO9ocffujVq9f27duTJn1fu4dCEQPud5ZAzJw5M2gpe/bs6I1gF47ABbrmhbRt23bcuHGDBw/GMfCZGM0H4CfNnTsX/Rlk1r9/f+bpSR0XBuLvxZBU+CX+dqFMmTIVKlRAm4FZg2ZTr169qlWrtm7d+j5nQUJGDo3lGBnH02LcjxUcAp1lAzmkhOtkyJCha9euJ0+efOKJJ4YMGdKvXz80RZAWXHxeHD+NGTMGDRV/feTIkWHDhqG1v/zyy02aNIGZZe7igXkdykkKRcxgNtHQoUNbtGiRP3/+AgUKlCpVatKkSbBDe/fuDVKpVavWF198sXPnzuvXr4Of0qdPj19xyr///W/0cyY70BQ9ePDgqFGj9u7du3LlygYNGiS3ZApfBNrblStXXnjhhfDw8DfeeAN7QAzPPPMM2htaF/ggIiLik08++frrr0kVaH44ZtGiRT/++CMYaPLkyatXr/7oo49wEbQxNDZYSw8++CCniHBECmQDtqtUqRLoB/wH5wnHoHGCcpg13qZNGzRd43K26tevX61atcaNG6P9k+c8niGQICgnKRQxQMZsixcvvnnzZg4+Y3+VKlUYiF+1ahX4BooAluaWLVuMM7nEzoOSROFChQpBdxgneTdpYiCKFATG6NAqYOLAL2GEbfny5WAXtLHjx4/ny5cPRg+4qnbt2kGuwrLGFd+DtfT7779/+OGH+Lpu3br33nvv008/vXr16uLFi3EiGGjAgAG4OFx8HICvmzZtqly58qVLl/LmzYt/yZMnz+XLl7t3746Lw2wC92TKlAnH4xjQ1bZt21jNyG0ySaJCOUmhiAGSDhvgzIR1K8gkc2vsmmABTlmHSGvWLROO3Wq6JI9UCl9FkDOHt2zZsrNmzerXr9/u3bvBMSCPc+fOzZ8/H/46mhBY6ttvv8WRVVwAVUybNg2H/ec//zGusDCd+1sugIHANLw48xR++umnzz//fMKECSA5uEfYc/r0afhSU6dOlWQ5eGM4Hoy1YMGCixcvsryWsaZMJfajUE5SKGKAdFHbobGng9jzBGUSjEw/pEaIdAr4y8wwslHSxEAUKQgcCkIj+fLLLzt16nTq1Cm4L/Xr1+/bty9+qlmzJkc3m7ggmQ74LFiwYJ8+fcAxuEiNGjU6dOiARlipUqVWrVp169bt0Ucfhc1E0woOPdysF154oWPHjhMnTkQjxAFoxg8//LBxWV2HDh0CXX3//ferV68uUaIE3CzQYWhoKBu2PYEpUaGcpFDEgEBnTZDoBWDs6Rfi/TDBgYT0j2vVGTmdBZ/sE829Jcsq/A9M+M6cOfP+/ftlik+FChXYzDZt2sTDZF6qtEywCCkKv7Zu3bpNmzbiqa9cudK4nKcffvhh7dq1b7755tGjR+Uf4Y0FWEuzY7tIkSLYKfONWLzcuJY8B13JBKZEfxRJ8B8KhS8j0ik0KV1U9gRapSQlWCcej9sBUktGOIzbUnyMqiTSKkhozxtNmvpvCp+FNBtpHtEHHQOc4kZux9uzgmzLybgySMuWLQtOin6p6H8h17T3P/nkkzt27LgHyRIG5SRFqgYZJdKqiGMsvpEqZ5z/ITNCTEyTBG2CseeOCCHJThYFcKvnj+tL9TyFItVCOUmRqkHuARkEOuWW7bHcSKu6nb3MR6Sz7HSgVblZSqIZJxQjpVaEsTiLllQkkyIleKKEpFAoJylSNTgTVpY4YpocCcmuiGys4sp2noIE66S4A6/JDRN1XXnj4io6SVIqRjjvTtSV1BWK1AnlJEWqBpefkCIrdmVMu2azscZ77LAeN6S+C2mGx8iJERERwcHBUsdMon9uwwYsrJnE4isUvgblJEWqRqC1lJm9roQsaSPLf+zYsePkyZNNmjRxGxYWT+h/LgiTSa1VrmtAJmNhIeM4WHauuYT7klR+hcLHoJykSO1wYwK7Uir5ifMZ4SdJsTu39c7pM40dO/bs2bNTpkzB9pgxY37//febN29Wr179CxcqVarUpUuXCRMmdO7c+fPPPx80aBDoqpEL06ZNe/jhh8F2FStWTJYnoFD4DpSTFKkdoJy9e/eOHz8eLs6kSZPeeOONJ598EoxSsGDBY8eOzZ8/f+PGjR9//PHFixebNm3KYN2HH3741Vdf4dwXX3yxdu3aHC46ceIESOjKlSt//fXXkSNHZs2aRdencePGdevWnTt3rnGtcFGmTJnhw4dj//bt2ytUqACqa9WqFZgpuR+DQuETUE7yHLSRjx49GhISkilTJqiwxx9/HDvr16+PX/G5atWqtm3b4tdOnToVLlw4Xbp0UHzGifbYK5pcvXq1b9++6dOnDwsL89k5lf4qL27g3XffHTVqVN68eXEbWbJkgTcDnhg6dOhHH30E5vjggw/WrFmzevVqFhkDnbzhAk/nytk4rGTJktmzZ8eRadKkAfEEOQuf8xiKzyfw1FNP7d+/H5cdPHgwTmQZTTyQHDlyJNdDMP77fhUpC8pJHoLj4VBSUCtTpkyBOoPeWbt2LeM8HNCGmqtZs2aRIkUyZ84Mq1nOhQJaunQpemmuXLlCQ0PRk2E+9+nTB8fgLN8c6/ZXealJoUNBJAGuxaGZg8DVKFjuhXl0wcHBUNBciHrFihVff/21cflJDRo0wP5ly5YxWRze0pAhQxYvXmwnMjzwwAOymgCu0Lx5c/AQHiY4DHveeust+FJSKy+5noNfvl9FioNykoegnoKugQ5CVzSucXJ8vXbtGnsguuVXX30FaxHbOKZnz54lSpRg8KdUqVLYZkIwM75y586NY6AQxZT2NfirvLTiYfjDMYKqDQ8PZ642b4w5ddWrV+/atevFixdr1KjB4xs2bMglJ5hxh8POnz8PDwl7cB1IB0lJMwMHDoTDIeUb8Be4LJwMUBquaVxTZeGlffnll3C8qlSpklzPwV/fryLFQTnJQ7DqFDYyZMhw5cqVbNmycRicxc3QvdOlSwe1NXbs2H79+j300EOTJk2SijWwK2Emo6/CTB40aBCtY0kRjr4ssS/AX+Xl9KCSJUuy2j+wcuVK7Jk3bx5ErlevHqe7tmjRQk6x6w/xK7QwCQknLliwAAJOnDjRjlax8hj24znwSUK/c/mA2rVr16pVSx5FcsW4/PX9KlIctKF4COlvw4YNa9myJexfmMPPPPNMWFjYp59+GhoaChuzfv36Xbp0+e67786ePdu8efOsWbOiJ+NE2pWytAE686FDh8aNG/fDDz+sWrWqbt26PtiB/Vhe1mJgZrYkc9thNClkxwCXnXfnlrPHSqz2lCYp7kDfS66GrywcznmyrOmQjIMufvx+FSkL2lY8hFTnRW9ct26dzOqvXr26cY1pL1u2DMeEh4fjc9u2bcZZz422pyx5wO5aqFCh6dOnUxv6Zi1Of5WXhCF1gLgChXFywckxdl1wzjpi3WXjVHMQiiIDSV0GysVKdyxcJCXvpLAQ/5fbwlvJ8hz88v0qUhyUkzwEYz5SDZo7JQBiYlpLlIexf/JX6i+qQuDWrVtp0qTxzVmT/iov70pUsLFKI9OJ4URXGaW3pyUZx08SjSwr+HHKLS/O2g2isslPJCFym+14JRf89f0qUhyUkzyE6CkpSCNhHC7PxcPs5QyogNzSq+x+zrOkAFrSChQH/Fhee70J48hl78F9iutDp0pEI/2QdSRqJxUc5CypDs5TuCiG2wWT9yH48ftVpCwoJ3kI6aXSCWUtLNvQlgED0XH2WqV26Wi30gD2cLc98yO5Yjv+La+dt23PKzJR8w6ojmUpP+Pk3dl3y0Uo3FwuSi1UZ6yKRMaq7poEkt4N/v1+FSkIyklehr3ojlvvNS7bU0rX2Ka3cYJCUgyUCyjIkENyihQr/FVe3pgsaBRorVxuuwUcLOF6E/bYEk5nxhqjYaKySVopSBf76/tV+CyUk7wMidvYvZE/SXiEkxClA3M/d/IAJoChA4uVytqdPqjI/FVe3hhuiaE54SRyD6VmbVYeT6aR8B32S1yOkT2hN46yJJdcCYW/vl+Fz0I5yctgmEK6q/Q6zmZnp5WOyimZEnaXLGEJ8ogK4DHJPhIeHX4vLwWUxDnjrENhjx5xI7qyNtYyS9DIfAIgpGSch5RQ+P37VfgatEF4GeyE0uWkMg26JS1lOzXW7pCSuWRc/Zl1bqC/JJXLRB1A9hH4q7ySBS5xp6eeeuqjjz4qUqTI5cuXBwwYANHCwsIOHz48YsQIyNi5c+fnn3+ezpMQEqXbs2dP7969e/bsWaNGDcqVguaQ+uv7VfgsUkbHSEGQvmesLkpVxdCNzICRoXI7FVhC7ejwNKjlIjRCk1ygOOCv8gY6a8XS/F+5cuWwYcOWLl06fPhwOA19+vQJDw/HrY4bN278+PFZs2Zt3bp1+fLl8dOECRPOnj0LAdu1a/fkk0/iCunSpWvVqhUugl9xTYiZUgjJ+O/7VfgsUkzfSClgcAZ9smXLlosXL2YAXSxuJtpKR6WdKB2YnZ9xEo4GSw4xL+KDdqW/yktBxAn47LPPlixZUq9ePWznypWLtcBxh9euXcuRIweOvHHjhnGFpEBXbondhQsX/vbbb1mCiA5HChrn99f3q/BZKCd5GehmkotlV6XkT7S+N2/eDM21b9++P/7447333hsyZMioUaMOHjwIW7Jy5cotWrR45ZVXChUqdOHChVmzZsEGl1xhH8zX8ld5+b+U6/jx44cPH4YIJ0+e/Oqrr+APcYglwLU++qVLl9KnT58xY0YKPmbMmBMnTmA/PKcnnniC12HGmiwAmFIIyfjv+1X4LJST4oabVQt91K9fv6tXr5YrV27btm05c+b88ccfS5UqBU2E7le2bNmmTZtmy5btr7/+4sH79++fO3curpA/f/7evXtjgwu7oX+++uqr6JYHDhw4e/bsggUL0D+rV6/euHFjKDj8in85duwYLmWc6HzSdODUJu/dIHWAli1bNmPGjJIlS0Lk0aNH4wlMmDABD2H16tXdu3dv1aoV9Cwk5TD+gAEDyEBSqhUqGz4WHIU8efI8++yz0OmMeiUX9P0qfBnKSXFAUqRk+gV64JUrV9DHoLPWr18/Z86cRYsWZcmSBd04PDz82rVrtWvXfuutt+rWrctTnnrqqWnTphlXSJ0psGnSpKlTpw4sSmgoXHzv3r1PP/00++cjjzzy559/4iK9evXKnj37448/bqxgSBLka6U2eWOBZNP179+fd/vQQw9x3aB58+YZR7F++OGHXBWJE5KkDgKB+69SpUq1atX4NdkXE9L3q/BxKCfFAZkkKDbd33//ja7IyDj0CydFZsiQIV26dOi0VElcV5R9fteuXTCocTzM5NDQUMmshaYbMWLEE088gX7LtQxwOoxTmJ+42sSJE/l3N2/eTJs2rUmqSe+pTd5YAME5hybQqp1qrMIEsm2TUPT8BZY/4IakhieXLtb3q/BxKCfFDZmCzlFZmHvYbt26dbly5aiwgpyam/isUKFC+/btYSoyBwmn4LDSpUuLGmJmLX4tWbJktmzZ0D+LFy9+69atFi1a4F8aNmyIi3NUmYqPHZjjwwwKqbxJA0lxtucbGavOW4BTsVTcowBnRaUAp8K3jB6Jc8D8iGQcUtL3q/BlKCfFDQ4AiGJCT5sxYwbjGG3atMHXt956y7i665QpU7CxatUqDidwWJgXkYQr7Klduzauhl46e/Zs/jp16lTbdl6yZIlUXcN+WLIcgZBqaSpvYkOm0TBfjtOVAqMWYOWRvFsx+e9Yq33LHJ1AVykHHpDsC4Hr+1X4MpST4oDEW6iY0KnsEinGVX7GRJ2RLr0x0FXcTAqgMTAiHVVC6lIbjXM4JP+YmV04jH+RNLGO1Cbv3cCUZeMUfONafwxwSfIC+cmthpvUerBdJakUR2JLRtH0/Sp8HMpJcYCqRNKERL/Ypb2M0yFl8qCxdNN9zmpv0jmxkwXBJHzP4zmpUGp32uUAkqz3pjZ57waqaRGQN2mHm6heWXMoyFp8yDg0JvNvSGP8GpDcBVj1/Sp8HMpJcUA0C3uyhCACnJV1eJjde9kDaTvLkLKxwh1SgSbSWYdG/o7agWeJBSqD0kkw1zK1yXs3BDqrSEQ6hdrEw5C7lRJBtlfhluVsjy3JlZMxx0Hfr8LHoZwUB6QjBThFumKE/VOAtQyPfQX7SNEF0S8V3YSUSyVBB07p8spYuihfUZokA/k70ZJuK/3YyQg0/O2bueMskmSs/IX7oq5uZ2+LLyKldIQAbF1vh/Uk0Cf/YqzEBHEyPPM2Uvr7Vfg9lJMUfgUGyoxVdU1q4RiX0mTE6Y6zJpBx7Homzknqs8SapIKOXRqcV6ZnILwiq1HIZWP0RYRs6GYxyU18C5syxQ+jLMyUs4VNRn9LoUgkKCcp/Ap0biKtuasSICIbcQiEYycMH0lmncTcxHFh2E3S7Yzjndh8w8tGulajMNZIPu9n6NChHTt2zJkzJ47cvHnz5cuXCxQoMG7cuOXLl6dNm5bUSC6UG5by2zIwI0WJ8HXjxo0rVqxYvHixW0hQofAPKCcp/Ap2EnaFChWqVKnSv39/eDCDBw8+efLkjBkz+vXrFx4ejl+bN28+derUrl27gh6ws2XLlgULFhw1atS5c+emTZsWERHx7LPPli9fHl9xWPr06UuXLl2pUiWQysSJE/PkyQOeIPlJLTgZkpEkggBXUW3jBKnIfDdv3mzQoAEI6f3333/nnXd27NiRKVOmLl26pEmTBv+1ZMkSMtPu3bvHjBmDK/fo0eOPP/7YsmXL1atXM2fOPHv27E2bNtkzeZP1eSsUXoY2aIVfgckIZAgwx88//8wiBWAC7Ll27RrIQPye7NmzlypVavjw4fB1HnnkEZwOVsCR11x48cUXp0+ffvz4cRYVffnll0FpR44cGThw4Lx580Awq1ev/vLLL7FRsWLFWrVqgSGWLVuGf8Q9TJ48uXv37jdu3Pj2229Be++99x6cJJBihw4dJA2vTJkyoD38Nbb/+usvXA1cRa8Ln/hr1jHCKWDNJk2aTJo0qUSJEgwSSkZfMj9uhcLb0Dat8CtIRAusA5J47bXXPvnkk0OHDrVu3RpOCQiJi0pQs+OYTp065ciRY+fOnWCC7du3Q+nDJVq7du3rr7/Ohc/BVWfPnuXoDj4fffTRM2fOMLhXp04drl7Bqgf434cffvjgwYMfffQRi8gtXLgwJCQER4JvPvjggw8//PDixYucfIrj8b/wjRjBA6uBAmvUqIGLjx079rnnnsMG/CfjKsbDv9i6dWvPnj0pJqlLRrAUCr+BcpLCr2AnHUBfw/No06YNtuGsZMyYEVr+woULOAxuUHBwMPbDoZkzZw5ckNmzZy9duhSqP0OGDAcOHKhatSo1/tGjR7Nly8YpSjjx8OHD+fPnN67FgTZu3Ag/Cf+Fg2vWrIm/xtXAZ7/++qsU0eGolQw1waliogQnq4IgsX3q1Cn843fffdetWzcwEC6CX7dt23b69OnMmTODuvAXK1asaNSoEYeamF5hnPmtCoU/QTlJ4VcItNb7AUAwUOsVKlRgXQb8Wrx48ebNm4MMBgwYAL45cuQINuDcwEm6evUqVD8u0r59+/Pnz+/atatDhw4gifHjx+P0zz77DMQGMoMfg2NAOXCS6taty/9lvkOBAgVCQ0NPnjyJX/G1f//+4Cf89Oqrr3bp0uXSpUu1atXC7XHkKSws7JdffoHrM3r0aDhV+NOIiIjcuXMzIoevnTt3ButwPYjly5eD7exSe5JemGzPWqFIBCgnKfwNdGiox7EhRdjee+89fA4ZMsQ+mKtODB06FJ+vvPIKd/KU3bt320f+9ttv0f/Lnu6DT/hb8lN4eDg3QB7w1WQ60RdffAF2AZ/16NEDfMNjcKtuWd2lS5des2aNfIVPxklLGzZsAHXJrKb4PxaFIkVAOUmhSFxISjeJpFKlSuXLlzfRXJzYJxvJfNvq1aszTpjId61QJA+UkxSKRIRdbYHTY1kdzrPprhydMlZ9Iy/frkKR3FBOUigSEVJcjtWyJXs7Op3ETjBM/GNqgxQ90npxCv+DcpJCkYhgkA38wVEuZoG7lWCIj8cjZciNa+4tcwKVkBT+B+UkhSIRQW+GJGQvU2QPCMUnBCfLA5LbWPtOY3cK/4NykkKRiLDXTRcKwU5ZKD2ekLrg/Crl+Lx7twpFskM5SaFIREj9PdYmJ5fcbfnz2GmGhCTrGGmag8IvoZykSC2gBpcFimSPDPkYR+NLoMxef09Ot5er+PTTT8+dO9ekSRPsgR/TqVOn1q1bT5w4cenSpf/617/kj+x/YbKD/e/2X//yyy8dO3bcuXOncQoIua2TFH1lI4XCn6CcpEgtoAYXRrl+/XqFChXKli2bJk2ayZMnY2fNmjVr1aoFUpGFUGUhPqnATRYBW9Br4ZH8BKmwnl6dOnXAJaCWS5cuFSlSZNiwYUOGDLl69erFixcXL17MhS3Onz/fv3//7Nmzjxkz5ujRo4MHD8a5pUuXbtOmTdGiRclDpC6FIlVBOUmRKmAv82pc3gb8FRDSrFmzQEXYs3///ooVK37++efNmzcn/axaterbb78Ff5QrV65u3brYgPezZ88ecA88oSVLlnz22Wdnz55t1KjRb7/91qdPnwIFCoCrxM2aMWMGtl955ZWTJ0+eOnVq7ty5b7/99t69e4sXL87EhwEDBoSFheGyX3zxRYMGDapVq9awYcNWrVrJ4raS6q0xOkXqgXKSIlVAVhtiNjZ1/TfffNOsWTP4SWARMFD9+vXBH/BaHn30UfyKr3Cb7FGcPHnyHDx4EEeCk9avX//++++vWbMG3DZz5kxwG47s27evrEWLjY8//vill146c+bMww8/jD3wis6dOwf3CA7Q8OHDjxw5EhwcDLKpUqXK0KFDt2zZ8ueff3LkyTie2a1bt3BZJSRF6oFykiJVAMod3ENFz1k+oBn6Sf369fvpp582b9587do18MTatWt79eoFRlmxYgX8JJBEmTJl4MfgFBwMQgJpybATPnHlIBdwfRISWAoH//LLL5988smkSZNw/OnTp3EKPuEMjRw5kqVUcTzOxcG5c+eGUxUREdG6dWtZrJ2+GgnJbUhJofBjKCcpUgVAAMZZBI+r6mHPrl27OnXqdPHixUuXLtWpUwdeDuiqdu3aoaGhOAw8hJ0yboSfChQoMGDAgN27d4M2Klas2KNHj+vXr8MTaty4cffu3QsVKkTC4+frr79eqVKl5s2bg8lu3ryJg3EpHMP7OXz48NixY8F58Lf+/e9/h4WF4R54AyAqNxJSQlKkHignKVIXZK2HzJkzwz3iUkbY/+qrr9I7gZ9knNCZPTUVX8ePH4+N0aNHgzM6duxIb4nZcfCfeP0tW7Zs2LDhjTfegHsko0GsPs7VJTiy9cgjj8ydO5en3L59G34S/+jQoUP79u0jd8rcJh1PUqQeKCcpUhFkiQfJdOAemfQjhRIYXmN0TlLDhRi4hz9xrSa5yMsu8Bi3JY6kNLhxBrRk7UFxjOCKff/99/xrEJJG7RSpDcpJilQEMoHtc9gMYaJGyXAY98tiE/KTlFKVdAYTdeaQuUvAze2Y6P9LRnT7a3WSFKkHykkKhUKh8BUoJykUCoXCV6CcpFAoFApfgXKSQqFQKHwFykkKhUKh8BUoJykUCoXCV6CcpFAoFApfQWrkJJk4aZyZH5zeyEknMqGSi4HyGE5dlAUL3Na80Wn2MUKfs0KhSChSIyfZ2k0WAOUce1aagU7Ep70YKKcusqq0PQPfbWK//Kow+pwVCkXCkRo5iYqSeo1WOXeKmpNZ+rdu3eJqobI2qFSaYS0Z6lBZ2E0VpQ19zgqFIqFIdZxETXf79m1ZF4dWOetyRrrA5QawP02aNFSssuKnFD3j2gfGWnhNLp5MkvkW9DkrFAoPkOo4CboM6o+KkhU2jVV2jJY4cP/993N5AtryUIgcCKEqhCblQnCBLhhHS+poh0Cfs0Kh8ACpjpOMayzdLvkso+g05Kklac5TUfJI6lPqRBZs5rkcF5GFc5JZNl+CPmeFQpFQpLq+ffny5YEDBz7zzDMvvPACtNvo0aMXL1585MiRr7/+ukGDBlwvh3qTYSWGmHjujRs3goODjbO4DvfzIk2bNn3kkUeSUzAfgz5nhULhAVIdJ50+fbpjx447d+6cMGFCixYtvv/++/79+7du3fqPP/5YunTp9u3bb926lSNHDq661qtXrylTphw/fvz27dvTp0/H9qFDh7A9f/78li1bLlmyJDQ0tF27dps2bfrtt9/wa/bs2ZNbPl+BPmeFQuEBUh0nPfbYY7C7ixUr1rZtW3x9+umnYX3v27fPuJb7fOuttwoUKAC1OHny5GbNml28eHH58uW1atXau3fviRMnoCihJd99991PPvkEtjwvmDZt2qpVqzZq1Chz5swe3xUH/+kQ+HKis8wfkgGeuyHG5/zrr7/C74mIiMBzLlSo0LRp08LCwvDoYnnOzNbDWf/617+qVKnSpEmTe3nOCoXCx5HqOImAuuSS1VwJlBtc8RNg4OjmzZv4LFq0aEhICA44d+7c/fffL0uR8pirV69KsjLDUPZsm/hAQljGNaRvnGF/HxzG5xPjAuHcE6e88pwho3GJBi6Hl4OHzCQI4+IbEM/dnjNnI4HG0qRJg0tx8EmHlBQKf0Wq69jQcUwvZtpx7ty5e/Xq1aFDBxr+VLgcV8+WLVumTJmyZMnSs2fPDBkyjBkzJl26dDgSahEu1Kefftq7d+/ffvsN+rFEiRLYnjVr1oMPPpjQ+5EVRTnsLzu9K7VXIEugMsMbzyoWQnJ7znny5MEjwtNLnz69rCOObR6ZM2fOWJ5z9+7dDxw4ABOhXLly2F64cCFeTZJJrVAokhKpjpOgSTkbho7RxIkTacIPGTKE1jf2Qy1i54wZM6Aux48fz504ZuzYsZz+ie1JkybJNfPly1e7dm0x/BN6P2QjXNkDNyspIUFF0gwf4N1E5nMmu/M5MwoHZ0hkfOedd3BNcAwOjvM54/S8efNWr1498QVVKBTJhtTISSwWIPpUBm+4Yddb407RxVSm+JXn2jNmgOeff/6bb75JqItDz+zFF1/87LPPJGrng0NKDMHh0VFYSF25cuWtW7feTV4pc8fgm3E9PT5YXKRixYpffPGFXZHhbs+ZF5GZs6RtnTOrUPgrUh0nQZdJsQC71qccIOqPJdqogkVdiisjupjuEb7u2rWL5QkSdD/8C9yGTUW+RkjG8Y0oOykBhBSLvDZXgc8oIIWVT3veknE9yejPmTaEFHogbSshKRT+ilTHSbTZofhASKL1hA9u374tjCWKT4JUohPlXKpO7IfaNfEY848ODs/I30l9Uq8J7D3gOUBApicwUTCWXAxG4XikPFI5hRRlrIds7vKcsUeIUFITFQqFvyLVcRJjRIyY0U8SQoLWk+JsVH92Uhx5iKfYhGRc6pKZe56NBjEtTUqOGp+s58ZHZI8kmVhzMchGPJLUYjuC2GPzmb2GRfTnbKyUP9/MSFQoFN5CquMkY0XG7EEjY9nscoCUvTFO2MpOQRaNeY/8Ed1j8DVCMs4zsW81zijl3Z4zYVOLPdsp+nM2VsrfPcmgUCh8HqmRkxQKhULhm1BOUigUCoWvQDlJoVAoFL4C5SSFQqFQ+AqUkxQKhULhK1BOUigUCoWvQDlJoVAoFL4C5STP8c8//0yePHnQoEFjxozp3r07Z9hMnTo1NDR09OjR3bp14zxcKT6U3Pd7r4hR3mnTpvXq1WvChAmdO3eWQk1+IKwidUKmz6N5h4WFDR48eNSoUT169DCuhj19+vR+/foNHTq0Z8+eftOvfQ3KSR6ChQbatm0LBoKafvvtt9GOc+XKde3aNbTUli1bomXfunWL5fX8oOHeTV6uINW8eXP8evv2bUgqlYQUihQHTuvmfPD27dv37du3f//+I0eOxNccOXKgtaOFoxfQIPODfu2DUE7yECzdliFDhj59+sB7YHmhs2fP3n///bCquBaq1HL1wboMCcXd5AUVhYSEYD+OYWUmo66SIsVCCo/hM126dPCKxo4de/78efx0/fp17O/SpUvGjBnpTmk7TwwoJ3kIcfAHDhw4ZcoULhHLlWrRjnnMjRs3goODubJDSqelWOSFLUnr8ubNm2nTpjVWQTyFImWB7ZylkP/3v/+hL8MCwwZXTIbF+fbbb0vZRuWkxIBykoeQgSK4CN27d58xYwbMKLTUrl27woxieVYQElutHzTcu8mLbZiT7KUkJHtVJIUixUHKz9/vQufOncePH8/2z5AAI3v2KmsKL0KfqYcQ7wf0M2TIkAkTJrClhoaGSn1rabJ+wEl3kxdOEqumsnR3ct+mQnFP4KpptlHVv3//mTNnXrt2DbYXOMk4q00yvucHXdvXoJzkOeg30Jjq3bv31KlTe/bsCSfJuKLSJCTfXDTWM8Qob/r06Y1LXiEkkV2hSHGQZcw4XARkypSpW7ducJVatWqVNWtW45Su92CxNEV8oLrDQ9hDRGjBcB1+++23AQMGcKes5gBO8g9Cil1e+zAlJEWKhk02bN59+vTZv38/s++kI6T0EWKfhaqPuGFH4bja6aZNmxYsWLBz585Tp07ReSf9MP3MM3Bw1bisMFynfPnynTp1evnll+2gWZx2mVsyhSyhy+tLqMGOOdjrFnK//NHt27eZSvfhhx8uWrTIB+X1CuL/fhO6sL0NymVU3hQr79q1a2P51XfkTelQTooDkkLGTDO0qg4dOnzzzTc9evSYMmVKvnz5jNOgvZVc9/fff0dERGzYsKFbt25o0/gXe6X2WGAHCXF8gAOykYgja6szj4jrFsqSu8Zaq5CE1KxZs19//bVz586+Jq9XkILer1eg8vq3vH4A5aQ4wGYqHkO7du2uXr26Z88e42rKaOiyYPm9GJW8VJALHJhp2rQpyKBevXodO3acM2cOZ6TKBKC7XcQ4lqD4PW7rjmOD9MMJRsZZhlw6jH0RfHbp0gVnfffddyQ2n5LXK0hB79crUHn9W14/gHJSHGDgC40JTWrr1q07duzYu3cvf4LKtlPO0Bw9ds+l/AFNNskXWL169VNPPbVx48YqVarE2aDF3TFOvIKz//irxO64hyEFelF2HE9WN8fGxx9/DDb69ttv2bF9TV6vIAW9X69A5fVvef0AyklxQGwoNKl58+aFhoZyMh11OpU+miCnf3vWoHGuTIngV6lcgu0ePXosXLiwRo0asSee4tfmzZsvXrz46NGjn3/+eZs2bcQfYiybbERvCT8ZF4fZ12SHHDJkSKtWrR566CF8XbBgAaw87KSkPiWvt5BS3q+3oPL6t7x+AOWkuCHjNLCzZs6cyZ2BLhiXkYVmbY/ZJBTsHjLSY+fpYQ8srAEDBpioyQjR8csvv3z//feDBw9u2LDhuXPnZs2atXv37tOnTxcqVOjmzZv58+dHb5w6derx48evXbs2e/bsYcOGnTx58vLly4sWLWrbti26zahRo+rXrw8+O3jw4PTp07NmzfrVV1+Fh4f7prxeRIp4v16Eymv8Wt6UDn1AcQAtSaYsRERE5MyZk/4ETS2WWGVr9swIYlN2i2hzYJYGV548ec6cOWPiSrN+6qmnnn322bfffhusc/v2bVyqZs2axYoVGz9+/OTJk+HuXLp0acmSJdWqVQMP/fnnn4cPHwYbzZ0797PPPgNp4eZv3LiRKVOm1157DazGeRhnz5598MEHxbXyKXm9hZTyfr0Flde/5fUD6DOKA2yp1MtozXTw2bxs44hpoB7k7dgzmaRXsIlLghwhkbcYr8PUatwbx1px4gMPPICvGTNmxInXr1/HX4Cihg4diouAluw6QMy+AycZZ8YrwxoMi9OE9DV5vYWU8n69BZXXv+X1AygnxQtuNYADo02au8cs0hhtNLeZE7FPv8UBefPm7dGjR+fOnclPjJKzv2E7W7Zs8H7gMMFUHDJkCDgJR6KXtmjRYsuWLSEhIbt378Z1SpYsiYvMmzcPBzN9Vu7Ep+T1Lnz//XoXKq/xa3lTNJST/ARo8WPGjGG4oF+/ftLHOPl80aJFYKZJkyaJpYZtBjGwf8KECcZJ1atVq1adOnWMlRQe6Bd1zRUKRYqAcpKfgGQjiXZSwUEsxMCoM8klEZYHS7BbGIjGnRKSQqFISign+Qk4pkqmkVlK3ClLwtArYuBb4uDG5WPReeJEDfGNhLSUlhQKRdJAOclPIPk/dnUvzkMyTuarUIuwjnH8JB4JQuLpnN/uNp6kUCgUiQ3lJD8BKETCd8aZACvkxBVg5Rj7LJY8oUvE/DpZLpaQOYAKhUKR2FBO8hNI2M24mIZJ4fwEzYBjbt26lSZNGonmGSfXCIQktR4Y5cPB9JwC/GjxJ4VCkSKgnOQnkLCbcUJzICSOIRmXrwNCMtYUQm7zSHv0SMCvdj5rEkukUChSIZSTPISMzbiVPZWfou831kAOJ6uSFTgIxImukoNgj/3YNVKFVCIiImbPnt2zZ0/jMIf8i7COuDgyQ8LmJHvChE1UvJo92hS9SGt0/8nteDstQipB2Ks03e15xl9er0Aei6R72CmLclf0Mo2VFSL3LI9C6p657bcfgomWXp9y5ZU99m3b+0U6z9qzD8pLSIFje6qstGo14O4RykmeI9JVoF4S1dz0O1rt33//zeKP9rw5YxFAgLO4EQlJSjBI+RNW4mI3Zr0snHvz5s0hQ4aMHz8+Xbp0vXr1MlFpzw2M6ck/so8FWCUj3cA7tDks+tQ/Y7Gd/LtwLStB8CsdNR7MbkwR7D4vN+YVeROKu8lrV4nGBhWWm51BGRkOjXRKsPMnycI3jm8a5KylLYSUouXFJ5sW71lmFLBpyTil37xfNloRVoQyUVd7UUK6dygneQh2QmmIzAugujdOH5CS9WzZ8hnoFH8kA5GTjMVVvKy91B7bOvr5yJEjJ06ciO3MmTMPHjyYnSSWDox7uHHjBrqczE+Ks9yklAKzTdoYexoHq2wfizdDnSW9V7p0gLWwU3Re9Iq8HiBGeY21tqHcs5vZwRPtY6TIpvgEQdaaVW6uaoqW17ialjgK0rT4EHBlWZqB1JXS5ZWXaJyQAJ0/mdjnRR5N5dCH6CHsGBeaMhPV2rdvP2/ePB7A3kWWwgHNmzdfuHDh/PnzP/nkkyNHjjz77LNTp06VYI6JGvqjaqPWJn9cuXJl9OjRkyZNQkdCTzau3ITu3buLFojF7wkODraPkXjL3USzu1Zk1GLGEgbhpcDEBQoU+Oabb4oWLdqhQ4dp06ZhP3QQ7s2u3IqNCRMm7Nu37+LFi2vXrnW7vu2H3bu8HuBu8oqktlcn9ynv64MPPsBD2LhxY/369YsUKcLr8J3ibjt37oztmTNnMmfEjaRTtLzNmjXDBpsEbhuf3bp1u3r1at68eUeNGsUrsK6VBMRSrrwbNmxo0aJF/vz5JeKNA9DmIQheOvw8e16g4l6gT9BDiG149OhR2HfFixdHw/36669BPGijy5YtO3/+PHR03759cQwY6Pvvv+/fv/+IESNeeeWVWbNmYQMEFula9GjYsGFPPvnk6dOncS6DGxLFlmB9u3bt1q9fH+CqlMrWHxERwaVfwAGxcMyLL76Iu6I1xxCTiTVeb1+HvGgvsyT8YVx9GNrktddeA99A516+fBk31qpVKyiXHDlyQChICsH//PPP8PDwkJAQnPXmm2+iD2fNmlWu40bt9y5vQhGLvDSNqRxBqNBNPXr0qFKlCp5n06ZNoYZatmz53HPPPfbYY5kyZdq0adMff/wBPbt06dKTJ0/ixClTpmzbtq1EiRI//vijra34Zr31fpNLXujo/fv3o4UvWrTozJkz165dmzFjBr7ibuvWrQvpJCBGpPT3+9FHH1HeJUuWnDhxggu+0ACtVKmSRKdN1Ii0wgMoJ3kOlkU4e/YsmiwsJqjajz/+GMbU4cOHs2TJ8tdffx06dAhdDm03Y8aMW7duHTNmDDskjWgodHRjXASnw2DENjoD2rdxZhcZJwyCvo2LgPPCwsLg9OCa6AO45oULF2Qk4259WOjHbcLs3Y6n7pBz7eEfN2bi1bJnz54rV67vvvsONwwtU758ebAsPAZwT7Zs2cBMc+bM+emnn1566SWQbvr06UlI/zgLsdOPFNvz3uVNKGKRl7mIvFUopj179nz22Wf431OnTmXIkAH7n3/++bFjx06cOBGnVK5cuVGjRjh+1apVr7/++m+//Xbp0iVs46Xv2rVL/kIGzFO6vDVq1GjYsCE23nvvvWrVqt26dQtq+vPPP4e9hUdB+rFzBFK6vJARfiGOXLFiRfXq1XGr8AjRnrds2fLqq68GWjPQlZDuEcpJnoNdrkyZMlC+6J+wHDnIP3ny5H79+sHsArWAeNDZjBVMxx6Gs7CBpm9cAXd0ABlyYFeRonPYRocHyY0fPx62Gxys6dOnYw+UPtQ9TDk7aTuW+6R24EYsazzLUDyVggztxjhLiaH/Xr16tW7dGhswdTm3CSzLUW4meuC/0IfxTKZOnSpjKryCuEpelDdBuJu8xqEN/hHsd7wsGBYDBgwYNGgQrGk5AG9fKBaHFSxYEJJC8G+//fb69etvv/329u3bjxw5gv0yYiH6K+XKy6tBkKeeemr48OG8Wp06dcDH4KS2bdui2UvLkbSalCsv7pB3XqhQoYEDB/In0BjssPDw8OjphQqPoZzkISS9Cs7NunXr8uXL98ADD1y8eHHBggUvvPDCyJEjjx49+sQTT0BHs5miE0I9DR06FK1fugGj22fOnEFXRHNv3769hKpjXG0FRiXsbnQbmG/o0l27dm3Xrp2JK1wgo7tBzspjsa/xLF6RWJRutxFpJRfhp3Tp0sGKhP0IfQQRtm3bBqsTJuTJkyfhNYKTOnbsCM6GRD179uzRo0exYsU4/ECL2NZcXpE3oYhFXlk/Hts1a9acO3duxYoV33rrLZgdkA6C4yea+VDNISEh8+bNg9eIDYj/zjvvLF68GNY03iwISe7Zzh1PufKibYN6oY7h+Hbu3BlWCFR5t27dcMGiRYvSDhPTxw/kLVeuHO5t0aJFuXPnhhEGVw/3/Nprr4G9OnTogJunfemW6K/wAMpJHkKKnFZwgTs3b97MjQYNGnBDfkIr58YjjzzCEeClS5fyCkWKFIHy4q9szXJxEzUJmw0dHX7YsGHoyehCJuo02LvBPiA+FqgMR9v0IxtyNZiQYWFh2GjmAjaWLVvGn3Ai5EIf5te1a9e63STtSm7b4Sw3ebFBefv37z9//nyTOPH6GOU1zlvm39VyARuwPPAJ6WAvYwOMy4Nr165tXIuA2FfGzc+aNcuYGCaNpXR533jjDXyyARCS4EO4mT5ebM/JIi9MLnxyYRfi1KlTbn9kX1DhGZSTkh8gJJniEBh1jmqMYAgIRhzs00hn1m2S3W38kVC5YoQYtvA8RF4/7vOpTV6TctqzImmgnJTMCIhaguFuUSyBVLG73wVjLUiRZPccHyRUrruBs1vskrKyRpTX79kXkNrkTSntWZFkUE5KZsi0O5l1GHuHZOIse+/t27eDXIXAvTUg7EUkVK67gZUCKC9nGTObIBFu2SeQ2uRNKe1ZkWRQTkpmMBGOAa54qm8OyUa6qhYZ1zitDxqVHsh1N0j9C5YDiCVp0D+QCuU1Pt+eFUkG5aRkhqSlMgWc1XpiJySWAGfiKSM83prM4UUkVK5YrkNT2rhkv88F79+uzyC1yZtS2rMiyeDPzT1FgPnQkvxtZ6PFCJmEyNxuGtE+GOtIqFx3Q5BTJ5Cn+73TkNrkTSntWZFkUE5KZnAWrcwTDLKqR9/tFFu/c3at8b30Uw/kuhvc5LWn4vslUrm8vtmeFUkG5aS4IXaczG+Irl4j46ojF8vFpYIyL+g2IZx/ZyfIunVXr/deb8kbo1x3G1KKRV63f/H6YENiv1+V18Qqb0ppz7FcPPr+WORVxA7lpLhBG58hfjvUYKKVFvZgDF+Od5vQJx1GKkx7Nr/HA6i8Kq/KG/+Lc8N35E3pUE6KG5GuCkB25hjLCXMIWlpzoLWsnwd/YaJZiMwLCIh1ycvEgMqr8qq8Cf0L4zPypnQoJ8UNWUw2S5Ysp0+fzp07t1sFEVnjy7Prx2hAySSVs2fPZs2aNdC1LpEsEpioUHlVXqPyxhu+Jm9Kh3JS3JAZNuXLl//kk09atWqFRsyGLm0xyKn37NkYvmxLgWHmXwHr169/+eWX0cSTrEGrvCqvyht/+Jq8KR3KSXHg1q1badKkYZNt06ZNSEhIixYt0HBlAN8466Df4zCmm/vPMDcw0QWmyQa5lqW5N4HigMqr8qq8HsBH5PUDKCfFAa6VSQOqatWqH374YePGjZcvX25c9pHUGPWK4y8bnNaDRty0adOKFStWqVJFQgGJDZVX5VV54w9fk9cPoJwUB2j+MACN7ZkzZ3bs2PHJJ5/s06cPWluBAgWM0y69ZQHdvn372rVra9euxX+VKVMmPDxcLp4EqTsqr8qr8t4LkldeP4ByUtxwm1UzderULVu2zJ49u3///qdOnQpwVk0NdBZoudt1Ap3Fvhh0lhkSMsTKc2FPpUuX7qWXXho9evRrr70W4MxVSrIG7S15Y0Sgs0q0j8s7d+7ckJCQixcvyiuTe2Z9Ctlpy8KUX5n1Kc+Hp8jBOXPmfP7551VelVcRHcpJccCeuMDGDR366quvwh+3A8RscLHkemL/zZs3ZZyTx8sylxwXNdYoq1yKx5ikMrK8JW8sSCnyshio3IOU+XHL6+WIhS0dJeLxkc7K7iZqrrDKq/IqYoRyUhxg25JYsIyFsqmxkUkl41gUtNSaZKCZzZSn2y1VjC9aZNKymcOTBAOk3pI3FqQIeY0T8CET455FAbmdC4VlG878ZFqXcQYtpI4qfvr77785V0blVXkV0aGcFAeENmSZNTYvsX2MFa2OxQ6ijcaax2z90pQDnCnl8l8BzuLQPIA1tpOmPrS35I3zL3xcXrGU+bKoyPgGeSKVjrEMYfuFUvtwASS+dFrTka4VGUjDKq/Kq4gOfUxxwG67ssc4E79FsUbGlUtKV8C4hkBhebG92lEsE1XLk7QYK5PLJsE8cG/Jeze4yeiz8hon3Jo2bVrbsuYeKh0eKbpGopEck8CnLIDkNkmT+kvlVXkV0aGcFDds5UtdzEZprMHPANcsudivw8C0HQqwfXk3n8P+lWs9BN5D7ZMEwVvyxggR08fl5f1APcmYH51F7LE1CywMTr3EBgxkO4wjl5VRCuOkeFA6lVflVUSHclLcYP38SKdWIxsW25mJqltjWe0GTZnT9KQKVoxz6CT/R0Zl7R6VNKvpeEXeeMKX5WUxGFm+nW6icdnXorYYqMHpfLmyWJSJWhpAjreHvlVelVcRHcpJcUAamTRBRtv41Y4j2/GB6OBKmsaxqvDVPliiWEJR0SMGHIZNHCn/f3hL3tiRIuSlbjp+/PiAAQOCg4MfeuihEiVKQJHVr18fPzVp0mTRokWdOnUKDQ1t27ZtkSJFcAxn7PPKoumwffny5YEDB2bIkGHs2LHGWfBQ5VV5FdGhnBQH2ARFdbq5NW6KNXbYwyduA56xJ0fE/y/uHV6UNxakCHn5vqBrwsLCcuXKhSNXrlx5x5mzcv36dWio2rVrFypUKGvWrDNmzKC9jJ9+/fXXhQsXQmcVKFCgZ8+e/ItevXpNnToVx0jWosqr8iqiQzlJoYgBsgj3mTNncufOzejiAw88gM9IZ27Wpk2bunfvjoPPnz8fEhICK7t58+b4+vjjj48fPz7IlUDPgfRs2bJdvXqVhohv5l+pvP4tbwqCPj6FIgZAYXFYO3PmzFBb2bNnh6kL7QNVxSGEtGnTtm3bdty4cYMHD8YxsKkZ0gRgR8+dOxe6Ccquf//+zOPCpWgy28vq+A5UXv+WNwVBOUmhiBn/+te/oKGGDh3aokWL/PnzFyhQoFSpUpMmTfryyy979+4NpVOrVq0vvvhi586d169fh/5Knz49fsUp//73v2fMmMHBcNrjBw8eHDVq1N69e1euXNmgQYPklixmqLz+LW9KgXKSQhEDaCwHBQUVL1588+bNAa7p+tjPGs8whFetWgV9NHny5Bs3bmzZssU4ecYsfSYTVjiQUKhQoUWLFhln+qQPTulXef1b3hQE5SSFIgYwLZjpUtyQcQJuyLKhwcHBxqqoRoUlU6SZbxnkWuHNOGPdkQksXJsEUHn9W94UBOUkhSIGSLkK2+ClPuInIz+SIk+tBMuaE1lu3brFYQYcyQo0trbywbmTKq/xa3lTEJSTFIoYQBUTELX2uVt9Qts6llpnxmVTQ2HJ6dBuUvzCOGrL18bAVV7j1/KmICgnKeILe36V2/R1gYTa71jL0nCGvEwTdlsUIHmD73a1GLuKs+isQGvVKxFZgjMSwzEu61hK1NgX5EPgkbYSdFNkAc5COyqvypuaoZykiBckjM4RYOm9drhDQvDSLQOtlWYApslKWXQWfeE0w+Sa1XGfs3SIXasi0FprUVYlILO62c74SqnxlfUMpUQN9nO+i+hBOUCu4EbqSaCwVF7/ltcPoJykiBeEeMhMNBjRx7ifHU9WLMRX8hD7pHhOsse4Joiw4p9J7mmGpEapS8YcX9q8AISC9iENB0RdvY2flBrPxF75zbhKpXEGDJUazsUBtJfF3QxySsVTuwV4bwVulTfVypvSoZykiBckQ0lGcYOcdaBlkRjOKIQKkKU5Za47KYqdnxeUUF7yBjQkbuO2Ro6xYpXCtRJ1lPq5kJRjDDJfktUBjOuBsIKn2+Jv9pMU69sk1cC4yuvf8voBlJMU8UKgs4iZW3QO/dDOUDKufotOKL2aKoCEZJ8rjlektRxncsnlJh30CJcK5XQTWtD/uJbNprUrmovqhjzNA3jZO9bivMZRhVRYgc4yVNRcYn3TmlZ5Vd5UDuUkRbxAC1GWb5f9bkai2J7svfzKTw4jmai1wO1R4mSEPaaFDeoRifaIayh7bty40alTp4ULFxpreUN+2tkc9zmra+Mrp2S6ZXbxFKhIPEYorCRby0Dl9W95UzSUkxTxgvSlY8eOhYaGpk+f/rHHHitevPjNmzcbNWqE7teqVat33323Y8eO/fr1a926NX7FMWFhYTI5UexHfF64cKF///5Zs2YdPny48Y2wBgcYYEqTO+10KcmYomrDZ3BwMJODA5wl7WlE87DNmze//fbbu3btOnHixJIlS955551hw4bhuUHTvfbaay1atKhQoUKxYsVOnTr13nvvpUuXjioyie1olde/5U25UE5SxBe0+4YMGTJ58uT8+fNjz8qVK8V+jIiIGD16dP369fPlyweymTVrlnT7X3/9df78+djATyEhIXSqevXqNXPmzGQfUpKEXXtoAXx57dq155577ssvv8yePfvu3bvBvufPn2/evPnzzz8PDs6QIcPx48fJr/v27QMZ4yw8E0iHPTCHn3nmmdmzZ9eoUQNy7dmz58qVK/PmzYNee+ONN+rVq5crV64ZM2ZAr+HK5cqVk2wRlVflVehjUsQLtBnBPWfOnCEhcSyXA7n4hJG4Y8eOAQMGoGfCDerZs+fTTz/drFkz/PrEE0+AxoyTfQug0zInwk5zShZIqpUYy5cuXbp48SI0Dr5+9NFHc+bMmTt3bo4cOcqXLz9q1ChQb+XKldu2bVu7dm2e9dRTT02ZMsU4tc7IuNWqVVu9enXZsmVxkYMHD+JRUC2ClXH906dP4/lAG5YuXZoPkFa5yqvyKpSTFPGCpLfCBzpx4gT6MNeN/vvvv5mkkD59ehiJYWFhffr0yZw5M0iInRCfP//884IFC9AtCxQo0LdvX+MKwTO+7zb4nCzAPciaodjAzQQ49Z55/7CaM2bMaFyciv2ZMmVizhXjPPAC4fDhsEcffRSyc7ABv/bo0WPChAlPPvkkKHz58uVNmjQBo589exZXw9PD87l9+7ad4pFk04dVXv+WN6VDOUkRL0hsvVevXl26dAHrPPLII3CA5s+f/9lnn/Xu3Ru9rlGjRt27d4e3dP369RYtWqBvw8DEibAi0XVlRAq9+tixY+PHj//222+XLVvWuHHjZCQkO0Xq5s2badOmpQ8HQZ555hmWMsMNk0Sx/dJLL7Vu3Xrfvn2QkUMUxYoVCw8PD3QWIaXXiO3nnnsO/I2vzz777Nq1a5s2bYpTmjdvjseSJk0aXE0GvWWkXYhf5VV5Uy2UkxTxgsTu0BXXrVtnnEEg+EY8YMmSJfgECaG7gqUY1mPIgrNlZYwXFylUqNC0adNkqkcy1nHgfXIQm0XMsDF37lwGfFq1aoXPt956i/fJlI3333/fvmG79gw33nzzTeMa0541axb3jBkzhlfATnwuXbqU+5mvxUtFRq0HqvKqvKkTykmKeCHQKgUmoQ98YluykqTykHH1QLsTQgWQkHgiLVb+lOwJsgHOagVUOvzKO2f0JsCZIxngzMOXYhai7ziXRSZasfCMsaxjKkGp12mciKXYzkmmsFRe/5Y3pUM5SRFfSNTCngnLn9BR6QZxJiz3MIDOKfSMe7DKg3HVZWH3JiH5QikHGQO3b8ae8+8WgYmMWp3Tnukic/uplWgpR4/b8BjGjvCnSRbAVHn9W96UDuUkRXzB0V2ZJ0jWEecJNCOTPAKdtWTECJUgBi1TUQoyzpxcQpEUaQ4bq9Qs57JAj0g5Gfsnu/azzKC8ceNGcHCwlKYNcNVSM47is71M/hGJHNa3aMYkyPVQef1bXj+AcpIivpC5RHaRlaCoBfylLgPpivajuFB3Yqrzb18tWYRyW0FHvjIOI1MsqbACnTUORPvIY+GCpEFOQXS6lXKKW9iTzwEKS54VPpNAYam8/i2vH0A5SREzxGCUXmpnbxtroqs4Q/IT/R52cuOK1LklHTF2z8vejZC8m6cUaVU5covh0KTldCuOKNgH23ci98Mj7eFr+3jjxDllpMG+pu0USr1OPsNIpxpN9LMS+igSW95AZ8kGuX8JkRlnKo8oa2MVSLRv7060NR3sa/qUvPZ/8W6jF2nkKVLakZcNjLYUi9uwq2fv14+hnKRwh91PpNdJL6IZyBJexsllMFGX7JQea4dE5ArGSmGylYh8lcCgF4USd03+S7QAdkrxZhnfsmM4bvqXT0MG1eSCQjDUyCKj/B2vxsURGC+ynxJNdRljC3QmWnr2HJJA3khrISIZfeFDENkpl7HcCB5j+yvGGo+UB5jQclOJLa+8I2mZbu9FlsAwVhFIqeDAx8KhVskO578kY+DaN6GcpHAH+6r0zxs3bqA/BzlVkNmlpV4ymQZdHb3LtoiDnKrh/FUCIMayqW0+M449a5z8COPtHHGJuvCPqDKoTBljISsYS93YupUiSByS+yUyw/koFNDWpwFOirDoOBkhl4wP5srLE3DT+L4sL7Wq232K+g60CupgD+WV9y4xXuOs+8Aj7eQC35GXsvDObSuK1pttb7kNGkVaJVztt2ws080DYf0YykmKKIh0aiQbp38yjM5eJylG7OE0eGXJMrfcJP4qvd3WXBK3sQ1GmpNypD345BWIro8x2yrQme0vkRk7EiU8Kka3RDJlXqTNoELSfA6icGWEXDSRaDcJ+NgJYKIEPYjtJIu8gU4utdyGrOMg2xKflDCaJFgzedqzPMxElZclHoRlA53FZNlKpRfQ4OApbv1CINzGPsXUiYQK68dQTlJEgfRe9Bb2MZKKm+0vARlRuC1btly8eLE9CyTAma5onBX/uM2+KlxlXL3U7uHsxpwC4q04u62PxPiVbd4SDwh01sCmihSJjJOFNXbs2ObNmxcoUMAtyVgkxTaOSZ8+fffu3YVXJLZDGe3xcOMsQ8Xnhv/9+OOPl7tgHMXty/Li+HHjxqVLl65bt26Bzip24qPYrpK8XFK1DLd89NFHq1evRvsxnjrHSSCveD/4OnLkyLRp07KgsLH8PK6kzrwJ+s1uzhC3P/zwQ7zcFStWYA8IKRnnjPsg9EEoosBOT6DSlNFa2+77x6lHSeOUZcSM5QzZow5r164dNGjQvn37/vjjj0WLFr3zzjvDhw8/evTolStXatas+eabb+KzSJEif/3116pVq6R7uy01fY+w86+w8fLLLxctWvTixYtQo2XKlNm2bdt7772HnzJnzjxt2jRjkYQIQq3HCb9SgYIE07p163nz5sk4OZ8b5Przzz+HDRsGMZs2bVqrVq1Ro0aBbL744gvjxPQmT568f//+EydObN68GV9//fXXSpUqYc/rr78OtWWsYRJflte4XBzoccjbt29fyNu+fXv8y9ChQyFamzZt8H7pE+zZswd6vHPnzhAQckGzg8DwZGrUqLFhwwbJifBARye2vHPnzhVfiiTXtm1bSD1lypR169bt2LHjwoULlStXfuaZZyAaNmhqrFy58rPPPrt8+fLs2bPR4CdOnIj9jRo1wjF84+RvDd/ZUE5SRIE92iwkNHDgwGvXrpUuXfrrr7/OmjXrTz/9hH5+4MCBnj17lixZEgo3e/bs586dM66OfejQoRkzZqDf5s2bNzQ0FNfBRV544YXp06e/9tpr2P+f//zn1KlT8+fPx/FVqlRp0qQJrolTwFs7d+6EUjZOX/WiXHYEBveTLVs23A+0T/Xq1UESMI23bt0K+hwxYsSXX3754osvQhOBQs6cOYMH0qJFCyg4nA4Fh1N+/PHHTp06wajHc8ApuP9vvvkGjwi6FToIp8yaNYu+0UMPPQRd9u2334JgICmu88svv4gCwuPt1asXvjZo0ADaE88Q6rJhw4bQdPgXe4jeg1GHxJZ3wIABderUgbx4lSyxg5/gW8D2h/GB/6pdu/bUqVOxjWPASWxXmTJlAkXhmmgGS5Ys+f333zNkyABHgcM/MlXIYz8p8eQdMmQIiBP3fOnSJbxT/AWOBKvVq1fvu+++oy9VqFAhUF3+/PmF7XARcA9oaenSpZAUzwRP4PDhwxyyxcW5IrMu9GdDOUnhDukhjN2BjWDoUe9s2rQJ5IGeliNHDvTbCRMmgIpg9KFXv/HGGxzEfvzxx8PDw43Ldmbfi4iIqFat2rJly55//nl8hZ4qW7ascdmzdI9OnjzZvXt36BEQErW55FB4K3bHcAoHDDgpyrjCJqBDKKZHH32U/s2TTz558ODBChUq4OD+/fvbaWCgjRs3bsA/6Nq1K/bjFLg1n3/+OSxlEDMUHE5Mmzbt9evX9+7dK2MkMI1hoYNs8L958uQB12InTObx48eXK1cODIR/x8EgJDzVxo0br1+/HnoNN8ZMAVrlHtjRiS3v6NGjYXyIvMYaHAItvfXWW9gzadIkEBIaw7Fjx8aNGwc7BuYLXBboZRz522+/4aFBcLhN8J6N4+sYj9Z4TGx54dyjoeJujx8/DhJiXQZc5OGHH2aUEj0CgsNHxEtEHxkzZgzsMBbQyp07N4ytZs2agcVBzPAIZTzVeJT47t9QTlK4w54ZQ+uVNp1x9fxA1yqc9zsLmTMGwk+Onfz8889QMdjIlSsXXB/0dpLc4MGDhw8fXrx48UceeWT16tXGpXr++OMP9FgcySVqjDVYZbzdXWV4QEQDQ4AvoWigNKmYYCODYnnksGHDzp8/jxNh2kOXiRqiOFC4a9asgZlsHHU8efJkaK61a9fiafzjLHbQu3dvnA4XCrr4jlNgBv4EDsZ1QPZ9+/YF3+On77//Hob5jh070qdPj+sYRzV7TMyJKq9xBR5xn9j5PxfYDEDAUNOgW5wIL7lDhw4wVqDZwcqSYseNdOnSXbhwAc40szTdosG+Ji/HzNCG161bR0tLUv+Nk7aHr+ga4CE8gZkzZ+Ir7DAcdvr0abRw/B28JRhbaBIsWBxgTYFSCPRxKNwh4wSslIoujW7Trl072LlS25+Rd3Tgl19+uW3btv/5z3+gXtnBSpUqBbuS49jGpSkAXOeJJ56A0YpujwNAWq1atYK+aNSoEfYkzZrQMmuSrlvr1q1htJI1YcPyTnbv3l2xYkWqxbfffptxFU4rwXPA54ABA0C6OBK8AkP78OHD+BWKtU+fPrC+R4wYsX//fniKOAAOBCxrmMz4F9jO+PeQkJBffvkFFnS/fv349PC/+HfQUvv27aEE8fSgx7EtxHwvrJyo8vbs2RNe79ChQ+Hu4Jp4vyCAAwcOQPPC2YXgUP1cQ6hly5ZS23Dz5s3gbPxdvnz5GjRoAO0M57hXr16SIBcYbYapj8iL98IRMvi4RYsWJUuhO0AEuImwqEDDc+bMQZfp1KkTSREn4iGA8GivbNy4ERfHiZUrV5Z7ZnbPPSb9+xmUkxRRIGlI/1i1/WH0sfein+MARmaACRMm4HP58uWSVkuIRcxs2rp163L/7NmzjcvwDw8Pt+emMMEsUSF1z4xrSuPHH38s1jS5gWuyQcu8//77MvvSLpWGK4Bg5CmNHTsWv44cORJSgGaY6AV/iFFHuDuwkaHUpk+fTrsbv4aFhY0fP54jK8wVZiKDnX2Hy+KWYIxfvXpVhtlt39F35MWReLP0/L7++mvYGeDaI0eOSMI3vAHJsjMu/VuzZk2uF87LgqLYctavXw8KN654r2cD/oktL5Md2PJx5M6dOykv/D9pyaVLl+bAGC+C4zu6QBewiQu8ON4vLsLbYI6rpjkIlJMUMcCeMytzL2RGJ10f40xD4QRJjh5JYRVjzcOQHCdRE5I9EWDN+U9U8MaYwexWB1ZCKLgf3Cd8GkZmqHaFpIVaGF8CRFLZpjeAz4EDB8r/ykwXEZZ+ISifQVG5svgHsK+59raJGsz0NXk5FwfHwx3hxSkFz5LUjACn4Ok/Tnl47pQUO3A56EraiQdIbHkDrUncOBJsFGAt/SXJ8ZKVGhm16quxWBNH1qlTByLzL2SqtYJQTlJEQaBVwk5msMo60AFOcTPp8KJrJNdI1IoUzrGTbtnnmT3BQE2gVe4s8SB3aKzpUAzacM6jTFk1zkCO0Mwdp1CsKClyrRwv20IwnF9JGeXi/HcuOsUHJcMnkVGnylKx8mryGH1K3vuc9UfcahMEWqXixQ8OclVUsmcCAREREenSpeOdkLNlUrYH6e+JLa9xRpXotkY6M5rF8OJfuyWyyxQoeZUSXeQLxa9eTzFN6VBOUrhDTD/2H9IG1aKU95cZ+9KHjTUabztA1FxSWCXIqopGvyppyqvYakgWJLRzcGXKqm1TCyuLsHLnVEmcvxXgzNGx1y2UK/NSfCZCWsZa3UAeILU2CxFRRZqoNRF8TV5exO3KlCLAKtob6VQj5QEs9wdCkodzxylAxwM8GF9MAnklVd2OIgixkZUjrSoS9jxoMfWEFOmiYQ8IyYv5pX4A5SRFFNxxCgKxa7kV7yJX3e8seiQDHqIRZHVzuZrErBjxY/+PtIq52YV2EhXUEf84S2PIrP4Aq540f5UyfcZaquCOVV1U1JMs6WZcmtQucMBT7rPKqhqn5BLjn7ZNLUcaSyPLxT2j7USVl36eLa+IZoci3YiB9o1tx7g1BrFjfFBeWgl2TRMeYJfIC3AKjdvDpXzRbPkkRZom3PbACfZvKCcpooDqUkLkUsRBNIixhoXs2SSS/WynEsngEzuemJDiLQU6E0oSO/WIBqydwRHo1KOTYzjdUkxdHiBVuuUOqZ5Em9jV1ewhCmFfHuPmdwZGXXRHmCnQqikgBoEHCjqx5bW5RNqDzSgySGO/XF5BopFCFbKTN+yD8hLiSMmwU6SrhpCxQgVihEW6CkpJSNNuDMZZh+w+p3pkYrf/FATlJIU7hE74NSBaUrJs27qD29Lb3a5mYkprlp+SoEOKAcuv4qMEOCnvxgrvcISAasUe5hHlK/6NDNfLbJVIq6y16Br7dA50C4EFWiv9yJAbbXwZh+Of+qa8tj7ltj3oIrpY5LVloVK2aSPIWujIp+Q1VmDARDWqjPOObJKOtBZZtn0mu+KfuGjqJ9lQTlKkCtjGu70SKFQDFZYoDtFlkVYysa1MxdT9x6otbZ9rr9Bxx1pbiB4S7yfQKTgt0Tm5bJCzkMH/nKWnPOBslde/5fVjKCcpUgVEazALy7g0l0ROZIyHPoqb6SpDEUFOMel/nHWDPv7441u3brGe2/Xr1/v379+4ceOwsLCFCxemT59eQjdMl2d9zwceeID/RTNZIk4M+v300089evTYvn37Had8eJC1Gp7Kq/L6PZSTFKkFMgEowFUw6caNG+XLly9TpkzGjBnHjx8PvdCgQYPq1atzwr9xxr2DnPUOApzkXWPNGcIFObmV4woRERHQXG+88QYUVvPmzW/fvl2wYMGRI0cOGjQI2gr/OHfuXN4MzgoJCQkODp46deqJEyeg7NKlS1euXDmc9dhjj1Eh3nEWqfLMjlZ5/Vtef4VykiK1IMha2JQRmLJly86aNat27drQOIcPHy5RosQnn3wCrcHj169fv23bNli7UCV16tTBHljHe/fuheqZOXPme++9hwOuXbvWtGnTgwcP9u3b98EHH7zPWYcXF8TB+HzllVdOnjwJRRYeHg7F9Msvv5QsWRIHQLsNHDhw+vTpxlXOAOqS82Tx7zLgJGMSnuWhqbz+La+/QjlJkVpgL8FOy/frr79u1qwZ86ZWrFhRv379U6dOHTt27KGHHoKagJ6qWbNmgDO5BGcVLlz40KFDrKa6bt26999/H2rr8uXLc+bMgUrCYSNGjGCSgnHZ2l988QV0Fq6ZL1++v//+G5e9cuVK7969YTIPGzYMWpIT/mG8jx49eseOHdBu1HeSVW+izf5ReVVe/4ZykiK1QMalZbz6xRdfhEUcEhLyzTffbNq0CQrl3LlzixYtGjBgAA6GSoJ6wsE4rF69etBB48aNg5Lav39/oLP0NS7CkmXYkylTJmxIDvGvv/66evVqXB9K8MSJE//617+OHz9euXLlsWPHcowhffr0LMiUN2/eiRMnwiQ/evSohIkk/cxjC1rl9W95/RXKSYpUBJm4CsCY3b59e7t27aAsoGtgMvfr1w+GbY0aNTgs8eabb7J6bKQz9aRIkSKhoaFQPTisSpUqXbt2xbmVKlVq0aIFFF/BggWDXEV08Hnz5s2qVau+/PLLbdq0mTx5MnRTjx49oNdwDC/1+++/jxkzZt++fcuXLy9VqtSUKVNOnz49ZMgQ3qdbCrLKq/KmHignKVILJLWJ9mmGDBlg6sqvFStWNK4xCS5K7Xa8cWX3wo6W46Hs7IsvXbqUCVQ7duyA+Qxl98cff4gJzILo9p089thjCxYskD0ceAD27NnDJQHl3z0eAFd5/Vtef4VykkLhBch0kxdeeOH5558XEzihOb5PPfXUrl275Osda31FL9/xvUHlNX4tbzJCOUmh8A7swnRSMM2D67B+WqRVM803FZbK69/yJheUkxQK78AuXMusKrcKtvFBpFM/LcCpmSZJw4lxz/cClde/5U0uKCcpFN7Bfc5SQFyukOPhCb1IgLPgIbZv3LgRHBzss5NXVF7/lje5oJykUHgBDOZ4vEyqDSosqCooLE5nufdreh0qr8dIEfImI5STFAovAAqL9q9dGzvSqhEeT8gK2VJyzTejOiqvf8ubjFBOUii8AGgoUVgydu1BTIYKKyDqgvE+WBJN5TV+LW8yQjlJofACAq1Fp+xPD2BnYd3jpRIPKq9/y5uMUE5SKBQKha9AOUmhUCgUvgLlJIVCoVD4CpSTFAqFQuErUE5SKBQKha9AOUmhUCgUvgLlJIVCoVD4CpKNk6Q8u9uG/el2MAtD2dv8lMWDpUgi56BJhUQuGZk0kwB4S7yBsLCwwYMHjxo1qkePHvx16tSpgwYNws6QkBCj9YAVCoUiKpLZT7KXDwHILqQQbJNRopOQsZYzsVez51f8hGviV5yOT1zNK1Wq4gneHmtYtW/fvm/fvv379x85ciS+Zs2a9ebNm2DKTp06KRspFApFdCQbJ7m5QSAbMArZxa1uB44kS/En0pIbIfErfsJXbOMwOkw4khtyQGKX4MVfQBz8F1df7tev39ixY8+fP29cZYAhCzwk7Ld9vkS9H4VCoUhBSObYnSxpRSVOOuFqIhLQk8VFhIGo9I2reBT34yt4i6fwJ1nxnq4YPSf+lKhg4I4FFvGP4KTJkydjA3cCDwk7hw4d6sGyKwqFQpEakJx+kngt5BJ8ShRO+IMxPVbk5a88BWodqj9NmjT45H6OQmHj1q1b2E82wnXk1yQgJBGNJHq/C507dx4/fjz39+/fP23atDxMCy8qFAqFG3wl747jQIcOHRo0aFBwcPCTTz6ZP39+OBOvv/46FHf79u0XLlzYunXrkJCQjh07Fi5cOGfOnCNHjrQdDnohIJ6IiIiePXtC9U+YMIGhPFyZtJcEsbvoFezBQzNnzrx27VqGDBl69+5tXIzLVSaVlhQKhcJGsnES1DEVN3wg8ArIA6QyZsyYiRMngo1AHuvWrbt58yadm8uXL+OnevXqFS1aNGvWrHPnzuUIE07cvXv37Nmz06VL9+CDD0Ljgw9wQXDSrFmzsC3hPm4kwXqO5BgZLgIyZcrUrVs3uEpt2rTJkiWLcaKLstykQqFQKIhk4yTR3aKXQTDHjh0DIXEAiU4P3Q7Q1bZt25g/ff78+e7duz/77LNNmzbFV3hUM2bMsMOAefLkOXr0KDmPO5n7kGQJBXYqIMXs06fP/v37hw0bZqywpA4pKRQKhRt8JXbHpAC4EWfPns2ePTszHRjjwnbatGkbNGgwYcKEfv36ZcuWbfLkyZIB8dNPPy1duhQeVcGCBUFaHH9i9IxZDzK6w9Q+D+7NTo7gNTdt2rRgwYKdO3eeOnXKbXJVLNdZu3ZtLL9yaS/jGoXKkCFD+fLlO3Xq9PLLL8uSXzbVJSq8JW/sUHlV3qSRV5GykJx5dzZJ0KEB5bRq1Qqc9PjjjxctWjQ8PHz79u3t27eHL/XGG2+Ehobi69WrVzt27IjWDGbCWc8880zJkiV5HbbyvXv3Tps2DR2sXLlyb775pnHYiKl9CXWVJMaIixtXB+vQocM333zTo0ePKVOm5MuXzzgd2FuDQ3AKIyIiNmzY0K1bN/Rh/Atz35OmA6u8Kq8/yatIcUjOvDsJrBlnDuyzzz67fv16GfxnggPa9LJly3DMuHHjwCtbtmxxq8uA45lrx1ZerFixOXPmGNeAjYlqFXoQu+O/yNhPu3btQIp79uwxrq6Ljo0D7HmynoGXYrCRMb2mTZs2a9asXr16IGCIAxGSZvxJ5VV5/UleRYpDcsbu7CCbcY3886vMiuUMWZZjwK/4ynYsiW2gK7Z7JoVzSpBcASfKTKbo6XDxBCkTf4q/3rp1644dO+CH8SdJQ2f6n13lyINHYRetkKGm1atXP/XUUxs3bqxSpUrSdGCVV+X1J3kVKQ7JyUmkIo73kFE4aYmmnDg3MmcWn2zHtOCkaBB6Dqcf0VsyLs9JiA0Ho1/xCh7E7sRmxF/PmzcvNDSUzMd7JufhNli+wbMOjHNl0Ms4Q2vGmcLVo0ePhQsX1qhRI2lyNFReldef5FWkOCSznyQ17oSN6DaRh6ROj12V9ebNm2nTpiWH8UgpkUdCEivPnr0UY2nXeEKS+mBXzpw5kzuZGci/wx0y89uz50BBhJVtZw57YFEOGDDARBuBSzyovEbl9SN5FSkLydYgohdxsAvccafsIZcwLid1EIwTHBcC407hIV6EvMWreTBmK14arh8REZEzZ06SKE1LgBFC42mRb3Zdtwg+B6JJ0nny5Dlz5gx3JkEHVnlVXn+SV5HikGxtgoYY2yUaK7rEAw88ILYVj4leC1zcKdpiZC+ZiiSZQtxAT5NzPTb67AIQ6L3ilnHulNywx8th2EFFEZz3bD8K4wpmJkEdCpVX5fUneRUpDl7jJDss5sYlxvKKjJUIJ0kHZBS31Y+4n0acNHE5Rla1ICFJoVXG6ySELb+Kz8QInpiKDHzby2HEKF1Q1BreMr4lB3jQe23EaJO6zRRxC4MkKlReo/LeA3xNXkUKgtc4CS3s5s2bHMgRpmG0zTh9INIq+C0EIKED2k3iA3GPVFA1zkARWzNrEfG/eFnSEglJaExOl2kZwm28E+l7vA0pmmfuIVVPoVAoFJ7Bm7E7GemRFFK3aari/RjHByLryFAnXRZ+tYurkoqEVEhXPMAel5JxI7ekO1pk4mPZEyOkHCpvmNe8ceNGmjRp7tFUVCgUCkVC4eXYHVmBboodm5a0byEMssWWLVtOnjz51ltv/eMCk7aFDMhGgAycMhNPwnGcDS6hQre5sbKaHyAcwwp7MjeQx9jrBN66dSs4ONgWyluPSKFQKBSxw2ucxOCYHUazs+aiTzayM7NJM0FOWQeJ71WvXv3hhx8+ceLE6tWrQ0NDb968ef78+XfeeQd7pk+f/tBDDzVt2rR06dKdO3fm1caNG9e3b9958+adPn16ypQpw4cPB6uVLFny008/LVCgwMCBA0+dOnXu3Dnsx84+ffpcvXo1IiKiZcuWuPLUqVMfe+yx+vXrV6pUSSRSV0mhUCiSEl7jJDKKPQbz888/T5o0CWo9PDy8WrVqzz///J49ewoXLnzmzBkQBnjio48+Ase0aNGCs5QmTpwIsoFXBLfpqaeewhW4LAVICCeC1UaPHv39999//vnnhQoVatasWePGjUFgs2bNqly5coMGDfC/4BsG5XC1Gzdu4FLvvvsuqGjBggUjRoy4cOFCWFjYt99+u2PHjp07dz7zzDMNGzaks/XBBx+0a9eOF6GrJxsKhUKhSDJ4czyJAToQEgdsFi1aNHbs2Ny5c0O558qVa+TIkWARcMP69etBDO+//z6YYO3atfBRGMeDi2Ms7wRU8ddff/Xu3Tt9+vRwhlasWBESErJ//34wyocffrhy5crt27ePGjVq3759XCiP3ti2bdvat2+Pa3KlIhy8ePHiGjVqsG4KrvDrr79u3boVXhe4CgfjOhUrVsTdzp8/f9euXYMHD8aJksaqsTuFQqFISnhzPElS5qDiwShwYug2BTg1hqHupT43juEoDkeGsA2CgQuFw5o3b16qVCn8lC9fPrAaZ078/fff48aNW7hwIagIx8CnAcPhfx955BHQUsGCBenZlC9fHm4ZroODjxw5snfv3i5duly+fPnrr7/GWbjazJkz4cAVKVIEdFWvXj3cxnfffYc/atOmzeuvv27X4LKLtyoUCoUiCeDNXHCp98N06rp163br1i1jxozjx49nPhv8J7IRPitVqtSjR4+IiIjKlSszl6Ffv35u9bVYd9W48vHSpEkDlmrbtm2vXr3efPPNOXPmwMupX79+hw4dWrduvWrVKlwhLCyM41j0mbBz+vTp5cqVO3DgwJQpU5gW2KlTJ/wR9nft2nXTpk1XrlwBG/33v//FHlywdu3acJtIReTC2IeUxJGKPrdJZh1KEQqb4ZgDIhVc+PTsaYaSuGE7bcbT2fXRIVO1sD116lQ8BPijtlB29FKeQ/zltfe7zRuTMUX7LL+RV2bOyQw5mdltrCmlUtog8eQ1zqgt5EXHCQ4OdpshFF3eGGELyGbM4+2ZRjr7VeEteNMPYBOX/O8KLhhXf16+fDk25s+fj/3Vq1eX+UNS0cQ4vcg4udo4a8mSJWz0+GnixIls+osXL8Yx1apVk4usXr2aJ+JXcA82cubMCa9LssnhFclatLjUggULcOK8efPsub116tSB3mTiuCSIx9lRpbvaHVKqmNNNlNWbmH/olh9vJ8rbI1ikKxml83plMKEBbPft27ePg0yZMokdYKvjhMorR1IuEpKdtU91LFU2/EBeZoHKZDueK4FoyfA0ziTxxJZXtiEmLLmBAwf27t0bNmKM8t7tOjKvg+Rqz9kIcKqCyeQ/jXUr7h1e6wZ2rxNzzJ6QJOnXtCLtdG1C4mbYoFkth0mitmhtnhjgFMELcJa94J3YvUiS0SUt0FjLZBir9wqHyV3FEr6Lse9xxpVckH8nNVRkP84l7+L63ENiJukaa5q9PdPLxKU+EgpxaseMGTNo0CCw/uTJk3v27Nm/f3/4EDdv3rT1pgfyUjohHrcUf7eaHSld3kBXLSvsZHF62wURVW5cb5a2V2LLKxyJfxk/fvyQIUNGjx6NDdBSjPLeDXboAnfbtWtXPDFYgYMHDzauDiINWwlJ4RV4jZNExdxxVmGRBsrGyvLe3CPFFExUWjJOH+Yk2UBnBXS32hBCVNKlxQeijoBeYIRQTEI3c1UCDrJfjuEUKH6N03SVGAjPRT8vUKDAN998U7Ro0Q4dOkybNo1hq+hLxcydO/e33347fvz4hx9+yD2UxU6IN1HZUYzrBL+bmGAH0Lp16zZixIhLly5hZ1hYGFxM2NT9+vXjY+HDFKM4/vLaTw874SuHh4d/9913fLk8TNwXcbJTrry0ulicHn8REREBcebMmSOtVBwsN9MqMeQNcGqd4Gl37tz57bffZvJR7PJGxwcffIAD6tati1vF1WhhsFfS+8cxW7ZsWbx48R9//IHPhx9+2Cv3r0i18HLena39jVM11XbtjeXHSIe05ySJzYWejO4kO2N0rXgdrl5hnOr3Qa4l/oxlFxunXoP9j1QBQmPcb5uNbgM8McIeCcDx6POvvfbahAkTZs6cefnyZdxeq1at0OFz5MgBpVC9evVSpUodOHBg0aJFXbp0wT288cYbV69ezZAhg8hiR7SMU7EJtweJxAH1ChhPY30mcc64+iceCGzqX3/9VV6TW6QxPvLCEXn99dcfe+yxCxcuLFmyBAoaF3zkkUfES6AeFytBOCCFyjts2LAaNWoUK1bs3Llz8+fPz58//9mzZ/GPUjQk0pmlZ48bJaq8JFROKudjx3bs8kYHTTQ02nfeeSdz5sws+oW+eezYMVDy9evXGzZsWLFixfLly8+aNeuHH35QTlLcI7wfwpZRE+PqGOyTMihKL8o2jU3U0DZZQVwlHk/NJUXqjBX6wMHs88J81DhypBh07E62/yGFG8ROdIs/xK4j7JC6iJ89e/ZcuXLBG8Btr1+/Hn21efPm9evXx7+kT59+6NChCxYs2LlzZ+7cuWGupkuXDjtxutTuC4xaO1meHg8w97YitQ0Zl6ZBAB164sQJbEM54rH06dMHdnSmTJn4Ku1Kg/GUlw8ZaguOwqZNm77++uu+ffuCid2kkHCrXfYpJcoL6g0ODp40adLs2bPhN/Tu3Rv/BUPk+++/f+GFF6RTSE1h3lWiyssNWmN58uQ5f/48/j0WeWO8Dl/Nu+++CxrLkiULHCzjemuQFF9hC4KuXnnllRs3buzatQu05JWbV6RmeI2TxPaUjHDuJ2HIKE5Q1Hrh0nPolMh+2F9U1nRlgqKWDpIkLgl20xJkIIJOklxfIvW2P/RfF1hDiMdTF4iXZod64g/+Ra9evVq3bo0NOAfotLgUOz/1EXovPosWLbps2TLohe3btz/33HP08yS3QhjXjW49Xov6bnfLdzF16lQY9fgvbPfo0SMkJISzu4zzgu6msGKRF9u0/Un5+/fvBwfDjt6wYQNcDbosvKxYMClaXji7rK+Ie4apwfvHr9Iy3RpYErxfCkvLAO54oGuZ5p49e8ZfXuOsKMH+iNOxwQJguHKLFi0KFiyIX3HbI0aM6N69uy5nrrh3eLmOg6QhueXIknLuOAsdcWeAs34EaUxysbCNDiChM/4UFHUhJeMMF/OnQKeUEYeX3VK/pM+Lv2XnR5mY3CP73uKU3T4dfwSVVK1atRUrVrz++uvt27fftm3bY489ljFjxjNnzjRt2hT3BnfhnXfeuXjx4qlTp2Cxctlc0qdwuXGcOTvX1osKS6oRGlceGi7euXNnuHG4+UinkgUPiK4o4yMvtN6xY8datWoFLda1a9fKlSvjOmCCGjVqcChRCMktgppC5cX+06dPQ15o/3bt2oWGhl6+fBkX7N+/P73z6AkUiS2vdBncDP4F7ItWFx95bXAEl3MwHnroIbiJHFXCHlwQplX16tX37t37ySefnDt3Dg5TgwYNvCWCInUiwZwk0XBhCMmIYyuXzCLR5rIORZC1aktk1Fk73JDUWLcQVqS1RJiM/9v+lrCOrd3s69sDSG5JUPTqpAPfsdZYsv8owJndIpA7FEmzZcsWFhaGjWYuYAPOkIgAzbVkyRJ+hTa02U62xaE0USOH8XTa3EhU9J2JumSOHTXF9vDhwzt06MByt5HOHGd5y/b6VQmSFwpr0aJFcmO4johvvwI3qRMkb/xh/wUePswC+kn2/7INi4JOqLyPP/74u+++y69jxoyRs0RYt2GqJJCXn/GUN0bUrl2bGyIpUKxYMXzC5eXXChUq4PrevX9FqkWCOcnuqHaqGHWWm/KylyOSUL6x6EQi7EIPkm4nwToGecSaEx7iKeSYIGf6oZ2nyyvIIDOv4zZEJFIYR2sHWpM67zjFZMltNi/GnkEbIxYvXizLZwRGm2t577DvimFAwh66E74XwsZZISEhPN2emMVK7R6IKUhseRMKGbzp2bOnnQjnreunNnkVisSAJw1UOpud803NLv4TEwoYnxFNJ66M7UuJCxVgTVY1VmSDORGy/gV+lQHhIUOGdOvWLWfOnJw4EuDM+4l0VrHE8T/++OOkSZNgwDIeSK+I7GibjW7T8uWW1q9fDwtx5cqVzL+QKyf0odnhGhPTUrz3DkkPk1G0SCeT3pZIFJN82raFsXxK26NN6M0kgbwJhZSzIuPGJ9c//kht8ioUiQRPYnfiDEGXGRczlS1btn79+j169MDO3r17nz59mvW8w8LC0Bk6dOgwduzY1q1bf/DBB/i1efPmTz31VOPGjeHy46ebN28+99xzpUuXBp2MHj36559/njx5cpEiRYyrBgyZxs7flWoLxmUJXrt2DZwk8YfOnTvPmzfPTQW//vrrIKQ2bdpcvXr1scceGzFiRP/+/c+ePZs/f/5hw4ZRKeM2+vbtmyZNGhDY5cuXcQyUO06sVavWxo0byYWcxhtkLQ8Yf7hlXiWGwuJQmR0LjbRWCZHYnZ34LsMY9hrzQc5yiEJybqFUH5E3QYi0qiqg2dg87ZXrpzZ5FYpEgiexO443iBsEFCpU6KuvvurevTsYgvoLG8w4Qh+4cuVKtmzZXnrppeHDh6OrgJAOHjxYvHjxL774omPHjuCYMmXKgMP2798/dOjQKlWqtG/fHgwHalm4cGHbtm1x/ZEjR164cAEdvl69es8++6xxlUs5c+bMr7/+CiKBD7Rnzx7sfOutt3BNOE+4woQJE8BALVu2RIdkAtiMGTNww5UqVcI2Loj7f+ONN4wzX+rcuXM9e/acOXMm9ixfvvzixYu486xZs+JgnEX/if5ZLImzsUDyOIQAvKu2cGWQ/eLFi48ePfr555+DgO3SZPhHspFUWLCdUeO4vDgYlgSsB3uWiWd3mNjyJhR2VJmxXK8XiUhV8ioUiYQEc5IY4KKX0QOhpmvUqLF582bwStOmTcEHUoZSRjJatGjx4IMPfvfdd9izbNmyVq1aTZkyBeSUIUMGWuhFixY9efIkLg4+C3CVy1u0aBEjUZwVIWRw6dIlEBL0L1gwIiICrg/+F2yE/wW9QaviJrNkyYIb27ZtG67DcuPokJs2bXr11VexsX79+vDw8KpVq0KD4yx4ac2aNfvjjz8Y2Ttw4MCgQYNASO3atVu1ahXux1jl+OzBrfhD/DyO9jPY6EUd8csvv3z//feDBw9u2LAh+HXWrFm7d++GwwpzAS4gPMLQ0FD4ncePH4c4s2fPhoOIw/BkQPwQc+nSpfAdwWRffvnl77//jlfDQnBkLw+qsSW2vB5DanYIMXsFqU1ehSKRkGBOkuiEcQooMLwGnwPeCb727t0brR8aDfoOG5wrih4LFwTO0NixY8ElzBwFlixZAo+HYSJQQoECBXAKCzZDORYpUoQkAbcGV8MxHTp0KFas2B3Xchi8n0hX2eOVK1e++eabEp4C5Tz++OPQzmA1GbqHL/Xxxx9PnjwZZ73uAvgJjhrIiaGqjBkzQiL8Y/bs2Y8dO5Y7d27QkomWN2XPi4o/GEaTtAI7E8QrgPcJD/Ltt98G67D+es2aNfGsxo8fD5EhJogcT7tatWqXL1/+888/T506NW3aNLiYeM54R8Zl6eMBwo9s0qQJ/Nogp7y6Me71n3xB3oQi0CrqwU8pq+iV66c2eRWKREKCdQ3NQHo/YCB2QuzJnDkzeOjFF19EV8R+fD755JNwhtANQkJC4AAdOnQI9AMXBCZ8rVq1WG6rbt26OODrr7/u3LkzqA4uzk8//QQdCqcH12SRb/SoAQMG0NCjcsQfpUuXDlfbt28felq+fPngSB0+fBhXeOSRR7q6gD3QttCtAa7CX1ATVVyAdsa/wEu4ceMG9Dizn3FZ3N6IESPgb4HeoM3hNICQunTpEmmVapWscQ+G/ZkBKFkhvIhnM3NjhG2hc/AATwZfQbT46+vXr+O/QFFDhw7FowAt0ZCnIHyhV69eZZqW5DvIgFM852klpbwJhQhyn1MyNcBVK8Rb109t8ioUiYQEc5LbVBKSBOedzJkzhzs5K2XQoEH2ifPmzcMnyOD//+/77vvggw+wsXfvXtkJggElxPinYq1jg+4OwSkj8KXkE1ixYgX1wo4dO9asWVO/fn04BxK74LiRjcKFC8tkGuCjjz7ixsaNG69cuWKcyTqiYqLPBDJRZ5xEh/h28gxjGXaW6wc4q3XEHnjBMXnz5u3RowfYncqIpS44+Idt0DNYFpScM2fOIUOGZMiQgXZAixYtPv/8cxD87t27cZFSpUp1794dLwuHGWv+kK/Jm1DYE6HcrmzPP4u01hZSeT1w9ZJLXoXfwG9zQyU77oUXXnj++ec9Tmuu4YJxUiFk2pNcMNKZD288GkaW40VB8KtNfibqjNcYgZ/GjBlD1oQPKqeTpDkyN2nSJLlDbMvqcxMmTDDOSCGE5TRJFuuUewuMWnUp2eX1IoKcQtfGqj/ka+/Xi0ht8ipSFvyWk4xTqivIqiTmQR+QmU8cSJNcasn9ld4rE548QKRVDC36XxvHzIxFR0hxM0ktESNd0oLt1Iw7zpIigU5tXBk6orZiHM9YC6f6lLxeBO0MO1OOeQEqr3/Iq0hZ8GdOkvEnWeHGgzFeGTzDufny5Ttx4kTevHl5HTfTz2OjL0aDUTIpzp49mzVr1kBn+fC7XYT65Y5VRl12MpTHC9pVBI0VoqFqELn4a44cOU6ePJkrVy5jrUHlI/J6EVwVBUJlyZLl9OnTuXPnvs9ZTZUHqLwJgq/Jq0hZ8GdOYhF+fMqEdg/6gBiSuE7p0qU3btzYvn17rotjVyoKsqrtJfQv7A4snBHkVE5av379yy+/zGlSsVzErQwSd7qtYyu3J/UsjOMn8Uj+RaCzft2LL7746aeftmjR4o6rqLlPyetFyIyi8uXLf/LJJ61atVJ5/UleRcqC33ISe929t/sAq2ZM27ZtQ0NDwUmyygAh4a97CUS4hTsinSKwE10Ici2qG2QtoO4GiYTIug8QX8iJWfvRoyXYw2pMtGHtkW0cz2rQzZs3ZxafT8nrLXBxEwrSpk2bkJAQcHCga1kHOUbl9QA+Iq8ixcFvOYlLaspygkHWwhYJuo6MzaALValSZc2aNQ0bNlyxYkWkU9c80jV13yuBDtmgr4N/bNq0acWKFfG/cU6KYiREXB+xhRnEB8GIMhJaCnSmrUitBxnrpttUuXLlSpUqNW7cePny5b4mr7fA1bP4BKpWrfrhhx9SXuPUlVd5EwRfk1eR4uC3nMR5tRKkijEpNv5gR8Xn3Llz27VrV7x4cThM6F0FChQwUWuL3TtYxG/t2rUzZ84sU6ZMeHi4PfxzN2UBQpKoHeWV2rXGFYGUpQtt0/WOs3iVpDzQvBUHa+rUqd26dfNBeb0FW15s4x46duz45JNP9unTR+X1yj8mr7yKFIdE5yQ7Dcy4YkrGqa5G2JkIDLVJtpidgozTP/7444sXL8Ksw55PP/0U23ny5JkyZcqSJUu4YqzUwJaLSxJR9G6AjT179nTp0mXr1q2xmGx2Ahv3TJ8+fcuWLbNnz+7fv/+pU6cCnHWVKGZkAteulnEduQ5uJl26dC+99NLo0aNfe+21ANcEo8B4rH0gRCLaRO5ZNtwejux3U0DyCvA5efJk35TXW3B7v6Bhldf4kbyKlIUk8pPAHy+//HKpUqUefPBB1j+tXbv2m2++2aJFCxn/kLEfNw5j/ig9lTvOCuLYAIfhs1atWmnTpoXvcv78+RIlSgwePHjQoEGXLl2CdTZ//nzjUq83btwYMGBA+vTphw8ffvr0aWzDaXj++efx748++qiEuWK8c3uiRoCzxt2rr75apUoVOyAenbriDxkHNtaoslzqbovhJhJUXpXX+JG8ihSHROckaZFw2+G8V61aFV+PHDlSsWLFDRs2tGzZ0rga7vr167/99tuIiIjy5cs3bNgQxy9fvvynn35Cw504cSI8oY8++uj69esNGjR4//33N27cCJLjQp8kMFh5aN9ly5bt0KEDyAlfhw4d+vPPP//73/9m1in8oWnTpoH2Pv/8c1y/WrVqjRo1at68OYkwFj9JVnPgVxn7lVX+jOOfGU9jg3bPFOOUbor0ZOYsJcGAsMqr8vqTvIoUhySK3UH1b9++HQyUOXNmNM1Vq1aBGP7666/ffvutUKFC6Ax169atU6cO2yvn6+XNm/fgwYMffvghmjg+ccratWtv3bq1evVqbKxbt47lujndDybeJ598Ur9+/ePHj+fPn59zL65cudKzZ8/g4GB6ZswIf+2110BXO3bs+OOPPxhGiL1vsIMxx4GZbDJ71ESLzntm90ksUf4rwFmxVxZuNx4VQvX4ZlReldc/5FWkOCSFn4TWjxb54osvwk8aNGgQ/CEwyrlz58BJa9as4ToU77333s6dO7FRqVKlmjVrgpxmzJixcuXKQ4cOGVcEj4MfMoOVQ01o1mnSpMH2/v37t27dCo/qxIkThw8fxk8XLlwoUKDA+PHj2fRZ+hpXANXBi8K/Hzt2jAP70TOk3e7fzbQUz8+OMXqcO2v3fLdtmquB1nT6JJj3rvKqvMaP5FWkOCSFn0S9D9ekffv2ly5d+vvvvxs1ahQSEoIWCfrhQnlNmjRp3Lix2FM4EeQBAgPZRLqWXejcufPVq1fh5VSpUqVbt27Xr1/H9s2bN2/cuAHGev311ytUqPDWW2/NmTMnQ4YMXbp0wZ8+8sgjJDBcZMKECT/++CNIrkiRIgsWLABj9ejRg4nRkXEliNudk3010lnEQQZyAzxaEN1YgQ43m5TpcNyWHI2k6cAqr8rrT/IqUhaSaDwpODh437593IM+AJ+JHWPjxo3SdrkgLONp6BiTJ0/G58iRI7GnZcuWrVq1ktFRzgDFYbt27froo4+aN29+5MiRIKeu3ZQpUzg8a1ytH4cVLVp0/vz5PMu4Eo2YGrTXhTgDFEypiHRqU0qAUUITcqQHa/25QXKWZBTa1iD3fv34QOU1Kq+X7scX5FWkLCQ6J0k+qEwVYqMPdIrcBDlL9XCFcjvz546zWBFBQgIzkVpwWNmyZdesWSNL3zJgzesHWUvSMWhAGjNO+AK39OSTTzJgGEvoXMILMjbL+LjctpCoHQ/x4CnZj8VEW0iQ/5sEHVjlVXn9SV5FikOic5Lo+kBryUuB27wZ25eXfsI+I/vtodEAq/BPdCtPtqNP3JHOEP0sNwRZJQ+i379bx/MYsdyAt/4inribvHYZvUCn9ox9V8L3JupEMXva8p1o1aCjF5hReRMVqU1eRYqDpr4o4gW7QoStVqC8bt26xZWFA5xMYjn477//ZhIKEWhV05AyNskoVCxQef1bXoXPQjlJES/YYVUTdSj7gQcesIOftLKZxwWFxfIcQa56gwHWkqZileOAeymwlkhQeWXDL+VV+CyUkxTxgsRRI51iMwzmSNaiRGkYw5EBbakXFegsfW3PCeOaBXbgyEeg8vq3vAqfhTYURbwgFfCOHTsWEhKSNWvWhx9+uHjx4rdu3WrQoAFs4datWy9evJjLW3Tu3LlgwYLZsmUbM2YMTWyea5zIz4ULF/r165c5c+aRI0cGOetr+BRUXv+WV+Gz0LaiiBckATI0NHTGjBkZMmRImzbtypUraU3TFh47duwbb7xRtGhR/Dp37lxJx9+7d++iRYtwZIECBXr37o09t2/fxsacOXO4OqK9eI+PQOX1b3kVPgvlJEW8wOWXYBFfvHgxZ86cxhkn4Aww4NKlS59++imsY/yEbaikYsWKwbiGjVyiRImwsDAxpQMDA/PkycM5K6z55IOlz1Re/5ZX4bNQTlLEC1BYNHizZMly/Pjxhx56iKXS/vvf/3KMIX369PXq1Rs9enTfvn0ffPBBbMgK8bt3716wYAE01MMPPwwzXEbCjSvdyzcVlsrr3/IqfBbKSZ6DofOjR4+GhIRkypSpYMGCjz/+OHbWr18fv+Jz1apVbdu2xa+dOnUqXLhwunTpxo8fb6z5wrJx9epVdHV0e9ibUtwlWYWLAbylwYMHQxxoLpjJkHfu3LlbtmyBjNBNdevWhR29c+fO8+fPd+vWDVb21KlTcRbs6GnTptk5xIcPHx41atS+ffvwiPi4fBAqr3/Lq/BNKCd5CJZShp2IPjxlypS8efPColy7dm1QUBAzlHAAumXNmjWLFCmSOXPmWbNmybk//vjj0qVL0Zlz5coFuxLMdP369T59+uAYnOWzy0Izw6po0aIQE9sc3K5Tp45xJWVBIggC0oVu2rp1q3HK1dBkxrYMdOMAMPT8+fP5DH02KUvl9W95Fb4JbSsegvPVH3jggRMnToBajKs2BL5eu3aNjAKa+eqrr+D9YBvH9OzZE+Zk06ZNcWKpUqWwzWwllvzKnTs3jrl165ZdqtKncMdaqM1O/8UeKB3WjuKRVE8MBFE6mUTJIQeeHuCsXCAn+hRUXv+WV+GzUE7yEFKpL0OGDFeuXMmWLRv6J+cP0mxMly5dgwYNxo4d269fv4ceemjSpEk0PPEJP2nRokXo8NmzZx80aBANSanU52Z1+ggCnTWtOe7NSZGUiBwc6FqUhMSMr1ytimuL8FnZJaCMs3gBdvrm/BWV17/lVfgstKF4COGPYcOGca3CggULPvPMM2FhYZ9++mloaCg6bf369bt06fLdd9+dPXu2efPmWbNmBTPhRPpJnHXINQkPHTo0bty4H374YdWqVXXr1vXBDkx9xFksQdaaoRwV46+BzgI81EEyszLIWcaUh3E1LHzl8cYnq5+pvP4tr8Jn4XO6L6VAOiTYZd26dVJWuXr16sbVw5ctW4ZjwsPD8blt2zbjLK9JX0ri7KSfQoUKTZ8+nUEPHpCMosUIGsuiqgKs9XVY1swO/kAHScBHyqYZxwaX0TLmGVPZJY9Ud4fK69/yKnwWykkeIsi1HmCAa2kyuxyL9OToKbA8jHwjdZS5qOC/XOAcEbs4uu/AXq9a1jJgZTPRVqwrQ60U6JSBJ/VijxRGM87oBU1yW9n5DlRe/5ZX4bNQTvIQshwZk4uMtTINTUgexl4tczXs0AcPsHmLZ5HtfI2Z3O5HdI3UpOF+ydGQpQ1ESYnzZxdDYwk1lTfZkdrkVfgslJM8hLCOkIp0TjvoQRIKsJaUJiHxUzq8TVT2EoW8jj2TKQnCIJFRVzjkTcrt2fdsR3gognFRLwfJZBzCWCPkop74VS4rfxp59/UVVV6VV+H3UE7yMiR/ScId9hxYSagTQhKa4X72ZO5kum0S25i8WxnTkpt048tIZ7EcqicTNffXTRbuES+Q+/mTDJXzf+3pWUmjvFRe/5ZXkeKgnORlyBKcNrvwJzEqOanWLamJO6W7SqEwsTqZyJTY909zGApLdI1x1qG3/11SsKh0sKd58+bz588n1wrLSvQm0llUm/Y1v8qYBPdTD8q/2B6nyqvyKlIJlJO8DJqZdkyD+2kesnMK8TBkLwamdGbbruQVeEzSzPOwzWHqIw5xyU8cZuDBonpww/zVztHCiTDJmRy/d+/eY8eOLVy4cNiwYSNGjDh48CAcwSpVqjRt2rRq1aqPPvrohQsXFixYEBwcHOiaqplkCkvl9W95FSkLyklehj3NUMLuNCcZi7NTvW2CkUw849IRuAjT8HAR6cBJk1PLexArGNt9+vTBzTz99NNfffVV7ty5v/vuu2efffavv/5q3bp1mTJlGjZsmDNnzkOHDvH03bt3w6CGjLly5WKdtOvXr1esWHH69OnVq1fHZffs2XP27FkoL4iDPU2aNMmcOfOcOXPwL//5z3/Kli2bBDKqvKlHXkXKgnKSlyFcYizKoR3KCfDowzRCGbszVkKtsdKfQGC4iBinxsmvTez7Z4BF7hAMevPmTSidmTNn4iY3btw4d+7cxYsXp0+fvnv37mPHjr127VrNmjVbtmzZqFEjSvHYY49NnTrVrsgJhoaljBOh4OBBHj58GBsk4AIFCpw7d+7UqVPdunXLnj07FRZXSZCbUXlVXkXqgXKSl4F+SOcG3Rh9WwZ4yUAMmAjxyDAyuzfJTCq4cOqSnZ6XNONJkojF8S1oJdwS74SBFyBTpkyUIiIiImPGjNi4cuUKpdi/f/+7776L7QwZMgwbNkxyPYYMGTJu3LhixYrlyZNn5cqVjRs3xk4Y41BV+fLlmzhxIhO6sJN+pMQ/VV6VV5F6oJzkZaA/MzrHGbWShmScuR3Yv3nz5j59+uzbt++PP/5477330JlHjRrF+HvlypVbtGjxyiuvFCpU6MKFC7NmzcqaNSu1g52kl6hgrqDMc4R6AkG2adOmXLlytK/tkeoaNWo0adLkhx9+4LA59j/99NMlS5aUYmgBTunoUqVKZcuWDYrpmWeeWbt27VtvvYUn07x5c1w80FVdjYPn9BoDnYkvSQCV17/lVaQsKCfFDbdsbHS/fv36Xb16FX1427ZtOXPm/PHHH9EhT5w4ATopW7Zs06ZN0TlhIfJg2JVz587FFfLnz9+7d29sXL9+vUyZMuCbV199Ff38wIEDZ8+eXbBgAePvMDBhmeJX/MuxY8dwKeOMNiVNoIP/IiJDm0yfPp3brVu3xifUDb/C+MXnBx98EP0KgU4CMT7ffPNN7p8xYwY3xo4dax+/fPlyt3/0pjxxQeX1b3kVKQvaOOKAzKKQmRxglCtXroAzYO6tX79+zpw5ixYtypIlC2gpPDz82rVrtWvXRq+uW7cuT3nqqaemTZtmXENETOlOkyZNnTp14CE9++yzuPjevXthe7KTP/LII3/++Scu0qtXr+zZsz/++OPGCu7plA6FQuHfUE6KAzLpVXyUv//+W+Lv999/P5NlM2TIkC5dOhadZIFkjiThc9euXatXr8bxefLkCQ0NlUzx/v37jxgx4oknngAPrVy50rhoD84W3ClcjSYqcPPmzbRp05qkKuKgUCgUyQjlpLgR6JRUYJYB3Bdst27duly5cgxicMTYuByaChUqtG/fHq4Pc+pwCg4rXbq0uDjMFMevJUuWzJYtG/imePHit27datGiBf6lYcOGuDizJDjViYTEfAcZA1AoFAq/hHJS3IBbI0tqGlcIbsaMGYzLtWnTBl8ZfwdnTJkyBRurVq0KcCooC4XwXO6pXbs2rgbWmT17Nn+dOnWqHZdbsmQJg+/00uCZMY9cSmEqFAqFX0I5KQ4wjdtY09ftkj/GteCmiVphQdgl0Fk6WpY7sx0dGSLCT1ydlnOSZFKtrI3Gv9DYnUKh8HsoJ8UBeiqS9iZVVexSdcYhGJmKaJzxJ7sii5BNpGuRNGEpKQvGSbLkJykGYZSNFApFqoFyUhyQmapkJgmp0d2xl9Q0DhuRUWS9Tgm4SfiOZR04vcNETY0l28kMErkH4yItXYdGoVD4N5ST4oAQQ+xVI+2feIq98Ez0I4Xbol8qukskl1JCUigU/g3lJIVCoVD4CpSTFAqFQuErUE5SKBQKha9AOUmhUCgUvgLlJIVCoVD4CpSTFAqFQuErUE5SKBQKha9AOUmhUCgUvgLlJIVCoVD4CpSTFAqFQuErUE5SKBQKha9AOUmhUCgUvgLlJIVCoVD4CpSTFAqFQuEr+P8AAflPMOhNpKEAAAAASUVORK5CYII=;" vertex="1" parent="1">
          <mxGeometry x="420" y="10" width="405.54" height="300" as="geometry" />
        </mxCell>
        <mxCell id="ZgNNGTYw98eAhwDFOAmk-5" value="" style="shape=image;verticalLabelPosition=bottom;labelBackgroundColor=default;verticalAlign=top;aspect=fixed;imageAspect=0;image=data:image/png,iVBORw0KGgoAAAANSUhEUgAAAfUAAAGRCAIAAADzT70KAACR9ElEQVR4nO29d5wVRfY+XDOwCww5Z5UgCwgIKiImzBIUFREkCEiUnGcIIojkAR2ySJAkCIpxjYCCyC6wCOjXgBjJSSQz4C4z7/O7z6fPW3Nn5sIwN/Y9zx/z6elb3V2nu+qpU6dOnZMzNTXVKBQKhcJ1yBnqCigUCoUiIFB+VygUCndC+V2hUCjcCeV3hUKhcCeU3xUKhcKdUH5XKBQKd0L5XaFQKNwJ5XeFQqFwJ5TfFQqFwp1QflcoFAp3QvldoVAo3Anld4VCoXAnlN8VCoXCnVB+VygUCndC+V2hUCjcCeV3hUKhcCeU3xUKhcKdUH5XKBQKd0L5XaFQKNwJ5XeFQqFwJ5TfFQqFwp1QflcoFAp3QvldoVAo3Anld4UisnHx4sUcOXJk6ZLU1NSYmJjjx48PHz78pptuqlevXs6cOSdOnDhv3rw9e/asWbOmc+fOUhJ/URh/U1JSYmNj+Tje4X//+x8uZB3wE86MHj36qaeeqlChgjyFf/0ss+LyoPyuUEQ2wLb//e9///a3v4FkwaRgYXKuD6Ak/h47dqxHjx7r1q2bM2fOk08+uXHjxlGjRoGdDx48OHfu3H/961+nTp266qqrULhMmTIJCQlTp0799ddf8bikpKSRI0ceOnTozJkz8+fP79mz54IFC0aMGIFrP/roo507d06bNq1YsWJkf1Tpr7/++vvf/x6Ul6FIA+V3hSKyIfo7/0KPpqLt4xIOANCycUmNGjWMRze/8cYbn3vuuV9++QXXnj9/vmXLllWrVn3xxRdB1q1btz558uSqVavuueee3bt379u378iRI6+88grIHYSOYQB3uHDhQu7cuR988MG2bduC3Dnk8HyuXLmC8B4U6aH8rlBENmgtoRnkkszOkiyDwryWB7gcvI/RAuReuHDhuLg4/FukSBGWB1+XLVt29OjROADXg7VR8u8ekMehreOAd+ax6O/BeQ+K9FB+VygiGCR02z5OYwjt5ulBgzhACuYlZPmSJUsOGDCgZ8+eOANNHNSMMmfOnEEZlATRly9fvnfv3vnz5x83bhw09H79+kFzX7hw4eeff44LN2/ejJtjNpCQkACVv3Tp0rgDrmVllOVDAuV3hSKCIZo4ze5gZPCp7xVXXgLKpgmF9hPw7+TJk7l8+vzzz6NAcnJynjx5cBLH8+fPx088xlX4O3HixBgPUD4xMVEmDc2aNXv44Yep0bMasgarCD70vSsUEYy777573bp14Flw9Pnz541HQyerXvLae+65Z+3atbbuT8bnMcjdeCwtYGfyPtRw3BkFxGKDYw4k1NDtM7gJn4LLVX8PFZTfFYoIBsidBnTjKObGIWUfV5HBASrv+Jf8S2qmVs5jsjOIWxxgxOuRSrrY/fFXxgZZBpCJRQBfgSJz6HtXKCIbsl4quCSfojwN9GRtuZwHnAFIYfxrezdyJBB93B4Y5A72DX2v9yoCCuV3hUKhcCeU3xUKhcKdUH5XKBQKd0L5XaFQKNwJ5XeFQqFwJ5TfFQqFwp1QflcoFAp3QvldoYgipKamXrx4kWG/ZFup7GaSfUn2RtYQ11iRDSi/KxRRBAaJPH36dP78+cHpEnXgr7/+YvRHRh/j3lQl90iH8rtCEUWYPHnyc889N2XKlO7du0M9B5XPmzdv4MCB48aN69u3r/Fo7oz4yA2uSvERDeV3hSKK0LVr14SEhAEDBoDlwd0lSpQ4c+YMznfo0AHMDtUe5P6///2PcQUyCzKsiBQovysUUYQCBQo8++yzEydO/OOPP/Dv8ePH8+TJA7ovWLAgC1y4cEHSdGjQx0iH8rtCEV0Am48bN47x36mtDx48mD8x1iOjASvFuwDK7wpFdAGqOgid2TxA371796byLlmw6U6jSbFdAOV3hSK6kJqaOnz4cPA7g7Y/99xzPAk2l1xOxhM6WFMvRToi/uOJi660RWofdoYBJhKzMwv7BXgisxKbICaJV3lVXlte+1pWkq7rmd2fPu958+YdNGjQxIkTBwwYkD9/fuOxwzC3n/H4zPBWknops4R/XIllfXhGaitpoeRC25s+vcd9lHzfICPi+V0SCrNx8JhtxXbpNRmlQcgm2DjYAZgdLXfu3H68f4ZQeVVeW17hPlaSubB95F+VLHoJCQm//PLL0KFDfcvLM7wbzjD9np3dideybpIYRL6F8L6MOuRrZhCkl05Ufd8gI+L5HZ+HLYMp4dE4pCV99tlnc+fOXb9+/bFjx4yTOd6Pjy5ZsuRtt93WoUOHJk2a4N/gNA6VV+W15SXFGydfthCWj1ch+fPwd+XKlcbDdKDszOTF3c6dOxcXF8czpGDegRyNa8VwTwrGDeltKVMBZm3FrXgVSlJfjrbvG2S4gd9lVKfuwIbeo0ePjRs3QkmZPXt28eLFjdM+/OgPcPDgwY8++giPWL169dSpU4NjrFR5VV5bXuPoyOTWyxE/vaGDomUmLw5A7vJu7ZR+LMChghUWuwonFriWPC4qP2/LC73SxkbD9w0yIl4eMdJxFpmcnIz2N2DAAGgc3333HVsYA274t3HgiRj/O3bsiPG/VatWffv2DU4TUXlV3gzlJTniJxpAfNST5E5lH8UolA95AfGooUqOazmWkNl5YNI63tgV4H2omLPmLCxlouf7BhkRL4xM+qgL5MmT54MPPli7du23337LAjL78+9z7QzCr7/+etWqVaEFPPDAA/59SnqovCqvSScvGNB4KJ7w/QgxeRvLJzIzeVkf3pMlJToNjTPG0ay5lEobi/A1a8tRBFeJTZ8nZf4RPd83yIh4fucIL2oF2tCCBQvi4+MlDJ7xzPj8vjhDSAMdOnQoJpJBaB8qr8pry0uVWZR3HvhwoWEZ/sr9TcbyXUkvL46h4b766qu//fbbunXroPDy5jhPRiZZi2Yt+q/UhDw+duzYdu3aVahQgQOGzB7k6VHyfYOMiOd3Y43wPNi4cSOmWvzJq5X7N94pWyq1mMaNGw8aNMhfd/YNlVflJagyi+4sni0+VHjb+4UEbT8xvbzbtm3btGnTyJEj27Ztu3fv3rlz527evPn06dPFixeHro2/AwYMmDlz5p49e5KTk2fNmjVq1KiDBw+ePXsWNI2BYdmyZbi2devWH3300c6dO6dPn164cGEZYPjEaPu+wYQb+J0QDeLw4cPlypXz+pXNwr8qgEwz8bdEiRJc5Q8aVF4b0Syv2E+MozX7fg9S2MvjO0N5b/Bg9OjRP/zwQ4oHLVq0qFy58rRp0xITE1u2bHnq1KnXX38d/Hj06FEMALt374ayP2/evE8++YRWo/Pnz+fLlw8FnnzyyWLFihlnDuHlxBn+31dGF9ScNiVZ0xZ/JLuGYvuyz3tF2M/wQfJmfPi5Xibcw+8KhSIQEC+XVE9ukLx584J04uLijDNCVKxYMT4+HseMVmY824XAm1xr5QIpDTLGYr0Ihe3I72WDsndv0WeUbC62LCnANQyxDsmvfFH01JRtB9mB8rtCofCF8uXL9+7du3///uBuMA4DTJKswUGFChUqXbr0wIEDCxQoMGbMGJBajx49QFjdunVbs2ZNQkLCt99+i/J169ZFmblz55YsWRK/chk2srieIotmDfA9MBmWsZYxxETmtYlX9m1RarxJULkMDBw57JLZr7Pyu0Kh8IXExETjISko6fSQAfWMHTsW9LRkyRLjyRnCkqC8pKQk0XBxXrbLNm3a9KGHHqLFBnTGAhFE7sZD1mIwSfWE6zGOrcZY6wcS6oD7DOjciZPppSa5y21l0ZtepMYf6w3K7wqFIlOAgOhmQ6IRFjOOcUbCDBhn8VYKyMZa45AdYyfwJpHlbC5eQ8Z6CXYEG2jleCH4ScidO7xol+dJ8rWMf3wDYofheTHK+44jdJmImPerUCiCDzCUuL2Tu7mhiTTN+DAMOWBTlRTmTWhopm1HFnUjiNyN460vC9piYqLpHFwstG7vxkrvscqX5qWkG8/LkRAO/OuX/OaR9IoVCkWQIc6XNDQLT9ncTYMyWUni0ojuSeon05EE/aKZBhkxTgBLYXmIvGvXrhdeeAEHlSpVuvbaayFpq1at8Abwd/ny5d26dRswYEDXrl2vu+66vHnzTpo0Sbb7ksrxHvBOzp49O3jw4Pz5848ZMyZ37txcrTV+MsErvysUikwhsR6Nh9NtpVIUT9vZkT+hmNC6LDmmjzrp35ADAYWwLStMX5cRI0YkJiZeddVV+PXdd98V8xSmKWPHjn388cf/8Y9/FCtWbNasWVx4AL799tt58+YZz6o102adOXNm0KBBM2bMoDmeQykTaWW/2lHK76lWxFHOGaWpXb5yYS+2BK6qrE9q2hCpoiVx7d53P7Eja9N0aKshdne1/bfkcrlzRMiboa+xLIJlKLJ9CR5Bm6nXYlrYykuI3cPeiUqaoBVY7pA+3rr9ljKT1+Yae2e/nEzvySe07lXGS167VhnKa4eD57H9q+276eWGaIsjdnOTLuOg3Rd8vGevcDoc1Y4dOwZyN06ENd4Hf8+fP//FF18MHToUJVGmf//+tWvXbteuHUrWqlUrKSlJ4jEAZcqUOXDggHxHOkf6K5ha1PG7vFb2YRrOpA2JHe2SOwvE1GhrJcnJyfT/9Us97XluqhMJVta7+MRLWuhsM6hIxD5vrM5jnDZKry/x27V7Y0TIKx1VOq1wH8XkHVKdMC/20+2hPVK+L28ljZbrljEZxWGndGIisId5IazAySv26MuU196UazyfVeKzC/dRIolpQ3MHv6Nx1nUlMo+x7OYcRfgebL/1y1GSpJHg5RQpUmTfvn3lypWjO83Zs2d5B9SnRYsWU6ZMgYZetGhR6Phicvnmm28WLlyIR5coUYKZs1BDnKfhHhfKVMkvrz3q+N3W19i7xDs1xhPm3zj+qpezeUw+Nj+SvzqDcSaAnOGiYn/99dfs2bOffvrpQoUKifMsu6sopz5gp0u2M+zYc2paUcURglfJRJsUHxHySgc2jlcDKUCc84wzAMijjeeji1eDUH/4yysEzf1EMpxLoAJ76CKPiLtLjBNhOAjfVxre5csrH4gfDl+QjVbGA3rjiJehfHSKIOlBZDzgl5UhXF7C5dRfHH5kcxPqMGTIkJ49e4Llq1ates0117z66qt0+Y+Li3viiSf69ev373//+8SJEz169EDhGTNm4HIo8tOmTeM92eN+/fXXiRMnfv311++++26TJk1k/Tn7m1dNFPK7cdqN9AS2fmkcou75png2F+q2ttXMX1uo+WhRn9GIn332WTQdNBoM+2hAorL5diK2dXb7jJCC8TCasdxypaeZtGbHiJCXdxCO4Lof7iZZKbw0d5N2PLCnOxEhr73J3jiJNST+l+25aBdjpAFG9ZI3EG7ycvBDBSTGjixssoBtjPJaFeBoLd+Uo4so4LFWTpLLh2295PENN9wAUpaatGzZkhUG0aPO06dPh2Lx6aefylxKFEqahVEBlK9cufK8efPSzw/8sjIRdfzOtiuBmWTOiNfaq1evAQMGvPXWW5hVcaroe/wUdwJRN2KdXGLZh6xTieVx3Lhx6A/QAjD+o6ojR47MmzcvVSEf4xCHLq+pd6oV9NU43Z4PQovs378/dCvjmLAw68SDIkVemXDImXPnzuFCEj3vzPNeGwWF94UpIkLe9IlDY51QLRCNPC5mGdtgFWuFTxH2Dx95uVBkayfkxxgrt5/tZwLFGZpy8+bNjWWON05/t30WUYcRI0b07t27aNGitg7nm0/tT2Cv1dEiZOtJfATfrUQaoEXUJm6u+fGeVD74CNng6peRNer43VjD76pVq3Dw2GOPGU8UJDYC0Jn4ul5OnFXbfGH8NOoaJ02l8Xx7tBI8CzPBsWPHHj16FCfBv7NmzYLuM3ToUCo4md2HNfznP/85c+ZMTCQbNmyISbEYN1mGZtZYJ8AIeYF6HERDr5Py4S8vsGHDBpTcvn07VVTUHwdffvnlzz//DNlxTyiMZHnxUvBSmiJIXtDEyZMny5cvv2XLFmiC3bt3nzt3LqWzBzkKuHXr1uHDh/fo0eORRx4RwiLdB789oxpjxoz5448/MpRXPpCoXzKnJDhIiFUNt0XPxV+8RirsuCHkirHyx8Y4sZdxN/T3mLSRjX1LSqWQt2I38dpxapz1A2OlMJR78hKyvCwU4/jMmTP58uWzQ/DLMODVSa8MUcfv9sDO1vPDDz/Ex8ejh+CYGYR//fXXqVOn4tW3b9/+zjvvzPA+OZyN2vw3xnHP8Je+wzZt692yUoQD6KQ4Hj9+/G+//cZl4czGIXI3CnTu3PnBBx/s2rXrzTffvGjRoj///LNNmzZoWBjkDh8+jM5w4MAB9K6SJUsaJ+WCscwdXhsOw1Ze4O23337qqaf+9a9/3X777fiyeAM33XTTpk2bvv322+uvvx4sv3r16h9//BFEgDcwatQojHwog0vwrW3NMSLkxa8g6KZNm44ePXrZsmXgelzbp08f3Af6KU4+8MADEH///v3g/VKlSkFMWWOkIU6skQGVl+0nhxXN+JLyUtPHGYzKt956KzojREC77dChA+q8cuXKI0eOvPzyy8uXL4f6gp7bokWLefPmNWjQoG3btrh2165dffv2rVSp0unTp4sVK4YL0ezRwnGAsR8zBtv+nurAB8vL5M/uHTnSxjr2siAZZ/hMtdLMUmqOASB3e82DL8qeeWT3tWfz+ogDm6yoAxjz8dXRw/Pnzz948GB8CfyECWOBAgXi4uK+++67zPhdbkVlh5ogaMJfC9/S53M4obrxuOLFi1PfQd3QPjC9HTJkyOuvv+6D7EDuKImbzJ8/f8KECa+++uorr7wClbZEiRLoAPfddx8E/+WXX7755pt33nnnpZdeKly4cP/+/WU9itZSWagIf3lPnTqFanfs2HHgwIE1atRA354+fToqedVVV9WrV6927drob/fffz94ATpshQoV5syZg1dUqFChr7/+GuOBeBNFiry0sIPK8UE///xzyILR66677gLHPfnkk7gJvu/EiRMxfmPAu+eeezgxpVD2pvngyOvllOlbXln2r1u3LpruoEGDcL5cuXLolU2aNIGk+Lj4ami3b7311ptvvomS//d//4deLE+54YYbMGY8+uijS5Ys6dKly759+44dO7ZgwQKMfyatG2hqRq6TXvWXiZTwr3wXUdXt+4gdxjguG7InIMbZFWy7q4mRR1ZNso+o43fjee85nW3WeMtM+Ug7Gg18eOlQFjDb9X0f263KS/3JPmQSJ/8mJSWhQXNYQgPFRBuD/+XcikoTtB50pw8++ACCQyG69tpr8ROm81Dx0D04fxSrn23BlEliRMgL5R3dGFr51q1b0ZltJYj9k0ZS0MTs2bObN28OlRBaHmZv/PqyPGP3sXCWV/ZD9u7du1OnTjiALsxRGaO4WISpqsuzeGDPZe0158DJKze8pLziuQ9QEADNFUMyykP7Rvl3331XRMCdITha9Y4dOypWrGg8REnXGoxw9F9kRAHj0a+5MiFD7CVnKqyJrNjZo5Ttmy8uScbpOPYadXrF3B4JxJfJaPzIK4YMsDGOpypmrP369cM8Dp8BHx6N6bHHHhs2bFjp0qUff/xxH/p7QME+Jr6M6J8vvPAC/kLHGTFiBCpJQzmKiX+Yj1vRTfjee++dMmUKNBpoSdBnwW5Q6J599tnff/8df1u3bh0fH3/11VejP9Cqc5lOomEl78cff4yZO/oG1EBorCjZo0ePOnXqPPTQQ5ibQ2pIh2KQHYQ4ZsyYPh5cc8018q3Tr1iGs7zkFwAzTmi1kBqCtGzZcv369aA5nDx8+HCLFi3QsCHvRx99tHTpUkhXrFix+vXrmyCGCsiqvCRcHvzNEzUXSgnmZOin+HbQ6HH5nj17oIQ98MAD+IKYt2Fa1sUD6PJovUzyJwSKJlGkSJEYTyq+TZs24e/lLKsKxJhDX1vZIGLSGsol9q8dlYGCGEfTsk2dXmMt544yY86+/1LU8XuME0cCrx49ga91+fLl8h7ZLNBPYp2NEiEBOy2POXdDi0QXReeUdR7+igbnYx1GorMaT7v58MMPcWbVqlWidGAwE03htddekwttZg8Cy/tL3mXLlvHXtm3b4t8nn3xSwjahV+PMXXfdhTdw++23f/XVV3hQ1apV6eKWmtZrNtDwl7wAyHrSpEk4wBQNUqMkJjH8CZJCpV2yZAk/d8OGDTEG2KYSLq4EYQjPqryoHn7C3ypVqmAAQIHrr78ecpFhMThBLWOfve+++0QEHKDnGqfFQmvBMYMYT506FbelY5jxEHH6SvrWk3hbcYmRwjbRk9xlX5gMaV5aOSneHn5SLRdP2oJSrY1XV4yo43d7sVu0CeMMlfJh+MZDGAVJ7ANUJ1GTvn372nZJuy369p8xVmQCe+WKG0AoqRevifYRa3lPBxT+ktfWE/kFU5wNq8bJKE3GZwFeRbVLvr4f/b4DLa+YbvnJxPVFHDzmz58vVgXbXCD3DM4sLavysqp2ixWtlgwrl1BwyiWy2EKJm02sswlWDDU2h17yi4tXjMgijo/GMyzJTAut6KKTw08o2zj7yGwLj0A8OO2V2Ow7L0Udv9t+C/KRpKuze4vTSHBMExlCFoFl34ddJbvRk6kz26xhrwuJOyBbmFzi1dpEmRL9IgizeH/Jm5rOjd04JEiR+UJkA4Sx1C7JLReEvBP+kleMwjmcraEiHTVEcayWbypO7pDUeBYAg9DOsyqvVIkNzx6MCXkt/Ck27SZe4/RuSYpEg76XK0uqE4/3kuurxvGKkRHFWGqT/PrBBx+cPn26RYsWXq/Uy3pjt89z587FxcUJ9cdYkWeyT/FRx++pVvxlY73xGM++Z1mCY5sIYQoCWWE31gqnNBov450PPpJLRGQqULanGhu3OD7HOKE5Ljq7QIMwj/GXvPaaMB3y7FGcsovU9gAgftbiDB4oUZ16+lFeO+aMzF3ECCDTFxIfidU4rh0XrQgtgcOVyWvvyJNbCetJzzUZxQsiZAJn6+zy9/LZU2aB9uKq/SBSNpj6jz/+yGFtLEh1gJMNGzasWbPmrl273nrrrREjRhw4cCB//vyjR4/GVU2bNm3cuPEzzzxz4sSJu+++u0aNGrjbpEmTypYtm5XX7I2o43fx+TPObN04oSqExaDHyWw3VPVkDb0cOcSiIu0Ss0Lbcpch6Dsh0kmwTDKCjHCi2htH6xclJYByOvCXvDJPF4KjV4OYSuXaGCdAlXgxpzpZj4Ojz/pFXo7B0lD5NcVkIUuItgeeTUxB02CyKq+xTG0pziYm2S8qnzXVCk8v+ruxwpmxPF+LHblBNGWT1n0lM+Amy5Yt27hxY5EiRdq0adOjR4+qVatCVS9duvT+/ftf8wDK+59//vnkk0/yVlOnTj148CAOunbtWq1aNXRDxhp77rnndu7ceebMGRTAGdz5559/vvPOO9etWwd+R1Wvv/76hQsX7t69e/jw4TjIzmuPOn7/m5MC8aITyo4s7+Wf66/50RVDnivztRRPSCOT1iuLkfN8kHuq4+ZsrMmKNGsvK43YZ/9m5VELqJgCf8kb63h2ipXT1tfsSZs9sMmolsPfcVcCLa9Y3tieRSKZnchmdy/F1svnOtAfOqvyShmO1iKgccYnm9ClraY4kVBjrG2rorl7bTe1K2PSLplmCHrZ4xE//vjj7bffPnLkyGbNmi1atKhnz55nz55944033nnnnXfffRfEzdvGx8fLLgd2w8OHD3fo0AFPr1OnDmo7bNiw8uXLg8QxcrRu3fqXX37Zs2dP3rx5oc6jkvjp2LFj2XztEc/vXp/E9yBsI72Bz6SN02QuY/pmE0H6LpR92NUQO0Os46JuHN8sH3ewRRAqlzrbtbXXJEza9TcpE/7yGktk+27p34O8DfnJ9s7mQUTIa6zVS4EIJWJKze37EyJ4+Mhrl/ESUA68equXUOk/K2EbG+3JnKxbZFhzrl1xMpHTE5cNlxQsWNA4awMxlnc8b/j8888fOnQIj+vcuXOtWrVSPDGBQeUPPfQQxgCUGTt2bLFixVASiv8ff/wBNoe2jtGCNgYo9eXKlbuSt2wh4vnd1rbs9ZZA690y07zoBMbz7cTmL6i8Km8goPL6lhcl77jjjvbt25ctWxY6uHHGP94ENW/UqFHv3r0vXLhw6623Gs+kAQq+TIxkUwVE69q162uvvYZ/Bw4cmC9fvgcffLB58+aDBw9GBR599FGU3Lp1a/fu3TEnmDBhQjbFjHh+N5ZRlTECL15GPPTsQx7BuWQwPSlVXpXX71B5fZdHGWjWzzzzDMeAESNGGM9+EYYzQZ3B2mJEkvUPcXkkub/55pv426RJEzEcsZhM0d555x3UZ8uWLbJSkk0xI57fZQklCDZTGzFW/jZBEPQOlTc4UHmNypsWqU6o4VQrSs/fnIj5LCPbl+QSYw1g9lqxsL+YnmI9rqtcFJHkJNkUM+L5PYe1ZcNrr0cQHm0cA2JycjKXhoLwUJVX5Q3Qo43KmwlkDTbW2q1K9zMQsdQ2Jm3eVNuHxzj7tsTJUqJ4iqOneHPaEXKyI2PE87uxlmI4tBYpUuT48ePFixcP9HNTrahMJ0+eZBKMIEDlVXkDAZXXR2GyrT3qMJC9uACJe4+dEtJYS77UzRl3wY5SYCd8pm1KfO2zv/4R8fxuj5YcTu+999633nqrW7dugX60jK44+OCDD/DcQD/RqLwqb8Cg8vooTCuKpLGNdXIziSEl1tkuS75mSkiq5Hbi1hzWfl2T1kvNduiMdbxCs2miiXh+t9ffUz0bzdu0aTNkyJBAt48UZw8knZmSkpKyv9h9OVB5Vd5AQOX1LW+qk9vPth2lOpEtjGNckr3xKU4CWNH6xTefTzTWfhRR2I0VvVwMQdlBxPO7jP8Sj61JkyYff/xxq1atli9fbqy9G4Ew6vHjtW7d+vbbb2/cuHEQ1ohUXpVX5U0Pr/2JKc4OVd9Pv3x5M/Smt+8vF9pB0zI8kDt47UexHx1r5ZbKDiKe32Oc3cbiiIq3NmXKlH79+lWpUgWKAJpLyZIl+SH92F5xn4MHD65evToxMbF+/fozZsxI9Uc8z0tC5VV5Vd70yGEl0Zaa+9ifFSp5g4yI53djhbaI8cQwSvHse541axa0gHnz5sXHx3Obb4yTlcZfzy1atOidd945evToRx99NAieBgKVV+U1Km9GIMuLNw4XMDMrHCp5gwk38LtxMp5IqA0G8n7wwQcbNmxoHPOWhIf0yxNTrKAZxjGuyRp6oKHyqrwqb3rQPVGiafrwZw+tvEFDxPO77SIqQaMYX18Wo+mF6t8vF+vkRYt1tjgHZ9efyqvyqrwZQvYfSVA5H1p5qOQNMiKe3+UTsmXYyQ9N2swVEozUL88Vf9gUT1ICY0UbDihUXqPyOgVUXrv+spmIJY3PPFyhkjfIcAO/cysBg1dwkYRtwg4EykC4bAR+ea74M9muXcHJC6Hyqrwqb/r6y1RAAj77WC8NlbxBRsTzOz6M5GM0Vvoe+qLypAzj/l1FEQMfbx6cTdUqr1F5Vd50EEvL5TjPECGRN8iIeHnsTy7HMibzJGHn4ZWFF7sR2PlzvWZ2VCVs16v0Tw9O41B5jcobHfIK5F/f9nSvMpejiQdf3iDDhSIRMpWTHGz2voMUZy+ZrOHIVjSZtdHRih2A19JX11yGahB8qLwqr5vkVfgFruV3Gc95gAYtu4Ht1pxiZSlDATlOdWJBsAOIvmOHiQgrqLwqr3GRvAq/wLX8nuJEdGOYnhgnfbvsY+ak1d4UJ6vn6BgSmpmFbY3JXtMPH6i8Kq+b5FX4Ba79rrEeyDEDb8oEVvZD85g+trLSIh2D59k3RMfhv+G24U3lVXndJK/CL3AtvxtrEmqcxRZuVs7pybme6kTZlxYf44TtT3GCt1GvSU5OZlpI46hLKUFJTZlVqLwqr5vkVWQfbuZ320Pgp59+GjFiRL58+SpVqlSrVq2TJ0+2bt0azb1NmzYLFy7s3bt3fHx8x44dq1Spkj9//ilTpnAKLLvpODs+e/bswIEDCxQogAKhFi4DqLwqr5vkVWQfbuZ3OpBR3xk5cuTkyZPLlSuHZv3GG2/I9ja0eDTupk2bVqxYsVixYq+88gqvRRfasWPHkiVLcJMyZcokJCTg5OnTpwcPHjxr1qwQCuUDKq/K6yZ5FdmHm/mdYH84fvx42bJlaXZEZ5B9EKdOnVq9ejWaO/rGn3/+2bdv37p167Zt2xYFateuDc2Iy1a8Fe6wd+/ekEpzaai8Kq+b5FVkB67l9xQnPTlNk2jWR44cKVmypPHYHGmdhC4TFxfXvn37xMREzGeLFi360ksvxTrxhjZt2rRixQooROXLl8c0lr2Ia1Y+4lqECiqvyusmeRV+gWv5XdorV6XGjBnTrVu3AgUKXHvttTfddNP48ePXrFmDPoCfHnnkkT59+mzZsmXfvn3Qd3Dh1KlTceEtt9xy8803i6cB7rNnz55x48Zt3779nXfeadasWSjFSweVV+V1k7wKv8C1/E5jZYwnZSL+rVOnDhoxf4La0qhRI/aTlStXouT06dNxfuPGjdzgZ6sz6AwXLlzIlSsXCleqVGnu3LnhqemovCqvm+RV+AWu5XfZwkfnX0l8jvZNvzHuBBGnMdnugTPoAIx5FOvJKiAZHY0VCSTc/IVVXpXXTfIq/ALX8juBzsCtfWzrElQ61gnEwS6R6oT2p5bEzkCrpQSxk4kt1Z+QieQTKq9ReV0kryKbcC2/s6FzK7Zx+kCMFRU6Nm12LrR1qjwpTub1GE+6AAae5j3ZQ8Jzv5/Kq/K6SV6FX+Bafo91wjBJWGevFiyRUWXzHjtDrBU8WnQceyIs/SqsoPKqvG6SV+EXuJbfqZLYXmUmrZ0xxgmOaneAWCuUtpS3s4WxV9CIyTt4OTYEX1K7qi6WN9WJfi5UxfpQUm6yj7USNdjHIjhvYtKm/RTpRGTjBGLk4qQEcpGayNb/oDGj67+vIhBwLb+LbsI2zfksf7J7vnF0mRyezLxs7tLKuR5lz4iNtcYl+wlTnZjaIfQjdqu8Um2vGCmoHs6kz9mWasU952JjcnJynjx5jMXdIiNl4b5/cpwdlYV/5aF8D7yET4xxkg2RdgP6Htz6fRUBhWv5XbqosTK5UFVhf2Y4DhyjTbOYrdxJd+U2EInBRAMo8yfIT6kOQtgZ3CovGef8+fPgaBIQKyA79Y3D16gM1x5Fk+UBLkSBWE+oRab6FLXUVnWpwMojjONhwsfhPEmQhmzjGMRjrMCNAYVbv68ioHAtv8u03f4XbVosmKKa2XnZeSznqR7yX6pO7CeSMyHVSY4Tck3HrfKy8lTAZSUwxgmBK4Zm/D1z5ky+fPmMo7nbSr1o6/QkoYZLSWnr4E5OGTaEN43ldkJbjbxblicJBsFQ49bvqwgoXMvvKU4+BNsoaaxpKc937Nhx4cKFxtPncV5cC2TuT63QWOkZcTLVE4sVBeRkyP2I3SovtVHx+hBrg9QkOTk5b968OAC546d169YdOnSodevW/JWExQQXsZ6d+uRE+YkiiDlbDO4oQ8dB8rio6pRXfuJrtw1HAYJbv68ioHAtv7OLSt+THi4FZPWMHcNWYTjjXrFixYQJEzZv3gy+WLRo0YgRI8aPH79z50707UaNGrVv375BgwbVqlU7ePAgfi1QoAC7n8rrd9CkLiYXW1/GSZA7GYrLiRAcqre9BGo8buOpTtj0cePGHT58eNq0aXgDOP71119Pnz79yCOP/Pvf/37vvfcefvjhrl27JiYm9ujR47PPPhs2bBju+cQTT4A3p06devXVV2PkqFu3blxcHG6IZ9FzPAgU7+Lvqwgc3Mzv8fHxZ8+erV279tatW4sUKbJ9+/ZatWrt3bu3e/fuN954Ixo0Tu7bt4/t+D//+c/SpUvRNypWrNi3b1+czJMnD4rNnDmzWbNmUHl27NiBpj9//nz0HPQHnCxVqtTLL788atSo77///tZbbw3tfNat8oo9AQJ+8803L730Eo5nzZr10EMP3XDDDT/99FOFChX2798/e/bsDz/88KOPPjp58mSbNm2odL/55pt4FaDv++67D/Un6UMoMNq5c+fwZn7//fd58+aREFu0aAHiA++jDC4BiY8ePRrHGzZsuOOOO/Bin3rqKdxZ7OAQH+Rur8oGFG79voqAwrX8fuLECXT1OXPm4Hj16tVo1osXL0YHQL+dPn360aNHmzZt2q5dOzRrznnreiCXo3Fj4g9t7rXXXrvttttADVD0UACdAX2jUqVKuPmBAwd69+5dsmRJdAZxpwvVfNat8pJlaA1fsmTJ2LFjS5cujZOFChWClv3000/jzFtvvbVly5Z//vOfr7/++jvvvAPupkn6CQ/kVqjq2rVrMSoUL178jTfegOJfr149eUqsk9yOmjIuR0mQ4KpVq0aOHIkLly1bBtJ89tlnixUrJvZ9OqgE4T249fsqAgrX8js1LDE4cjKbO3duTNXR0O3NHcbTq7/66qtXX30Vx2jfmLoap6sPHToU01jMW6+66irMcI1n5rt7924UA9Gga9F2md4fWeX1o2g0FECQGCeeLZcQuagIPfqvv/4yzlYdWudRN5D4F198gfN33nkniB4/gaPxa1xc3HfffTdu3DgIaO/55Kv7myf3NM4wFxJU5sKFC/NfMevLVbYRP9Avwa3fVxE4uJbfCxQogF7as2dPzGfpVmE8fhRouOgSDRo0eOaZZ3bu3Im+wT5zowf2HbiyV6dOnaJFi4JBatasuXz58k6dOkGTgqJk7xmhnxntv8GW04GL5RUvRjAsBMyTJw/UWEZioYC0kNxzzz1QP2mNoYxQZlu0aCFcTLMMJgEo36VLlwoVKuBttG3bFv8mJCRcd911HDbwGvkC//GPf2Ba0K9fP1yI8/Pmzfvyyy8fffRRjBYgVt5WbEeBfgku/r6KwMG1/M4OybbetWtX6HcdOnSgPoJ5PQqgcdtOCDk88TrsXXyY8HKRKikpictoU6ZMsTf1rVy5kv9e9OQ1thUflddf4Aohdc9bb7317bffNh6mBk1Ds3755Zfx6yOPPEJ/R9stUmqOA4hD/27o7yxAQwdT04nTN/R9qsaLFy8mza1bt45Pf/jhh/F+jEPlXttcUwKfn9qt31cRULiW39m4uTMFB1T3pLHKVr0Ya7u217YXmiZRhp2Bl1O/Ewe7GGeLvL0vJiRwq7xU0mWTKhkHNaTnjHEWYCXelmjrIh3FIfVzKVU838VdUrYC0dCR/m6yR1SK8YVw8AjCe3Dr91UEFK7ldzZZaaBe21XQdunCTFVFCrCJS8RULrtxY4iXa7CXF7Z9k2CL6oFb5eX9Y53It7IXyTiUJxt/xCpt79Q31nYk0UaFuLmUahu1WcwOzyJO8Tk9YK3wL56OtxS0yLpu/b6KgMK1/G6vEaU64bDZXs+dOxcXF0cdkPN64+k/qU5kD3YG0d3QGSSdAn+V+a+olqlOyA6V1++Q6AIio+jU1LvBXyRfISm6gYtXjMko+IwcgO+oycoQwp9yWCFcjKPecus/Drh1iA+SMoGDi7+vInBwLb+LpsOWSqWP7VX2pPAnztylt4tbGPsD+zN7i2hwPM+TsWnjbodqScqt8gqXSZgwoV2IQP1alOhYJ5d0jJPGCDUEfefOnVvej7gzilECfGc7R1J86rxeQwKN8iI1FWGZWwT0Pbj1+yoCCtfyu7RmO3AH+4CEpqJHgZhrxdct1grNYfNC+rCCMc4uSvtZIYFb5SUd4wDkTos5bTISZoDqquiq4rYo9Qe524u0YoKQa2myoMOlMBrVYZv47J1WvNwOuxjo9+DW76sIKFzL72zlXg3Ubtx2P5GTXn+9kP4SwqvnhAQullfqZrOz6JWiettV8nobtl+NDbmJxGmx1VX7JvICTbp3FQRyN67+vorAwbX8rlAoFFEO5XeFQqFwJ5TfFQqFwp1QflcoFAp3QvldoVAo3Anld4VCoXAnlN8VCoXCnVB+VygUCndC+V2hUCjcCeV3hUKhcCeU3xUKhcKdUH5XKBQKd0L5XaFQKNwJ5XeFQqFwJ5TfFQqFwp1QflcoFP8/mNyDuW1///33oUOHxsXFVaxY8dlnnz116lSNGjU2bNhQrly5iRMn7tu3L3fu3JMnT0b5Y8eOPf/889OmTePlkialY8eO8+fPZ6YROzWusZJD2YkPmZAr0MmwogfK7wqF4v+BhMtMVUzECnJ/8cUXS5YsyTRPq1atGjdu3Msvvzx+/PgtW7YsXLiwUKFCxpNGCqydnJxM+h4+fDiOK1WqVLBgQQwGixcvvvvuu2fNmoXxoGvXrrt27fryyy/xlNatW99xxx0YAIoVK1a9enVcMnDgQJxE+eCkTIkG6HtUKBT/D3ZWcaaWPXr0aJkyZYyH+qFTr1u3Dsp4ixYt8OukSZP69et3ww03dO/eHVeBnSWba+nSpY8fP/7JJ5+89957n3766VNPPdWrVy9o+tWqVfv2229RoF27dnXr1u3fvz/u8/jjjz/xxBN4YvPmze+///7rrrtOyd2P0FepUCj+XxbZXLlyQa2mDk47Sb58+Q4dOlSiRAnwO7j++++/Hzx4MNTwr776qn79+uD6p59++tSpU0WLFsUlKR4cPnz4l19+eemllzAMgLUxZmBOgKGiR48eFStWxPH06dMxHuBZIHeMCijAseSmm2569tlncaGxEporsgnld4VC8f9nW6X6TM4dN27cM888U7BgwcqVK+Pk1KlTb7311t9//33ixIlz5swBWefJk6dw4cKgaRT+8ssvu3Xrdu+99+7fv79v3774Ffc8efIkSnbp0iUhIeHqq6+Gqo5LQN9/9+DBBx+ELr9+/Xro+B07dly9ejXKGE9y8BC+CjdB+V2hUPy/BNz2wibIF4p89erVV65ciWNZCwXKly8/e/ZsHuMSKOl5PPjuu++o+4PEOVpgkPjwww9ZctWqVbwJ9HTQNy6cN28ern333Xd5fsWKFRgGcDlOampvf0H5XaFQpAGJHpyLvyR3EDcOwLzUyuldg/M45oHxjBC26RyFcQmPWYAjBMid9zGeSYMct2zZkku7dLZR+AXK7wqFwojynupBjAfGQ9NgYTK1qNW0n7AAl155jGGAHjivvPJK586daUa3dX8x7vMq/stjPjrWA9uNUpEd6EtUKBRGLDNC1vybmamErC22FP5LHj9+/HiuXLmOHj1asmRJ41HbqaTjhuLezpL2X/tAyd1f0PeoUCiyDDGwyL9cksXxkSNHQND4C36nJUeKgdnpZkOKF0JXBAjK7wqFIsug5k6yplYuTi87duyoW7cu/lavXp0nL1y4ICYd4XQagpTiAwrld4VCkWWA06mw0+BOmgbp//jjjyVKlKhUqdLPP//8ww8/1KhRAwNArly50t9BDEGKwEH5XaFQZBl0j5G1U66IHjt2bP369S1atAD733jjje+//35xD+hGKT45qrkHDcrvCoUiy6BJnfZ041kRPXTo0GeffXb//fcXLVoUdF+yZMkGDRp8+umnOFOqVCl7ydT2t9Gl1IBCX65CobgSXLhwIVeuXGTq//u//9u8efPtt99euXJl0c0rVaqEgw8//LBu3brVqlWzPW14larwgYbyu0KhyDIYr+bIkSMHDhz4+eefcdy8efOCBQvafvSg76uvvvrxxx//4osvfv3116uuuuqaa67Jnz8/dzDZa62KAEH5XaEIU0godjseC06CUnfv3n348OETJ05Ur179xx9/PH36dJ48ebj/k5tCA103ejeCrMuVKwe1vXjx4nSnIWXLwmnOnDlB+g8//DCHgXXr1qGqVatW/f7778+ePXvFcWbwIIlkQOd6jDe425w5c+bOncuhhaHNcMx5A4rhGG+pSJEiqNK1115bpkwZjkZekej99IbCAsrvCkX4gqHYyTvnzp27cOHCpk2bkpOToQvfcccdhQoVwq9169YlhYHjjIdS7S2jAYKsl9onfTy0jAcQ5K+//oKyf/PNN2eTTHm57IAl4/OM2H+kpJiM8PQ//vjj+PHjmzdvRjXq169fuHBhDgOMYn/F9QlPuE0ehSLSIcRH3jFODICjR4/+85//vP/++6tUqcKS4DI7GpfsGAqC3UMeKuFifJM1iRhlwKqckVwZuV/0gMFwGHF+0qRJo0aNevHFF7t168aKTZ06NSEhASeHDBkitiAe4LmlS5fGSIM5BOYTK1asuOuuuypXrizB610GF4qkUEQuvFRvEBPdzH/44YevvvqqRYsWRYoUkWKkJPE+lAXMoLmW28/yrQLbgSEZYuzKUvHhKr4f3BCzGVzet29fsDn+Dh8+HP9CHzeeCPI4YzIfdXAfDJPg+jfffDN37tzXXHMNl4uzVJnwh/K7QhGOkJiLIPdjx45t3rz5gQceKF68uHHsMExzKpq+vS80CPo7rd5eQ5EPFZgjkHFyd9ghbrIEcanEfUDH/Dc+Pj4pKenPP//E8YkTJ1CrwYMH58mTh5dw4DFp3xKrFBcX99BDD73//vsPP/xwiRIlslqZ8Ifyu0IRRrAJiJG5QIJbt26tW7culE1j5TayozPaREkdOdBRdu24Ywzq61UNL4ixnheK6enKnivhEEDooPjnnntu2rRpXGXFX+jjzz77rLEWCeyk3jyQk5gP3XzzzZgbNWrUKAjrFkGG8rtCEV6gG4xY0vfv33/69Olq1arR04PLrUyBZJzxgAuMop8Gh6e4bmkuz9yffg0z/ch0mbhw4YJsnaWFJ2/evH379n3xxReNJzNJ9+7dQfF8qEQ5Npb+bg8tGDBq1qy5a9euAwcOlCpVKquVCXMovysUYQTSlrj04Xjfvn3XXnstrTESG53kzjM2s9vRdwMKO0a810kfl8iCgbgtZhU0y3C6YL8rqPCTJ0/mcsWYMWPwIM5vWCXR+u0FA64B8LhChQq//PILk4m7CRHP714RMIwV2U50GX5Rv0e9wBOlfQRtcUbldbe8EqgrhweoA/TKO++809boyVmihHoZwa/40VmSN8MH+X661NMeGLL6fe3UIrbgcXFxAwYMmDVrVo8ePaC8Z+jV4zUgSX4S3Af8vnbtWh+Vj1BEPL9L4Gk7LzDbCo7RGsTS5/d1J3YGdjZ0hvPnz3NWGFCovO6W1zgEZxzK++OPPwoVKsT34D55/fh9hw8f/vPPP48YMcJ4uBvXSkj69LC3YuGF58+f/8yZM7q/KexgT/qYJVIWoD777LO5c+euX7/+2LFjxvKB9RdKlix52223dejQoUmTJvg3OJ1f5XW3vCbt5k+ILOYFV8rrx++La0Hob7/9tpTkC8ysfOHChe+999727ds/9NBDxjO0uIzcjTv4XUZ18a5FE8E0bePGjQkJCbNnz6ZXWUzaDPHZx8GDBz/66CM8YvXq1VOnTg1OMDyV193yGmvJlD4enTt3hlBdunRxpbx+/75iz7nkIvOBAwc+/fTTYcOGvfXWWwsWLOjatav6z4QdpDNwxSY5ORnD+IABA86dO/fdd99xvzJX7f3bGfBE6DsdO3aEvtOqVau+ffsGp0uovO6W1469JVQFiofgrpTXj9/Xduaxt/VmhjJlykB5b926NV5vz549Ia/7trBGvDziMEDP1jx58nzwwQdr16799ttvWUBmf/59rozzOHj99derVq0KreeBBx7w71PSQ+V1t7yyCUg2ar7//vvbt2//z3/+wwIuk9eP39f2iiG5+7C/cwEZt0WBxYsXQ95PPvmEhik3IeL5PcaJMRTrRNrDVCs+Pp7tFWeMZ8YXoE19om0NHToUE8ng9H+V18XykncksCJYD/J2797drfL68ftyQVjCHsgWgQxB7yDKiwpA3tdee61x48YuM8FHPL8ba4TnwcaNGzHV4k9eAUj9a19LdSLY4Z5oGYMGDfLXnX1D5XWxvOAdbsYhT+HRmzZtmjlzJn91n7zGT98XP8mCsGwE8/1+GEuZFbj//vv79evnMnI3/uV320DGN5veCiYWPdmaYRyXXkZwNtYObHv7xiWfLo8+fPhwuXLlvH4V3+Fsypj+iRSnRIkSXOUPGlReG26SV7oMK3Do0KH0+27cJK/9dHOl39frp8t5P/aveMMnTpzIWo0jAX7jdxK3bEEWcud5cWjljEl4X2Zhf/MAByjG6Rjp3t6z56+qKhQKRTTAb6QpJE6Wl4AYPE82F3MY/iWnk+hFo5czxnGTkgmUv+qpUCgUUQK/8aaEKuWSBZewSfSy7Vh2GMvWOCr4QvdQ8IXKxVzjPqdUhUKhCAL8xu+xTvorLwsM96TZhnhQOchdPMBI6PZmYlHqbZvPlUUjUigUiqiF3/idCrjEjpDzpGzxgpI1WOrmEimJ8SK8wo1KzheJ2qxQKBSKy4Tf+F08mXbv3h0fH58vX74qVapcd911ycnJrVq1AnF37Njx1Vdf7d69+5AhQzp16oRfUWbKlCmpToZJOzDesWPHhg4dWqRIkRdeeMGkTSagUCgUisuBn/0jQdMjR45MSkoqX748zqxYsYLaN/6ePXt2/PjxLVq0KFeuHIj75ZdfFnv9d999N3/+fBzgp0GDBlHZHzBgwOzZs9UEr1AoFFcGv/G7xNE/fPgwyZ0rrtyjgb/nzp3buHHjsGHDLl68CPW8f//+N9xwQ7t27fBrjRo1MCQYK3tWyZIluR4rDvL+qqcdV1puSyuQ+N1L8l8e26mBxb4kBxmuDdhunX4POmo7nl5y33ZW5bWram9icKu8sjHSS1iTdr972MpLSLj29J7EUn+vNszcdfhrW0pNJMtriyAxD2KtvFEiWvToi37jd/nk0M33799fvHhxxnT+66+/+H7z5cvXrFmzKVOmDB48uFChQiB06WDbt29fsGABXvrVV1+dkJBgPNZ82bVsfMaRyCrECmTfmV2aHpn4i3+lKcgyr7F8hLjHj9vk7M7AReNUJzcNr/JvZ2CFJc/ZJW+eVXl5wMHVZgrexH3ySqBBJkuSzBL81uEvr/E0S5Idr5KQwhKJhWxou7eJCEJzkfJ9M5OXzVW0TJM2TwhvLqNIlJC78bv+jnc6YMCAXr16gcErVKgAxXz+/PmrV68eOHAgXi7j0kGLP3PmTIcOHQoWLDh16lRcCEW+Zs2aYsHHN9i9e3diYuLmzZuXLVvWunVrf5E7YXthMmY00zmihqiDrUcIO7Ct2Au/xlEipDwvFxF4FXoIRrKhQ4f6q/JSYf616+kveW1Fj3KxjCvlZQYJyWsq/IKTESEv5x+sJKskspOvmazDONm6hb4ZGJ157Eh5kS4vfsKFXq53/Lh0tpZRP3r88fxvn6lXr97bb79tnEkQdHYWWLJkCf6C0PFywfgcchkXlL1L5ly4SeXKladPn85PYjKadV4x0AL4FNHapPPbeSztDVmi10gTZKuSbmM8mg51XpbHr8nJyWPGjJk0aRKK+bE/iD1BOkBOJxunX+S1FXljZbs3Tkgml8nr5bIFuYQFIkJeO6iAsXYOepkguN/QDg0ilwiJu0BeySloO2vgmH59KJPewc/d8Kf/u22o5Utnb6Hli/qRjLfUDaUJypyLF6Ix5cmThz+J2dQvsBPEsNpipJMIdtR6MMnAtGPatGkSz0+SGsuOLSr1sl2Lje/EiROYfEycOJHlR40aZfwX0FXmocbJJ4n26sMkmlV558yZY09y7fmsK+V9+eWXbd8tOwJSRMibPlGqhF6R90DZ7b5mL4zJiOgCeXErqoz2JIYaJIe0oOXRDRP4cxyTpQx71xJ/EiNgTidjFluSqBXUFlOd/LmMopeZMpIdDBgw4E8PRowYUbduXTYp+dWeRjBL7xdffPHee+99//33CxYsKFeuHA2adn0gDrdr4fj06dPjxo2bMmWK8fQijFKlSpUaNGiQH5ekxIoa6+Sl5EqAv+Rds2bNokWL9u7dO3fu3GuvvZbf0WZMl8mLkiAsfNPJkycLv9j6Y5jLC1lOnjxZvnz5LVu2YNbbvXt3fDgaUsjRZD3jYUb89PXXXx8/fvzNN99MdbYNevFdhMqLq7x87TBuzZw5c9u2badOnVq1ahX1FVwuuUT8Uv8whz/5nUYuYQQyuCj1fLOxDozzUWW7k0Qis3UNUUD8VUl89fHjx2/evHnr1q1xcXELFy48cuRI+/bt8aD3339/3759s2bN+u233xISEooVK4YK33///XfffTc6/08//XT11VeLXHZwUeMk3GnXrh0GA+pH4Aj0qEOHDlGj9Ff9jaOS8NV5JZvPvry33XbbfffdN3Xq1B9++AH8LqHf3CovbtinT5/p06fL6hxtwTTvhr+8+AnVaNq06ejRo5ctWwbuO3fuHCRCrUqUKDFs2LBGjRphnPv555+XL1/es2dP3LNx48aiodu+NJEub968eSdMmPDYY49dd9116K0rVqzAedzt8ccfR7EiRYqQaqJncdX4l99l/BSnK+PR023bn/39aKvBSxfVXorZJe27ZR+4GzS7HTt2QFEFEaAaZcqUQet/8MEHURO0FajqaBno8GguYAHUDa3km2++6dixo6zCGcceJWfYaKD5ooUlJSWBIHAh6l+wYEHwi3+VBVkwNI6y46PJZlXePHnynD179t///nfbtm2NNQNzq7wgQailMkek2VDiZIS/vFSGihYtCkE+//xzfL7Vq1ffdddd+HxPPvkkKpk/f37Uec6cOTh/zTXXjB07Fme85JUVl4iWt3Xr1viUKDNx4sTZs2evX78emsrBgwcxzBcuXDjGSbod4++8teGMK+d3Gfn5MWKsPCwsIIOwKOnyU6qT3ZwHTJRlv3EqFLxtZuR+ZR8JTXPkyJFo7qAAtIYePXpUrVoV53v16gVlByoeWhurKiYmFP70009feukl8AX1WbFQi48d12ALFCiA+ewID6ACoyQIBd1j4MCBWa2nD5B9LlMNyaq8kGLo0KEgPnQJecP8lG6VVywDQjHiWZheXvAj5YWYqFjI5aVyjTffu3fvTp068RPIrFd4Ewo7eln16tWXLl363HPPYfDDgGfLbpyYgCa8v68PeckzVAop7/Hjx/HRUWEvjvJyA3UxroTfZWFa5nTG8UU1jq0W75efjQqC8bxc8c0Qj8MYKy6N7eokt0113HLFpBPjWby1vRWzBNQKF3bu3Hn48OFopvhbqVIlzFjr1asH+oaiFx8f//TTT+OnmjVrouTKlStB7qdOnRoyZAiXBy45rqBhTZ48+YUXXkBHQq94/vnnMQPw4xQkS8iqvFB8tm7deuLEiYc9oCnWd+UjWt4ff/xxxowZ0PXeeecd+nr59q+I8bgbho+8sogFLm7SpMnrr7/++OOPt2zZEhLdfPPNqOrevXvbt28P7btv374guz///PPQoUODBg1Kv2UvM0SEvBs2bLjppptQ1f3793ft2vXMmTPdu3fHDAYl8cUxGOBzpzhJnaKE3M2V8bsY7Pgvxk+mPWTH4BsU6x5ZGxxBBdCkTYDLS+yETSatz4OMDcZxwjXO2qy5Ir/JF198kY9buHAhnrJq1SoZPFq0aMG1Jqh4mMKLjRKtRNYGWBMf7YOV5HpDYmLiqFGj5s6dG6rOYLIuL+oPndfu8L7H0UiXFzWfMmUKhzHxqvZxf05YRV6QXWjlBYoVKzZp0iQcdOjQoW3btqj/22+/LaxdpUqVRYsWQWTUHMq4rTCB9Lks6cOrJNy+r8lEXhpy8fkwnL/yyiv8Rhiz5SquDv7PA8nk53pkmd9TnfDuxvFViouLM9ZeMprUU5ztf+KTZOsLxglWw0tkeiVP4bXyIPHJSbHCFdjG+suHjN7p1VL+K+4T0uJlFPFaG8jw/vas33jUSehNfvT/ySqyKq8Y01I8u0K4vctH/SNdXq4cGmulgU03s/rnSLvBHVdBmQ2tvLFOFp2cHoitiVJgJDOWp3+qtblXRjsfLoNh+H0zlJd2eRxT3lQnl6yXywZ3P+n+pkwhfsTc4JPqJNKz35c4pZEa2HowKV68eLF0P5YRT1V7Q7zso5MuJ8wuzpTcbSS7ri8fYuexvansLs372351fLoMJ75daO0RSFaGQ7iYk1V5aX3mMYnPt30m0uVNtRBr+YxnBoltYsJDXttSasddkUqKqs7eatJyn7lUcrRw+76ZyWuceX+qFaiAl9gC4qTMy6MBV6i/yxtEf6BqIG4wEsDEOF5WxsMRsq7F+9gm9bfeeuvZZ5/99ttvf/vtN8wlMQd84YUXfv/995MnTzZt2vTxxx/H33/84x/79u1buXIl7iz+y1cmM/uwTDyN0zKMo/3JWMWVfa89Pr73R7AYX4XcJ7Rb5rIkrxgoRA30zXeRLi8nKMbhLNHxM6s/C5MjvHbzBUU4b4jpMiZt3BUccJMgZbc3dhpnV5H4LvvQZ8Pt+/qQl7/msNJF5HRyPlMf5XH0kLu5An7PYYUrEkIfPnz46dOnb7755i+//LJIkSLbtm275ZZbfvzxx/79+9euXbtt27bFihU7evSo8fS9n376adasWWg3ZcuWjY+P54LV7bffPnPmzAcffBDnv//++4MHD86fPx/lGzZs2KZNG9wTl2AM+Pe//3333Xcbp4NdgcAyLeDqrrQGaffGIYgUz25m48xCYq00377nd+xO9spBCMnuCuS13Uhkf7+P+Xiky2vSBZj0UX9q+jTcm7SjQkhAHVYqbGskIHdpt/ZH5Avhy7mcnT5h9X19yCtunZxnSMYh0VEk5CTbRqhECCau5DvZASvwTsHsJ06cePnll3Hmww8/BBEvXry4ePHiPXr0mDx5Mmj94Ycf7tChQ7NmzThrrlq16owZM4zn23Cp9uzZs40bN162bNltt92Gf6HI169f33i+E9X2AwcO9O3bt2jRoiB36WDmilwkvRZmJcqK2PVS0qb5No4pyd5Je5nGu5jMA64GDVcgr03lXrkVfSMS5bU/qJz3oZ+KG7Vx5A2hMdpY6wEkNY5YEgJE7GxeMRt4kFU1PBy+7yXl5fmUtMF2jCMsz6c4gWBdjyvhd3FuEeKTUER/80Tji4uLk31A1B34l31j+/btixYtwkHJkiWhkudwwtSNGDHihRdeuO666ypUqPDGG28Yz7f87bffSpcujZJTp07l023LeEy6rQqpl9rpKkZY/pue1GQdxuvC9IvAJm3fFr9pcbb1eoRfEDR55aT9k/vk9fqgOaw9nOby5PUvuWdVXqlD+mrY98lwhpGe3MP/+0rd0strf1mvz20cYWOdHTk8maG8VypKOOIK/SP5lwa+YsWK4d117dr1lltuYXxOzpFJ8ffee2+XLl2+//576PgcQm+88cbatWuLbZRLl7hPjRo1ihQpgmEABTAAdOzYEXp9q1atcMaHydv2jreDfQd6fE5xYi3I1D44frUqr8obCKi8rvSLv3L/QrwXhnjEwezZszkB7NSpEwo89dRTLDx58mT8Xb58eWzamEFiJuO6ZfPmzXl+zpw5xjOGz5gxQ746iuEOPqoU6/jLS/DeIEy+bPVNvDWCA5VX5fU7VN5APzEkuMJ1Evsb5LQyP+SwokIaZ07ExW5a2/EeJXg/l0ToYSmbXWl+kZXbGGuLbGY1kYcG0wwaY23HFQRB71B5gwOV16i8kY8s87sYsGKcLUixnrD6krLOpLWOSUog8c3wclqIcTaYpDhBx+hRk+okavFtF7N333jtfbiC15EliB8hHpqcnJw7d+4gNA6VV+UN3KONyusuXMlLlJVo6tqkYDK1eJvKsowo5iZdAlyx8xjLz1rWx3lzL9eODCGDCpd5ixQpcvz48eLFi1+BaFmCvRXw5MmTefPmDfQTCZVX5Q0EVN5APzH4uBL7uz3AemVKFP8zY7G5mOxlJ7TwNUds8VOWRY9UK7WThJ3JEPaUKodnU+u999771ltvdevWLauiZRUiFw4++OADPDfQTzQqr8obMKi8gX5i8HEl9hnxIZUlEXEKjrWiPNLCZawYMpK9V2ZkYqyn+u/l1pbi5FT0YZuLSRtdEvVp06bNkCFDAt0+WGcJz5CUlDRhwoSAPpFQeVXeQEDlDY68QcaV2Ge8fEjFXVIKZOgqa3sW22TtdZ/0D/Iq7wUZ/2UBoEmTJh9//HGrVq3odSNTDd9GPa+NLWIg8vUinNlM69atb7/99saNGwdhjchf8l4ZVF6V17+INnmDjIjPIx7jxKqkYYf2oilTpvTr169KlSpQBNBcSpYsac85MrxPDk/MHHHpEddMH3E5Dh48uHr16sTExPr168+YMcO2KQUO/pI3q1B5Vd5AINrkDTIint+NFQmLrjh00Zk1axa0gHnz5sXHxx87dsw4ATeY3TszkOVlNT+nkw08QxQtWvTOO+8cPXr0o48+GsyVdz/KmyWovMGByutueYMJN/C7ceLhcfCnt1OePHkefPDBhg0bGseOb+cYyQxcSJDodD78YVOcwLMyGBgrgGqg4S95Lx8qr1F5A4ZokzdoiHh+t3cV/92T+R5/0TjEtEKyvpwvx1h6YqUxPuNcy8qwuOcHZxecH+XNElRelTcQiDZ5g4yI53ehYLYMOmva4QPtUKL4fj70cdnSxpLGZ2hANg7aBFOdqLO2q2iA4C95swqVV+UNBKJN3iDDDfzOWPD01OQiSU4r0zeLSRzzzNoHx3Nx8pE9F5k9N9ZJPG+7dgUh/py/5M0qVF6VNxCINnmDjIjn91QnFjwhO6piPYmDeVLUcB+NQ2Zql+M8Q4iBPjZtzPGAwl/yXgFUXpXX74g2eYOMiJcnQ797L73bh4u9jzKXM5LbNwxO4/Ahr6wZEPZWMjsyhMjFGbHXQhNB1cl2FU3/9JDLK8jw+4rIogamemIT2tW2za/2i5I3aZf3yuoZIOj3Na6WN8hwoUjRCZm6sikLqdnuAeJ+gK7CCalxehFpLtaJDCFplMWvIILmrbJVjcGLJOsWNTX6R6V4cs7xX4kzZawO70XuEiYvVCwQbd832uQNEJTfXQLRSnhgx2G2W3OKE6LPeDhLjoXm2AFE38lxeSk6wwo5nGR79t5IvhDGJbUn/iZtqFjR8eUMY+HxTYZw/0u0fd9okzdAUH53CVKcjJQ0NQgliTIbmzZwkHFCexpPx5D0xKL5isYUQqX1ikFSpsjGIymkkxQFxvG6E063uYDCisWGByiTEtL8PtH2faNN3gAhWuR0PWI9kGMhOFKS7P/mMdlNVpakY/A8+4ZwWXDszn6E7XchMYVinAzp/CtbHPirvC65AzOLiTrPYiFcgou27xtt8gYIyu/ugUxCjWOj4GZuNGhOS0lV0uLZxKmZ0jxN8kpOTmYaTOOoS6FVXbMEKn0kYtK0bWwxnpk+w5qSEagA2qYY42Sj5iviqyNxhFbvi7bvG23yBgLK7+6B7SHw008/jRgxIl++fJUqVapVq9bJkydbt26N5t6mTZuFCxf27t07Pj6+Y8eOVapUyZ8//5QpUzgFlt2DnB2fPXt24MCBBQoUQIFQC3e5YM/fu3fvsGHDChYsWLZs2X/84x94IY899hjeT8uWLVesWNGtWzeI37Nnz2uuuaZQoUKJiYn0i5XQobzVkSNHRo8ezeCxtt9eqESLtu8bbfIGAsrv7gGVVuo7I0eOnDx5crly5dCs33jjDdmOixaPxt20adOKFSsWK1bslVde4bXoQjt27FiyZAluUqZMmYSEBJw8ffr04MGDZ82aFUKhsgrqcUOHDoX4IHeI/M477zB0ifGob2PHjm3RokXlypVBFnPnziWbY1T4+uuvFyxYgGKlSpUCWfAkxgCUEafJEJK7ib7vG23yBgLK724D+8Px48fBbjQ70iJBejp16tTq1avR3NE3/vzzz759+9atW7dt27YoULt2bWhGsiYJ4A5QhEMqTZZBRfvo0aPgAmNtUzQeOkAP/+KLL6Dao9gff/zRv3//OnXqtGvXDmWuv/76qVOnGmeEQGHwxblz5+SepPiQ222j7ftGm7z+hfK7S0BfAvEAQ7M+cuRIyZIljUdpJTFBl4mLi2vfvn1iYiJU1KJFi7700kuywWfTpk0rVqyAQlS+fHlMY9mLxAsltKprloBqFy5ceN++faB4maSTl3H+scceGzNmDCb7oO8XX3yR51Fm165d0P4uXLgA1X7AgAG01fClGccWHEJyj7bvG23yBgjK7y6B7fuBpgwK69atW4ECBa699tqbbrpp/Pjxa9asQR/AT4888kifPn22bNkCBoS+gwupt95yyy0333yzeBrgPnv27Bk3btz27dvfeeedZs2ahVK8ywbrDw29c+fOpUqVqlSp0g033DBhwoSPP/64X79+6NgtW7aE1Js3b4Yuj1eUO3fuadOm5cqVq2bNmpjpS75JlNy5c+ekSZPA+ytXrmzRooVXquEgI9q+b7TJGyAov7sE4gVI02SdOnXQiPkT1JZGjRqxn4CqUHL69Ok4v3HjRpovbHUGnQE6LPgOhUGOc+fOjSxNh64RmJiD0I2zItqkSRPjoX6IjwP0f7wEzOtFH6fHtAQvhOy4qlq1agsXLsTbowqPX/lmQiJXtH3faJM3QFB+dwlkCx9Jiq2f23nIYnQEFKcxcRLHGXQAxniK9WRRsN1IYq2E6SGTLSugskYfOHGG41ye8opPtLE2y4hiTvdK/MVVPMjhAR05QkXuJvq+b7TJGyAov7sK6Azc2se2LiwmgTjYJWSPPrUkdgZymewMkoltCJXWKwClsHe7GI8slEtYgAdeTtBebvJeXtK4W8hDDEbb9402ef0O5XeXwEtLZR+IsaLYx6bNRoa2To7jhcRFD2xlFsUia79fDk8GLmM5vWQomp2iizuhaJMxDhHYc3yJXBhCco+27xtt8gYIyu8uQawThkl0TK8WLO7bopZKYEXjNH3RceyJsPSriICtdKdYObkImaTbzuzU/miBEU6x98RLyKpQCWWi7/tGm7wBgvK7SyBeH3a0DVtPiXGCo9odINYKpS3l7exo7BU0YvIOXo4NwZfUrqpU3k4BIRqcSUf3sU58YFHibImEL+RCWayjlYDFhCyCGWY2Or9v9MgbICi/uwSim7BNcz7Ln2LTpqchPdGOweYurZzrUfaM2FhrXEKLqU5M7RD6EYv5xVjkLk4XtrxibxXp7DQR+IsC4iBvnOhUYqvBARPI8Vex0pB0gmbMjc7vGz3yBgjK7y4BGzdNz6JUxjhBE9lJmKGY8baMZXCwLcviNEIFlsYK5k+Qn1IdhLAziJbNQI8S2ld6r/A1Y77j3+Tk5Dx58pi0GZ3oFZPiJFm2VfhYD4wVVkzYXBxv8G9wtPho+77RJm+AoPzuEohfoP0vnfyop1DHMWnz0PNYzjO9Gf+l6sR+IhqrkGDINR1bQbMpnh4XMZ64j+y9wuYkd+OEh0xxErmRLGjtsWcAAjIICouqztvKOw/Cel20fd9okzdAUH53CVKcfAi2UdJY01Ke79ix48KFC41ncorz4lqAXyV3pURhlZ9SPbFYUUBOhoMfMZ8uZG08whqr5rLsZhzVu127dosWLYpxUndyqS3GSrhqe+BJvqdUK3q42GrEVhscp8lo+77RJm+AoPzuEpDpxFbADZm2ShLrbO1LsbIUybQUWLFixYQJEzZv3nzo0CGQ4IgRI8aPH79z504wY6NGjdq3b9+gQYNq1aodPHgQvxYoUIDdL1Tyilk2h5PBg+fFbiMiswxVb9HWSdPihIfL33///fj4+G+++eb3339ftWrV4MGDp02b9n//93/49YEHHsDAgL+VKlU6c+bMjBkzChYs6OW8EWhE2/eNNnkDBOV3lwD9AfR09uzZ2rVrb926tUiRItu3b69Vq9bevXu7d+9+4403okHj5L59+9iO//Of/yxduhR9o2LFin379sXJPHnyoNjMmTObNWsGUtuxYwea/vz589Fz0B9wslSpUi+//PKoUaO+//77W2+9NbTzWdtHgvaT4cOHQ/z69et/+umnqCrqf/311x84cKBLly716tVr1aoV+vDu3btZ7V9++QWi/fe//7366qsHDRqUnJyMk7fddltSUhJK4j67du3Cq1uwYAHFf+KJJ4oVKzZnzpwhQ4ZAfJQ0wdLcRd5o+75RJW+AoPzuEpw4ceLkyZMgIByvXr0azXrx4sXoAHXr1p0+ffrRo0ebNm0KJRTNmnPeuh7I5Wjc4LiHH374tddeA3mBNH/99VcUyOlJSge9FTcHV/bu3btkyZLoDOJ/EsL5rGw7AqBWo4aQGlV67733xowZs2zZsvz58998881Qw//8889HH30U4oOmjcdWc911102aNEl2OYELKP7y5cshPnTG7777DuxA+q5QocKpU6fwQgYOHAjNHQWgTnKnjL3vJqCItu8bbfIGCMrvLgGJRgyOnMzmzp3773//Oxq6vbnDeJSjr7766tVXX8Ux2jemrsbZ6jl06FBMYzFvveqqqzDDNZ6ZL9ReFCtdujS6llg8TKjtlbJuhvqAcI219ZRrpHFxcez80NMlO7PxmM6hEkLdw/kyZcpA8aeYeG84HjlyJHRG6PVvvvkm12b37NkDZrnmmmsk74/YeYPm/x5t3zfa5A0QlN9dggIFCoCMevbsCW7Kly8fT9KXAF2iQYMGzzzzzM6dO9E32Gdu9MC+A7XROnXqFC1alPFyocx26tQJmhQUJdseQpM3t5MEW850oAUcajXqDxmho4nrBW24oP6HHnoI03lwOgOHodo33XRTjRo1xKsdGj2NtlWrVi1XrhzKoADooEuXLvipQ4cOIY9YEm3fN9rkDRCU310CNP158+axrXft2hWkBlaiPpKYmIgCaNy2EwI9/OxdfJjw0hyRlJREOoO6am/qW7lyJf+96MlrbCs+IYFocFTPUW1WBn0YZ1q3bm0863JTp05FPZctW0ZjDg0yOAC5i2c05H300Ud5W9yHL2ry5MnGMrLjBYZQ3mj7vtEmb4Cg/O4SsHGLBzfdwKWx2jvyhbCkocsuHu77YGfg5Shj7wZi5xGXlRB2Btt/RmI9MmKMeEYbx5DCkylOqlW5g1h47CAEXt7QVAPte4YE0fZ9o03eAEH53SVgk5UGam/L5kogHcCpqkgBNnF7Bz/9vtO7BpPy5KR9k2CL6gFrLtuXWEnZBUOjvPEwu2xDpaYfa4X5tbdHku7tOYH9AnkQY8UcDjKi7ftGm7wBgvK7S2CvEaWmDXd+7ty5uLg47sIXNVY6Ay4U33A2fXQGSafAX+2NoClOxO1YJyp3SBDrpNn02mckS2Q5nBi/Um1WmIxArxuvADXGye2J8yKpPS0IlbAm+r5vtMkbICi/uwS22SHWiW3L9iohU/gT/QpEVRG3MFvtZW/J6YFxyJQnY9PG3Q7hklQOJ/QrNyvmtKLI2hWTTisqPwmCJVOd+DMMUIPzcn/R9HM4gVBCaJ+Ntu8bbfIGCMrvLoG0Zjtwh2ijXFQUf23jtHjj9B8JzSH9SqzbtvXZZs/QLkZJHWwd3Ktj29WzOzBIXErGWHEKcd7LDzqnJ/WHiB8O8kbb940SeQME5XeXwDZAC+zGnZ6hYqwQuxm6/WZGal49JyTwkpc6ne0TnWH1RDuzS6Y/Y7+NMJmzR/n3JVwsb4Cg/K5QKBTuhPK7QqFQuBPK7wqFQuFOKL8rFAqFO6H8rlAoFO6E8rtCoVC4E8rvCoVC4U4ovysUCoU7ofyuUCgU7oTyu0KhULgTyu8KhULhTii/KxQKhTuh/K5QKBTuhPK7QqFQuBPK7wqFQuFOKL+7HxkmLmBqi7NnzyYkJNxwww316tWLi4sbNWrUokWLdu/e/dlnn3Xs2PF///ufcaJjS8oLZrM0VrIbHDB5Kc+MGDGia9eu5cuX54PkQjlQKBTBgfK7+yGpJpnkjHlHSc2gcnDx119/nZSU1L59+23btg0fPvzpp5/et2/fvHnz/vWvf124cKFAgQIof8011/Tv3x/F9u/fD96fOnXqCy+8gGKnT59eunQpBgMMDBgeWrVqtXbt2l27dqFA4cKFc+XKJZwuCXRC+jIUiiiC8rv74ZXkTBJOgqarV68OtbpGjRrt2rXDT7Vq1Ro3btzOnTuZCO3xxx+vVq3aK6+8gpNg/1OnTr355psPPPDATz/9tHfv3kOHDs2dOxe/fvDBB8xyidlAvnz5UKBDhw6lSpWy68DcaUruCkUwofzufoBVmYRecpMaj1FFElLjWFJTgvSZwfKvv/4CWTP3PBNanj9/vkKFClDScdWBAwdw3nisN5gZJCcnMwk9jpmomlntmfvYqPKuUIQCyu8uBwndziMsBnQQLs6AkanR4wzoe9iwYd27d0d5nCRZcxjA3xIlSpQuXbpHjx758+efOHEi2L9r164oMGvWrHXr1vXr12/btm0YHurWrTtgwIClS5eiGB/EoUXJXaEIMpTfXQ7R1qmwg3/Bucw6L1nkCRQYP348111HjBhhnFT0oHIcL1y4ED9NnjyZJXGHpKQkuXbMmDEcDHAeY0Djxo1lNZU31MVVhSL4UH53Oe6++24o1+DWXLlynT9/3ji55+kbI6AKTx8YDAP//e9/cVy/fv0NGzYYRwFHGdpYOEjImi3OcMzggGHbgnASZfgIXMWpgEKhCA60v7kcIHewLc0v1OVNWqq1NWtSM5dewdSkbzHvkMFRAGxOww6HBONR0vmTDBK8D4cNWuGV3BWKIEO7nPtBqrXP2FRrm01kORQFSNZC7sbxfuG/vKHclgdiZLcf5/VohUIRNCi/KxQKhTuh/K5QKBTuhPK7QqFQuBPK7wqFQuFOKL8rFAqFO6H8rlAoFO6E8rtCoVC4E1HK79zUY/816eKkR1Y8LK8AANxc+r///Y8u7V5B2CXKmEKhcDGilN+NExfF3mTPAIr2Vs8I4kFbFoYG4ybVVAfC8pE1bikUiitG1PG7BEUh2eFg8uTJI0eOnDhx4jPPPMN4hzNnzhw0aBDO9OvXL9T1zQIoFDB9+vT4+PgxY8ZAClL53Llz+/Tp8/zzzyckJDCQgEb7Uihcj6jjd+rj3LJ//vx50FzPnj0HDx4MQhw7duxff/1VqlSps2fPQhdu3759BPEgTTHgbujsHTp06Nu3L9gcEmEwK1u27JEjR/Br7969NZSjQhE9iDp+F+sEDnLnzk0LzJAhQ6DFHzp0COT4559/4uSwYcMKFy4cQaYMmmJY4QIFCmDEwizk1KlT+Pfw4cOQcejQoXnz5o0gi5NCocgmoo7fJSg5zRQgO6jqw4cPT0pKggrMvHS5cuUC49OcHer6Xi5YW1lEHTNmzJQpUyT2+t///vdBgwbJoitkVxVeoXA9oo7fmcCIsW0lCGK+fPn69Okza9asM2fOgPgGDhwYFxcn4c5DXeXLAociieMIdT4hIQGTEnA6yL1///5Q6pkEFT+R90NcY4VCEWBEHb+T76i5k+LJiVDhX3rpJRyA2cHvPBkp5G6DYxLqP3jw4KlTp1JbB9cbZ+6ieTYUiihBxPdzUcOFtkhwdiJp8QFnAmiTNog5j6He9uvXDyp8jx49ihQpgpK4oW/7jG3ouHDhQq5cuQIubebyyq+ScIMSQYXv1atXwYIFZVnVt/1dEm175euQpB9e8vr2ucQljCAv0wX5OrahzEs0W6isfl8/ri6E1fdVed0hb5AR8fwuCaPZOHjMtkI7DArQLnHJxgEV/ueff2bqUbpOSirqDMHGQYJj9rvcuXP7Wz5vZCYv60NhmUsPZ4YMGfLNN988//zz4gsvP/kQyiZrO19HhvLyDIvhDF6afQeZKPBbSAIQ+RbC+7Lawf7MLICcXfnr+2YVYfV9VV53yBtkRDy/4/OwZVDjlrygOPPZZ5/NnTt3/fr1x44dMx4qYUPJDLgWTertt9+WkkxInVn5kiVL3nbbbR06dGjSpAn+DU7j8CHvxx9/DHm/+OILyCv8CFny5s3L8uYyXoKAT7HN9JnJizLnzp2Li4vjGXZRUfm5jMFhknuvjKdrodp4BP6l6iQ7EngVSsr8wF/fN6sIt++r8rpA3iDDDfwuozp1QzQONJEePXps3LgxISFh9uzZxYsXN077uOS6oswHL+lKePDgwY8++giPWL16NS3dQbBrZyZv//790R8GDhw4b948tFT0E/4qUxCvYAw+kN7YQtEykxcHIHe5Mx/HSrIAlzpYYXmrfMm4ljwuD+VteaFX2li/fN/LR1h9X5XXHfIGGREvjxjpaCVITk4GvwwYMAAa5XfffUcGAXeIdcLHragd8IaX9JzBEzH+d+zYEeN/q1at+vbtG5wmkpm8aKzff/+915hEz0hOQcRt5pKVpO7PuQsZmddmJi/A14WxhCo5+ienDpJf236r9nyc4H2ouPFLsbCU8cv3zRLC7fuqvO6QN8iIeGFkUk9dL0+ePB988MHatWu//fZbFpDZ3yVvZUcZ81J+08NOLf36669XrVoVWsADDzzgD5l8ITN5Qe5UhaSNsvIy25XzvlswrZDsTqR1LoFmJi/rw9clEwV5oqjqslTLObj0Z6kSV7PFpm+cHVu83C/fN0sIt++r8vr3uaGSN8iIeH4XhZRqIzhiwYIF8fHx/H44Y5zALJdcnCG5SHgWelL6vkQIaOjQoZhIBqF9ZCavcXxRhL5Zef5LYzfPC7dmeH+xQooHkZjITUby4hga0Kuvvvrbb7+tW7cOCpHstGKPJVmL5iXVYAVYMdx27Nix7dq1q1Chgrx8evEbZ2TK/ve9AoTP91V53SFvkBHx/G6sEZ4HGzduxFSLP3k5OPowqeMne8EQ/9p7oDIEmYhaauPGjQcNGuQXcS6JDOW1KVuMS6L1iKuA7Y+YGcSDXi6xXSG95N22bdumTZtGjhzZtm3bvXv3zp07d/PmzadPny5evDh0MfzFXHvmzJl79uzB1HvWrFmjRo06ePDg2bNn0Y0xMCxbtgzXtm7d+qOPPtq5c+f06dMLFy6Mp/PD8Yl++b5XgLD6vvxJ5XWBvMGEG/idEA3x8OHD5cqV8/pVtqpmdrnXT5csL09koyxRogRX+YMGH/IKg0sZsZNczo4tr8u9/vWS9wYPRo8e/cMPP9CY06JFi8qVK0+bNi0xMbFly5anTp3C/Bf95+jRoxgAdu/eDWV/3rx5n3zyCQYS45k25cuXDwWefPLJYsWKmbQ++Jcjr7m875VVhO33NSqv/54YKnmDA/fwuyJUEC+XVE+As7x584KX4+LicJKKf8WKFTHjxvHx48eh1BvPdhL0K661cgGNBhnjc81DoVBkCcrviuyifPnyvXv37t+/P7gblA3utiOdFSpUqHTp0gMHDixQoMCYMWPA3T169MCQ0K1btzVr1iQkJHz77bcoX7duXZSZO3duyZIl8SuXYZXrFYrsQPldkV0kJiYajxYPJV18K8eOHQuiX7JkCX6aPHkyS0JPT0pKEpcenI9x0k41bdr0oYceosUm1pN/yjhLxAqF4sqg/K7IFqCh09Eo1kmcIh4yNM5ImAHjBD+QAtTxZSmVjpUM0UyPSZc5IysUQYb2H0W2AI4Wt3dyNzc0kabpXile+eLkI4V5E/r50LYjYZ6U3BWKbEK7kCJbEJ9LOjKK7cXmbprR6Y4mcWnE9Y3UT28ZkntkZVZRKMIWyu+KbEFiPRoPp9ubBiTmjO3syJ+YRoq0zpEgw6iT/t2SrlBEG6KO32328Yo2LmqjRD/nr3bcAmORTvptRIEAa+UVIlW0YFChxF3iSdm1kaF9Q1jVWI7tfIQ8SFxfhFtT0wZ5Ty+v/Sx757ecTO93L7TuVcZL3hgnTHx6eX28NLHz2O9Bvq9cbodNlrhycpNw+74+bpJe3vTpAbzEsT8o6xAp8tobI+yWzzOSWkDuw78Sodr4e59UOCPq+N0rQjpNB2Rz4TivzTUMs+WVQ0NMybbWmZycTP/u7MPLjsGewMYqgRNo7M4wIJpENmYZ3pCxwOydrhCfm0VlX2v6XoFnxVhB3sNEXt+3kpiUfA+cZIjNh8ObREaTADupToJyViCi5ZVNoXK5sHaqk3aYzZh1CLS8oiJkU157uDJWfgJ7hGAZiY7HC/EIWbr3i0QRgSgSVcAwhzwWJ2t2crEbsDOwpMSqFScQ0RFslR8X+qszGE+TZXfFX/Ls7Nmzn3766UKFCrEz0M2cxWKsrB1s3FRFpSd4lZS+IXE/qDexgLFmMGI3583DR97M7mMHWbPddWRF117C5UenpBJXzh3yEjIvEZckWe6mXBL/J9DyynQhm/Lau6lZmKJxeBZyN9acUkYRe2jxl1xhjqjjdzQsdm/yNVNP2FnohMSN438tAbnOnz9PR0Cypyg+/DXmMkLGXz5skxHunzt37meffTYhIaFfv37PPfdcXFycqGyspPCyHcCLNRe91dZMU51gyIy0wwKiUsmQJpJKiMcwkTcz2JvOjZNIhBNznhQbFM8zpgKkEF3PVgYjV155hLA/BzaKI5FBJWdWpMhrrMh3xmrSHD9I9CwmU0+Kz28tjT9K1nWijt/tkLnG6swyaWU7wOc/c+bMwIEDX375ZWoKoibYLiLCHcbRC/xlu5R1SBmHxo0bh/4wY8aMadOm9erVa+TIkXnz5qUqRJVHFHY76l4OJ2kGj6Ub2+2b7Z7kLkEf2Sv4dIniGz7yZhZIJ30iTdt+ZU/OZGovnvuxTszCMPy+WZXXWBFdeC2K8VniwEqbuxSICHmZAkw66UUP+vTpM3jw4GXLlmGooIIiYail9WaYptj1iDp+HzBgwJ8ejBgxom7dul5Lamg30mGgYnCc/+mnn+rXr//111+XLVtWVqKMp1d42XNM2oR22YGYgNDcGbW4Z8+eY8eOPXr0KE5ibjtr1izoPkOHDqXuaRwDqyhlonQ/88wz8+bN423Zq6mj4cJ27dotXrx4wYIFq1ev3rVr14033piUlMTQMTnTpl7i8BBW8mYIfLuTJ0+WL19+y5YtlStX7t69+9y5c73m7LTMkmUWLlyIl7Nx40ZZ6LOV34iW1140JtOBB/E4yAKtxV5QtZcogiZvjx49xowZ88cff2RJXv60YsUKCP7II4+wqrg5ui17JSWFIB988MHKlSt37969aNGi0qVLy7Tgkql73ISo43c0r/Hjx2/evHnr1q0gMnTvI0eOtG/fHg3i/fff37dvH9rZb7/9Bs2iWLFipLbJkye3bdsWx9IypFd4bcX0o77DxV57yUsGFRycO3cOxxAEVUXFRO2SGmI0mjlzJrp9zZo1165dCwavVq0aegUGtsTEROhKuOr6669HsWc9uOuuu+bMmTNx4sSuXbvi8tatW7/wwgt16tT5/ffflyxZQjtsuMmb4X3Y1Zs2bTp69GgodOA+XAteQ1ULFy4MASEpxvXDhw9Dc0Rj+OWXX8qUKUNylxGRtuyIlhc/XXXVVdBn77vvvlq1au3fv3/+/PnXXnstRvECBQqIQkBy9HK5CYS8OZ10YKnOhokrk5dTVZB1cnIyWi9aMj4rCtNLAl9z6tSpp06d6tSp0wMPPNCkSZPp06dv27btscces4OSRs8Gi6jjd3xgaO47duxYs2YN2hNaMLr3zz///OCDD8Z48kR///334EE0C8wWwfI4btas2eeff27bOkS3pdFGOgnanL9W571i5FIrKV68OPUdjEzgJlRvyJAhr7/+ukx7xdRAx5hu3boVKVLkvffewwB24MCBggULQtJff/31+PHj0PLQzzds2ABesBe1zpw5A2UKJdFPMLC9+uqrGB4eeuihcJM3s/vwJRQtWrREiRL4ahiZMDUBp2OEbtWq1enTp/FCwPJQYDdt2oQCffv2xW1tzwphtEiXt2XLlvjQkBffEXMUyNu7d28UHjVqFL7pvffeK804aPJK37liefnSWENoHtOmTcufP398fDxj0r300kugezRsUP8dd9yBke9f//oX+rJ9ub0i5XpEHb/jA2PMh64KikfzxSSxatWqON+rV69hw4ZBhUc7M562ntPJNgDiW79+PZoRJ4/S4m1Dp5e6l32Qc2UiiX+TkpJAT/QxgII2fPjwfPnyeV0l66s33ngjGvpTTz2FWer58+dxCQYzUPkbb7xBWzz6gLGMzrRa0nAJck91MqBiwMM4l2p5lIaVvOlBOwCuApdBicMBRJBoZaiz2H9x8MMPP4D7vvjii08//bRRo0YytZc6RLS8OI9vx68PpotxsrXgpO1nIsboIMhr950rk5egSyUnQDmtPI74t02bNujRPJPggTR1ft8oWVkloo7f6QDTuXNntKeBAwfib6VKlRo3blyvXj0wINRb6AJPP/00fqpZsyZbIf6iWIcOHaRPBmF/BBurPA7984UXXsBftFfMP9BF6cGGYrJOYJwtozj+7LPPPvroo9KlS6P1Y86+cOHC22+/HRdCeb/uuuvEFokp/IABAyZMmEDPClwoqZp2794Nvjhx4kTPnj0DKml25E0PLhgA6NWYnkMZfPzxx6HJYoSuUaMGxjxM4du1awcSxNDesGFD3PbPP/+85557ZJld6hPR8q5bt65u3br40Hv27MHsDVoLviO041OnTuHOgwcPll0RwbFH+0te46x7gdwhFwRB/xX3+Y4dOz777LNXX31106ZNt2zZsm3btmPHjjVv3vy+++7DI4xjklL/SNfixRdfpPUNlId2tmrVKiHrFi1akN3QGVasWMF0rLQSoi2K32Rw2gc7LY85acDsAToavSBSrT1KqCdVMImWDgHv9YC9Fyo8S7Zq1YpLbXfeeSelnjRpEjtS2bJlx40bhwO8Fj6xWrVq8+fPD5oz2RXIm9mtihUrBrlwgCG5bdu2KPn2228bz3QE96lVq9bixYuN5y3R4R1iitNF0Da/BEFe46Gzf/zjH4sWLYKwuAmLGcdaQp7NkydPED6xH+UFHn30UVqQli9fLso7xgkcv/nmm2zbDRo06Nu3rwS/k82x/vX7DHNEHb9L00m/xiJuJ2wT5HrbNYWMn+G1focY0+nPg8ehsfKhYmT3coCjQxhn63ITHth7oMRAYc9V+TiOEOwJS5cuFT+5IPD7FcibIcQljlLYriCU97XXXqNTnUiaklF8tEAj0PKKOQKainGcZeUq2f0Acuc4F+hP7C95jbWDLzVdPmF7r0aqZ3eerKzIGnLM5WWpdAeijt+lMdk7O0iL/Em2FEprsz0mxW0u0PVMdXbcyb4P26FN/PQ5mbDzHNGLxng6CVdZ2RmE60kB9t0I3I0jhNAcx4DgaDpXLK8XYpzICjmcrZLyfcWEJR54YoYWWredIyNdXnvllpEGaJ3gSMaPy5cQhPHbX/IaK5lwqhVxQehe9mrwJ9vnXVQ33d/kZrAxibeWsby8U5wN6yzJ+ARokYzlYqvDge7/MU5cdWPNOeShXp4PNrkba87B814xp0R82dMovsm8p5Cd1+aAMJQ3w/uYtGqafCzbts7ezlhDxtrUatK6CQYOQZD33LlzcXFxbNsSaUDWGDge8Nfg2N/9Ii+HKzpBcHuq/HTRST/AvpzTSUUgvp62C3zQDHGhRVQIacPe2cwukeLsSjcOBYg2wSm87TNjrMhTAYVsVrI1aImBJ836/PnzVFtSrVB81GJkKcnLqRl3oH4kG9ZZXtznRTqcYZkgUF5W5c1sVkEdVmprW5xsw2uMlZaEgqc4O5uCs+QQBHlB7qlOMFGv+PsmLckGwSrlL3l5XhQXkUhUft6fChnbv71HN313djeiRU5BrLWTxVhR6MSOyX7uteNR/AUlDEug6yktPsYK/yvxcGKdsAq5c+e2bS+UK9YKJcZipGlR2WiXFFcZcXnO4YSQNA5ToExwklxfmbzpIUYJWgDEs0JcPGX8EzOucYLUp7fnRq68KdbOVWH8i07YuBQnBmqMFdMxIuQVrUXGJBywSUtTx3kIK1llZPbGgVCMVIEWORwQ8fzu9alSL7XdTmyO/Nd2QLYPvDp5jBXFye4MtqIRm9aj2S+wCVdmGDyQf8UtwYdcEqJEznsVsBed+DjhdJvcw03ezJB+2cBrJdlktIiXfuXNt7xCl14tkGdkPiQL2umfaJvIY9PGeY5xAsb51mczk9erPee0ou2LmLY173LkzT6y/31F2Zdu6OVNIE3djruX4YEJvLwhR8Tzuz3ltIO5B3p8lj4pC3RBs2OqvCGXN9VKNivGATqixHq8dHAs6x9Co14JRkSKHBntmxcredD8cfX7uozcjQv43VgxIDkdu+gzfrS/YOuDqcHd8azyhlZernbYzpTkcfGvjXFcVMUJNcXZGStcJqsm1KxZRpZGTNDDlOv3DfQTQ4KI5/eLTpDrIO9ZiLGCeQmCoHeovMGBb3mpcdu6NldlxD9PPFNtg6Gs+pC7Sf12UjqapEVk42xIDrm8gUN4fl/XIOL5PYcVLcBrr0cQHm2cvpqcnMyloSA8VOUNrbyigI8aNer8+fP4+8knn6xfv/7kyZOHDh0aOXJk1apV69Wrd88999SuXbtLly6rV68eNmzYxo0bUed+/frt378/X758119//f33379gwYIpU6Z06tRp9OjRZcuWlUfLHiUOA8HhPv2+LiN34wJ+N9ZyDRejihQpcvz48eLFiwf6ueKSgWP0bQa4CAJU3hDKK+43QLVq1a6++uq+fft2794dlASO3rJly9atW3HyrrvumjlzJir83//+99NPP23fvj34/e6778Y9cb5EiRLg9MaNGx85cgTlCxYsuGbNms8//xx3btmyZZMmTYyl7BcoUADyFi1aNCTyBgFh9X1dhojnd3tKlcOzY/Pee+996623unXrFuhHy4IMDj744AM8N9BPNCpvqOWlQk1/U3AxWPiGG26gUQVK+o8//rh27dqzZ89u3ry5V69eoPXq1aufPn26RYsWw4cPv+WWWzg8QCio9nv27ImPj2/atCmo//XXX0fhW2+9tU+fPuR38Z9p2LDhm2++qd/X7wiJvEFGxPO7vf5Oj4U2bdoMGTIk0O1DPIhpeE1KSpowYUJAn0iovKGVl5WRcJt2wFsUmDNnzrZt26pWrVq3bl2GHV+6dOnevXvHjRu3YcMGGui5ALt9+/ZHH320fPnyderUKVOmTOHChXlDRtcyjuECf5966ikMA/p9/YtQyRtkRDy/29vKuWAF9efjjz9u1arV8uXLTbrd+f59OqfqrVu3vv322zHdDoKdNDN5oSGuXLnSWLmSRdhUK/K1JDiOsRJMp/f8lX2PXm9M5RV5vWy1vHP37t0TEhJAFlDJe/fuDaLfsmXLG2+8wUxhUMMxMEDNx6MbNGhQsmRJXMgIX7LMKHvuZWUVz3333XejrT27Vd4gI+L5PcZJMsmJM93LpkyZ0q9fvypVqkARQHNBR+KH9OP3w30OHjy4evXqxMTE+vXrz5gxIzgObZnJO3DgwGrVquEvmmnx4sVlC669B0e8O8hlEr3Pdt82TpxF4+RUo/eYyutbXhTj3RhgeceOHbxbp06dGNirXbt2uLx58+bcRyrbhhnPsnPnzrzPK6+8YtJF/sG0oEePHlHVnt3af4OMiOd3Y4W2iPEEFaGT2axZs6AFzJs3D3PbY8eOGSsrjb+eW7Ro0TvvvHP06NGYaAdz5T1DeaEzfvLJJ/Pnzx85cuSBAweM41Ys3ggUnMSRYqXcNFaoKf5ku/QxPAjDOam8PiBKt6y+ksHFwis7leypg72JiRumRJn1UlqjrT27WN5gwg38bpwgKhz8Y51oqA8++GDDhg2NM4VnnAp/bVFLsYJmGGc2HZxQHiYTeaHJPvDAAxJXJ4cVMNae20rsXy5nkdH4E2+Y4gRcI1vFOFHYVF4f8gpJUT33GmnE25p+7jK6xFoxCSRIjkmbKk8eEW3t2cXyBg0Rz+8p1q5iNA42ETQO0ZKkd/n3ywkdiEYWnF1wmclrRxbjzhpbT5S5bYoVJTHFCfguuietFowebBxfEdl2r/JeMu9zTidbSA4rOB0HDK4KkPftsDPGigAjw4A4C/IONrVFSXt2a/8NMiKe3710Ma+I53agZy/dLZuQvioTfOb89cvNfcC3vOQLcpbohrFp8zSJz0Csk8VJDKDSi8h0conKe/nycoSgMh5rxa3FQa5cuWKt0J6xVnRPCZNLUpOr6Igpdptoa8/ukzfIcAO/M20eg1ekWhHP7WhNFz352FKsRBbZRKyTJyHWcu0KTt6PzOQ9d+4cFJ8YJ/gJTQGiBInOaNJlKZIXZVdeslbJIqTK60NeUhJtL+Klw6vY6phHRVYCZHMNKiOBmkWRFKIRR0wTfe3ZlfIGGRHP7/gwzIlKyNQ71hPOiSdlIuzfVRTx04hNG1M+oPAhb1xcHE+imf7+++/Dhw/PmzfvNddcU716dVzVvHlz/H3qqaeWLl3auXPnIUOGPP300zVq1ABFvvjii8axIIv9F8xy5MiRkSNH4rZTpkxReX3LK6aY9G4etlU91UkkIJvj6b6ZYmXUi3HS3pq0LTba2rMr5Q0yIl4e+5Pbs3Jj9RBCkimzm8mEV0ZsWW2LTRfxQ9yovZyo7KcHp3H4kJd6EDXWESNGTJ48uVy5chDq008/PXnyJEXGv5MmTWrWrFnlypVLliw5e/Zs4xDQV199tXjxYkhRvHjxoUOHGs/LGTBgwMyZMzPsYCpvZvBaHbVVwhxp89KxQExGGZ/l0elJLcPVV78grL6vwE3yBhkuFImQqRypWeZ69nK5vWYlk2KZtdFWS0IXC4Css4fbPA4iUA+igCdOnChVqpTxrFnhGMopzRdnz55dvXp1QkICfoLOO3jw4Fq1akHJhUQ33XTTjTfeKMojmLF06dJ79+696CRiDitEm7wKxRXAtfzutVxmR9a22TnFCVlnPPq7HIsll4Qu+jvndOFG7sbRPiAaiI/sBporUqRIrLOZ3jh6YpcuXSZMmDBkyJBrr702MTGRAlKfffXVV3GHSpUqDRw4EFdduHAB5cNz0Sna5FUorgCu5fcUJyMlHeNinHzKJHduhk5JuylOOjaIXvwfWNieAVwM1+TrtFdw7Bk/fnyHDh2KFy8O8qpRo8a0adM+/PDDQYMG4cwTTzwBOtuwYQN01Y4dOxYsWPCll16CpFBm69SpQ3cOarV79uwBM27atKlevXotWrQItXzeiDZ5FYqsIhx5yi/w8ngTpzRZwpICNM3TRu9F9DxPrrd9q1OtoHfhAxqjKWytWrXef/99WS1o2rQpD+bMmYODKVOm4C8oL8bJJEdTNQWnpwdOQuF95ZVXwnCyQkSbvApFVuFafjeWUcU4K1rcxsINJvaOcJuyU63oVNTTk5OTmRbSOOp/SlimauQuGA5FIgJ/wjG1XZl5iJVZJiWSzN4e6mypQyKUD0SbvApFVuFmfrc9Xn766acRI0bky5cP83foeidPnmzdujU6f5s2bRYuXNi7d+/4+HhM3qtUqZI/f36oe+z2spuO1p6zZ89ipl+gQAH6z4UVZKOmmKSN4yjCuQtXI8Xd2DgO17RTCZ3JpEfcxcQxPKwQbfIqFFcAN/O7bDnB8ciRI+k/hx7+xhtvkBrQz8HgIGtM5ytWrFisWDFG7zOebr9jx44lS5bgJmXKlKEDxunTpwcPHjxr1qwQCpUZxFkIzEV6Ek/QHFYWUIgPspNYKPZmeiljbxTi7pswdA2ONnkViiuA+xsxu/Hx48fLli3LbsxoU9TrT506Rf859Pw///yzb9++devWbdu2LQrUrl0bmj7VPd4Kd9i7d29IpbkEGLpEdm2kOmFyxStUPLJJeRIbXexOsVZwLtm+z2mQfSuTdnthqBBV8srEwt7JYaz9U2JrYnmJYGNvpzLWHiIWDltjVLTJGwi4lt/pGyPaHFrGkSNHmFGB7YDLqnFxce3bt09MTIyPjy9atCg9K9gCNm3atGLFCij45cuXHzhwIEcF8ojX7qdwgL1Dko3Yy0PUDjlrB+SyWYzb5cXuwZOyDinzIdkTEML3EG3yog4kO5qbfv/9d7RYtN4KFSpAEUHFHnvsMfzt1KnTokWLunXrBk2lV69eNWvWhCxo3rLaRHF4fPLkyUGDBhUuXHjChAnh1p6jTd4AwbX87qV2jRkzBo2gQIEC11577U033TR+/Pg1a9agxeCnRx55pE+fPlu2bNm3bx9aCS6cOnUqLrzllltuvvlme+a+Z8+ecePGbd++/Z133mnWrFkoxUsHCZBr0m6PtBMYMUITFRxjGSgkKIrxLFrYa8j0DZWsFxIgJf1W3iAj2uQVexTXEsBT06ZNK1OmDKq9atUqUV1PnDiBtv3www9Xr169WLFiL774osxFvvnmm6VLl+JaaDm0N2Lyii4wc+bMMCS7aJM3QHAtv1P5inGCT9WpUwekzJ/QOBo1akQiWLlyJUoyVebGjRupD9pqGro354koXKlSpblz54Zn4/Da+C6bs8hWdBmS2IQSh4/HdsxCWXvkqyAPyp4v2dwb8hlMtMlLyFQDqij363Ji8V8PIA5k37BhA8MtHDp0CHQGbZf7dW+44Qb0AnttGRNTqCxifgxDRJu8fodr+V22pHKuLWG+OUM3TohwcYKUeTrOgNBl7ztjvRorpIFJm/Q9TCD7uex6GsvswPMdO3ZkAjnu8BJP/xQnNjrt0cYKx0HfcDoUysmQv4dok1fmK6wYZqK0N6Z6oh9z2y3LdOjQYezYscOHDwchTpkyhf7+uMO2bdvmzZuHAtCCBw8ezM293CAWhibpaJM3QHAtvxMc4SWAjCyjSWAZUnyqE9qfqh/JXVbkeCsx1ISn/xxnKtJwuQXXVjllakLis1VUbvVasWLFhAkTNm/eDD1o0aJFI0aMwMx3586dkBfTnfbt2zdo0KBatWoHDx7Er+hvF0Oa7Cba5BULEo1IoLMuXboUK1ascuXKVapUmTVr1po1a8BiefPmbdasWb9+/f7973/v27evT58+kDQpKQlXXX/99SjGIY1G7Z9++mncuHFbtmz55z//+cgjj4RKtAwRbfIGCK7ldxK3ZFW+aKV9kLU129ECDYIqvKyzc9VONsKYjPKohQ9QH0xOz549i/np1q1bixQpsn379lq1au3du7d79+433ngjCAsn0QfIU//5z3+WLl0KYStWrNi3b1+czJMnD4rNnDkTHQbvbceOHaC2+fPnQ17wHU5CP3r55ZdHjRr1/fff33rrraG1V0SbvGyrnI+ihnXq1Hn//fdleHviiSe413r58uXgMhAcTv7rX/+SFs4UIsbZy02fUbyKV1991XgadghFyxDRJm+A4Fp+l82K4kfhxciyXCYWOttBQhbWZOOrGHbsfZLhgxMnTpw8eXLOnDk4Xr16NWhr8eLFILi6detOnz796NGjTZs2bdeuHWiLYtb1QC6P9SS9fPjhh1977bXbbrsNgv/6668owPShlSpVws0PHDjQu3dvzJFBdl5hllXeQEPas/j82ds7jDNBYVhNqS2VGPFFIWS9gf+Gp7Ei2uQNEFzL7+K/bEePsftnjBPs1yZ0rz4sbpR2Emc6aXDxNnz8o2Vnpjh044BpcUBk9uBkrOiJxuNdMGLECOMEyh86dOj48eOrVat21VVXrVixwng60u7du1GsdOnSoM5UJ82QCbU9OqrkJeyni9Zi10q8e+06C53Zvv/SsO17ylVhQoLRJq/f4Vp+jzb/6AIFCqCqPXv2rF27dr58+XiSviKobYMGDZ555pmdO3eC+1jJGz2w70A/QkyEixYtCvWnZs2amPx26tQJmjIUYXvMo0mUw2Gw5XQQbfL6AJu3rCvwJOsc46T2tqlNiAxn6FBkHHuIOImmz5AXPog2ebMD1/J7tPlHozLz5s1jq+3atStE69ChA8VMTExEAZCX1xTVaxbStGlTSp2UlMTpLb0RpMWvXLmS/8rOkRBqPdEmb2agLFIrrjNzaiKTGPESlg16LMy1JZm5iuzhTHbRJm824Vp+jzb/aJKXaC50HBLxZaphm5ukNbPmND2L7ZKX24HvxeQlKk8IyS7a5M0MMU6aSR6LL4Bs8+G/LMClI55PdbZ2sw2za1y4cMHL5SzcEG3yZhOu5fdo849m6xQCss1K9PmhW+dFJzmJPY8Rj09OeMVpwRYtxUp0ZcJA5Yk2eTMDRyDRUmXaStE4/onKYpyRjwXwlzQnU0++FvtNhk6yjBFt8mYTruX3aPOPtteXxJ2ffHTu3Lm4uDhmsaChyTieCTRl2vEXjWfTgGwH469i3xD/0VQrLa3KG0KwDdsbO4wzoaS9QszNVGBRUkYpTmF5B74oWWzI6eRICDdXsWiTN5twM79HlX+07TMQ6+SrYrMmncmSFI2VdsJxMUTwQuOwYU4PjOOlIIqPvW8gVFJHm7yZIcazAZtjGN5JmzZt0IxpjGb+kxxOfD3jzC/l1XHXj+jC9oGovTKDCRNEm7zZhKuEsRFt/tHCVvbCw0UnDBNtjjJRNZZnMTuDLC3Ya9G251kOJ69h+meFBNEmb2ZItWIjUxvlbEPmNDImvf3229BFoOtAp1myZMnw4cNffPHFXbt2YbrTuHHjDh063HvvvTIfzZ8/v7yisEK0yZtNuE0eQbT5R8emSy+XajkCx1hhjYXIRDk16TZ/CVLTbh1IcSL2pIQ6Q2G0yYsKjBw58tixY5hTbtq0qXjx4phxQuH45ZdfevbsiQMoK4UKFQKXsc5ff/01s9OUK1eO0Vf++uuvW265Zdq0aY8//jjO//TTT7gb2jx+wny0VatWBQsWhBoETsRU9Y477gihsFEob4DgWn6PTv/oVCfUtb29m0mOyHSMvsRlZPEO9vIYkVFKlFlZnBQBQ76eTESPvMePHwc9gY9Qgc8//3zIkCH//Oc/Ucn+/ftPmjQJs0nMNdu0adO8eXNWFe32uuuuE38B4xG/YcOGK1eurF+/PmTcvn07mjTFqVy5MiajuMmAAQPi4uJAdl4L0SpvhMK1/B6F/tFcL7IXlNjcJXSa7RdM+qOk9s4srj7JXJVlKCNdhmQJ2oSa36NKXogDMXmMA6gsOIMZJBo2Dug+wOVECov56LJly86ePVulSpW+ffvShRSixcfHjx07FmwIjnvjjTd4QyjFZcqUgY48YcIEcRszzkqGyhu5cC2/R6d/NDVQO+Yl3cXE5QAdQ7wI5Cp5A+I7FGNt5hZ/g/SPC/l8JXrkLVasGNpwjx49atSogQbJhUTQWaFChSDjfffdh/no119/fe7cOdb8Jg/kcs5jcnoCdZUqVer8+fN169Z9/fXX27Ztiylst27dcE9xJ49Nl+lQ5Y1QuJbfo9A/WnTMUaNGoUHj7yeffLJ+/XrMQw8dOjRy5MiqVavWq1fvnnvuqV27dpcuXVavXj1s2LCNGzei8v369du/fz+0pOuvv/7+++9fsGABJiudOnUaPXp02bJljWOG4vvxTYIqbyCAR8+cOZMNDKyHM61bt+ZkAvNLnFy0aBFHsotW+GvjKDoo8NBDD7Fxzpgxg/eE9ip+pfjLjSDG0n5CSHbRJm+A4Fp+jzb/aDry08OvWrVqV199NWap3bt3R53BWVu2bNm6dStO3nXXXeg2qD8q/+mnn7Zv3x58d/fdd6P+OF+iRAlwXOPGjY8cOYLyBQsWXLNmzeeff447P/nkk40aNRLrRIy17VvlDQ5Ee0hxMhCJaxBVEHEpMdYCsjgOceqZwwmiJ/Me2qPwN3fu3LyDbaoKodTRJm8g4Fp+jzb/aE41OPNo2bIlaO6GG25gtA0orT/++OPatWsxvd28eXOvXr1Ac9WrVz99+nSLFi2GDx9+yy23kC4hDlTdPXv2xMfHN23aFFSIKS0K33rrrf3794eea8+BYtJG8lN5Awo7k4HXNELILsaKo0eLk3AfVVSuKxhPpxD7pDiYsQtIXwgt2UWbvAGCa/k92vyjWQeQHRuxbU3CtHTOnDnbtm2rWrUq3f9xfunSpXv37h03btyGDRvYuLkguX379kcffbR8+fJ16tQpU6ZM4cKFecMzZ87IfmAxZ4d2cTWq5JUFA1RGIiZR/RSys21K9lYdHssSkaScFA7NaUVVonprLEVH5Y1cuJbfbf9ogU3WNu/LSa+/Xkh/CeE1EoQEonp41Zxc1r1794SEhKSkJKiovXv3BvFt2bLljTfeiIuLW7hw4ZtvvgmihNoLERo0aFCyZElcmCdPHnQMCbZnLyzLWkXwxRREm7wEGSo2XYYZcdU3Tr4ae0IpVghxH2K0JbZb2ynQayYa8iWWaJPX73AtvyuIxMRENlmuJu3YsYOqTadOncBo6Abt2rVDy27evDlnMzK/ee211/Bv586deR9oxLZOZBynw3Cb0rpVXnuagr/nz5+nB4g9gzQZWQhlJkp7FI0bIgiGLiE7eyVZNgQEV8o01Y4qeQME5XeXQ/qDrEayA+RwAibLxk7bvkRdlT9xtitkl5o2QVq4wa3y2qt/4CxJAS9ORLJJW8oz3IpxXHuNE2ArOTkZQx3pT2zcYpuWqW1oncGiTd4AIRy7qMKPSHWiXVNd5QH7Bg3Q9uKh7AOKtYKvkuPQx2RdWnYGhGF/cLG8Qm2SpMJeDZJxSFw5hexswzTOcx7DEc52QcnwcSFEtMkbCCi/uxzsEjmdCCps2eIQlsMJl0oeFCXXa/UCJUl2kpswPJV34155ZelPttTZS76s54ULF2huzmElqBEVGMcZzlfE0GEcjqMmS9fh0NqjokfeACFMe6nC74j1JCSTfRzCXFRUxYWUlko2dPQf+i2Ia6CdeJYuKHbEj7CCy+QVe4UwFIexGGs7HpcihRllc2aKJ1mN8ZCamLB5IecrsrooboXioBISYaNQ3gBB+d3lECPyRSebFbsEw25QURV91ljxV2UlKtWJq5PiSYnFHmKcFFchFi8d3CqvqJao0qhRo/DvCy+88N57761du/bcuXNHjhwZNmxYlSpV7rzzzvr16990001du3bFTwMHDtyxYwcu7NOnz9GjR1H/evXqocCyZcsSExMHDBiQkJBw1VVXxVghNvk4vA1b/1V5IxTK7y6HmCZEbZGfRPEhA5q0m36p1JATZWIrl18M10wIbpU31rMrh05+tWvXLlWq1DPPPNOrVy8Q07hx47744otNmzZVrlwZXPbKK69QorfffrtLly5r1qy59957Uf9Zs2blz5+/U6dOjRo1OnTo0JYtW3Cr1atXf/nllyj85JNPophosvJaQuUPHm3yBgjh2EUVAYKXz7itrXi59suU1uuMV/kwh8vklQGmefPm+Hv77bcbT8UGDRr03XffrV+/Pjk5GazXr1+/li1b1qxZExyHA2is9913H5eaUfjmm2/etWsXTj7yyCPr1q378MMPUaZBgwZQeBs2bJhqhcwLOdlFm7yBgPK7QhHBACuNHTt28eLFX331FffrJiUl4fySJUt27979/PPPgwFPnToFrvzrr7/AXzt27IA+W7FixRo1apQvXx6X58uXL1euXOBKY+0nCu1mbB+INnmzCeV3hSKCEesJ0vD0008PGzZs8uTJYL0ePXpUr159w4YNb7/9Nn567bXXPv74YxQbMmQIyt9yyy0gu//+97958+bl5RcuXBB/IZAdVy/D1pkk2uTNJpTfFYoIxrRp03jA7JKbN2+m3ydYj2zVunVrKKctWrQwln0ZvLZs2TIwWteuXY1nMXP+/Pk44FYg3jA8nUmiTd5sQvldoYhsSBKx//3vf+ICZHt281i8PGWDj72ri9or93kaJzxneKq00SZvdqD8rlBEMCT8oWzmEj2UPwn3iTug7OpKv+vHOPsGjBMEO9z4LtrkzSaU3xWKCIasDUoUXFuZZUwu2RAkm30YcTe986gkoZQALyESK1NEm7zZhNvkUSiiCmJiZlAd43h2pnryBnPXrlfaaNmFyx28Ju02feNYNsLTWTDa5M0mlN8VigiGqKhehgV7y759xlh+5V4egRI9LRzyGWSGaJM3m1B+VygUCndC+V2hUCjcCeV3hUKhcCeU3xUKhcKdUH5XKBQKd0L5XaFQKNwJ5XeFQqFwJ5TfFQqFwp1QflcoFAp3QvldoVAo3Anld4VCoXAnlN8VCoXCnVB+VygUCndC+V2hUCjcCeV3hUKhcCeU3xUKhcKd+P8A3lvBSu678JAAAAAASUVORK5CYII=;" vertex="1" parent="1">
          <mxGeometry x="20" y="10" width="374.81" height="300" as="geometry" />
        </mxCell>
        <mxCell id="ZgNNGTYw98eAhwDFOAmk-7" value="" style="shape=image;verticalLabelPosition=bottom;labelBackgroundColor=default;verticalAlign=top;aspect=fixed;imageAspect=0;image=data:image/png,iVBORw0KGgoAAAANSUhEUgAAAcMAAADxCAIAAAA4IUubAABi1UlEQVR4nO1dd3xVxdadG/BJ7713FET5BKQIEjoE6eIDpEvovUPoPgSlVwtVDILSFKQ3pUhXkCII0ntvofiUfOt3l2e/yUkIJPfmJvdm1h/3d+4pc2afmVmz98yePQlDQ0OVgYGBgYELSBjbGTAwMDDwehgmNTAwMHAVhkkNDAwMXIVhUgMDAwNXYZjUwMDAwFUYJjUwMDBwFYZJDQwMDFyFYVIDAwMDV2GY1MDAwMBVGCY1MDAwcBWGSQ0MDAxchWFSAwMDA1dhmNTAwMDAVRgmNTAwMHAVhkkNDAwMXIVhUgM7njx54ufnxwP84jg0NNThcMR2vgwM4i4MkxqEAUgT1PnXX38lTJiQHGpo1MDgmTBMahAGIE1QJ2g0JCQkadKkhkMNDJ4HhkkNwkA00MSJEyvNwI/lbBkYxG0YJjUIA9Ao2PPx48dgUpr2CRIkMAa+gUHkMExqEAGokAKg0djNiYGBV8AwqUEY/P3332BPqKUOJ3Dmr7/+gnVvdFIDg0hgmNQgDECjINPPPvusTp06GTJkeOGFFxImNJXEwOAZMI0kDP773/+CO5Q18eKB8UHQFl7BKR28jr6cHlMARV7B2LFje/fu3b59e+qkdIcSRVWfesJJZlWflcL906ZN69Kli5mkMohXMEz6P5BWyJ44/te//vXnn3+++OKLMfpSGYh8/Pgx3sW/5K8YfS9ZG/Ju2rRp27ZtgYGBR44cyZ0795IlS6pWrTpz5sxWrVp9++23ISEhJ0+efOONNy5cuFCoUKEiRYps374dxwMGDFi7di0+1P79+4cNG1a/fv0NGza0adMGHIqnChYsWL169RjNv4FBnIJh0v+BmiAVMdAojmOaRpVTs6P/prwLZzxgUFPlxKsfPXo0aNCgWbNm4aX+/v4vvfRSgQIFcubMCU4HsWbMmLFhw4Y7duwYP3482HbPnj2VK1eGvnnz5s3vv/9+8eLF6dKlCw4Oxp34aHny5MGlzJkzV6tWLabzb2AQp2CY9H8QmxqcQpVNxfzkNV5KNyO8jhY0fsMb3TEBOjkFBATgGOokxYdqnChRIhxAH0+WLBlHHkj3yuleivtTpUrFfIKFcQN6Haiu+PvgwYOkSZOiSzDTUwbxDYZJ/wEdJ6FYKYtJSSJkkJgDxxM5mMCRR7yRgwwx+l4yuHKOJOCA+qly9hxbt249ceJErly5fvvtN6icDx8+xF/Y+FevXu3Zs2f79u1r1qz5zjvvVKhQYcWKFTt37hwyZMjFixc/+OAD/OKRHDlyfP75523bto3R/BsYxCkYJv0HMrvCvx5bcs5X8C2cN8cv9EEOL3gAtlmjL7/8ErRerlw5ZKxu3brsTurUqYPfVatW4TZY93wQXIl76tevjwwPHTqUOcf56tWrm+l+g/gGU+P/B7R/0MTGjRuVk9TAGjGtGBJgqypVqqxbt05ZZAqdFHTmgVdXrVp1zZo1ysmhT5ygRkwql5ENXiWr4hJuoHXPq6LIKysAilkTZRDfYJj0fwA7gEbJnvz1GB3ogexIW57xIhIBbd4CMryAG6hscrQUv1SW+SCHd+VB3mk41CAewjDp/6CTl4fpQF7NA086Y1JSmz2uiy+6pz75xhzKYGv4GwwM4hUMkxoYGBi4CsOkBgYGBq7CMKmBgYGBqzBMamBgYOAqDJMaGBgYuArDpAYGBgauwjCpgYGBgauIp0yqhx+VBTmy3pGw/TUwMDB4GuIpkyrnaiLGIX3hhRdImlypqcct9thaIwMDA69GvGNSkCMXtlMVxcHYsWOHDh360UcftW/fnkshp02b1rt3b5zp3r17bOfXwMDACxDvmFT2+cABw2t26tSpT58+ffv2HTly5J9//pkpU6aQkBDoqi1atDCROAwMDJ4H8Y5JZfQTB4kSJaL93r9/f2imly9fTpgw4c2bN3Fy4MCBqVOnNkOlBgYGz4N4x6TUMRkUjpop1M+goKCJEyf+9ddfDA7/4osvgls9E7jewMDABxDvmFSPsCmBl5IlS9a1a9fp06ffv38fVNurV68kSZIwjpzRSQ0MDJ6JeMek3OeD2ijJlHwKtXTChAk4AIeCSXnS0KiBgcHzwOuZVFRLiVVs25yd3k70G2VAeGXZ+BJkE78pUqTo3r071NKOHTumSZMGdyLByK172QFJWXssx7i0UZf3aV5cMpnGQQxGy4+853iavDZfMV7SQ0fzXbYtVeQGeVy2WdWTdZe80YBXl280ENPySpWzTeSK3yEl1X/lnmdah/w+uE05FSAPR2pXPsCktNbRRFnteMxaSCtedrV7ZrWDWnrixInBgwcrZxnIJhxPu182ksMvqt2jR4+4K2eMwl3ycu8mimkLmP80RC4vGBmJ8BID6SNZqvx8l+ST9/NAzsiotLipydiLu8o3qvDq8o0GYlpeSVzf/1FZHCodOfes5WywsjYtJydGUlE54aGrPh72uvF6JhUthlokSkg+6KZNm2bMmPHjjz/euHFDWQUZSVJ4FpV12bJlcifp4Gn3Z8yY8c0332zZsmXNmjXx1wPNTLlVXqnZDH0fiaREhPKyPYv+rhOijJwQQgrK+WFFA+Wd9PBl62IKbDZulDeq8PbyjSpiWt4HDx4kSZJEWZ2oKNqidFMiOtWI1LrhGEl/L+Ym01HhNN+Yhi8wqTRX9mncTg5G+vbt2/v16/fJJ5+kT59eacQReYJiPT1zgdOlS5dWr16NV6xfv37SpEnPqdm5CDfKq1tMz7ObaYTyMn3ZnVSv/YRopkif35asLYakmPY4IHUqa9Ns98obVXh7+UYVMS0vaVS6XkmcYkpF4oFYhKgYlJTVJpIsiWlv687dKEIk8HomlcEjfuuHDx/i6/fs2RMd4OHDh7n3Mg2EZ1Y7tmFp2M8cl0Ef3rp1a/ThjRs37tatm2cam7vk5VWpaqTRSBy/niYvCVFnZI4YMGWxEJFPHkizkVgHPCm8qW8Z7UZ5owpvL9+oIqblJS2yZKX0heak++T+tWx9rIpStSh1JK+QKqTbNG7J/PPA65lUvj4LKXHixCtXrty4ceOhQ4d4g9hKz0xKj2PCUolEU9P3sFu4cOFLL72Enrxq1arukCkyuEtebhqKm4XspApGiKfJyzbP/PTt23fs2LHK0utRlcVCRD6V9YWFr/VJlcePH0Nn4Qiarke4sXyjBG8v36gipuWldqnv+y29pr49rbK2WQw/PfVMNchh7YPLZut2nT1yeD2TssWiJGTIefbs2WjSrBncNZ5jcM/U88kpUops1ZE/IlOEAwYMgNnlgZbmRnk5OEWye87phfDy4i337t1bsmTJe++9BxqVsRFH2G1HaePzceFrmbvHnZCiXbt2/ODSgbEg3CVvNODV5RsNxLS8SP/atWuTJ09+7bXXuCa7YsWKdevW/fTTT998803csHz5ctQiUPnVq1c/++yz4cOHQzU+d+5chQoVDhw4MGHChKcxIzuAdevW4XNR+fWwC6PXM6nSemkebN++HV+fl2xKViTjJsIpyhr10733I4S0c9wTEBDQu3dvt4jzTLhFXmWZS5zZELX0mQMC4eVdu3btmjVrypUr17lz56VLl9arV69mzZo4gJG4evXqgQMH4pEdO3acPHlyxIgRU6ZMefnll/fu3dunTx9Q57x58xo0aDBz5szg4GB/f//8+fO/+OKLpFFRYdwlb1Th7eUbVcS0vCzNoKCgfv365cuXD687depU7ty5M2TIUKZMGcpSrFixjBkzpk6d+quvvgKV437Ulpw5c7Zq1erSpUuRVE48XqtWrcWLFyvLnUv5wDiprmnb/uqDF5QzwtYb3qvumZBErly5ki1bNttVfdAtQtguPfN+FXY+EbWBM6oeg4vyKivnHNa0pRnJG23yolhhCaIBoEmkTZsWPJg9e/bAwEDolUWLFs2bN++RI0e2bdtWvnx53Lxnzx5oIqDOn3/++ebNm0mcSJUqFR7B46+88gqe4rs4SqjXjWjIyypnq43iYSM6sliR4skgB+Hl9RhcL9/ovTHm5KWP6sGDB0GjLA5QpHIWk8Naw82uvVGjRqRRAmdQW1BzlEUmX3zxxZ07d3CcIkUKkCw19KRJk3JIhIl4OCSmm5kUucf34qAYjUcKqU+9CTnqMx70kAi1/OFl2sfmdWgQ14BiRYnTGqU6Q/cm8a/GSRRu9erVU6ZMCZNt5cqVMruKA9YN3INmwOEUfeAsejaaDA7oBCrpUPvW657kVhqeh10R4wNQxHQ0RunorqP8FVdZ3ABFFUprz54958+fj0soyo0bN969exdqspQmTnKIg+sVZUhEn97wMJm6jZ5CrfjzpFH2P/w0Ui/ZPPCLNsOKKxWaHhKiH7GlibJgaDTOAqUDjRLG+5tvvnnr1i2Y8JcvX0ZjOHv27OnTp6E44C9U1B49eqAl1K5dG3rrokWLUKB58uR5+PAhjH3cA/Xn3r17u3fvLlWqlDBatIMe2AYHZAiYvbWsIGA3z3orFYz6kSd1mXgClgU+7KuvvnrmzJnMmTOjmPbt24e/+OAssl9//RV2fYECBd59993Nmzd/8803jRs3xvkiRYqAWKGTXrt2DfUHzMDzAtIFfknTTE26ds8I6E4m1VVILjUDn0qnIdHp5aoKt1KQldihrS9iV2Ni18dZoLBgCX799dc4+P7771FYq1atwvmpU6fqSoG/vz8716FDh+Jvw4YN8Yumgt+2bdviPFJggqJRRq/Ewc7oy1lt6GIFGiVjsrdmBbPRNLNqmyUzcCNkjGX8+PHjxo0rXbo01Ex0n+nTpwexBgcHgx8uXLgAYj1//jx64jFjxlSsWDFHjhwHDhyAKQNzHh1zrVq1MmXKxAR1VznS6Lp160C1e/bsKV68OJfJebI03cak9L7WB5ggGxmT1ZrauIwE04KjMahP9eoKvCw6NDppXAaKiWP8XHiqL23SF4zbFoMqqx9lJSHZiQO/bq9EKTOgURkc4NuVNUqAvEk1E7teDCZpdZITN3waAwvijZ8mTZoPPviA9jg54fjx47yHyhbokoWyfft2FApsHVYDcZ4TlYtPiVVRs2bNatWqseifNgETc3AbQ8GImzFjRq5cubhYpUSJEvXq1Zs7d27JkiUhG7SVUaNGwazDbeh/+vfvP3HiRHQguO3w4cMyNSkDqXprXL169dKlS+fMmeOurBq4ESwyapHS50k5cvCLaqa0JT8rLglXQypLDxXqdNEEoe6Dhte8eXM0y2bNmgl76gQq81HIBvt4Nj+SuHu+joEFmz4k43gOK7QN3ZllMb54N3MUXlm+Xw5t2T75lNWMQ4s0RKQEPRkV021MOmzYsJ49exYoUADH6GTy58+fJUuWUqVK0Wj6v//7v9y5c6dKlWr+/PnQ7XGmWLFiUOZh2YFblfWhZSBVaf7bZcqUmTdvnrvyaeBe6GMvMnUjeoHcpp/nKLlymh06Eetp2vSO5wczw0mtGjVqLF68GEwqExq8YfLkyR07dpRZqfBhL0yQb7dD5tNlHFx6TRnX5pSRrIPiPTBZ8KBMnPB+fXGHHsnM5i/kldb9nj17SKNAvnz52FqkjeH4/v37TZo0+fTTT3kPuppEiRLduHEDtVwGQ8GY169fT5IkCe5v166dcn6RtGnTuiuTBjEB6f9ZuWW5tNRsNhVxPGLV57MyeiOz5y4O5jisuB6rVq1q2LDhihUrUPHwRth969atA6vCHvr2228LFiyIerV582a8t3z58rScZPGroVG3Q6hN1m6I8YEK4+cMuSBDn0Kmco8opDzDCiNThfoUpaTvsUCIhPvHH0OtPTslthB7DOievXr16t69+8KFC1nXd+7ceefOnSpVquTIkYNfIXHixEmTJsXjyZIlU9rkA5PSO5xoj2TpLVxsTGm6euwDGfCNPCkVA0v3dDBLoWEDqek5D78qTv8+urxyG6WT4UilxabUpwclQT1mT3h5mYL0/ywym++RChvURy87GdOUzIeXInJ5w2cG+P3331G7YAaBTP/9739nypQJieTNmxfpwFqCutq0adPPP/8cSQUGBnKBjc2uj4Plq7uIibeMuLiEN2nDB4HVb3iihTqVZ8lWzyNyaNjQDXrKEvQ2vGOZ7vIpNUeGX4RMJQOSiPSRMq3Cm21TlFJRdRoVDyLJhuRQb+auDK26jUlff/31X3/9tXDhwpAB+mmJEiVk8GL//v3Zs2fPmTNngwYN1q5du2DBgsaNG+NS6dKlUYlDQkKuXLmSMWNGyI8bxFrEX1p/flaYNXFQ1dt8VPNJQtGnHSTyo4SGC+9AEx6SiL4UhxPH0f+IGqQtySg72zktHVYdm2UtDc9hLWcWA0cYQUYqleXHp9tKypqc0YOWSouNU/I+DeRfZAykCZ0UqminTp1Q36RfZyJAihQpoK4mT56c7dOWclyTN/wkrehrodr6AnFdYNGTsISg2Zps639k1FinJ90zLELY4jFLJBpe5YinpCYfVmqaPEjN0dZpyV8ZcMcZ3pZQC9vKm/UxU5yhsUuvIYe1ZEvXAyQ8il7t9cBm0YPbmHTkyJEzZ848duwY8nf37t3UqVOfP3/+yy+/hGwXL14sUqTI2bNnr127NmXKlLJly4JVjzoBkXC+du3auF8Gy0Rsjrtt2LDhwoULYOdXXnmFM7MuGoBSU8X1in/ls4qN8Myl6HrNQK7c1cyU9RHEikHV+eSTT1q1agUli7lFXeHYnywRkfxL3B3WJHY8T6yAoVILxfNOPqZumDO4ibiSsNbGKXkjBHuC6dOnp0uXDsf37t3bvn371q1bX3vttWHDhp07dw61rkCBAsHBwbD0UT+RbI8ePZSTO/TRN123igvykinIOzoHKcsdgiUui2LE1EhoBSqUxcHhx6DZbcjEIFk78ni1Cax4zErTZMVPXFqoMHgCK0KglBFzpXtukMp1exGJ0As4oRWplkmJHaPHyhBXEI6uynfW86MfSN7YP8kwbvQK1G1MmiFDhv79+4vzAX6PHDmiLE895O/tt9+mRrlv3z4clCpVymYU6MYCH+EXqV69ur+/P8tM96GJtirOiM66u5n029K1SgaepgHpbhyiJrvR75XfREw/iD9o0KB+/fp17959yJAhqFusK2xCfIQ360MiEnpdaf2TzJnqlr6yOhgmwuolHYmuQMUdeSMEm2KfPn34t2DBglevXkU+y5UrJ7RYq1Ytvg6VUF9xJ4awNLa4I2+oFcpe8iDLeMQ6JjfphpQMQCtrNZokSz1UD4Yi1YZUFfmYtc5WuioaaoVIF295EqJIrZegtF/dY8em6uJTMEssDikspg9JxfFDt1PxETiDzVKT4XiAzgB6lp4p7PPAneOkwvHU7UVmfRhCPro0TrnBoflLi/OpNGl8OE5W2CJjRxXUQ1mWw4cPh0Y8efJk1AkYelCNFy9e3KJFi1WrVj2PISnVRQaqnnOA6XngZ/lgyljHhx9+iJY2depUZLhz585Dhw7lmDJqEhsGv4xEGoWJALmgzv/73/8GoSirh3iiBTFj/pcuXXrlypW9e/ciQVgPuLlMmTL6DTIMEnfkfR7dgeqM9M3hvRFDtUCC+hpTnolr8iIzP/zwAwj3vffeg503evRoZfUcMlpFUkaamzdvXrNmzahRo/QlhTbuo4GiD6RKs8XBk7DB7iLMv1CzKL8ymgnRTp48OWDAgK+//loflNOX2wwePPj06dOFCxfOlSsXqlydOnXQkezfvx81tnTp0uhRYNdCi4LuBVv20KFDa9euhTkL0xaPLFu27M6dO7Nnz160aBGu4jd79uzIz0svvfTjjz/iNpgj7777bsWKFWEiZ8yYEZ8UH23atGnFihXDbbdu3WrQoEFgYCB608yZM1+6dAkf35UCdRuTypIkPT6rrjmLBcEuVBqn0kb0ya26SihlqQ/kiR9iNLoRMStQvUqUKIGWBoMI74VVlSNHDmjWKVKkCD/lEh6i3+kGlHLfkm3pKvDFaL906tRp5MiRqEY4CUsQBiyqHWqqjHzJOkjl/LArV65csWIF2AQ5RN2CpKhDytJTZDj1s88+CwgIyJYtGypZlixZUJtv3LghEslwUhyUN0L8rUWolEVN0ilSRSL78FOIEU1LRQKyxUF5kZlChQq9/PLLuBMccfPmzZQpU0pjUZbVTHbLmzcvLX3pQqir6gM4OAlNgvFEZFZHnCgizz9VSBle4GSDDJpxzDdPnjz6KK0ciIZI58g2bdqA79A9oOm1bt366NGj6ADefPNNdOqoli1btoQNgadgZ0DF4SuOHz8OI+P27dvIatmyZVevXg0axXn0NL179164cCFoEf0QMoD6XKBAAfByx44dg4KCBg4cmD9/fmT13LlzoFe09/r164N8UecThI2YE1W4jUn1ETepuPqAtwyl/+UE2zOLWQSghSWqq8PatU0GVkK1ZTBKG+B7foRqc9Psk3EG9RXFhu5RbpszZw5KYteuXVAQIkwnQdi4Vg5rStpdOgspTB8jl5EHHIAfcYwKd+rUKXwKcii/pOQK1QiVDB07quny5ctRTdEO582b98svv0DfQW/cqFEj9PPoqOvVq/fEGVqCHxlVuUePHpkyZTp48GDTpk3Tpk1bvXr1uCbv0/o50bZ0LclPc6ax1RzhAtarUC24RpySl3fSeMIxbnj48CG0KhQxNLhvvvkGuQVr/Pbbb3j8yJEjXbt2/eOPP2B14ZFevXqBl6F24SRYuG7dupAU1SBdunQgoy5duqC2Qy7QDQOSipNvJJoKzqMWoUah1bzxxhvjx48nH4G2fv/990mTJvXv3798+fLy+OHDh6FR8rhKlSpobpwFgWiQSN/fCeYRY0SRMa5fvx4SEgJh0R5lWADs//PPP4daG5nIkAW01LZt277zzjuUgumjYiN93In6TBpFOuhp8Dhjg3D5v4puxJx/Pkj0HosQMpMo/b9M3yvLkhK9iVVWGFOF9eoQvpPKzdqm95nRC0/gsGKP8i9SgAWBeslgmsry0kC3BnMg8hkGCisux5zbdWWoRYdtbpTfNn369KhYyrklDioEOl7UV2RVnw+VDMDkQU/Qs2dPfEP07W+99RYTQY1EG0MrQgt85ZVXNm3ahGPRGvB4didgbEJBwD0ObYVlnJI3QoSGjUji0AInR/g6R1inH70qxkF5IQu0yKlTp6JYMzvxwQcfzJ07F48XLFgQtAub99tvv0V9hm6LvhBXmzRpgr8wuc6cOQNFDGpss2bNQEMgLPSmeMWGDRuQLPpdGLx8C7UcNtWn5R/vgtUM1RiJg79gbo8ePRq1BRlGU0Kea9asCVtnwYIFbHGodWhNthlzfNjdu3cjhYkTJ+IefF4o40ucYImA7pETGP6okDJvITNj27Ztg5aNzoDBGPEipAaV/OrVq2jUqPO4H2YZNFkYXixE5dT59uzZExwcPHjwYCTy9ddfowNABlRYp72oIpo6HY/1mU2pqXLVNiRqozB98NRh+bKRZMVM0Mfa9d5bRRS/8vnzb5tPhNVDjmZ5UPNFVYamBs0/kqR0kRM8a7uuqEL32+BfFPa9e/eoSkO5gKlCr1sBK4pM7J44caJkyZIwGI8dO0ZCQe1B30tasaUvgihtlsPmCBWn5NXdg3T7XaqE+N/Y6qGMNSnNgVGfXdSHHeOOvKFW7DhwCvp4OUmjDSoeWAxnYHPgL2gLTIo6TEJctGgR7GjG22fHUKJEidmzZ4PvYHzs2LEDHSr0OH3+WgbBngaO2+JdeAu4TGnRRZXl+0lXMzZnqJkdOnQQs1K8jsCS0CIpC5Jq164daA6mEs7jDCowruJm8D74jsN6ePWvv/6Kt3MnVKgF+Kuc/um4GT0K7lm8eDG0b7wCCjgUhZUrV0JlLlq06PHjx9FnQHwwPs6j7Tds2BCXkEju3LldmU6Mcs2gqsivIMNnJEqxmqXhiZYkM8K6qS4+OrZX4EPQ/0Y4VDZd4A36XH9U8y9PIVfbt29H34WOHb0x+nmYPyhCdLD4rDBM+vbtCz2OYzSeh80jBMwI/QK/UCLQl6Kp0C/H4XTVCtWcEJWTAXESBhekgCyoUujb0c+jds6aNQv1FU8x9h3UFjQkfATcD9sH36FSpUro0mHgQ1PAX1iLsNdc6atjSF4ZUpcBPqYj3iN+TqccYQdyqLxL6qSuErLNuzheFkPysrGgd7x58+bJkydBByhB8Av+osigouIvWAO8gBRgdOfKlQs9KNgHlAqOQPVmHG7cBusb6iHMbZjVSKGDE2DDihUrwmpmcxPH1acVfdasWZHahAkTUD1ASdB2kSv8QmXGS8uWLYue4OLFizgpA3ccqJUDnNy/fz/yABHSpElDWY4cOTJq1CjQOhRt1L3Tp0+jjKBN16lTByKMHTv25ZdfRv2EbQ5OhFKML4arFy5cwHvxSPfu3Wmzo0epUKECKjZq/vvvv1+tWjX0JTCzPv/8c6SADOATIZ/4GlDh8WVA37jkSoFGp48lgermOSED9mIu6aWiwq5mEbNLWWPhHId+4lxXqztyituTsuaLdCeBqGZeH3kYNmwY88zwKGAcvH39+vV4hbjRxBY4yc5j+pEMGDCgS5cu9IPRvSDw9fjR2OGLbTtjxgyhierVq3P3OjQ25exOWrRowatgWDaYmTNnskcsVaoU4919//33DstXPKYXUEZVXvbQfCqB5qLEL4BifeLcTiZUWzXksFwsyWIikYxCOsJGy4+D8kIL27x5M+gD59ELwjCndIxqiIOmTZuKcwv6UZTsDz/8gL+gEorWqlUr/EX3CVqBotCxY0ewKjQ4fZyBSkzkg4a4NG7cOKkY8+fPV84JH/yuW7cOHxn1CseBgYHKam4oDvqoysTX6NGj5b0ZMmTYtWsXG/6WLVuQ1SFDhihLiWYKUL35djwO3mdx45usWbMG94MKWcrQfmBQ4ralS5fyHmRJOas908QHbNasGQ5g+zNl5NPTXlC6b7DS1gaISeinxb/Sp/LFzUKOKSRXL/yTG8uPj21DtIZQbRtCNoPn3MEtPP7Wtg7l0K0MoIhR44horxQPQ3QofnDks1u3bi9ou8nrepNkW8aXJdv64LWfFXhbVDZxDFLhRmNY6fmUB9ahR1Vepfkt4REZIHZYQS54p4xXJLCcN/UCJauK26N8jb+ftSFwrMhLjmN7EcbXhzWUZbexdei7xrJ3kYaGg9WrV0MHhGGr754dqs2zR55/ViTdh0y85aRcpO6JW664WL2gBXQXDhGGZV/Cm/l9dH8D3aFNWXOGMo+irEGbUC1CvPiBMXtcLuVn+cbpeYs2ovywzHWK+iPLDHiDTBAh9ziPAyjesJQXLVoUfgSKAvTv3x+a4I8//ggTY9CgQWPGjIEBAtM7Z86cMLc7d+6M87Vr10anvW3btilTpiAP0aNRpanJKqIh3b+17ddjkUaVNXGJYpaKImMpSls1zKqvL55T2lo92/JnfZaDzUDXYeVm+gbJe2VsK07JK1Ptf2mBw1myMnJKWaCvQe1C/RF5xSGEgkNPgfrm7+8vg1QeKPdolK8MB+t+aQ5tNTodBKn9cdGk0hz1ZTWRcq7tBpgandilJ35ihWvS+9rwELuTHjj6cgm9G+NYqvTiMl7H0mHiCbU1+LoPpQpnj0Ioh7UikZCilLYs35CqgHRU8nabh4beYz2nn3KEiE6NsQVZCU9qftaybuY4d+7cYteLO5tD845+7bXXUqdOPXny5IEDB0JXxzFIExo+boMOD6MbxmaWLFlatmx59+7dVatWyURQNDTTCHcAlvUV0ix1DToan8h16DVG7CzJTMKwYevEpVwMWBKK6Di6sSb1Rh+NUVYl5s34COzGhY7joLxKM8wpi94OWaA3btzYvXs3LFkp0IRWaAJ2ljiJ+slZR2XZQx7oOaIhL4V1aAGQSBbiIEyR+Smot4Zq0QMc1qIm8Q+jKyuNbpuKw3G2Z5b7X9ruSbbZi1ArkpHczKsy3BdqxWCUUSm5kw55egaehA0KrqyhGJYpu0BxFtIJiuqnsI3e/cgALtWFhB5ed/+XtbOVcn53aIsjRowAFSIfp06dunr16uXLl/EXB7ly5WrVqhU6fJCj2ObQT7/99lt+SrDkK6+8Qqlat27dyAnUaTwLMuWnT5s27cmTJ/nR8XvhwoXSpUvz06uISPyZIHewRYlWwroo4wxSEs+0cWIOoVpYDanftKH0gTx8LplRkUIRlUrGSZTzY3LNj+ga4Tf5EC+L6I1Bu4KoystM6uti8YuqiL+ZM2c+c+ZMvnz5YL0WLlwY9s2RI0fQNzdp0iRVqlS//PILbkCXnDJlSjIOXoeTwcHBbdq0qVSpkgdoNBryKmvhn7CPDEGIFSifgs9SLRVN1mFNAosdKSuw2RYc1t5WJOuE2krT8NBDfkj1k8r2xAqDwlwpK0SecKsMKMk0lPCgjBPqvEy6lIUVSnMskc/FTiKBMwrUEyvyngyJ2PLPF/mF9SnyKJOK7z0PQIsgxJo1a4aEhCxZsuSNN94A961bt27cuHGBgYHLli2rXr16tWrVcElqTPLkyZkUFR9+PvyOGjWqV69eAQEBssyJj/xthXj4/PPP8+fPX7x48VAX1u3pw0lE+JFffQFcNF7hFkihSv8pNtQTze+HtVCaot7x+lmxheSXSyd1TUGuirKm2/uyzsemMsQReaVNypqZPHnywHaBjknj5sqVK+iqX3UiY8aMDRs2vHTp0ty5c9HTX79+/dy5c0mTJu3cuTPMf5i6qHjr168Hkzq0udA4Ja9MEpACRGqH5jiYUIvyKRtYifEnx1x+LSWutJiH8i7dtTE8hGelMYqvqFg5hG1ORWmxODgrqMLFiNJ/mW2y4QvWun6BrggLe+pVIoG2BkwyQNH8rCCK+lhttAs0OtVFzyhIB927wxlRVISUkuN4Fn4TJ05MQoSmgIqeIGxwECZYokSJNGnS7Nq1C5rsrVu3eBUaLtgTB0i/RYsWssWuChuvUM9b5JnXO3we2MLBShN6nrakSxETowG6PS5f1c+Kw6isSikZ0J9SmrA2qhXIl7QNHIdPhwdPk1cmqRJq8Qpso34qXEDMv62oTrac28r3afIqTfeRqzxOnz59rVq13n777dOnT4dqO4vgIFu2bCDNunXr4tm1a9eiv69Ro0YCa5en55TXXXCxfKWK6kOHehHbartevvr4o5yULlOUtcin75VWWEobILLdY8uYlJfUE30CSpqwnj7LTh9zS2itT9XzHOHHkffKmfBCud5xRud5hzZjWLVq1Z49e965cwcqwLVr1yAbFAGY5ydOnAAJoipDzcRfWuhSm5UVPYE1YN++faj6VapUgSYbFBSE9EePHj127NgMGTKgJYwZMwa/58+fP3ToEBVSfRZSz4wn/QF1lZmDiZFXO3chrskrkyFKG91jflBq0PLAaFmzZlXaCLVoLtAQUT1kV9HQsAuNwtOZLq8+ZSFTwDDqURUrV66M3h11CXUSxiNMe2igqI3Hjx+Hiora+Omnn+LS1q1bYebTKxsWFT0TlRZ63ZSvG+UN1dzRZDwqgbbKSx+1t7mROCx3FBmYYhhW0qgomO7KavTg6oxT6tSpv/jiC2rURYoU4Xdp1qwZ/q5cuRLiLVy4ELc1b96cCoiMkcsv6joqPde/p0qVaurUqfhYJUuWLFasmO7Kc/ToUWUpNTbrW0wh+bIxXe1UOFdwT44qxil5JWiFshQZ0TenTJkyYsSIJEmSyJzpX9Yus3wWRKZrrzbbQiZMIpTXz9qsieMPrJPDhg3ju4KDg5kO3ujv74/atWrVKjZmVEi+rmjRojZ1rHbt2tRMdeaK5+XrLugTniy7UM3lXB+1ByGgKB2WJ6KMRz2xtrBV1g6yVGZjcQhOR3QyoceXpYQyeaePr0m7Er+KUM1pS3iQBjsn9PmIROXhnaFhF/KLo5LtXbbRmZiGI9ye6cq13QueE3FNXq6tgtLXqlUrcBN0veNO9OjR4+DBg4sXL86bN++MGTNy5MhRrVq1AwcOwLAYOHAgSDZjxoydOnWCMjhp0qRdu3Z9+eWXftrmH2KKPk1eqVScY2GdZIw4hzUbK/eTkvzC7XIqSemKj+TBlK8b5ZVRILFKWYKffPLJnj17Zs+erZwNfPPmzd988w0qDEpq/PjxKCyYERUrVkxgOWYxNdGgYQH36dOnS5cuJUqUcEs+o43or7unJDIEpkcqlM5HbpZqIcQq9dg2LKKrLeKS4rBmn5U2xiE+9pL4EyvOtmcmixJozswwNzg54IGXxil5aZGBFpMlS/bhhx+2aNGievXqqBUonWzZssE6OX/+fPbs2YcMGYLqDvUQ1jRod9++fVBXkyZNCo21W7du7777rm7QhWorfCKRV6YKJVSjONXK437azLXS3MX0yiaDvH6W3wJvMOXrRnllCDvU6QIsRQDt8uzZs9J/FC9efNasWbj6008/pU2blhHLGKHqieXnr8/I4XHUKA/7mUSI6Ky7Z12ngilTdaRRGQKjfsrAVuKrJJurSGo2X0Wp2Q5raby8UVkOdA5rY2vbfAiHeHApTZo0t27dSp8+fbQ/ynNCKgeO79y5A16I6TcScUpecchllUD5lilTJmfOnLQw0CBp1HP5So0aNVKkSIG/0DuGDh2qrCkjFTZuCJNSltryNHnFNhLvmQTa0jhljQVJfy9NUYVdrJxQ26DpiRYS15SvGxPXrfuEVqCTc+fOoZcFUa5duzYgIACXICyse1w6duxYhgwZcHD//n2y54kTJ3Abmz/sm4IFC6IEUZ04IODGrEYP0dFJbUaWKJsOa+Ed+3NWX7HHZXxT11Klfv9l7Q2gD7c7rHU4flrMHn0iQoWdkaR6UqlSpaVLl3KT5xjFEy3C7sqVK/HemH6jCreIMNblJe+gqd++ffvatWsNGzYcNmxYhQoVateuffHiRdjy6D6hliKfTZo0gVr69ttvFy1adPXq1WBYNIMbN25cunTp6tWraDAvOqEXqExeRSivHi5Pt0z1YQHdxJFq9pe1wYbov6BRrsbRzVtTvm5MXBReaf7Ajh07UG1QEBAQ5KhP1nPEhmPEMpIjK/eVNZbI8Rxv1UmV5kIsdV2cFUQqWQQmUJYKI15gkmBCLSivaDfyRp2+bU4PKiyb46n33nuvf//+MV3znlgRrejEPnHiRO4GEdNwhF1qHevysj+DxoS2h/NVnGCRQYNgcb/11lvIcDUnmFq+fPnYxW7cuBH3/PDDD7pQeo2KRF59oFwowBE2WHhCLc6b0naTZTZk/D2hFSdbqnGoFbYxnpeveyHSscjQfTLESbly5SQDLB3oqmfOnMEZqMac4s+bNy8dIpXWceL7MJ5LrCOagy+6/5purUd4rOuwsmzUdrP+V9dKwl+y5URqv4xz1axZc82aNY0bN16wYIEKu5ugbZJBaSvPeF5KKDScp2qEoDEIbats2bIwTzwwSxA9ed2FSOS1bVSnj8+Ed6bRl3XaVkbqpa8PtT9NXhln1+V9Wp2MsHSk77e9N3J5YwjuKl9dJVeaJ2/kb/eAvFJe27Zt27VrV8uWLbnzx/jx43v37r1u3TqY/Dt37ixfvjyofPLkybiBvRoXOKmwDvanT58+cuQItFcY+4wnpzwyMRgeccKBwBU4rPgFnAHj5Oy4ceO6d+9eoEABdOaoiBkzZnxiLYmzGYy2L54g7MLh0KcvHMR5mKXr168fM2ZM6dKlp06dGsnNsSuvW95r5PUueanHJQy7330kKws8IK9YDxz3K+sETsKggVHCRgeDpkaNGrx/4MCBulojI4EiOK5CUaXXR4T9iicp1euZVGlLmB3WVDJ+p0+fjp585syZffv2RaentMjnfEroUtKh95UML3AWNfTpi6bSpk0Lu3XEiBF169b1ZB8YPXldh5HXM3CjvAmspaXK0jcjuT+m5ZVxG5k78bNWUvlp8TaVtuulrMqXFMT/iV+JYxE6jeoN1jBplMHhFfEW5FRstWrVqlevrixbXg9/oD8o3/ru3butWrUKDg7Gs/p4boRv1F0xlDVcqAcBi1FEW95ow8irvFBeDlOI11EkzBLT8soAaKi2mZAKG9lSZllkmoQ7TlNYpY3DhFqRInBGDwgnZG1L3APweiZ9oq1pE5d+LvMXn0GHFU9MfzC8sjly5MiVK1cOGTLkww8/1FccRAg/KwKmdKehHlkJE215XYSR1+vkDbViRNmm3SJETMsry3ZkFFjSl50yHFqAO2WtH6VObQuvpzur6dFYnja/4gF4PZPKx+J3t23l9rcW/Jz+BuopoU/u378/efLkx48fT5kyBZT6zBE3VjvxpFHOKWDbrEtMIKryuqsyGXm9S14ODpATpeZHUqtjWl6ZJeOxPqYpuipXWNjijAjb6jOTDsvR7YnTm1iPe6KP2hkmjQIc1gZbspGRnxWgU3f7Z9BDqUm2T4yrI0aMYMeIY6qlkb9XRmp0hxW3xwoKj6jK667KZOT1Lnn9rIChyklVNsfBCO+PUXllskg/aQumJ9sH+Gmh4pW2XIKXQi0Hc85fscvx/GS9DV7PpPiserxnR1i3f54MT6B6l4XiRGFAFcUBB1kYvT9ZsmSRq6Uy8GRzzohRRE9et8DI60Xyip3+PBP3RIzK66ftISatT0ZFE4TdKUf0SocW2c8WDlU85F6wNmLRx+uMF1SUEaHnoI0BdV9F2XpB7kdJDB48mEuzZDXqRx99BBs/Sm/3TEyaSOTVV0kmCBsBVmnNTw+Oq6cc4Q16PB7dLeaJth5Gxqd070Xcef/+ffRGomLozYOJ6NufyVscWjSpBGEDRMUFeWMaUa3PT0sn/D3Pk/8Yrc9Py7Y0QxVWUpserTuh275ShP7pHobXM2lUIeM1Yrw8ePBg3LhxsCwSJ058+/ZtzpaOGjWqT58+KVOmjHWr4fnB0SLZOERXwGV8jRuQKK1TkR1KxK0kobZDmW7x6fqR0iq6PKK/4vHjx6BRXaFwWPtPKCtMiQRSmzZtWqdOnWx88UwdKlbkNTCIEPGOSaki6aG2p06diqY4YsSIXr164Qza3oQJE2Ddz5s3r2vXrrGd3+eFjKnp86GyKRDIghocaYVRlBJqO1mpsL29BNYVHVM3wVS4uQvo7w8fPsyUKdONGzfy5s2L3+bNm/ft27d8+fILFix4//33f/3113feeQdfdfLkyRMnTkRS1atX37x5Mx7JmjXr119/nS1btjp16ugpRz5OF7vyGhjYEO+YNIG1o6R4Bfd1QlmtBa2uhxNxZD3vc0LGj3igz4FysEy22fnbufGfPrQkY/biNyPxm/2sndSU5l1IRY9dEdPMnj17+vTpCxYsiL4Hv/h03333XcWKFWvVqrVkyRJc3bt3b548efDIqlWruDTlypUrW7ZsadOmTY0aNYKDg3UatQ2QxSl5Y7AIDbwZ8Y5JlbWZlz5vSMs0VNssL9S5U3EsZzQq0OdeJeCxeO09sTan/Fvba0xZ0TDBI/q8sG728swTKxAXrWmxlyUgN/dMx0GuXLkaNWqE+2fOnClegeKsw9+iRYvWrVsXqVWpUmXu3LkfffSRw9roUTLwTM6KXXkNDGyId0zKJkT/CdvspD7VwMbsRS2Heb5+/frUqVMLFSrk59xAG8b1u+++O23atLJly0KWdevWjR49etGiRdeuXfv0009HjBgxZswYHOMqrG8ck1zEvw+/jPiL1PAUHsdTpCcqbuJYBgUTZFqhQoWQkBAwIyiyatWqQUFB3C0xbdq0P/zwA/RQvAuXunTpgvsDAgK+/PLL5MmT586dG0/BwAcFi4+LPkUbp+T1WIEaeBfiHZPKnj+kUdFN2DKVNs+gbx0e98FsDxs2rFOnToULFwaPnD59ukCBAqlTpy5VqpRyDju++uqrOXLkAK+BwqZPnw6CeP311+/cudO8efMbN268YG0Xzn3SaR0z/jEALfKrr76imhbe6B48eDBZb86cOTKkOH/+fByvWLECb1y/fj0Sp7q6dOlSPtWvXz9+4Xfeeedva7cih7UQO3IvnNiV18DAhnjHpMq5D5Us5xAalWasx7v0IlCE3bt3gzI4LQ5a4SXxagZfgDXAEbNnzxZ3HxxAc4QuJp0K1EMQDZ7iztiy4lD6GN2pSHdtkXkbZU3Wnzt37vz580zZz9qYV59TUtaIpz6fExp2B5E4Ja+BQYSIj0yqwm6hrrRpXO9VQNgHyNJmvW8QVyHIe/LkyaFDh8K+hvVKjvjpp5/u3btXuXLlXLly8akkSZI8ePAASbHLSWBtbqhP0Ui4M51f9GXavCFnzpxbtmzhGfnatknw8Az1PO6BcUFeAwNBPGVS3wMpoFChQseOHcufPz8a/M8//wxj9om1ye3+/fvTpUtXsGBB6GirV6+GItagQQNQRsmSJTt37gzr+OLFi1myZEFS9erVo5Io9rVoZ46wuyTFomNQfJPXII7DMKmPgI181KhRsHaLFCkCloFZnTJlyps3bwYHBzO6ePHixXHy8uXLY8aMKV++fJ48eUA3ODNjxgycrFatGpiFbgx0qJRxZDy+atUq3LNz506OQupr+4y8BgaGSX0HT5y7JcOY9bN20wQj/PLLL/qay4CAAGpeOI97wDVKs475yxk5mrSyfKhGjRq1atVS1tRcXNiDLL7JaxCXYZjURyARKySOjgrr1yWjimKrclKFPOLQNmKTFHCJo40yIyQDhU+s0OVGXgMDZZjUZyA+mOIPK+t/9E2J+VdXskAr+CvBKOnPwDtlbYJtyoWQWJNGXgMDUy18B+QU7lRhm/4WjyVqZDwpq8sdzv2CVFgGoVFMFU9WMXDBkkS9jBUxBfFNXoO4DFM5fARih9K3XGILiJErapcs3PKzduwR3y9xBZUl6mLPMooSQ2dK4rHoFRTf5DWI4zBM6mWQqZJQK3qmTCtLsDgJhsTQHmKiMgXeLN6Xwh22DR5CtQAlZBlRyjxJK/FNXgMvhWFSL4MwizCCxOmQQEpyngf68i2HFiRUWaE6Qp2b33K5pJ+1XaXEaddVNklBaevBjLwGBoZJvQxiotL1h+qYDAtSpZLoxZxXkdjGwimy562kRgYRMtLXvAtnybpJnAwJCUmaNKkHaCW+yWvgpTBM6mXQh/O4rlFZkeW4yaKEFGD4OKVtE0AT2GHtnyPDf0JJVNYkWSYiS+nFwQi/oBXlka2N4pu8Bl4KUy28DzII6LB2T/KzAr4JQcjQnoTaPH78+JAhQxYtWqQ0ylCW+YynevXqtX379q1bt164cGHMmDH9+vU7d+7czp07M2TIcOzYscDAwMePH9evX79bt244OXnyZEahN/IaGCjDpF4H3aVcaQN59FEHQcjm5hKZiQN8L7/8Mk1gzm7rKZAgXn/99XTp0o0aNWrw4MGFChXKlClT06ZNN2/ejMevX7/eqVOnr7/+Om3atK1bt37w4MG3337buHFjz+xaHK/kNfBSGCb1Pjyx9uAkwBE3btwYP3583rx5EydO/Mcff9y6dev06dNFixa9e/du1qxZmzVrBp3r1VdfVZZ+d/LkyRUrVoB6EiVKVKlSpfz589PCBX3UrVu3VatW+AtNLVWqVFQDcXDmzJmHDx/y8YsXLxYrVsxjcbPim7wG3gjDpF4GsVL1aeVVq1ZBw2rQoMH9+/dBGcmTJ4eJ+tNPP/Xu3btLly7Qp0qWLFm7du3vv/+ezpUwkLmXqiwHYohPXP3oo486d+5co0YNOrTzfjpX4n5Q1SeffAIKK1OmjPJIlLn4Jq+Bl8IwqbdCd5mUAcRkyZJBk4JNqixrFycldvXjx485vFjACaU5pQO4iuMSJUqkT59+//797dq1u3PnDjdhvXTpEu9PkSJFYGCg7vpu5DUwUIZJvQ5+1gZw+vqc6tWr9+nTB/Zp+fLlr127BnKBjoa/p06dunz5cuXKlUeMGHHu3Ll79+7hWTACjFyqV/T14cHBgwfxFG4ePXo0lDuc//DDD2EmZ8uWDRb0xx9/fPTo0StXroB0ihcvzlWYHtDR4pu8Bl4Kw6TeB9mqU1kTMunSpZs9ezb/vvbaa9S5GjZsCAVtzZo1OD9r1iwQUIcOHUSrcljbeXLKG2Q0atQoqHWPHj1CanPnzsU9pUuXhpksPkM4c/jwYWVtH+8xWolv8hp4IwyTehnExpQFlHQ7F8rgDWQc7kctz+ocQV8imRlPnDgxAyZx5Q8nZIQ7aDUzNVwCregu8UZeAwNTLbwM5ALOIz+xdnVXltM4HSrFENbX+eA86IBbFYU648Mry1iWMMkcQ9Q3gvezwilJAFC+SFzijbwGBsowqdeBEy/UvOgsSTqQnTNsC3skeAcOOD1Nugm19u/koknhGpnMoZqGq7KjtaxwJzwT1CO+yWvgpTBM6mXQQ2rKNhv0NqehygOeJF/okY/FKVIYRCcURvRwONe283WyZbE8y0v0FvIArcQ3eQ28FIZJvQxidYp+pG/WRm2LZyTEkahXunbGvxJYXtZQ8hJTkHQkFJMsGZKA8zHtGBTf5DXwUhgm9VaIfkQ60Cep9e3b6PcjI4m6RiY32M7I0CEpSdRA0deUFVhEntLd5jnOKAuT9DslYoiEa9J5zV3yys36byTySpq2uHzKIl/bswYG4WGY1MchcyxiqDrCrmQPf7+ftvM749Q5nBtykARxkht+yP0y5kidTkYnJU2HFVFJuJU2OClbptcNDLwXhkl9HFWrVmVUDnoR8ST5K8L7wYNQKnl/pUqV1q9fr7TgILR2SaOiYPJBBv0EP5J2HVpcZIkuygihXFwkNrhMo3vgaxgYxBAMk/o4Nm3aRMLSVwpF4hf56NEjbl4EdpMDXXMUcqSPEWfVJTqy2P6crpGJGtnCE2ckWWFPQ6MG3g7DpD4OmZzRd9OMxC+SNKcsV0oqmExHn/Ohv7rOhjJFo6wBBGUFXZYJHJxH+qRXIV9j3Rv4AAyT+jjo6CNumOKXHskjDx48SJIkie0kx0+VkxbnzJkTEBCQLVs20U9DrV2P5Iy+eSchIehlIp7DBcL17hbdwMBzMEzq4xAPdtIc1MzIxyVxA2hU1lyGWhvS8f6xY8f27t27ZcuWEh5JaXRJPhValN0+lLZYc9KkSV27dsUBp62EUmP8QxgYxCQMk/o4SJ3Kojkh1qfdT49L8eLcsGHDzp0727Rpc+jQofz58y9btszf3z84OLh169ZLly69e/fu+fPnX3311StXruTNm7dEiRK7d+8+ffr0oEGDcGeKFCn27NnTp08fMO+aNWuaNWuGYzxVsGDBypUrk0b5UrN2yMDbYZjURyD+m8rSCm30JM5Pz1QAZdodv48fPx48ePCsWbOQWpUqVUCXRYsW3bZtGy7hOEOGDKlSpcLfcePGtW/ffv/+/dWrV8ely5cvr1+/ftGiRaDstWvXMn5o7ty5EyVKlCtXrooVK9ILSgZhDY1GG3qkFRXOz1eHZxwk9IgzNm9i34ZhUh+B7hXP1kW3UKnWbEVcoh55UiQ4ukm9/fbbeLZFixbUVekAQDcmWusMjcyraKsBAQFJkiSh5ovHcXz//n0ZBMANnG5S1mSUshZixuCn8WlI2Cp9aazuoCYxtMSVIkbzowfukq49Pni5GSb1EXD7TIbRZGuhPxNZTPzzn9mQ2Nj0ZebieI+kwIz79u377bffoFrCrr9x48bt27fPnDlz9OhR/IX22rFjR6icMOTr1Kkzb968gwcP9u/f/9y5c0FBQWfPnsWdBQoUmDt3bpMmTWT9paFRVyA0qpsaodqWU0Kpz1P6rkNWagiHksRj+r2xDsOkPgIx28U2B42KTio7Fymn3koP+QjTwT3CbnhEjEcm8tlnn+FZxkWW0YN3330Xvxs2bAD/vvXWW7TpWrVqxWwgtUGDBjFxnK9atSqVZfWUUQiDKIGdHPV95Rzapl2iLA6VZWmycUCM5kc2d+FokqilPg/DpD4Cdv5sPBK2Q4xuDnqSPdnMngY2A3FsQgq6SShTVTyp7yOvqzwSwk5uQ/NOnDgx2xXZGZdkkDQ+WH8xBxIWPyD3/uN50isLVJalxXRmZAGI7tcRH7zcDJP6CHRHTpl3kr80uIQTI6/ZssSeQ64cCUUinPRn7CWcJP1JOtx6Xs6z0fJZxqhXzmZGdRj3iNqrLzk1iCrEumeHRANCdyyzxY6J6fxIbyoZiCfdpGFSHwGjK9HLfcKECQMHDsRvx44dqYpOmjQJZ0aOHNm9e/fIazYaHs1D0CUOZMSAyz35LAdS9cli3Anjka1IFi9JmrIClfqpWPck6PD3Gzw/SKM8ZomgrIOCgkaNGtW1a1d8cBTN559/jtIfNGhQv379Yjo/Mhwkw+seUITjAgyT+gj0oCHt27dHy+nVqxcHKDNmzHj79m1U6JYtW6qImM4GmocSvM6me4qyqbT1+zIGJ7sq8WbewIkvSUppM84q0iAABs+EXpS0Qtq1awfGRAX4z3/+g+4wa9asISEh+PLoVj2QnxkzZlSpUiVfvnzK6injSR9parCPQF+JlCRJkr59+44ePfrWrVuox1evXgWX9ejRI2nSpOpZzMXar9+jhxOVsHhswLpuS/a0Rf+URHhev18uRZtGZfw3JoxHvWMQR6LYnRyLUF69f2IfhtLv06fPxx9//PDhQ5xHHcAl1IfkyZNHkv9oyCu1AmovetZp06Z1cEIWyEl8WKF7m7epzEmy6sKKQi310p7V+3JsECGoKkrVh0KKeolKyYl41HUoKc8TKIRropgIhztpuesrQSVASeyCTZ1NUeKouvcVcV9eGf2UKXuc7N+//9SpU+/du0dSI7c+zyueX17k5Mcff9y1a1fTpk3/+OOP3Llzz5s3r1y5crNmzeL6N7wd50uWLHnjxo28efMWL158+/btx48f/+CDD5YvX44atXPnzuHDh9evX3/9+vWdO3fGU0uWLClQoEDNmjVd/lSxAMOkPgJdkUQzSJUqVdeuXceOHYu2hL/o6pMlS8YZocg7fLKtOAMyehMPGECeesTzREKJUYgOJZNjMZF+3JdX9kSQggOlpkiRon379uxKIQJqQpo0aVSka42iKi8nHkHZc+fOxXGFChXy58//6quv5siRA1cLFiyYIUMGZAPsCers1KnTjh07QJF4BSyk1atXL1q0CBYSqDNbtmx4aerUqdOmTQs6Jo1647i5YVKfgl4FoYZMnDiR87kjRoxQzsHNR48eoRFG0qK4CErfd0RZQwdKc/nmBFTsWru0QDl5pSw/MHflx4vkZYnLTgecLRw8eDDUUuZ2wIABIlEk1r2Kirx4XbVq1XAAXVI5TRnxHxCTn5vQQCPmWrgqVaqkS5cOZx4+fKicY+vs/pUV7ZtCKe/c5cUwqY9ApkoF6OdhNI0ZM6Znz57iyUQFU7yUwkP2OhanVH0nEv0qDcDYYha2Ve7SLO6ryn0zxbpSFsflpYMaw84yz0SXLl0+/vhjqI3QDSWRp32faMjLTprVA0AKW7duvXDhwoEDB06dOgWdFBk+evQojs+ePTtw4EAYRpUrV27WrFnt2rWDg4P37duHk7D90eVDUT158mTmzJkXLlzYpEkTb3TmN0zqI2C1RmN4Yu3zDgwaNOiPP/4ICgrSW0iEW8IJqFkwADPPSDhRYWq2xthVHCgmVRhdZXZjI/QiebnvC218DsXg5JAhQ06fPi0KqXgEP+0VUZKXKzJkXcaff/4JcsRBqVKlmAfqyw0aNMDxxo0bcae/vz9nzNq2bYs7mzZtqpxTYZImw988M59xE4ZJfQSo0CtXrpw7d+7u3buhAijNJfu7776TpYSyFCqSpGSXJ5mvZ9PKlClT8eLFoefCrIt1j3pIsWzZsvnz5//444937txhhiPRuaIBL5IXpsajR494J0tZWUOo33zzjdxJFfJpr4iSvDIjT9YTrzjZokZnQ9tOM6EW6BaiR3qUDRpc/2IehmFSH0G7du22bdsGQ37KlCkZM2Z0hN1AVFfWnqm4iXGnL+7E+YsXL0K56N69+1tvvfXZZ5/FnAfS8wDyos/o1q3b+PHjc+TIEROuM14kb4RTNFLQ4T3bIkSU5JUF9eKerK8q5t5ffCNvsOWKNC0qrdzsvaEYDJN6GWyueazraGZ379799ddf9bFCvWnp9fKZdVRmMPhXVqpkyZIFFlmzZs0aN27cqVMnNGm3z5iHRyTy7t27V+R1O41GVV5b45e/4jJp89OUMpJ+K7yY8njHjh0jlzdCS1yfMFTP8tuNdvnKq/VAU7L+Inz2hH9t5yUUi4q9wWhXYJjUyyD2lMyTLl++fN++fbt27ZI4QDJT5PaAZqHOXZoXLFjw8ssvb9mypUqVKm5MPEJ4l7yi9+GpIUOGjBw5UqK0KC3AndJIRGcN+rorbWwaBytWrPjhhx8OHjwYB+U1EBgm9T7I0hGSy/z581u1asXAS2xmbKXuHWxyaCH3QW09e/acOXNmpUqVPDAP40Xy4qlHjx7NmzcvMDAQNKqfp/FLqpL5d0JGCWUqHPpgjx492HPMmTOnb9++cVNeA4FhUi+DDC2JAfjjjz9Onz5dgopy9QtanQprcLnl1crZ5NCGa9asCZ3LA8EpvEVeh7VaFyrzunXrqlat2qZNmw0bNkCtq1ev3ldffdW2bdvvvvuuX79+EGTPnj1Hjx4F1Y4bN65YsWIHDhxo3bp17969P//88xYtWkyePHnJkiX+/v6vv/46eHn37t1TpkyJa/Ia2GCY1Msgg2hsuvi9cuVKsmTJZDk8W9fzRM+LEmQ+gQdZsmS5evWqB8azvEheXs2VK1fZsmVz5MiRMWNG5Cd79uyg1JCQkIIFC0JR/f3339euXQuewhlQJBIPCAiAHU0WTpUqFVgM78qTJw9oFIJDCb1w4ULWrFk5tBqn5DXQYZjU+8DRNPGcV1rwZmptsmG9G00ztC4OzEngfYenwvx4hby0ysn1UCRxJ9fw0FhmOEGGcMUZaKxp0qQ5efLkmjVrZMkZxy5wp4RwVeFmjeKOvAY2GCb1MojjvT5ZLEE/qbuxmbl3+zOZd+a76CXuAW8Vb5FXPHiyZct28OBB6JvHjx8/ffr0pUuXzpw5c+zYsZw5c167dg0KNQz5Dh06gExxAOV6/vz5KVKkgA6Ix2fNmnXRiYcPH+7Zs6dUqVISV0lpsZfigrwGNhgm9TLoQcmUNYErUYJkjpjKhRutPw6fKWtA0GFtdxHT8Dp506VL98UXX4BYYbODjFauXInHObAr4pQvX55CDR8+XNbLL1y4EAdc/0N3en1YQ1kLJeKavAaEYVKvhGgKEjJd1x2kdcWEdSYv4sI+m+OkipndJrxCXpsHrrKMcYcWudWWss3T0+byqa+s18/HhLxCyg5rJ7vI4zNEDn9//82bN/PYthuKr8IwqYEbEKrttB4fdBnfk1dfI6Asl4k///wzeta9w4oFFWoFVHV3fuMcDJMauASZLYn1lemegQ/L+9///hfcJ5T6119/RY9G6WDAkVaGI3Gvt1bchGFSA1ch5q0jfmxx7pPy0uNKaWZ+9OxxdjBQZqWbce94bpyFYVIDVyEhJ2Q+xMeUNRt8Ul4ZEqVmSkKMRjqOsNEXHWEj6fgwDJMauATOO3NQjFs3+/a4mK/KK64FDLn/wgsvRDs8DeP7kT3pqhUfyNQwqYFLoAKCVgeKQZu5ffv2rFmzevbsGdv5iin4qrw68XHfEfQW0YtVqG9vg9S8MWxzNGCY1MANQJNDgxk4cOCUKVNw0KtXr9jOUczCJ+Vl3yDbi6pobaAdPjwgaNTopPELegxwCTIf25myIzTSfc04GbJixYqTJ0+mSZMGt3GPB87D2mL3Qt5Lly5NnTo1UaJEO3bsaNSoERJv1aoVLy1btgzfoXbt2vJSZa1otLkZhoSEDBs2bNq0aXgKL5o0aZIbW87T5OUYnPzeu3evQYMGlSpVgmmZLl26zp07Sx6QpQsXLqxatapevXqZMmVS1g4repq4oX379suXL9c9RnWp9VfHirwqrKPuunXrDh8+nCRJkhQpUjRu3DhU2z5eDzfFdPr06VOkSJFRo0ZxN5ohQ4aoiNx+9Qih0YaspOBB+DikvgrDpP9A5hD0XRDiYF/qCBv8nKu5bZs3fPXVV9CVUqVKdfHiRVBMcHBwhw4dlDXGJ0JNnDgR9DFgwICzZ8/CSm3ZsiUIRTnnHEAW+/btCwoKUtqqRGmonGNBInfu3CGn4BjGoHLuYNGxY0ePySulljhx4pdeeqlu3br4ffPNNyEvsgpWRSeBZ0ePHj1u3DgZARQa5fpL3JY1a1ZQko2/6L7DR/AR8IuPCRqKLXllSw9I/cknn6BYkyZNirJ78ODB3LlzkQ09DjS/zMcffwx9GUyaIUOGOXPmgHOvX7/OlKWGi1+XG6WIhzBM+g9Yk0qWLGlbPBMHJxO4aY9s16OcoSpFAUG7ql+/vr+/P9ikXbt20LN++uknUAyUsqtXr77xxhubNm3iWNh3331XsWLFokWL/ukEU8aDVapUyZIly6FDh06dOvXzzz/j0u+//w6NhiEyGWSTTb1FixZr1qxRzoAXzMmVK1fw0SLfL8gt8up0I2SnnHSP+1FqW7du/fXXXyEFuO/o0aMLFy5EP4E706dPD9rF/Tt37gwMDNy4cSMk6tq1682bN0GRW7Zs+frrr9lnSNgRZe1tBQV/7dq1sSivWBVNmjQpXrw4yhelvH79eghbq1YtyIK+E+onREMiyP+GDRvwt0aNGoyc4ufcMu8tJwoXLgyzA1dTpkwJ8d2V+XgLw6T/gErW9u3blWb4xEGdVDmbsT6vKr44nESGxdewYUPwI7gPCiPUkIIFC2bMmBFNC79ocoUKFYL9Cw49duzYq6++ylUoZCWosdDO+vXrd/r0aVyFfocUFi9eDN2TbZgRg6jy4F1Qi0aOHAmNjxEzcT558uSgJPcG14hQXt16lf1RQA0rVqz44osvwBdQwWrWrImcID85c+Zs3rw5FLfcuXNXqlQJvUXfvn2hhIJbwbYffPABw4J06tSJaxxZ+np4J74IJDt8+PDYkpe7NFOJRhEXK1bsP//5D0oZ3WSJEiWyZcvGHUSOHDmCEgc/1qlT58CBA4x7z4IDUqdOjWqAB1G+J06cGDhwIB6H4HFwIMu7YJj0H0ggCVIS20bcNHn0OJJUmcmGMq4HwxzNbMaMGW3atAH9JUuWDM0GCma9evWglj58+JCqlvQT3HBUaQu9+Qp8jVu3buEAzZKv4ACcspxmwD5oyf379we5TJw4EVlC4pMnT3avjhOhvGQ3GqcsMmQMehnMWPBp7969cb5y5cpgOprzNNWpS+LxACdQ4iCd1q1bQz3nW/gNmax4OwllozeKLXkBoVccgCKhTs6ePRs9hHKSPor40qVLoMWlS5dCWOjdylmg+jYnrN5Mh6IlsODG/MdPGCb9B7KFDi16VOJY3EgyEohVy/YmUSdCtV3wVq5cuWfPHjQnNLO0adPCui9btuzu3buhj4BP0YSg1DBmGix9KKe7du06fvw4LoF38BsSEoJfWPTXr19HCkFBQaAbKEFonPpic4kZCp4Fv4C8xo0bN2nSJBy4kVmeJi/Psw9ATq5du3b27NnDhw+///771apVe+WVV5o1a9atWzfQJZRQUMzPP/8MoW7cuIEz6FEGDBhQunRpJHL79m3o7/gg0E8hL/7CYAcdk51JOnpQD7wuVuSVTp03LFq0CCb8vXv3AgMDs2fPjhKE7rljx46kSZOeO3cO+cQlCJ4rV64FCxY0adIEtgh05/379+MMvgM6VHQw0Mc///xzqK5x0/byLhgm/QeyxYXM2yawNuOO7ayFgeSHcyB6pCLZN5yTszIt880336CpLF++nAEpZFAVVjC17w4dOqBBMmXQLq6Wd0I5R0KlR5FJYQmGxFdTYwJlw0yG1QxFyQPyyl5GLKP06dN///33EBk54VCmcgavYyS6NWvW4HyZMmX4eOfOnWXHpFBrB+MtW7bg0qpVq8ieLH2+SI/jF2rBw/IK2TGwCMxzpTkhgC7BvNCs/bTttXHD0KFDKSm6UvAmqzeHsNCp5MuXr23btiYIqVsQt2giFiE0IWdsf+MIZC2KWKNs3kKj0pB4rCwuUNq2Pw5r0yE5qe+VFD4spowbUA1kkDRpftJucTJVqlTdu3f3gLw4I1PzMkype4DrG88JXVLMBNZO6+LzyPO4QV97bpvRkpRjRV5xNkCuOOgpljsHLmyjuqR7isBfmfdnVYcKD+WU39CN+Y+3iHNMEVvQ1wsT0TPtxR9Qd0t0Y59vs8JocjJ9tnb9hkhMtgizlCDsNuU6V9ruURF5Pgq/REWgZyASeYUCIpzt0WOD2vzMdSrUJYpwf3YVlqBjUV49h3pdlX1JVdgisxWxBHLmzdWckKu2mPkST08sEjJ1SEjIlClT+vfvH4kI+oRteIl8FYZJ3QzdqZscys11YztfBgaRQXzpSX/0dVOaRYLzPXr0mDx5ctKkSfv27RsJP9KsEUXeNkzhqzBM6maw65Z6wylXm1+LgUFcA7VRLu60BYKCHjpixAjuFJ0sWbIhQ4ZEQotigZFG40lwUmWY1O0Q706HBaXthWlgEDdB6uQ6aRmJvnnz5qhRoyZNmsTZRY7DMsjA03Yl0UlW1NL44BtgmNTNkGluiWJ59+7dFClSxHa+DAwiA5lON55Qe9u3b79s2TJOMzJ+swTSf5paSoatWrWqcvKy6LkeEiP2YJjUzQjV9mXkvBNo1DiaGMR9SNh8VFeok6ixn376ab58+aCWcgErzqROnZor95+mkyptLT91UokK5DFBYgWGSd0MmbXXnU4MjRrEcbCiKmvmHZQKQkyTJs2HH344cOBA/E6YMAGceP/+/SlTpnTu3DmSKi1brqL+P3jwIEmSJD5Po8owqdshfTVpFAczZ86sVq1azpw5YzVfBgaRQbwAxRFKObVL1OGkSZOCSYOCgoYMGQIa7devX6dOnZ456cQUQKNcGObzyoRh0uhDtE6HtjOaeJMA48eP79Wr1/vvv69vXB5+n3S94iqrKjOpqVOnciWiza0vNNzGluIPqMJFz3M7PLmO1shLeExeVmYey1i/cs6ajhs3DmQ6d+7cZ6agtIHUOLjkOiZgmDSaYBAQGzmuWbPml19+adKkCQMpLV26tFKlSrNnz27VqtV3330XEhJy8uTJ4sWLX7lyJUeOHKVKldq7d+9vv/2G2rl+/Xo8fvDgwd69ezdr1mzdunWtW7fu0qXLwoUL8+XLB5VWb0LSzLhYJXPmzBcuXMiaNau4DehxktwFahaUFLh+/XratGk9MCdr5I1deWW0iovoUqRIEblpH29hmDSakBUguvco6uKAAQNmzJiBk1WrVoVF/9prr2XPnh035M2bF+yJSnngwIGPP/64Q4cOOABFgijv37//zTfffO/EypUr06dPj9uyZcsGyyhPnjwBAQHyUtpfjx8/TpQokdTvEiVKbNy4sWnTprIAVFnOA25s+bImlX+XLFlSoUIFz7i2GHljV166QDG2aRyMRBFHYD5KNOGwIgMpzQgqX748DgIDAzn7yfOyQdjt27fBrY8ePWLnj5NVqlRJnTo1qqZEvGc4eg4zSSORAGuox7iTqyRlITlIuWfPns2bN+dWl7KE0b0K1MOHDxMnToxGzvh1kydPHjNmjLsSjwT4gEbe2JVXwl1Tb4gna5aiCsOk0Yc+3MnJetkonB04jrdv3w6bPUOGDNeuXXvoBCw12PgXL17s27cvWghUzvr169euXXvu3LmHDh3CSRBuUFDQpUuXjh49Cub94osvWrRoQTKV5SJ8BZkXyq+/v/+7774LxVZZPiihYSOWug40s1ArRGbjxo3RZzCEcExDTFojb6zIi5MyisWwKbKQ1ECHYdJoQjQCCdUjBxyzxzFIEH14uXLlcMzV96iLjRo1Us4dzUDBlStXZui2li1bSicPevWztsytVasWqZkcyjkufcKBjWr69OmdO3fOly9f//79wctp0qShRWabtXAR586d27Rp0/jx40uWLDlt2jQ9SkuMwsgb6/JygwBWYHKru17qMzBM6hKET/UAELS8ZDhJHPSUc6BTHhHNQmZLeSCbRzHatArroKesSQkJ8s+6DnNs/fr1n3766aBBg7i5kNt3oMqSJcsbb7zx4Ycfvv322zzjGRPPyKtiT16OU9G9VAZS48Pqz6jCMGk0ITUpNGzsSGkAoVbAU9FVJaakhPi0pckKKqQs0UL1t+hxfCUFNirGSYs59z19R0/lKVox8qpYlRe/Er1f3P4MjYaHYVKXoFcpW+xIhxbwVIJC8m94i0y0VBXOEU8Wntpal36sn4w59z2x6Tw522DkVXFGXj3CqYENhkkNDAwMXIVhUgMDAwNXYZjUwMDAwFUYJjUwMDBwFYZJDQwMDFyFYVIDAwMDV2GY1MDAwMBVGCb1EUiY1Ai9pm1h/OVO2f5MnARlEQG9X8VJW1KWSwwF4DkJI5LIyKtf9SV5vQ6GSX0EjE1169at6dOn58+f//Hjx2gkZcuWDQgIWLBgQfHixXHP+vXrR40atWTJknPnzs2aNWv48OETJ068cOFC+fLl9+/fP378eC5d1ZuQLKxavXo1Hvz0009xCY1NQgEYeY28Bsowqc+AqkS/fv369++PloYzJ06cyJcvX+7cuf/v//6P97z88st58uRJkiTJpk2b0CBxplChQtmzZ2/WrFnNmjUZeYirA/X1glzkikY7e/ZsXNLboSeDyRt545W8XgfDpD4CxkY5dOgQ2hLP8ODhw4dcvI9mkyxZsjt37rRs2XLKlCkSHR333Lt3D+fTp09P++7LL7/EX6SWMmXK5s2bc5U3jvkKWfPq3kBEUYWR17fl9ToYJvU1SOxIhrpg85BoUmfPnh0wYEC3bt2+/vpr5Wyf27dvf/DgQaVKlZQVQkWCTLONiebCqCuMzCLRf2MdRl7fltdbYJjUR8DZBlhzf/zxR8GCBdEefv/9d5h7bC1oGIcPH06XLl2BAgXeeeedDRs2LFmyJCAgABqNv79/ixYtcP+lS5eyZMmCpN577z09ZTY/BkuneUhlJ/yubUZeI2+8hWFSHwEnbT/66KPp06cXLlz4/v37jx8//te//nXmzJmlS5fCmjt//vzrr7+O5oSDcePGlS9fPnfu3MeOHcNfPHvkyJFGjRqxpT169ChRokQS3o1TwKtWrbpw4cLevXuLFy8uU72x2MyMvL4tr9fBMKmPgFU/bdq0Q4cOpb1GLebEiRO6ywv0FAYJ3rNnD24rVqyYPqtAyxHNzOYlgxtq1apVo0YNnpTAqbHY0oy8vi2v18EwqY9AtkKRMzLOpYdJDR/kVH9EvA5tkVVtJ/XAqbEFI69vy+t1MExqYGBg4CoMkxoYGBi4CsOkBgYGBq7CMKmBgYGBqzBMamBgYOAqDJMaGBgYuArDpAYGBgauwjCpF0NiSoY6wUXTyorARudqriZUztBBQUFBX331Ff0EGadS4lcC/fv3/+GHH7Zu3Xrt2rVBgwaNHDny7NmzP/30U+bMmfFsq1at/vzzz7fffpu3TZw4MWXKlHrgSxfBpPRfZbmI24JyylXks1GjRhs3brQ9JfevXLly2LBhnTp12rx589ixYxMlSvTOO+9UqFAhffr0N2/erOsExHnw4EGSJEl+//33U6dOlS5d+siRI9OmTVuzZs2QIUPwLE6+9957CRMmnDNnTv78+c+dO9e6detmzZrhWVwNDAzE62bMmBFh2FAX4Uvl6/MwTOplkNYlS1DYuriyhZfQJOhlzRtwHvfky5dP1v/JEhf+pUf366+/niJFigkTJqAtlSlTJmvWrI0bN96yZQtuuHjxYp8+fYKDgzNlytSiRYt79+5t2rSpXr16bmxm0uz1Y/5FtpFhSvrCCy+QNHEDCDF79uzkQZGIiyCZJqTIkycPMvzo0aNVq1b9+9//LlCgQJ06dQoWLHjjxo106dJlyJABLIn0ISDuz5s3b1MnQDHFixfHX1xFyviec+fORWpVq1a9dOkSnsLH9Pf3xyNvvvmm+MO7Bb5avj4Pw6ReBgmEzkbCJYOo+lCgSpQogap/+PBhnISGhZZz584dcA3UjeHDh+MqWiDvP3369Pfff0/CqlixYqFChf71r38hZShZIBo0MJyH8pU2bVreD7Xl6NGjpDC0W1xC4kpr9m4BJHr8+PGLL75IakDDvn///rFjx6AoffLJJ7ly5YI4oEIIOGvWLGhVRYoUgSCgUX4HaJ04xrMQB4onqASpkVivX78OZRM6KWgXKf/yyy9FixYlTeDvzz//DHHwXihreOr27dsgWSitSBN/cTM+HfJQvnx5qKI9e/YkreOzMHH3aqM+XL6+DcOk3gd9TTSXDC5ZsgQNplatWrdu3cLfNGnSvPvuu1A3+vbt265dO/ALmCUgIADWLu5nzDQSEFpO8uTJGSadit6YMWN69OhRo0YNnHnBCaXpOKC2L7744qWXXipVqpTbmxkyADpTTjYBvvnmm+XLl99zAmb1qFGjoFR2794dShOaOtRMKIzgCz4LFoDUyD+OkyVLJmJevnx58ODBUCQHDBiAS0gfH+HChQuMjoyUv/zyS9jvIA4kuGfPHnBlo0aNEidOjG+C2xj8uFixYjlz5vztt9+mT5+OPGzcuBEff/HixdDgYB0z5Icbv4Ovlq9vwzCpjwCkgN/UqVP/1wm0GTQPRktDE4J2hmOQhXI21AJOUB9RluKDq2h+JUuWTJky5a5duwIDA0EluIT7oaZBJUSaSZMmhQaEk1Sd3Jh/fZST1ijyj2yDCKB5cbMNMALyiVfbthhCfqBvtm3blgOCIhFyni1btoEDB0IRgzaKe5DnunXrgpdhv+fIkQOJt2zZkm9HguXKlYPqGhQU1Lx5c2QA6l7r1q1xCTdDRQX5wgTeu3cvFTekWbhwYZKRB4J9eHv5+jwMk3of9HbLRtKgQYNevXqhPUA/gomKdhUSEgJVC7oYDD0YhmCTq1ev3r17F0oHFC4Zf2Qi/PvHH3/88MMP1apVGzduXL9+/XAGBxMnTsydOzcsXBxAEwSh7Ny5EwqLCqs6uQ59pzZGgH/nnXegQIHvQArIPARBBigUrG8omzD5z58/j/NgAfIvp2UoGj4CTGCQBYgY4oAgIA5uXrhwIRTMTZs29e/fH8lu3769TJkyeBwqJ6TDSyHd6NGjYf7jgwQHB+NLItlUqVKtXbsWSmjVqlVByn84ASY9cOAAvgDUWLd8BMIny9fnYZjUy6AHSMcBw1bCngWt8HyJEiWU09pt2LAhLm3YsAF3ghFwDDWEPCWx1MhfaHJoscOHD6dWCJ1lxowZuISk2KjAL1QD9+/fL3ManP9xl1xs9jJPgsTBfRT24cOHyD/Ow6zGbfjF2+fNm4c8d+jQQVnDedLsyT4w5JH5H3/8EWfAgP7+/rgKNqQg0Dpx/vDhw/J2iM/jnj178qvCXlYar+m0gnSoso0dO1a5db8jXy1fn4dhUi+DrmiQQaiL4S8VOnGUCX8nrorFR8gsOS7JYJ9ME8uDNH75FlrQCZy7VLpdZxG3Jxr4VIugZMkkDC+RL2ixwmZnDiUnMvbHA8kwE6Eg/Fa6r5Wy9vMQa52hlPlS/TPKx5EH3Tie6Nvl68MwTOrFkLbERkKFLsJWLSfDaxniKCNndLcePsi/8itX3d7MwhOTLVamzWIFjUqebUmFD8EpieCM/h3kvO2A01/6S2XoIHyCUZf12fC98vVhGCY1MDAwcBWGSQ0MDAxchWFSAwMDA1dhmNTAwMDAVRgmNTAwMHAVhkkNDAwMXIVhUgMDAwNXYZjUwMDAwFUYJjUwMDBwFYZJDQwMDFyFYVIDAwMDV2GY1MDAwMBVGCY1MDAwcBWGSQ0MDAxchWFSAwMDA1dhmNTAwMDAVfw/MWY0Cg7tHSUAAAAASUVORK5CYII=;" vertex="1" parent="1">
          <mxGeometry x="20" y="330" width="374.27" height="200" as="geometry" />
        </mxCell>
        <mxCell id="ZgNNGTYw98eAhwDFOAmk-8" value="" style="shape=image;verticalLabelPosition=bottom;labelBackgroundColor=default;verticalAlign=top;aspect=fixed;imageAspect=0;image=data:image/png,iVBORw0KGgoAAAANSUhEUgAAAbUAAAE8CAIAAADId7iaAAB7TklEQVR4nO1dd5xURdatGdxVyRmUIKCIksUsSFIkqIBKUBBJAgNKGPLMkCQHyVnJWVERVIISXVx1QVRQURBUEJAkksXPZb7z68O7e+dNT4JOM13nj/69fl2v+t0Kp+6tunXruvj4eGNhYWFhkQjXBfsFLCwsLEIUlh8tLCwsvMPyo4WFhYV3WH60sLCw8A7LjxYWFhbeYfnRwsLCwjssP1pYWFh4h+VHCwsLC++w/GhhYWHhHZYfLSwsLLzD8qOFhYWFd1h+tLCwsPAOy48WFhYW3mH50cLCwsI7LD9aWFhYeIflRwsLCwvvsPxoYWFh4R2WHy0sLCy8w/KjhYWFhXdYfrSwsLDwDsuPFhYWFt5h+dHCwsLCOyw/WlhYWHiH5UcfIz4+PiIiAheXL1+OjIzEJ+5kypSJX+XX//u///vHP/7B9Pjkzb/++uuf//wnLv773//ikWCKkeHAkmctGE8J8wL3cSEFrqtJEuscJI3rpkWGhOVHHwO9hX2G3YYdiWwoXIneSHKUnoYE+AQ5IgGuyZIWPgQZMN6DH3/8ccCAATly5ChUqFDp0qXxU5MmTVAXzZo1W7Zs2YsvvtizZ89OnTqVLFkyS5Ys48aNkwrFBZIhn0uXLp09e/aVV1654YYbhgwZgs9gy2fhF1h+9DGkCxlPn8Q1qPC6667TKqFWJHlBuiSNInEQ3z+jgqXKKgA5jh49GuSIili5cuWFCxeMp1JQ/iNGjHjmmWfuuOMOsOfMmTP5LCpox44dCxcuRIJbb701Ojr6+uuvP3nyZJcuXaZNmwZyBF3iThCls/ATbFf0MURzNE5v5E1ck/5AiOBKF2PSsmYfpsVt4VtgoPr7778zeXDs2LEiRYoYzwB28eJFan/4FTS3cePGvn374uvx48d79epVpkyZVq1aIdldd91VqVIlPsIh7eabb967dy9ztuSYUWH50ccQ1mMv0nNbpD/cxAV6o+iJuAY5ckZMT1YGUYqMB5QnZy0wSuXKlQsUmT9/fuOpFNzhiJUtW7Znn312/Pjx3bp1g3YJHfO/HqBGvvzyy9mzZ2MYK1GiRJ8+fZgnrG+TcDrSIoPB8qOPIcojuw01R96pV6/emjVryJskR7Ikr6dMmVK+fPkaNWpY/dEfkFEKhR8XF9emTZu8efOWLFmybNmyKHmojT169AD9Pf/88yDHTz/9FPpjp06doFqCLlFN0B8nT54sUyL4/O6778aOHbtz505Y6DDJgyyehX9g+dHHoMJoHMWEE4voYOhaXH6B+ZY5c+YjR4507NgRCsjQoUPx9d577/3zzz/xK+e8OnToEGQxMhxIjhyQQHarVq2idwE+69evz9Xqt99+G3U3YcIEXH/00UecEjGO4g/rm5Y4F2pKly49a9YsKp7BFc3Cf7BV63vQrEZXfO+993bv3g3iu/7665s2bQr15MSJE4cOHVq0aNGOHTuWLFly+vTp/v37Fy9e/ODBg2+88cby5cuLFSvWvXv3YEuQYQEuIycKORqPpi9TIrwQHyDOF5M9ZZFaHsRPMmVsvXwyJCw/XoF2tWGvMMpYThOgaNx4443oOQ0aNHj66aeNY9xxYlGnZO/CzbNnz+I6d+7cn3/++WUP7JRWihD1nMvH4nAqRSduVdT4hNSMcnsUjtNgfbH2E/s8ivuBnglhAvwjHtSTzq5XNcrTiF/FIczYqczQg+XHK5A2jXZ88eJFEBwXmtPqp41H8KzxLEmLkyMygTqJ6wIFChQpUiQuLu748eO9e/dGxx4yZAjs63vuuQfpa9Wq9eSTT3bt2nXGjBn+kDGDQZOjcZa5vJKjeC9q7wLxxndd0wYnVeGanCv8BeBXnRX/CNfMRDt4mYT+W3hVXMg0qAiCa87J2E0BoQbLj1fANk1CBMFR0dPjfCoh3UnvhGGnWrlyJe6MGDHCKE1h7ty5Lg3i7rvv9rl0GQ/CXyBHFLIUuHEIS2oTX7U3FZ4ikdFngLazdsiXiWPWmnHMbV7wWpz/mZJ/IZngV7wY6lTzJu6Tx/XWKW4ZwLN820AVnkVqYfnxCrRNJC24atWqW7duvYrc0OirV6++adMmcXs0jl1GImY3Ex1TILqGRYoQ/nLVGj6FksBTvCkOA0hMLY8KIClPJhmNqgJtsIvbo6h45FZOxUiVyTgnNjvfBO+GTLSbl3G8YmXKxSqPIQjLj1fAuXmxhmi1ffLJJ2kd1cW2Yj+ROX65ry0v9Bxac/xfcYq081ApgsylS0yXMwtW/KiMY4bjq1jBzIT3tZZHUK3Tazii9JFYtfO/+PzzWjLHTeap90eRssVUZzK6gtl1nlCD5ccrcE1O0RSSiafUg4YSm7vcFC8Q9kbZd8gOw+lOS45pAulMLFxZdZEwE7SpjVPmAFOSm2QaBPdZ9aJUGk99GU9V6oVsceBHGq7D6AaDv8Mf0VJ2baD6888/9QZtZqV1Xr6MftAiRGD58Qr00qdeD72KrMRoEpWEmgh7I3mQWgMtQa7naPPK6hEpQmYPqZqh9FzRj2TiWAYkmevQC9PMhF9lMUfr+GJY6CBMYlDLn8ouQ/F8EBKU3YcyU8kIF9RbZZ+VsfUeerD8+D9IY2WLlwmpqwPNZ+N0V+08xE7FRW1agtQdRIe1nSQ1IMt07NiRNTVhwoR8+fKtXr26cuXK+BWfrVu3zps377Rp04oXL86dMFQejWc4FELEdfXq1e+8886jR4/OmzdvwIABZ86cOXLkyPDhww8ePDhlypRbbrnl2WefrVq1Kv6LCy/4r759+86cORMphw4diq8wAkqVKrVly5aiRYv26tUL95Hb4MGDK1So0L1797Nnz+K/mjZtigYwderUYsWKNW/eHG8oi0ikb8uPoQbLj/+DNM1rb6PaoUQrhtQ7ZJ6LBrWesPfJv4cJQFVz5sypXbs2eAf88vvvv9erV2/BggXgnXXr1pUpUwY3QaBt27YFu82aNWvp0qXPP/88infUqFHHjx8HMYFAwV+4yJ8///Tp0/v16/fdd9/hKfDarl271q9fX7JkyVatWj333HN4avLkyXXq1Hn66afBp8eOHWOtwXbmHps33nhjyJAhc+fOxSf+FDkgq82bN3/66af3339/s2bN+MKrVq1q06ZN48aNjTMei3JqbGiS0IPlR4v0CvDUnj17XnzxRTp7g2Jy5coF3fzUqVNvvvkmuG/79u05cuSA5gjKA2mCTMmPUP2QjB77VN9+++23rl275syZ84EHHli8eDFUSPAjlMEVK1aAVZHPwIEDwXfgYroHgRw3bdrUvn17UGGePHnwAhs3bly4cOGTTz5JEyEmJub7778HTcfGxsbFxX3wwQcrV6587LHHQJGzZ8/etm1b//79s2bNKkt51v8xNGH50SJdglOBBQoU+Pnnn0uXLm08s8b4hKoIPipSpAjnHDNnznz69GmkhB5311138Vkod+BQEBk49O677wZngeMmTpxIJ54LFy5AwcTXb7755vrrr2/ZsiXUPSS+7bbbcAcaJY10mNuTJk1CPq+88sovv/wCPo2OjoZe+dlnn4HvRo4cOWPGjN27d99+++3/+te/oIHC0v/oo4/wDiD0Jk2a8E1kqlRHLw9SiVp4geVHi3QJLnB16NABShy0RVzDQAbL1KxZs0ePHu++++7hw4ehToJ65s2bB4YC040dO9Z4KAm6m57EQFZZsmSR5RQQGRizc+fOyOepp55Cths2bACjwdB++eWXkTPSjB8/HsxLx0Y8Cx0T9nulSpV+/fXX0aNHczKxY8eOffr0mTlzZrdu3VavXg3zHxfnzp1DhtBMGzVqVKVKFeQAbVRWmSw5hhosP1qkS1DnAgMuW7aMKhioavLkyaC5L7/8EkRTtGjRBx98ECkbNGjgeorXXJwhly1atEjSDBs2jHOLsJeRgDvoyacwvcXFB8lwp3DhwiNGjJCAF9BboVQKzXFzFCiSLj54EMwLzpXt27J1x2qOoQnLjxbpEnrHi/HwF4gmcSQeXNCThk4COnK7duWhbyMfl5A8fJaui+KEQKZDSnpl6TjH4nvAxLIxHF8lMJp4hsu+HXHktBQZgrD8aJEuQSoR/23tKCMkxd3Z9ACnC6reT819LLKdhlzJrxLbGLzGfTjiO6k9vSVb4zgMGcWY9Ls0zpYBunPR9ZVsSFK2J1aGMiw/WqRXiLeg+A8aR4kTD1PZxmcSHosm+wXpZy67s8lWOqVr/yLXyhkaQzRH0f4kihq5T5/IJq8hLGkcLdU4lG39H0MNlh8t0itcayz6pniYSsQdbb1qD3x92KTe3ymBLWiY846O7eg6TE3i+ghlu15V70T0KkLirxZBh+VHi7AA/RYlMI84ZmsLnQl4R4eQoM0uvCbRPGl3W1LLwLD8aBEWENvZqAMwSHkMNmGU1ukKQyfzlWLCCy3q+cpgiGXhX1h+tAgLSNRbRksyTtAQ3JRYTUZFPJM4TMZDoHI6uVHxeHjfbgrMwLD8aBEuoHFNchTHIIlvZpxVFN4xat2ZfuByVhfVTGqOVEKFSS0yGCw/WoQFxNVGjtASWhRyZEoGu5X1FjIguVVC/piExrg94jWjwtarRVhAmFFCN545c6ZChQofffTRbbfdduLEiX79+sFqnjhx4o8//ti/f38kiIqKqlatmvgD6bnInTt3du/e/aWXXnrqqae4jGO9FzMkLD9ahAUYjVifA/POO+8MHjx4wYIFQ4YMAcGB72bOnAltccyYMZMmTcqaNWvbtm3Jj8OHDweBQk9s1apVuXLlkANscFzzYAxrWWdgWH78H/RhI7IdQk88Wffd9AtOJuozZBiRDAog7ufLl8946hqUd/z4cXzlzj8+GxsbK6d0sYWUKlXqP//5j+wUtK0io8Ly4//ADjB27NihQ4dCp4B5RXPs1VdfHThwIO5AxTBqoTPY72uRBuglFNDZDz/8sGfPns6dO//2229btmypWbPmuXPnOI2YI0cO3MyTJ49sJUTV4w5+bdOmTdmyZdEq/vzzT85gim+5ta8zJCw/XoEceP3SSy/16dMnLi4Oxhdu5s6d+8KFC9As2rdvL6cpBftlLdIMfaQMPlevXo2BsEqVKocOHQL9FS5cePTo0V988QWM7nbt2nXp0gVsGB0dTeLr37+/bOtmDps3b168eDF+uvnmm++++25LjhkVlh+vQDzdsmTJAnKcOHHi77//jptnzpxBV2G0Z7oNi8ecRTqCqHjcRwgGpMVdoECBadOmgfhmzZolHuOgPKliia8jrjx48DEPaLBfyyFFFiEOy49XwIkkdoC+ffsOHz4c19xGhp969OghoZ7RcyR0lUV6gah4et+0yzWHtc8q5oXx+PHoc4QkkASdhGTvjUWGhOXHK5AQLGjuN954Y2xs7KhRo+jj1qtXr2zZskky9BxLjukRsu3aOD6PXICO8JxnrSN4ywnm9JrUCfRhsExj51syMCw/JoBoClAYx40bx71o0dHRRi3L2FCm6RSyjVqUQX2eNRevdfSdCxcuZM6c2Ti+QcZpA5oTZQe3uFVaZCRYfvwf6MvGmfhcuXJ17dp1/PjxXbp0yZMnDxMIM1p/jnQHcBx5jYxGDVHvohHXH4lsBnJkTArSpZCgTGWyqZBegyiahf8QvvworVyCnkqMaOPpDHFxcXv37h0wYIAOaJpKtZG9zhVSUCfQ66GBQWJ5jQrIqm/6A4nllXDf+kwYXf6ajPTLy2YVKVUdAzwpeeVadhPyOnEERk12enZS7uuotyaJoI22fjMGwo4f2akuXbokce1ZqatWrZo/f/727dsPHDhgPJ2Bey2yZMlinD6Q+kgtVCvwF7I7LX/+/A8//HC7du2qV6/O9VD2aj+JKUhK3jVr1sybN2/9+vXnzp2jIzRpyFf/m5S8oqDJeQPykhLT2zhkpMlR6IzXxom1gxxENIbkCSl5fZV/Ugg3eQOMsONHOmpwgUVCXUVFRW3btg2fEydOvPnmm8XX56rtJnmWDRdN9vDhw+vWrYuOjq5Vqxb+haGxAuBXnJS8//rXv7p27Tp58uScOXP64wi9ZORFybAby+Sd8BrVQ3kNCWGr9SDSKy1fWSjThyiEmry++guvCDd5A4yw40fjxH/mOjW+tmzZEkPf1q1b8VXvspBuKYeEmFREwJcJKd2B0TQLFCjQunVr/Ffz5s07deo0bdo0kygKv5/gVd5vv/1WOowczufDOF3JyysGsvHYsFQMOajwbVmGur9R2aT+KGyozwKUxCEor18RbvIGEmHHj64h7oMPPtixY8euXbuMOopEOirT6ChYqYEsgstBUXpb95IlS+644461a9fWrl07APM1SckrLpycm+Nxej5cZ2CeieXVxrKMQFxT5qBynQcmUXXQF0dYkv8ix8sktdUv6PL6Kv+kEG7yBhhhx49sTDLvPnfuXNgItIJleZqTj9wakXgOnrpkMk1Buj2NDqNWS/lg7969Z82aVadOnQD4CSUlr1imQlVGTedfO2Q1wCWvzIJxNSwuLm7YsGHTp0/v0qWLUd7Xxik0WU2WquFP2rUb17AlJ02aJNMaoSNvuNVvBvN7Czt+FJ8M4+mNW7ZsgWkgVrC0Hk2OGimSoywUulZXmTk7cK1atWJiYgIzWZOMvHgxOq/4Y3FT+1275BVq+/7776Hv4FdoH507d65cuXLbtm3XrFlTt27dnTt33nfffRUrVpwzZ06WLFlOnz49ceLEvn374iX/+OOPl1566f3337///vurV69er149MOymTZtWr16N6xCU168IN3kDjLDjRx3EBZ8nTpzInz8/Gxn1PuMYdJHqUGOjODH5EZhTabIgy1Vslx5atGjR48ePa7cV/yEZeXUEbJ/rF8nIK8pOuXLlbrnlFvSuCRMmICV4EPx44MCBEiVKPPvssx06dPj000/Zw3/77Tfcx+e8efO2b9++cOHCrFmzMu4cPu+6666bbroJ5Bia8vok/+T/14SNvAFG2PEj4WolrkYm0zSJjetUNi+Xs6Rru4Ug+cakW5s+a1RmM8nFshnO9bim9aTkdX31+fxR8vKKuc371HpwfcMNN/A+RGjdunX58uVBjiBE+qmQFpEYX/HCUC2N51QZXQ6hKa//kI7klQlosrZ4BYkvV6Szs9PrhLLLLHPd9DnClB/TBaR9ULdNbLPHe05KkdbjWmQP2clySMHTViFL9uzZ33vvPS5YU5BLly6B7MB6SACje/jw4Xny5EGyV155BXplv379fv3114EDBx46dGj69Ol79uxBCSBD6J7Lly+H1hls4Sy8Q3xdpVUz/ov4HslIyYFfvkoz1nFX+SA+YeqhtfivqVt+DFFwgNU7f6ktygovL/Ryh2sRSe8bCR1Qa2CvgAiLFy8GITZs2BANfeXKlfgED7IjzZkzBy+PT3GTHDJkiGgWMMyrVKmC+zDD8blgwQI5wTWo8ll4B52QjHOsrnFcVtmMyXcSg1Xrg9rNTjyZGGkJN0GOPpw0SAzLj6EL7RWkLXTtM2TUgKyt7JDd7CV7LmW7Cyxl7pxxbcCI9EQPEy9ImtXG6TCiRxhPmUixBEksixQgHm/ijGlUUHf6lru2luppAfEnEYueRrqonNa+Di/EOzu42Sy08iiESFpx6YmuHc2hBioL7C36CGnjRFqUfYQRzlZo8YJkMvK+Xuqh3pF4C7ZF6EDbzsYzsOm1dW1fiwXAERTmxT88MGoWXm8W8GswVsuPIYpIJ+5W7dq1161bx4ZFH2nZJQLwVz2fzQepaoXmuaNaBTCJ5vhlglXUDfYNKpKchKXsRnkaGBtkLLShtTw6eB04cKBbt2558+YtUqRI2bJlcfPpp5/Gr02bNl2yZEnHjh379u3bvn37W2+9NXv27KNHj9Yer7JQefTo0cGDB2fOnHnMmDH+eG3LjyGKeBV3C2SB5lKoUKGff/75tddeQ4PA/f3798+ePTtLliwnTpzo2rUrvd4AbVmHoLMu5ZJQxHpfh1C8aARUkEV9zpQwkI/eciNmu0XIAjX+559/yqln0dHRU6dOLViwoPGctYufJFAWyK5+/frFixfPli3b9OnTZS7lm2++ef311/EVT8XExBhPCwHJTpw40U/vbJtUSINrLytWrKhcuXLLli3RVnB96NAhMOPZs2fROI4dOwbqnDRpElqSDM7x3iJ3hRREydVTq6LqghzlV9EKpfOIdGJiy8yjmOoWIQjUDsmRxs2FCxcKFChgPBMmXJ+h4Xz69OmNGzdCecRPJ0+e7NGjR8WKFV944QU0g3Llyk2ePJm5MZObbroJSkMI2ddep3jiVVS+xAnYakUL0B58Rm0p83l/Fs8Yk9AZUGbooKfIOxunnmjDUhzRbrRGo/3GJVyuHJNtEm0c1tIxPSfgknemZQLa1Jx24QsbR886d+5czpw50ZgeeOCBTz/99KmnnpIH5VOUtcTyyvtIFSR+H003egpc7ssjvKO5jNaxq9hTv4Ikv4rJrCcfBcyTM4+SJil5dVAl2Zss7xbhxOuUKjZORGS+TGJZdKBc+RrvbBL3+aLB5YRnKJpk27M0YJEiqZfRrTR5T3JXMaYVEepAeeOZL8boDk2Qf4pCY/mDQ5999tnhw4fHxsbC+h47dqxMufzwww9QEZAGT3EzlfFUOvJ0LdRID71GVrlKfhQhpc74HhJhySgqkbaCIhA/Pu6rlcqOT3WAnFRCuiivocm3a9eOXsRcPot3jmHSfxrpnLgkqweRKn6UpJSilyYoFiLXT7ihm/u4+XeUPUIde5L8upuE+0fKhg0bdurU6ciRI7/++iuski+//BJNZ+/evbA1ihUr9uqrrzZu3PiOO+4oXbo0ez5eY/z48S+99JJEwE4sr14Wp6SZnLARUqf68AChdZFCT25yHp2ldP78eVj9wqHSRn1LFldRvxzn8Fa8r8fOSHU8odxhsbAKOHbqeQBZUpB5Mb3CwN7uQ5HTKq8sXIgzjdZO9CKeDqgu/+WK66ypOamttym+P4tXynDIkCEdOnTInj37nXfeWbZs2SlTpvz73/+GMYQyb9KkCdRGfMXw37lzZ/wX1EbcRyOfNm0aX54igzFhjH/11Vew0J988klwK5vrtfC4Rpr5keOkjj2lWz/dkYw6q0DGVfEIZbcUv1Ael6qH8WsU6YpgqsciT4w2vXr16t27d1xcnJ7GYosRl1ShDN0ZtK6EZJxDwQUHA9E6xfngv54DvCQmjVHRCeOdyAt8yWSElQdhUBtP3AFptaNHjxaLctWqVfhcvnw5M+dNJMPwC2H79OkzcOBAr/LKoCWR+7Q7hVZvZZFRROAdPd1unN0vAMgRrycthC01eRUmAPVLM5zpNTlKLWjvZSlMl30grqYyoosvAcDCl5HeFZ/t2uWVSsf7xMTEQF7UL0bKpOTlNAU7IKVji3UFaecAQDEjnO1Y8U5UCxlfjVIwr4L6SY7aq7F8+fJotxI1sn79+qzQhQsXIgFYD2k2bNigyVq6pCi8pUqVmj17tlbkOThFekKZXHuTSzM/0q2EGpYYlWxhsh/eeOqJ1Sk7PUQA41gEJCOvTdYnYM5UxEaOHIkRCYU+atQoqGCDBw+W4haVVgSRWWRpSdq3TiaY0dRYeeKGIssObJG7d+9eunTpoEGDZB6NRReZxDY4F7T3n8tw4MvwACkWndiAfKX+/fuDGSdNmgTzxKu8RmlV8vLC9dpwFksZkIhERp0YLqO0mHVMk8mJEC4n//l2FiVN9WscBkRVso60ySLFS3FmzJhRpkyZBx54wDVGGhW5khYGtTYpRuEa9gvfOg/IHCuyHTFiBOTFSAnBvcor7Y0DPy1Q2nbSqFzEyn9h4+TMko41p8fCq7avRf/lWyUeUXTmbC18AXZJl84R6QmczlCEuv+KHnbtjS3N/Mhi1Qz9yCOPQO89ePDgu+++q9UKCi+DMClm3LhxUJ6LFy8uMzuSrfHp/LqormypXbt2RRs6deoU/gisAWUeenu/fv3khfk+rVu3hmWaK1euokWL7tmzB1XSvHnzRYsW4c2pBA0dOhRPtW3bds6cOX/88Qe4D7mxycYrp2Vpc1xS0AsIemIuef1Ce/9RFjErmDnIkR1Vd3Ua75AXXejEiRP46lXeevXqrV69+uuvv4YZvnXr1u+//37BggU89Rt/BEN+7dq1MH/atGmD+zt37kRv7Nat2+OPP75r1y5YRkgD/QWqIir03LlzMP9r1KihR0Fey1fpG75CWusXJQ/tEgnOnDkDZfPuu++WwVi7YXJKJF7tXDIJOdE43Vu0dT03bZxTH5CJpl0fyiv1m7y80nhw56OPPoJShvuTPGjZsiU6oB7ySaaff/75d999h59gq7733nsNGzZE47/33ntlcpkVevmqHGyFvGSKn2O5XmHDa1PDlUkAGbBFKRFOZ8HqeWQ9wsmCxzUWe5rJCH9v1GFveKc8efJMmzatZ8+e6GxHjx79+OOPf/nlF9xBzwHrN23a9NixY5s3b8ZNDO8o+m+++QYclDt3bgjJYQHtCZ0ZIz++XqM8GnpUoXnIKuGmi8mTJ//000/GadAcVKtVq/bhhx+WLVu2YMGCaFUlS5YE9UMivDZYAK8N0sT7f/bZZ2BGkAKyYtWuXLkSwwPSgDu2b9+OBIxGg+KCXFBGnnjiCQordCyzXUkh0lklMB7iw7NoPbh49NFH8W465XXOwfb8ShNDZs28yosB4NChQxANpQQa/eSTT+rUqYMOdvbsWUhdu3Zt1BqUX1AnuhY0qRYtWuAp/MvUqVNRudmyZXvhhRdQiZAONN2xY0d0LZBOpUqVoM6ASaHaFCpUCKVk1FqTDys3rfXLGQ+87bZt2zZt2vT666/jJ/R/VNbhw4dRsBAKvAnGqVy5MrKaOHEiSAc1COlWrFjx+++/Q/Bly5ah5KEQrFu3Dtn+8MMPqGjUOOr91ltv5TnA1Ci1Rh8UeXXUqPXr16OCUIkwONasWYNkGNtQrahiCPjVV1+hTKpWrYq6PnDgwLBhw9DOjxw5gv47f/581ONjjz2GUgJtoZ3ExcXdfvvtV6EXRzhe/XodTx83xH4k5CgzGJKen0wmU3ZkarFf6UlOVcYnynua+dGlWkMYcCI6D14IfQNayf33358zZ06QCEr/mWeeQZ/BzYceeih//vzQSmrVqgWFBQoa357DAtoTjEGYhD5RiQUysLM08afQHYxHpcW/gN3wj2+//baYSNSq0D7QStDalixZsm/fPvAaHkS14eaXX36JxOXLl69YsSJGbwjOWSc0UCR+4403oIXNmjULKd98802UDL6iK4J3kAmdG8h3rHv0ydTsh+PL61ObXbF7ZVbIZYODvOgD5FXemjVrghxBal26dEH/+fTTT6FW7N69G2SxZcsWjBPI57nnnnv//fdRuXgEPYRtDgny5s1LDQu9KF++fMgcHQ+fKHC8J4YBaNa4gEZDEWgT0RoNVv1SDYEWfNNNN6GTt2/fHjWFV4JSWb9+fTDdzz//DHKcOXMmcoCSFRUV9eCDD2LUf+WVV7Jnz/7jjz+CR5AJKBVtGOrVnXfeiZJB/e7fvx/XPNZNTId4B0Fsz0IQ/T0AuYPs0MKbNWtWuHBhjN9o1WgDqMGnnnoK2iIoHtQJGjVOE0L5gEDRgNEk0COo94A9r+LlLzt7q2VmX2axKA4J3atFJYHsjGOVilEV4SwnijqvFf9rt0fT/LDWWvlyaHAYZ9DI0G9RoFAZWLgo6OnTp4Mj8OpQTJge7Qmj0M033yxT3ZKVbydrLns29oreDnUA9SG2WGxsLBq9cXYsiYlaoEABsB4uQOtjx47F4+jkSI9OAvojSckMCG1nmfsnE3Hqh++Ar6VLlwaruoLdG2f6P3n72jWbyZtsKC5C1HNDLEw0YkYDw4Ne5UU/wX28A1RFsAByOH36NCwAdIDGjRtzHZCJmSdEyJo1K/4C5gKKCEMgFCtkjlEQOeMnchCbxz333IMaRz9ctWoVl1DFAyNY9YtXxYAEnQi0QuMLKjCaIrQhqI1IAEGMY6nRFw8JwPuoemiI4B12NgiOZFAn8RWkecstt0C9evHFF4233uhDcuSinyyppyivURHDUFNoDzNmzMBoxwpavXo1DKNnn3128eLFqBoMpaQtmggyMSKshAv83fnz51F6V0c60kRlQhNtTDyiJJn2EJDB3ih/NRlyRD33OlMni1TXVOhXt35tlHsRiR/XGJDnzJkDHQRmF/QLdLkJEyagGTVp0gRNCvfRr2JiYkqVKgVVEbxJv3n/gVNOXBrC26K7oh3grTCQop3p1WSZK6ReBuMaahESoOeAMvArlF+0Pyi/+ImZY8iFJjJgwIANGzbAckEPwQgMGZEYeiVIoXXr1igEdBtozVCiX331VegsRo0HRPJ8IVNXOple2NHLLCIO5cW7oUEnIy9unjx5ElQIJQKqE9QidDAQH+Ris8N95I80MMTQf6B94BGMhS95gAz79OmD7gS1Bd0PT+EOhsYPP/wQF5s3b37nnXegpIhibtRyzTXWrBROmupXLmiWUtdAm0Q1devWDSLA9EaCNm3awL6WuXVkBVUamUM9ROvlKA5VGsWFQgC/oNmjlqGGw6p4/vnnfSKaV7D0ZIt6ivJq94ORI0fu2bMH7AaWRGJYDGiN0JFhNxQpUoQDG5KVKFECdYpGXqVKFQ4h/3BOYUJu0dHR0K+hgV6da6fwmuZEUQONsooiHLe5xD4P5MTLahO3CC7JZC4yMij+j/ptOPGB/oM7MCEpFVoJf0WDk3VPkCbftVGjRuALn09FecV1TiQlvBiaEZoF1aLEXZQvybELKXkTigPrr5kHvAmbCxUMNYRf0eykDiAja+7ll1+Wm0OHDsXno48+GmryQtg333yTNAG1go/TT4gNC30Pn+A7umUwOjdHkbfeekvygWJlnMaN+yJ4jRo1mEY3cd9ubklr/U6ZMoVrL3hD6E38SaxFZMVD+IzTx9C8Z8+eja8YRZgnI6odP34cxua+ffugJkPHxMhBjr4uUYA139rXaZJXlpLwyb0ofDeMcOiqSIBhwPUUjKetW7eyKJYuXWo8TZoTI/hEUWiHirS+vIzrmRKde66HeVl5j1QeqZlUbDSjWJJDXYTaeErnBCbzyWCc5uf1S0tTYGMyzjKrUYca071RVOjLjs+dv0MJyHY0/mmvXr0iVLCDZCAnVmdKeHCHxM4RS0E7rGg/YUonnp6+tSt9KK+YTroZyaibeDCXp9AKpWnSmpN90MZREPScOh/07Sp2WuWNdOJ9yHRVfMJjM8R2+6+Kp8mbUj78O/AIhhaj+jwVFlkR5gSLb8nx6tqzUKps3LjsuLULQ5lE551JdV/nRGacP3++UQ4VV0c98R7/MM516BYVn9BvTK/kyFd5W4qcOJYdu5h4iZAlr91/IM1Cauc4TQTSYaQhUjbx6dcTDf4mR+MUqFQkS1l4Kj7RqiLLUeaMLzuOwVx2oAkjrojx6jRRXSBUtWR2UmcYavLK5JTQn95AwnoUh94Ix12caVznzXNaVsqBfyqNmLqV8fX+mauQ12WpccZN3E0yJdwMI1UsEy+sSmnznPujz7m2P2S6878+DZmRVnm5gGac+QSJI6vZTTqm1KPQonHql9c0dcliEY5PYpogE7v8inLjJgv+kcSmc7nfyvQitcWIhCHvjJqXNKrPyutd+/h0Nf7hmhx1exLxtKO4cZaZ4h3nYd+Oq8mAY2a84/EvBK3Xl3R6SKT9b0RYUvxlJ5ZMpLPz2qjxWSTlhcio2TbU5DXOoBXpBA0zquW5zgil8fIPtb2adgBdiGVZgC7rxomALzsXpR37sOrTJK84k4kK9g8V+4cK73XOhk6jvNlFBWZVsrXLs+KjLq7OQrW6YQReXpNozVPISBQrscEjlSep9GJ5UFRX16b1NAH/uHHjxpkzZ0KEBg0afPrpp4cOHVq2bJnxBO+JjY3ds2dP9erVb7/99rNnz3bo0AHXen+UqF/vvfde3759v/76659//nnu3LkDBgwYMWIErlE4eKRdu3bVqlWrUKHCvn37lixZkiNHjrQXcwJcjX94vOM9K3Oo8WovZ7xyDBYlhT9JjQbAvuaYKdMWmdTRPybpgUXGYVGF2Kl4Ha8iytC0NAm9FKXVyq8sqACQY1rllWU+1peMB9JzZOOQ1KYM/tJ52KMuO67LuANylIl2o1bzXD058PJy8JNrPRjIFAF//a+KUiHC6kkDjgF6LoU+XhxWRfHxbTDztMpLC0CGc/GqEYcH3Qe1QiBWvC4NmY4wKoxLmt4fL/zKK69wfhOP4wJl+OOPP5YoUeLDDz+sVKkS8s+XL99rr70GWnziiSdAdiDHzz//fPHixXifIkWK9OjRg4I8+OCDU6dOrVu3Lt7khx9+OHXq1KxZsyDpk08+2bJly7x5844ZM2bkyJG7d++mr9K14Gr0f5kflXGMTqri7CItSS5MwsB/AbCvCZcdkYxE0oAinC2odGlGp4pXO8qNmrajiuTazapVksvOli+/hji+Onn1vk9dlRHOPgTe0TvARAHRyjUbg5ad5Cg7UrTR7fOp2NTL+w8nuhINYe5vYYPkC2MgRI+Nd/yuI1XkDtGOWZtUkKUl/+2cCMT/oh6qiygo8v7txAQwiv64a0DmhUVx0RMsIrvMPsercHmXnTjNaX3zY8eOFS9eXEZfqHtt27adPXt248aN77zzzm3btpHHuVxBLyIku98DDtLMB+8M9uSehaxZs0KRLF26NEUuVaoUnVjj4uKQCRJc++zWVfo/ZlKhk/RcqegRrt4iI5I86G8TO0IFU5JZ0fiE4Zv0rM11zoYkmTbi4OyaEBHfAk6m6DksuXC5+IthElLyuvxsJYH0E6P2chlHydJVKb1IZqlkATdSxUTI5ISJi/fpfuS0yitW4WUn3pKkZ52C9WQCgRB/GvKLLOBIQYkSINmyKEi7PnRmugp59SAtg71W/LVtJ2sg+rRVcqVRSyXy61WY2NAN9+/fLyotXuCOO+4YN24cLG4YyOBH4wSFwb+cOXOG5fzFF1/MmzcPPxUqVIir8HyfoUOH4mv58uVr1qz5xhtvUARY6Lfccgv0x1dffdWocJPXgqv0fzTK+c7rQpJRVpikdOUQAGibgiWufaYinOiKojHp15ZGo4Vyvbzwgv6qqUePe2J5RajIWr4dJ9Ikr4YoCFoceX+ZyXItcZhElZvYMhB+ifB1fIo0ySv/65ra10K5llD1SohJWEQRKrRHhDO1qtk/Uq1YBkVeowY/403Z1O1TXlJKQN+X9qDLJ63tOcKzw6dhw4bZs2d/6qmn2CQaNWq0fv363Llzk83Pnj0bFRUFchwwYAAzv9sDnQmHH6iKxYoVQ2lUrFhx0aJFrVq1gkL6/PPPa1cZnwxOYRdsWdYBOVLJmp2/4eqW1C8ifbqf0iusvFZef+Aq5G3SpEnz5s2Nh0ZBkXjkueeew03j8aG+dOnShg0bUpynbtCgAdXzsWPHUvYxY8bEq13Yy5cvl1mRay+KsONHo2YDxZTw7SSRV1xOFPXEh8ZX8rDyWnl9jrTKK3PxLtdF8TfiPtTIREHzXNCqq3hH8Kf/evBPD3xVCGHHj387wcDjPc5r2g/Jr5D5/nhP+IB/qGOn/Pq/Vl4rrz+QVnllfpbkyJUTmRPQ09balyApXHaioHJ+/2/ntNhMzp6OTMph61rEDDt+lFGODStXrlwHDx4sUqSIv/9XByk5fPhw9uzZA9B5jJXXyusfpFXe65wQfBFOBH7jcDpPIpH9acnbxfqgJ+Msouo9WpEq3vu1ixl2/CijHIfZhx9+eMOGDa1atfL3/2ZyzgNB/a1bt6569eoRPo2fmhSsvFZefyCt8mpjXO/CENcOvQSaDLtJgB9xdWI+fztBfBluQ8cBuhYxw44fXaUfFRUVHR3dvHnzALhkSp2NHTuW550HYCrdymvl9RPSJG+E2thuEp6FLfuCZGdB8i9PKvzbiT0uXpySoejU8Ym2XaYVYcePJqHzV82aNatVq4bxVgK6+A9sPc2aNatatSq9/33u/+EVVl4rrz+QVnllcpD2L+M/IhM5x0k7xiUD8TqiU6dsPdDRdk2w4vekd8Q7gefojoCLadOmde7cuVy5cvhs1KhRjhw5Inx9Uhhw6NChtWvXTpo0qXLlypMnT45QYez8CiuvlTc18rqoLUXL9OrkdfnJJvaVTg3kKf2GiW9a/8ergVQkpy04PQwDYf369XPnzu3Tpw+0fYbOjlQbq68dBQsWfOihhwYNGlS/fn3ZtxAA+8vKa+VNpbySIJMTpCqZxMGSN8AIO340KhpShGfzDzcL16tXDzaCUYeU+m9+XUc58nnmiWHltfKmRt6IhKG5TapVsADLG0iEIz8aJyisPlUywhOKwjiBT4zjfXrtU7zEZSeAmHH2KQdysLXyWnmTlzdCRaW97JzckozJHFx5A4aw40ddrxKgkKGVjYrERd8uH25FkHzERYtrcP7eZWHltfKaVMgrkb0lRgnXkZPix2DJG2BkKGFSA6lvtiQJyK6Dl8R7Alz6diuCy6UrU8JTCf0HK6+x8qZCXgl3FqFCWCWDYMkbYGQ0eVKEuO/LUXCRzlEV+tgAcRrwVRf6hzq2XAfU8zesvFbe1Mh72Ykrrh25k4mfGCx5A4yw40fUpa7yiIQxX11eDj7UL7TXa2B2VhBWXmPldZCMvLSpI1VMT/Eo9IpgyRtghB0/6uYi15FO2M7LzuluuiVJfBTx73dFGZEg6jKrHanO3hX3C/0aAWtMycsb4cQupN6hQ66aRGc06vP55CyqyISBsl3BNAVBlzfxr8nDa4ePd2LgxyeK9ZuUvMnkk8o3SR6+kteVZ4oziUnJq/tOAI5R8TfCjh+TgpCjBP8QCmDQzQjPNnihwggVsj8yYWDdSCd8qT6TM9SgeY3Gkbh0XPaE+2bsE31oH8iRW8GkHPhUpDrpSXbFpndXj0jnQAJtdUaokMBGxaS5unxCCqxxDoERTqTxxMeopgjdEkSZSL/twfLj/yBalXHi7zPiSKQ64SiTcwwZH4lXAfqN0yx4gjYndGTjV6i1j8uJzrbW+oKcsUPFWU4s4VYwzvTzjqjMRp2vEGrCXgUuO+dGiPXAY7n0qVhelaZU5hMoOVILjvr6oLH4qz1iLN450/T8+fNZsmTx9ZsGFJYf/weZf9m3b1+fPn1y5sx56623lilTBn3+mWeeifSEg3/rrbfatWsXExPTsmXL8uXLgy942AXBTsJusHv37qFDh6KFtW7dukaNGsESKinI/JTMFbA/yOSAGOAcJEiR1KaNcy6jcahBtl7oi2CKd82QGRIxI0hqwoPaRk5+Xs9rPqEG1po+A/2qIbMQJMcQVA5SD8uPVyDeCajd2NjYiRMnFipUCNbl6tWrz507Z5xRcfjw4Q0bNixatGiBAgWmTp3KZ9EHtm/fPn/+fJiiefLkAbeifUyfPn3s2LE5cuTo2rVrtWrVQpAvJFLAPzwQXqOKpImAbnEuQjROdCkmi1TnnPjK6Tq4kJ0nHCpoFsgUbYRzpHtkSocoeM0n1ExsbUPIYvfV+etIk6BPZQi2/NTD8uMVxDtHtaFG//jjD5Cj8QSqQx3zlHEk+P3337ds2QL2xNejR4/27NmzXLlyUCTR7u/xQI7NRCYHDhxAJnwquKJ5hag/eOG9e/dCI86fPz9Iv2LFin/99Vfjxo2RoEmTJsuXL4+KiurRowc+S5cuDd0HpC8agXYEuXjxIkoGCvW4ceMCE7fGrxC3apl/kLPqJU2Ec/xp8nEPveYTauDraZfJqyNHUR5ppMuZsem0PVh+vILr1CGusAuOHTuWN29ehtskwaGyc+fO/eSTT8Kgjo6Ovvnmm6FLyinP//nPfxYuXIhGULBgQXAN0oNVjx8/nt2DEBxCtfLYr1+/GTNm5MqVCzdXrFgBpjPO+hJkfOaZZ+68805Q57Rp04yzYQP68pIlS5C+cOHCL7/8MgaS06dPQ1OmTh2C8qYV2lGGM9FkQ31eoCiSyXT+pPIJmCCpBAVxnWBzFbym5ZWYtel3Fdvy4xVIm0B1Dho0CFohmO72228HNSxbtuyTTz5B50fdN2/eHMoUvh45cqR79+5oQGSE+zzQGXbp0qV9+/ZZs2bFgyE4fsoyFD5PnToFchQ7kcFK4z3xSjdv3gy6R3OHvtytWzfoyC1atEC7x0WFChW4ikUmBYEivQwYQRbvmiGGsyywDBw4EOPiZ599dttttxUrVoxqUYo1m1Q+OXPmDJQoqQK1YE6Y9OrVC0YA9ABYSGnNh/2IDQBiTpo0SRqJH97a70j37dhXkCEd1Vm+fPk1a9bITw0bNuTF0qVL8QkDE58ff/xx8hmCLqGL+eNVfQUZEmA1nzhxAva18Yh/9uxZtmaQXatWrYYNGwYFM1++fBMnTjTOnOPOnTtnzpyJx0GLcXFx4lcsy/2h1h+0L6fLX9UrxJmBF2fOnHn//fdRCOfOncP40adPH1gSGzduLFeuHErpxx9/ROGgYfzuQceOHb/99tsvvvgCf/fwww/nyZMHA2psbCwGGIyvq1atQlG/9NJLgRQ/RbC+8Pn111+vXbu2du3a69evBz8+8MADL7744gcffFCnTp09e/aga6Bhz5o1i6drQZMYMmQInvr1118xjqKDPPLII5UrV0Zi0CsGVxQaCirUGkPqYfkxTKEnhgYMGNC2bVt02ltuuaVixYrz58/ftGkTWA8JYFxDX4bSdPLkyaioKNyZMmUKHgcvTJgwQc6HA4mg84waNQopa9as+cQTTwRbPjeEH3WImmR4HD+9++673333HZdTUA5lypR57rnnXnvtNQwnKD3cQXH9+9//BomAAqCDw85o0KBBtmzZtmzZgvEVLIP/euyxx4YOHfrXX38xWxQySrhp06YBFD1VEFc2mAVQkMGPMIxQSrlz527Tps2xY8cgfpMmTSDs1q1bYRVhkNi2bRtGi/379y9evHjHjh0YL6EUo7iMZ2QtW7Zs4cKFUTLWvrZIf9ATQ5UqVYJSw3k09BN08njPwXJvvvkmPmFqgQ7AmHxQ9uS6ttCgU0GtQA7oISGoP8qCu6zCSxQvr8D7oxwef/xx2R3AiddIz8EpuAMexE3QBO+jMIsWLYqRBpSBNChP5sNTBPhHUEKR7MKFCyHIF3rCERLR38t4mI7bBDAq4AK2BcRs0aIFaHTfvn3nz5+nucDB5kYPcHH69GlxHdNbztIdLD+GKbhSKc7AxtlFy36Ca/ACTxA2zqYaEgo6PJ/S5qdsoJSNN8GVziuEHPX5osm8qgS8QVmhNGBawoLGhazPyMoMci5YsCCGmV69ev3000/Dhg3r0KFDdHQ0foXSfeedd44ZM2b69OlHjx7FU7BPoWgPHz48QGKnBVSxwXGrV6+WmVOu43FswGfr1q0HDx5cqFAhMCZU42LFivXr1+/48eN9+vQ5dOgQzItvvvmGD0KdhE7dqFGj0GwPqYHlxzAFVyrZ1fWarPbuFuc1vT2GiwzMRHwh8SDtUNcu7NCB7KyP8ASO5S6gFP0WjTNU4ALcJ26MVA8ffvjh+++/H3fef/99ZEjHL85slipVCtaocWh0xYoVKJCOHTvip+7du4cgX3B7GCsOdgPesF69erj/1ltv4XPEiBEsOk7Bv/HGGywcfA4ZMkQyufXWW6tUqYIc2rZti6/z589P7yt16fvtLa4asjijd1jLIpXsHJddcTScec0LbiUWzxXcYRcKNWYk+JL8NB6uh4yPPfaYzBskRibnWBVqVXLCPX+tXr36xo0b5cw8TQTMXJQvqur8pB0agltK+M7cYhihQkBmUocO6r3kQvEyuLIh6XJmiSFBaLp8pgaWH8MU0tZlMlHvdkDL5jZhIUdNfDyCnb1C+7tpx+BgyZUUxJQWaxHvv2XLlqS2+ointD4vNJM6xYWkSS8omaNkziahYk5OFM+n0PR/NJ4ikn33Ol5kfMKDrTnZIvtT5ShqNCR6CFEPZWn7Nghx4GH5MUzBfq7DtOj1FtkmLAFdaH8ZFXDBOKRDXUNUzqsI+hIACJ3x5SnR5aTP85Ot6OIJpOMzcZ5BFGcd1kSuqU9JABtSSYgv5kY48e44kyDkKFMNJmF0O96UxsAykRFF7IkQnG9JJcKUH9mHU4zNJ2Th2imlN1G5oj0KdLBI7XYnKTnG+nsqSu+TMY5GoHcN06SSlK4Ckc6ceEOF5Emh2EnoIq7l1ZIGt59IaYtqk3x6edXEk2gu53AtlFxTMdfb0o0qz1CGFkeXGCEiuKpS0oiwcpFOydGEIT+K14Lu6jyakprCZU9geq42UFNgg9BNRNzotDs0V3vjPZHQRB2TKTzxSTYJLRR/g6wk4SfwDnwfajdiJrv0GrGeRGohWTFIJb2cdsI4FzpOMHtIpDo/LwAiW1j4CmHHjxHOIb/xKrTXJ598Mn369KxZs9atW/frr7/eu3fvG2+8gZ+WL1/ev3//Xbt21apVq2zZsidPnnzxxRcfeeQR4+gUYrLhc8OGDX379t22bdvRo0fnzJnTr1+/kSNH7t+//+zZs8i2devWlStXrlChwvHjx6dMmZI/f/6A6Y/ivmOckI6gKjn8U8KXGYclSYvaPGRWmvs06UtcVUok2pbLmSb9KhEWYYuw40fjHLVBJY79eeDAgZs3byZbffTRR5kzZ96zZ0/JkiXff//9u+++G/08Z86cIDV09QYNGtSoUQMM8sUXX8yfPx85lChRghuxT58+jcQzZswAgYI4vv/++2PHjr322mtgkHr16j333HMM8RATE3PgwAHwo0zr+BV6Ux3XE/G/XCvQc+cS5cw42wRdpCbTjgwhLuRoPJwrZ4e6lrCRLfIhmaZ3Vw+LMEQ4NlmuS4hFCYWuUKFCQproyS+88MLcuXMbN25cqVIl7rOmWYquDmrgXgJogpMmTWKGsi4J9ly0aNEDDzyA3MCP9913H+fmihYtetSDbt265c6d+5577iFhBUalIjPS9iejrVixYsmSJdmzZ8cLY2A4ePAgNGVI8e6778bGxu7evfvxxx8H7584cSIqKgp0L549xhO9gqb6hx9+2KtXr6+++uqXX35ZuHDhgAEDhg8fjnEFBFqnTh1GBS5Tpszhw4dRmCTcEF+dsLBwIRz5kUtssngCmoDhrFflSpUqNW7cOOh6r7766ueff87ZSTq1IBnIEWlAfxMnToTeBO7r3bu38XAofoWJPWzYsIoVK950002gm2bNmoEKf/vtt5s9mDBhApXWgE3GidooS0P4hFa7Zs0aTrZCX86SJcvevXuLFy++bt268uXLIyXucJ913bp1q1WrBtnBg3PmzMEjUKujo6ORydmzZzEATJ48uWHDhpDlm2++wQAwb948PgV9OW/evPgV+vL+/fvvuusuk05WJywsBOHIj65lR3Ta5s2bN23aFMT39NNPG49NCl6DfsTQjej80KQ6dep06tQp0B8fBE28/vrrkqc41oIIwIPgnYceeujtt99u0aIFqBC5uahBz/cFQGQ5LgYvBqs/W7ZsxvFNA3u2b99+1qxZLVu2xMCA8cAotzVup4V0oi9L8H3og1A/ly5dCn0ZOiO0zsqVKzMxCufIkSOgSyiYOXPmLF26tJSStbIt0hHCsbHKLjHjYToA1AAio7MOKBKf0IkaNWqEBLAc8blhwwajTuPCJyfgZJMAPuvVq0dOAY8wc0ZCEzcg2LDMQZTHAJCFTBFy4QX/XqBAAVCkLMWQzn788cfx48ePHj36iy++4Pwj1+iFwXEfuiESFytWrE+fPvgVnAiK7NevX1xc3L333otMUFYoPaRHboULF8YfjRw5Um9GtORokb4Qju1VO50IItWpzXoHiPb/cjm7ufy85Ktrg4TOOcKJq6gz9yv04ow4J3bs2BFElitXrvr16/McTnzduHEj7nALzcmTJ6FUIj1joRtPjB9AFsE5QuArdMNChQqBUvHrokWL2rZtC/bHJ2dyxWNUfH2CCFmL1+6fesk+BMMO+Ql6GU0r9dpdIQQ3QQYe4ciPYQXt9S1b3KAaN23alB0A17jZrFmz5s2b42LBggXoJOBKcfDWbCJ38Fm7dm3oj7jPcxfwR9AWuZDNr1AnwT7GM5ng1YU+wOC8M5T6oUOHDhkyJCoqClLg3V599dWBAwfiTvfu3U3qTrVOv2AtiFUxZsyYwYMHo0A6derEAW/ChAl9+/ZFafTq1SvYLxt8WH7M4EjsoEPrXvwitdmrnTojEp6OrVmSfjw33nijcfobN2szW610yOxqakJ2+xXiHv/SSy/16dMnLi4OvMD4r3h58Dj1ZVJ5UN4wMKAub5yAHaBFzpCMHj360qVLBQoUOH/+PC5CLbx5sGD5MeNDPNjZ/8VXMd45Ws8kNDON4yLKrUQS+VGvJpFEJJAPyJH5c2GHPVA/RUoN4vyj7AXIkiUL6GDixIm///47bp45cwZv1b9//6xZs3LfMeNNBOs9AwCpOwjO85EmTZp05MgR3Dx58iQaABiTThoB2L8Q4rD8mPEhMWslspb4+ohjo95DKdEejcObEtTHON7jzIHPcloTOcu8qky5cl1IU2SwprREfcY7wH4cPnw4Y2rwpx49esiYAaG0v2cGgywqUkCUwIABA6ZOnco5d7phoHw4QRnm5GgsP4YDJLiO8Bf7P3fCyPoJfUJlZxFT4o7eSqhDXYk+iGz1wd98VuY9ufvbtV0n8BDHA7wDpI6NjR01ahQLpFevXnR4Ms4cZUYlR+OYC6wO45EXsnfs2HHcuHGoL9RUz549oWIzcfqNu+MrWH7M4BC9SZtLNIpBE+gnpANZshcy5eMS3FT6lZjYOsSZuKC7oiUKY4aIMiLzqlAYwQgcIaKjo41alknX8bhSBKOo6FpGmQwbNmzWrFmcaoDyyDShUF9Bh+XHDA4JQSQheYyyo6WryKq0eHTyjiZBVwhI5i97gcQF3SSM6MNkEoY6iLwj7qt451y5cnXt2nX8+PFdunTJkycPEwgzZmBq0BVknFHhhhtuiIqKwoCBoQLKY2TCM4XCGeHLjzq8gvRbWaDwd2cOpEqlIz9yFlJHwKb2J4Lr2IguJ1AdIFbnL2a7S7XU05GB72+J61czOC7i4uL27t07YMAAiexrUu3Wo71KjTc7NPAqc5ras1SlzHigNPbt2xcTEyPlkKbJ4tAxEXyLsONHNmWGdzSOoywu1qxZM2/evPXr1587d46nFcvxIz5B/vz5H3744Xbt2lWvXp2RJQOzBdvKS3lXrVo1f/787du3HzhwwDjnSSAl59qERFL5LxxauKOUfxpq8qa1fjmGvfPOOyZ15RAseQOMsONHLtJxTo3TT7iAcfGvf/0LBtfkyZNz5szJavbtJNThw4fXrVsH+6VWrVoTJ06UNV9/L1lYeY1H3m3btuETb3LzzTeLr89Vb36XZ0lMoKRQkzet9Ut20+tsyfvzB0veACPs+NE4J3ByHRNfW7Zsicbx7bffSgOSY0t9GIKsQIECrVu3xn81b968U6dO3HMSmMZk5YW8W7duxVctoGzpoe3JmylaiEwvK/IkJpRkqMmb1vrl3irZpE9JZZk7MYIobyARdvzoGuI++OCDHTt27Nq1S1ze4p1jS+U4eZ9A9qIsWbLkjjvuWLt2be3atQMwX2PlpbxGnffgOsxWT7ymBrIILmtTeotRiMib1vrlXCqnEWWqOhl//mDVb4ARdvyYSR2/CcydOxc2gvYH1huWfbhlWA/LvXv3njVrVp06dQLgR2LlpbxkMb6AuKzL+2ip9RK/V0SqE4dk1k8cpEJE3rTWb4Q6PU07wCaVPlj1G2CEHT/K4TPG09C3bNkC04CNSU7p8sfitfQodMtatWrFxMQEZrLGyivyXnYOZTYJD2J1vbZJlhylrORxffZOSMmbpvqlLxcj2t1www3aF8pr+mDVb4ARdvzo8lk5ceKEHJUlq2+J3SN89b/MrWjRosePHw/Mfjsrr8gb6Rz4Iw6hl53Td43ixORLgF4sEtOTq9guPTRE5E1T/Yq/KshRVqKTV6JNMOQNMMKOHwlXxbuGVleb8yFcEzoBa0xWXn3fFWVDJ05lCbicJRP7FRJBl9f1NXnphE9TH580WPIGDGHKjxYWFhYpwvKjhYWFhXdYfrSwsLDwDsuPFhYWFt5h+dHCwsLCOyw/WlhYWHiH5UcLCwsL77D8+D/I0QJ6O624ENMXjGkS+9nKji7tIsvE/In56NDcjMOoT/WTcAk+9EOU3CTmow4UyBdw7SSR4DSuiFVaNC2ORMNlYh0XR8ICarmCJa9P6lfgNWVIyeur+jVhfBa25cf/gc1dIoO6AoUydp4cyOeiA32aFT/RttjxeJiBDpD3559/Go/zrd48izQXLlyYMmVK7969fdgcpf/IDgqRSPalSadlSERGuMIFA14lLgpKCrlIN/iERDfccAOLiFv3mKcwkXEO9mLE8qDI65P6lZPONOWFprw+qV/jRLgwHqJno/UtxYcyLD9egR5sJdA0x88I58hgtgyOvRJTj1/xE6PvMQ4KO4ZsX+Unj4fGNajEOKFMOUrj2SFDhowfPx5P9enTx4dboSUrCmgcXpbI4XwN9gF9HAJKgJvncCGdn/1ETrCS7kSJIpwDuTRNGGfPslargyKvT+rXKMWTY4PojKEmr6/qVz61EuCr9w9xWH68AmlVbHBsAYmPnSIkSjOHXPYidJ7Tp0+3atWqU6dONWrUEPXQeJoU47tEeGLqMZo/2QSPjBs3btiwYWipuD9mzBjqYj4UTahBtAAqF/wjeUl9KDZ+/fLLL9GfBw0aVLJkSb3pmD2NEXHmzZt32223Va5cmRmKAkIZpbPxrxliCzpUsOT1Sf22bNkyKiqqTp06xolzI3EcQk1en9RviRIl0JiNc3AbSTbjxelJCpYfrwDN4ujRo6C2LFmydO7cGebVvn37WrRoIVt0JRoKvrZt23bUqFEDBgzYtGlTzZo1a9Wq9dRTTyHlt99+i8b06KOPypTQpEmTduzYce7cOUau17oVes7gwYMZe5mtOXfu3HiByDQe/ZE8LjuHmsoMmhyZwl6Kf8Rfnzhxon///vfcc49MYK1bt65v376lSpWS8tHzdBIhhpoyPn/66aeBAwceOXLk5ZdfbtCggbxApBOiFf8yfPhwEERQ5PVV/aJya9euLZmDZVBuHTp0EJFDRF5f1W+kE2sdF+DTjz76CA/65M3TBSw/XgFaBtr6Qw891LNnT1hD3bp1++WXX6AcrV27FsPmzTff/MQTT7Rp06ZSpUp33333tm3bcH/GjBnNmzcfO3bsoUOH0G3uuusuNMRdu3Y98MADU6dOzZw5M9KjK6JtoR/+9ttvBQoU0KMuNJHVq1fHO0C7PHnyJM06sZV8AupHnBjlHb1igF9Hjhz5+eeff/rpp+jAeHNoSaADCLh3714Yg+j89913X8eOHadPn378+HEIBaL597//ff/99yNPKEdTpkyBSlW1atUFCxZAfBRL/fr1RR9hh8R/QbNesWJFhBOvO8Dy4k18Vb/IBKUEBmnWrNlNN93UtGlT/ktIyeur+p08eTKquEuXLtWqVXv22WdxnwJa/TG8gPqGXvDDDz+gS4wYMQKM9vXXX8Ny3Llz5+HDhzFs4tcKFSqgt6BxoG0hAU0qjNJojuhU0BTQerZv337s2LHHHnsM+bBXnDp1Cn2pYMGCeiEV/WTu3LnUL2C4occiMTobOq0sI/hKNPyvrCfIiopxDC587dWr1/fff79+/fq4uDjQeuHChaFboQtBb8JroBCgTIHos2bNWrx4cehQeBZFARJctGhRdHQ0iAP9BwyCf1myZAkE17OuMvOFnnn77bejbIMlr0/qF+lROCiZZ555hkb6xx9/rOMAhY68PqlfqNLVq1fHr4888kj+/PkjnQC6vnr5EEe4yJkiOPh37doVXQgDJhoHSA1KH/SFadOmobdgcM6VK5fxDNewZaR94xodA83OOEYKl6eZ4R9//NG9e3dY2Xpxk94w2bNnR+dBkx02bBhGaXQhJH7ttdegi/nQl0I6iXyVN5fFCrzG66+/vmPHDuMxLUuWLImLV155hSub6N58efwEhct4rK0tW7ZABYO9hgzRr3huycKFC0uUKAH1Sq+fkjXwSL58+YYOHQqFJSjy+qp+aSxzRpJqGi+MWiYOBXmNj+oXv6Kg8PLGY3RrR65wgOXHK0D7WLNmzbJly86fP4/R8tZbbx00aBCaC5RBNBQ0IAZVZmJYKLAloYnwGBOAh7cZTyepU6cOLK+tW7fC8kLHQOfBAA49C9qEjqzHvpQtWzaYP/369RsyZMjo0aNjYmI6derkQ7kyJTzJWkNWivAJIwt/jZdEfy5WrFiDBg14IAF/xavCWkQCaEBNmjTZvXs31KhSpUrhV3HrgToGrq9Xrx5IJzY2VsR0/Wmw5PVV/aI0oHY9//zzGzdubN269e+//448cR+kw/oVKztj1C9nSzE8YJxAtXJVp3fv3ta/J7yAZg0LC9TGJWbjsZvwWa1aNZm8HzhwoPFMWsP+4og9e/Zs/IrORkao7AESrFixgg0Xtgnzlyj87D+RCQ/PgwoGG4fLNT53IU5KXnYMmI20E2Hv4/Odd96hA0eVKlXoBYK+jWQwopcvX84H8ZMrK5QDLg4ePJii80cQ5fVJ/T744IOou/fee884hzE88cQTuOCcSYasXwDqJ1hyrAcwj8KEHI3lR4EsO3JE5U29M0Rm2V0jdrxzPhw9GY3jOsfEvGNUTGaZG+JXceJlq/Wt83AykClCoTMugIqbm8z6G+fwJuN4OMr7uzxjeECo+AMm9b9BkddX9Sseha5pvoxav3xWhj3c961zUojD8mMC0DKi45jMs1AvkAlEfIp3MbsTO4+k11vWXF1RNjmYhFHv5ehhE6gg9ewSchILXp4uHfLv4tyu31yQydnBJitOFFbvIErmrwMvL3Ht9UuRhWX4/vSDyZD1y6xcnuHhs93Q8uMVyJKCcXaDiBqoOwN1B/EuNmpHl2yPkQ5mPFsJmZvkQBNMrtnfXNPeAVOp2Gd4Tqm8M0WW0tC7jGXPDy1K6fNcNhV9JPlzloMirw/rl4SCmkXpMUNxnDQZrn6NMzXEyqUSGibkaCw/CsRUZFvRDYU7B4ynuYshJpvV2LDQhm688UYxLcVH17UPj51NbE+xQ5mz3sDgb3kTb4GgaexSeyGXKBcU2TgdRvZRyBKqmJbibpIYklWA5fVV/WqS5ZAgO4VMBq1f0joLkJFWONnqbxFCAZYfr0BHWBB1gF1dz1ixj8np8saZYOLOa93u5etlJ1qBSXhgnvYF4UAdmeyJw76FWILQCGQ/OBcW8A46XA0ZUGamjLORXAzSTCrKRoqb5yKcQ5NNYOX1Vf3yk7nJ8m6kc0hsxqtfGU44tFCWMCFHY/lRIBNSMrMuw6lRkzWZPJuLaVfqKX+jNBTZfexqdkadLk/NgnoKuyL1r2RWNnwOagf0a4lwwJucyOeyg8vfTfxXZFI/0olJIZP3ydiPNNMCL6+v6pfXpFq+PDMRTsxg9ctPbR9wM5JXj6KMh7DjRwnbZ5yJZ7FExI5gSt0C9DVbibRyTQRak3L9pGd8Ej8uDc7nnScZefUCgnyVm/LyLmXBa7FoRdIkXNeWOVmj1nOCIq+v6jfxtcnQ9asfN2qB3mv9Boz9A4Ow40cZAxnjj4NhAP5XmqNMSPGv/d2erLxWXn8gWPIGGGHHj0bFgubIGZjFRFnKlDsB28Rq5bXy+hxBlDeQyIAiJQ+McmxMqF0d0srf4KjOgGB4gRT9qH0FK6+V1x8IlrwBRtjxo3bYRr3mypXr4MGDRYoU8ff/ynQ4mtHhw4ezZ88emMZk5bXy+gPBkjfACDt+lFGOw+zDDz+8YcOGVq1a+ft/MzkRTDHwrlu3rnr16rKY6Nf/tfJaef2BYMkbYIQdP+rNLUBUVFR0dDQjtfj7r2Vv1tixY0ePHh3v0yCAScHKa+X1E4Iib4ARdvxoPPUqvr41a9asVq0axtvFixf7+3/Zepo1a1a1atW6detGBCSOi7HyWnn9g2DJG0iEHT9KjAC6I+Bi2rRpnTt3LleuHD4bNWqUI0eOiIRO3Unlo5tCiouGhw4dWrt27aRJkypXrjx58mRxvvWJUMm/p/GFvGmFldfKmwEQdvwoFUmXXW4egIGwfv36uXPn9unT5+LFizBYLjvn0iWTlSTg7oJ4J7qqVxQsWPChhx4aNGhQ/fr1MzmnLQfAHvGhvGmClddYedM/wo4fjTPkslVxAQ6f9erVg41g1GmZKc436zGTAQ5S6QImYQcD44rhK3mvGlZevyLc5A0kwpEfjafRSMgptBiMsWg9+pB740QxSUorjHDiQekTkZIxMfRuX8ZJDORge+3yphVWXitvBkDY8aOuV9mcf+ONN8qvMqHDWAZJDYloEJk8cf24bIchlJEIkuJHHQqB27AYVsvfuw58JW9aYeW18mYAZChhUgPhL7YkbsnScfaNCiCaTGPioiEz1AFWk4IrpHamhDGo/QdfyZtWWHmtvBkAGU2eFBHhhNfXQe5oI+vTETI58QGTalK0qV27UJOJfshTB5izxJvyj4gJ4Ct50worr5U3AyDs+DHec5KnfI1woo94DdCUTGOiTR2pzlZO/ugiWt/ypwHbaeAredMKK6+VNwMgI/BjvHOQpkk4HeMVurnIdaRzSEBEwoDPqURkwuiHyaRJ6qv/kJS8Mm1kVFRXHRXcqIKNcM4YoEoi5SO9QgdLd8UZlH/0v6wJZDRW3owob4CR7vlRB8Q3Dkm5QiKnBpmcc/hgm7hOVvHHawcdut3TOBIXpcvOsSpiu0lU/YsXL954442yYYNPifkm0/MhWG5W3owtr5+Q7vmRvtmu2ZCrOx8j3jlV6vz581myZPH1m4YW6IqUyTm81CR03pSD7hg7S45sRedBJ+FMP++IY5Nx/DxwMwQ7j5U3Y8vrJ6R7fuQKCU814YLyVW8C5YPIkOSYsQdJmZ/iBdo9x5XLzhl7YqDxECt2ocvqREZ9FLLszdAXwRQvEay8GVtePyHd86OuJ9cUyVVnRd/GDN8COB5QI5Dj+iKdA/lkbKBazS5kVIcx6uwqk3AS1ldOyL6FlddkaHn9gXTPj2RDvaJydU5YojxGeiDHHmVIrwWjtGyU2969e2NiYvLnz1+gQIGKFSv+9ddfjRs3RoImTZosX748KiqqR48e+CxdunTmzJnHjh0rmrV2bLp48WJsbCwMtHHjxoVguVl5M7a8fkK650cOa3roi3fOcktTPtoxguSY1lXs9AWtXPTr12/GjBm5cuXCzRUrVqAnGE+BoByGDx/+zDPP3Hnnneha06ZNM46HwPbt25csWYL0hQsXfvnll2+44YbTp0937dp16tSpJiSNLytvxpbXT0j3/EjQdujZs+f48eMxAOIirTmQW6l7RkdHT5o0iYcgZ9RxUo8rp06dQucRdxDoCHQEQe/avHkzVA8U79GjR7t163bPPfe0aNEC/QoXFSpUkCLCHXQwpP/nP/8ZmpvMrLwZW14/IYPIiSrcuXPn2rVra9euvX79evDjAw888OKLL37wwQd16tTZs2dP+fLl77vvvlmzZvG49EGDBg0ZMgRP/frrr2gfS5cufeSRRypXrozEr776KhrN+++//+STT2ZUciTEjIJVdeLECdhfxtOjzp49S8HRGVq1ajVs2DAoIPny5Zs4caJx5qRQ2jNnzsTj6DZxcXHiJy9+diFYdFZek6Hl9QfSPT+KNV2uXLlSpUqB4KZPn44hLnfu3G3atDl27FiZMmWaNGkCxty6dWvWrFkxeG7btu3cuXP79+9fvHjxjh070A5y5sx56dIl42kxZcuWhU0BcszY9rWeYB0wYEDbtm3Rf2655ZaKFSvOnz9/06ZN6BVIAOOrR48en3322cmTJ6OionBnypQpeBylPWHCBPrQGY+2gkFo1KhRSFmzZs0nnngi2PK5YeXN2PL6CemeH7kBIN4JovPXX39xDhFMR/dXDJ64wJhZtGhR2A6wGvbt23f+/HkOg2xDN3qAi9OnT4tLhHiJB1tEv0BPsFaqVGnVqlX0Iob60KBBg3jPYaFvvvkmPseNG4eCRY/ig7LH3LXF4rbbboN6jhww0oSgfmHlzdjy+gnpnh+N2lOIeoVdTIJjaxBPHXy2bt168ODBhQoVAmMOHTq0WLFiMCuOHz/ep0+fQ4cOYdj85ptv+CDUyWXLljVq1CgDNwJuMeLuCHYALt+zJHF9/fXXo/Q408RNFwzJgULmU7LWf9mJX22cgJghWG5W3owtr5+Q7vmRVU5r4q233sKd+vXr4yavR4wYgRpFdS5duhRf33jjDdrj+BwyZIhkcuutt1apUgUtAGYIvsIAyfAz0NxiRDFlxp1uw0Y5u8nEk1FhUKVwxFcOD0KtQJ7X6ILqP1h5TYaW109I9yyghzV9YZxt+TL0sZXI0CeNhgYFG4EY3ciHB64HRyr/Qybv9Q5c8Xdj4aA0eMax8Wgccs2LeE9gN9mPgTscikKz51h5M7a8fkK650e2A9armA9SqbouaUTIviuGO0Z6tB7u2OeEIwnUt8FEQxAyZshkk941hMK5cOFC5syZpfPojoGbMrpov1HtYB8suZKClTdjy+snpHt+1Dvwdf2JMmicOtZRm3hTjA4+IkOujJMZ2I5gWbEEOFel5+Pxic4jP9EDTieQootwwqeLSnIVwZMCACtvxpbXT0j3/GiUNz+HQbk2CXfRiLOOi/IkjSiMcpHuyFGGfb0RyKixQYf84+CB1q+be6QT3Y9pZGOSPv5Jhg0q7HqIShwEgb8aFWSTfyReB77tb3rfiHHMCx0MEWUipw4kthalkchGY2keOoZevBPqiS7TwiNivrAp+nx8tfUbYGQEfrQwiXo7+4Z4wEkAK91pdSQC9DTp8+IAYJxdaMxHn21iHNXDaywP6bqydMbQShJG8LIn+j85BRcy83XtoIASjgH/yMw5DZeYUOSFTUI2FJKVWAySXk53YdwHzVkUMFKdF+gToYyt3yDB8mOGggz+roCmbKC6w1x2ziehopF4vf7ixYsgFJdjh+5jfFyzhsxsGGflVNLjf+V8UW278T19yyMy2WKcEIf4aznsVMJ5GYcl+SYkUK3xae7TBSiqFvVEKTrmKf6D/jA+bP0GGJYfMwi8uqSJkcjRW2wfWYaSmNIMHE2biPNWckYo+yR1BJmf1XGukBUfZ3qanJIMX9lPXOeLis3r231KYl2yw3O3HD0B9ZqbRP0yzrY5F6nJNBxFE/YxDnfwq2tJF9kiH7KVb13EbP0GBZYfMw5kBt2owPqjR4/evXv3hQsXBg0aFBUV9fjjj/fs2RNpYmNjf/zxxzfffPPRRx8tXrw4tJ6OHTs++OCDsjopFhPa95o1a6ZMmYIe0qhRI+RQs2bNypUr33HHHa1atcIj1atXr1Wr1oYNG86dO3fkyJGhQ4fedtttVapUeeCBBx566KFixYrNnj0b+SCHuLg4/G/BggXbtWs3ZsyYnDlzGqWh+ApkRmpD7K4rVqxYsmRJ9uzZGzRosHnz5oMHDy5fvhzF9e677+J9UD4QqkSJEidOnEARPfLII9oehNQ01T/88MNevXp99dVXv/zyy8KFCwcMGDB8+PA9e/aAO+rUqdO6desaNWqUKVPm8OHDc+fOJeH6lhps/QYelh8zDvTMPWfNv/nmG3TgOXPmcBi/+eabv/jiC3TdM2fOnD17ltwB1nj99dfxa+3atdetW4fW/PXXX+MR5Ib0Xbp04dxW+/bt69Wr17Rp0/r161eqVIlxro4fP44ewo266D8jRoz4z3/+8+9//xsPol+99tpreLBfv34vvfTSvffeq/1SSV68Fn3EJxC1MZNz7ig+8SagAM6LffTRR1myZNm7dy9YA/KWL18eKXGH+47r1q1brVo1kCN4EIWAR0qWLBkdHY1MUGL33Xff5MmTGzZsiBdG2R49enTevHl86rnnnsubNy9+jYmJ2b9//1133WV8TQ22fgMPy48ZBNo4khmon376Ce07womTipaKnvzBBx/s27cP+g6au1FLE3ny5KGpVaFChYkTJ152jvaO9xxfgc4AdQl0AE0EnRBdAsoF9IhPPvmkc+fO6Fd//fVX7969octs3LgRf/TZZ5917969SZMmr7zyCtQKqG/QdJAP6AOKFTrqqFGjjMd280fnyeQcnwIpjh07li1bNuP4tKLrggtmzZrVsmXLUqVKff7550a5u9IIBS2iECZNmmQcPct4dq9C/Vy6dCn0JuiMkBRKFhODQ6FYgS6hYEJpKl26NB/xYSgwW79BgeXHDAKZ96HOwp6ZL18+qEtt2rSRs5bQoF988UXoR926dZMT5TmXD6WDE0ZQnUAfyKRo0aLo8FzNwFOwm1auXNmhQ4eHH36Y2haop2rVqgyY9M477wwZMgS6xq5du2CrQr8YN26c8Rx2Nnbs2BkzZqDf4iXRCW+66SYwFKfGtKLnw3LgO3OtpkCBAnhPWYohncH2HD9+PLo0uIBMQZoQixj3QRZIDPuxT58++JULGlCXQAdQl5AJrOynn34a6ZFb4cKF8UcjR47Um/N8OAVp6zcosPyYKuhpeK0U6OXOkDrPi28I5WLZsmXPP/88XgydHJ/ZPIAJSXHQcM+dO9euXTtoDYMHD2Z3qlixIlSnSCcwARQH9qvq1atDJUHT//jjjzt27FimTBnkLPsxjKc0YK/17dsXvWjr1q1IU7ZsWfQf2IC///47uhyUEfG/i1QbnHzYf/TijDgn4k1AZLly5YLxeJ3n/F58hR6EO1zwPXnyJORCeqg/zKeSB7IIjjQgHXyFblioUCFIil8XLVrUtm1blA8+kS3XZOKdgzr82hjCtn4DDMuPKUC7KeB6zJgxaGdDhw7t1KkTOwzaCloMhlYMxcF+WS9AT6BmhCa+ePFiNHHqDrgJ9QcXa9aska4SoTan01WYa6Ow2kg0sJvw686dO+n9h/ToFXTsEGuUqxPQMiRD6R7QOHgBdYN/JF7EvpJX+wlKsOtGjRrBQuQAhmvcbNasWfPmzXGxYMECyA6uFAdv7Uwud/BZu3ZtOsTwHAL8EbRFLtpKeYJhjUfFiwxUENlwq98Aw/JjCqAuYJwtB6BFWlgwzS5dugSTCuMnLl566aVgv6l3yEIn7awIJwyBDnWl90vQ1UMWFphMtohcdk7TlUklTjCJI4hM/Gl+0TP0Mu1lPJ4iXGrwoSt1Ygcd8cvTjn5MI556MgrqohCWpB8PHVyYkpuXma3WE6XcKHgAjiIIt/oNMCw/pgy2LTQ7NKysWbN27doVY+mRI0dwE3YZGgoYE73FNUSHCKRBi/nP0Cx8T+EO7TtiPD2BGgQnj2QvSqQTF4vewsbDF6QP2aJLlrnshMwyyj1YyodO1NJLfdt54p2t9xRc/PLYyaXr6vOFuCGE83RCIto7R9oASw/Vzfxl+53xUIM8JWXiQ7m8IgzrN5Cw/JgCuN2Cs0vGY5gMGDBg6tSpnGGhnQL7mhOUoUaORCbnrE50CenPbPSyL032ycoODZfWwKzinS23rh118Wq7W6QKzK61Cb1BRZyo4z2BrH27+UxiuFIVosikDHFsZNeNcILTGKerS2kYNekm67x8luqSVrJk0o1rHZoiAzAlHW71G0hYfkwBmZyNXJmcrbXZsmXr2LEjp1rQ8nr27JklSxYm9nk8gmsHWzCv2Z+l88Srrbto7jJbJx4kYnAR3G9Hp5nLTmwY2YiCbkANRRxrhDU4K8fOI5QkkbV83nlE0xH+Yl+VPSSUi/TBlKRI4+FNvVdPz52JPshdyaKy8VmZ9+Tub9d2Hf8hDOs3kLD8mALYtqTLGU9PGDZs2KxZs86cOYM7UB6ZJjSVR1lzp/EodqV0XRn2I5ytxEwQnzAggvEQBNUu0Z3ZYcg1Wpm67ATREpWKRwMxDXlKCMi3dqhMO+rpDioy+FO8Bv4OX2Ubia5ZFpTeqydRv4yarGRByf5CPYIKYwbMmAi3+g0w0ut7Bwza3cw4thgaXFRUFFTI6OhoKI+RCc/oCCnEO/ttTcIoBsbp6rLv2LWkIKsZohYJEZB9xJdFuIZdMZMKUexKzAzJU9c54Vd9q2SJgiPTZ0bZ0TLUiREa74SL5x1Ngq6QiMyfM3c8aUAmKHVEHyZjzgFYug23+g0wwpcfdTOKT+So5WrcMgBKZcfFxe3bty8mJkasjDRNNgVMxZAGSr3JqPE/wgnlYJTg0qz5uEjkKgox0PR/sSvq9JL4sgrMblR5Js7k2qEjP8rCrpZXer78u0ye6FeSl3RxnGhSLtXSpWEFZrzUBOSKUuEqWF3yPq9fk7Ak/Vq/gUTY8SO7Cg8bMs74aTxuYvPmzVu/fv25c+egCBjHqyOpfNgH3nnnHeMoKckjf/78Dz/8cLt27apXr85p8sA4PfhK3rTCypt+nVosBGHHjzQKONJK1CYYy//617+6du06efLknDlzyjx3MuO/RA+Vefr4ZP2BDx8+vG7dOtjjtWrVmjhxoqyB+tv68JW8aYWVNzDyWvgVYcePxnHvwic7T8uWLUF23377rXQYiTMqK32JwdVA2eRrnFDMSfWHAgUKtG7dGv/VvHnzTp06cQ9GYDqPT+RNK6y8JlDyWvgPYcePriH9gw8+2LFjx65du8QzLt451lKW85LKRxZJZaormXW6TM7ejCVLltxxxx1r166tXbt2AKZmfCVvWmHlDYy8Fn5F2PGja/547ty5sIl0PFTt95CMyay3bWkHuqTSazWzd+/es2bNqlOnTgD8JX0lb1ph5Q2MvBZ+RdjxIzU+rqig7W7ZsgWmEDuPbD9IjWfGZSckPUPqM72s0iZGvDpXr1atWjExMYGZnPKVvGmFlddOPmYAhB0/unw4Tpw4kT9/fnYqWW1M7O6TGOLvBnKUlcpklBHtA1G0aNHjx48HZv+Zr+S9uv+18lqKTNcIO34kXL3CpUq4+lhSkP6m9+cn/7+uCcqAdR6fyHsVsPL6Nn+LACNM+dHCwsIiRVh+tLCwsPAOy48WFhYW3mH50cLCwsI7LD9aWFhYeIflRwsLCwvvsPxoYWFh4R2WH1MAXYhdjsTa71c2Y6TG2ViiisqubR++qj6k2xUXlpuOL126pCOnusSULUDMQZzedYxIiaKqg63qaNKM+MD0rqDCPnTGvnZ5NVy7ABPHxEx8YREmsPyYAoTIJIiZnDpv1FFQcrJHUpTHA+Ek8KpESfDVLjdGrBFimjp1art27STMfaRz0jEjHkon17Fj9Y5y4zi9uw5jEekyqfP5JEKwjkEd6TnkgIllb0nQ5U0MiRfJM1GljiRyHSnYMmN4wvJjCnB1DG5T02Hl2SHJBcnogxK433hYVXLz1Xsif4nCgGz79u3bq1ev3r17x8XF6Y1uJKnL6nBkHS5fdDFKHeE53UnOexJdjPQn/C7HDFB/dMUx4t9JYQZL3qRCK1Fk5CP6sj4KVccAtxQZhrD8mAJoXMc7h94xLrSce0eVynWYslfIqW/UbnRwf19BTh/Fi40cObJHjx5jxowZNWpUdHT04MGDea6ecU5f4iNkavlJRNY6lHFigvGsJZKmUeazHFcgina/fv3at29ftGhROc8gredP+EnexNAHS8Q758EiT+TWuXPnZcuWxcbGiqKqT8S2CAdYfkwZ6DbQTaCh5M2bd+XKlTExMV988QVMucOHD991110ff/zx7t27Z8yYkTVr1vr167/wwgteMxFOkUNRTKJghdcCmf4jU3ft2hUccerUKeQ/adKkKVOmoLeDtsSglrPejUftbdGixcKFC2UWT071RIatW7eeN29enz59tm3bljlz5qpVq4I7hHREBAnWzek/EgptcJm4DKK8yeRjPFWMmsV148aNjecgqvPnz+PTOAHJaShYcgw3WH5MGZzpR/dA/wFx3H///XPnzu3QocNrr71Wt25dcgFo8YknnmjevHlS/GgSHqDO6Tkfnn9inBCtsqBEYvrbA/w6efLkn376yXg6PC3TL7/8cty4cRUqVMiVK9eOHTsWLVqE98EFHp8wYQIERG4PPvjg9u3b+/fvD71s5syZxYoVq1279qOPPnrvvfdiVLj99tt/+eUX5Lx69eoPP/ywVq1ae/fu/f333z/77DPQE8mRdiuYhWqpD03stMqbVCYcDPD4hQsXvvvuO4wEN910E+dMkOH+/fuR1dmzZ1988UVInX6PKrW4CtjKTgHUHdi3aWPWrFlzzZo1HTt2PHr0aIkSJZAAqtPSpUtHjBgBcyyZfEiOxpngw1O+Pb9JWIBqGljvzJkzxrPSgpfv1KkTaO7tt9/mwgVfA6+Ebp8zZ85NmzY999xz0IUPHDjwxhtv4D3/+OOP2bNnQyneuHHj0KFDkR7qIcsBOcOeRfq4uDgUxX/+8x9Qf7NmzSpXrtytW7cFCxbgE6RD/sK/4xPi0xAOorxeEe85vhk5gMfxnhB56tSp2bJlg45MhXf8+PGwG3CNkQOjhQ/f3yL0YfkxBVCJQN+WO6AM0CL0owYNGqDPkAJAFkWLFn3rrbfKlCmTVD7GmcjjhW/Pb8JryCIDNKaJEyeCs8T2jI2NzZ49u3FWS9jzK1WqFBMT8/TTT69bt854NClQA8gROhRXbCGpUUcAgo+omlEWkAj+kYohvoJkebq0cday5d2Ymz5VNfDyJpUPdU9OeiArZEJ6pfcSJ1tRuaVKlfLJa1ukL1h+TBnUs6BQ4BOmJfoPbE9cTJkyZefOnTSWoVtBuRg2bFjyWbk6qg/XKzhNRscjMEK/fv3A6T179oQOBR7Rq+eysAttceXKlTCZcefkyZPz588Hxfft2/eHH37QEWSLFCkC2ceOHQuizJw5s6wF84JKIvMEn+K/wE2w3LNkyZL4gFMhRxkYZJGH0JG99U/avVE8eIya1e3duzdudunSZcCAAV7lTQYRzsHNyKdVq1bdu3dHmaCuKd0LL7yAwixcuPBTTz1VtWrVa6sli3QGy48pgJNTMLLE95hMtGvXLnylFVa2bFl2WhibQXxVOQYHbwJaBFmgk3u1aslBVapUeeihh/irfnNG2160aBEZatSoUVy779ixIxOASSHv66+/jnwaNmzI9Rxy1vTp02UJOPFqhiwQi1NRr169xnsgp8TQmZRmL1+AnxREnC7FtQhfkfLuu+9ev3496DspeZPSW8W5HfTH68WLF7MEcM3F6yVLllAzveqqsUinsPyYAthLZe1VdDTxgpTDC8lNwTqPSXvtkXfocJP8kiupBMlo/0pWkI5fxY1JhgftSyikI//CNSj9v5qb6Osja/fff//9hg0bVqxYgc9u3brVqFEDyhquH3nkkf3791eoUOGuu+6aNWsWDPlz5869+uqrIH282K+//grp3nrrrcqVK0Ohe/LJJ4cMGYIE69atA8eldYlZlqeNY2vLRLNxdE9x3rLnbYUbLD+mDPFzNJ65f9GMZNuMcWbcgth5NJ0ZZTPy18S6j2h59PQWH0/c54oKOU7nRsFlfyTHDJlqpOw0qGXDSeIDprXndpkyZW666SaQ2oIFC5A+V65cHTp0OHLkSPny5Zs0adK1a9ePP/4Ydjp++vnnn48fP/7LL7/MnTv322+/hZaaO3du5ob8y5UrV6hQIeSjNwKmstykxMCwnG8VcVgmTCZ7hNJYLRbpG5YfU4Z0IXYYkqOwJGmRFmtw/Yfpgcg3kR2BRml52sbkvKHW8uQpvZdGJNIqIX+VTUTCwnqPDR/Xc3+imkkm8glukj2OLGEWNcSBRlmxYsWjR48iDdVPqKggTWYFQGpxWU9G3qTAwU8Wo4xaXBLRmK11Dg9DWH5MGaJKiBbpIke5E8T+QzaR9WVR7pLZqMNpPtlebRw6w1OkWjGl9XIK1+tpRxuH4HAfaZDV2bNnYQ571bMSR8RAoeXNm/fNN9/MnDnzX3/9RS8cfCI33MF1u3btYDsXLFgQ/z527NjixYsPHDgQuuQrr7xy4MCBmTNn7ty5E2+Cv0P6hQsXtmjRwut/JY9Lly5RFtfMKcmXTu9GzSFYhA8sP6YALhrEq+OSqXZxcVbsL9qVQT/PU+jMJLtuS/rgOwsdcI2FSpwEemB6WcuWmUcSijwiW3FAjpyjpI7pdU5WSBwvMGfOHPz7008/jTRvv/02MoyNjUWGKN5FixYhmXYp7devH/8LORQrVqxKlSp4qn379vgXJkuq/JOhSzxCWagtin1AbZfkKBMFdv91uMHyYwogOcrMvdAiPyXGl8t4DDz0FKGEnIlPeNCza1aOm0/ERUZ4QZYmuIwrmWt2kF0xRrnQCxsKIbou9PIOn9JL0nx53kfmUtSys5v/YpxhQGY5ObPBiVT+nVd5vUJmIaRMeEeXZ7wKXGQRVgg7fhQ6M85yaorrKpodqHPpO3oFIxnoubkIFbXQtyqJRGQwTpgJPXnqkldLnXhJ2iS7HKEdG11xzAiXvJK5JJZyE+rhy0sCXdSypON6DQmlIcZvMvImBV2brj+ShbhkHvcqr5/q1yLACDt+FOWFNjJDdQXgf4UFxFFGR4T0H6y8GVteC78i7PjRqH27gZw0lKDWcidgkQ6svBlbXgv/IeyqEKO6RGeAfiF7OfyNSOfQAi4ZMxakmIf+g5U3Y8tr4VeEHT/qXSJox7ly5Tp48GCRIkX8/b/UYuh6ffjw4ezZswem81h5M7a8Fn5F2PGjjOpUKx5++OENGza0atXK3//LIJLosVA01q1bV7169cDsV7PyZmx5LfyKsONH1y6XqKio6Ojo5s2bB8D7VzaijB07dvTo0dqn0n+w8mZseS38irDjR+Npx3JSSs2aNatVqwb9YvHixf7+X/aWZs2aVa1atW7duhGJjo31E6y8GVteC/8h7PhRnJ/lEL5p06Z17ty5XLly+GzUqFGOHDki1Kl1vsKhQ4fWrl07adKkypUrT548mcZXADqPlTdjy2vhV4QdP0rD5TYPbtKAQbR+/fq5c+f26dPn4sWLMNAkLKCv/rdgwYIPPfTQoEGD6tevT9XGBCQejJU3Y8tr4VeEHT8aR8VgL+KCIz7r1asHm4i/cpOZ/+bXuceD3ic+zzwxrLwZW14L/yEc+dE4oRbk9BLGyGKcAjG+XBEorhE6DhijYQdSubDyZmx5LfyEsONH3Y4lCILEsOIuCOOZwPLt+VmSD3UWiUPj710WVt6MLa+FXxF2lSdT5uw53IImBhG/uo5J8Qlc0VU5RRWAzmPlNRlaXgu/IuzqD/2HsV1pW9FJjVFe2Hk4/rPn+FC/QOfRhxkEbHOFlTdjy2vhV4QdP8Z7DmuVrxJtxWtAKh/qF/owg0DurLDymgwtr4VfEXb8qLuHXEc6p2tFOKc7Ue/QIWaNirrKZGKvJT5uQRQTr8EWE3/1H5KSN/GvvoWV109/ZBFIhB0/JgXNazSO5BgAHubH4NW03UiIIEeeTyIbNviUmG8yPR/0cxcsLCyuApYfr4Ducpmc0/tMwvh9cvYAY2dxsgmfPBKLM/28I6fXG8fPAzctOVpYpEdYfrwCmZ+KdM4j5CEzcnyrGOBQBnlsC7dhkDHl+FOqivpoKq9nVFlYWIQ+LD/+D5xYlJNahdd4dp0++4kn2LgI0TjH1TNZpDoA2ldOyBYWFoGE5ccrkFUXsN7evXtjYmLy589foECBihUr/vXXX40bN0aCJk2aLF++PCoqqkePHvgsXbp05syZx44d6zo/Gvjzzz8vXrwYGxsLA3zcuHE2jouFRXqE5ccr0Mpjv379ZsyYkStXLtxcsWIFmM54lj7//vvv4cOHP/PMM3feeSeoc9q0acbZsLF9+/YlS5YgfeHChV9++eUbbrjh9OnTXbt2nTp1qrHGtYVF+oTlxysghdFkPnXqFMhR3H2gA9LRB+y5efNmqJbgxKNHj3br1u2ee+5p0aIFeBMXFSpU4FnJZFIQKNL/85//tJvMLCzSKWy//R/ETIbVfOLECdjXxsOYZ8+ejXAOv27VqtWwYcOgYObLl2/ixInGmXPcuXPnzJkz8ThoMS4ujmzL3b5yjH1QhbOwsEgzLD9eAbU8EtmAAQPatm0LfrzlllsqVqw4f/78TZs2gfWQAMZ1jx49Pvvss5MnT0ZFReHOlClT8Hi5cuUmTJhAH0nj0Ub37NkzatQopKxZs+YTTzwRbPksLCzSDMuPVyC+iriuVKnSqlWr6CUO9bBBgwY8LPTNN9/E57hx40CmYEw+SI9x49jm4j552223zZo1CzlcunTJ6o8WFukRlh+vgJsFufuFBMddtLS4cX399deDQDmTyE01AC5AjnyKzMgLCTIoG2+CK52FhcVVwPLjFXAnNelPVlToFm6UM6NMLBoVBlWWX8QXEg9CbUSerl3YFhYW6QiWH69AFmf0DmvxZyRjguN4xrHxaJRyzQtwomxP5E5E5OmPo6AsLCwCA8uPV0AWAw/KZCIoUhRGkOOFCxcyZ84s5KiJDzdF5dQBtSTOlaVIC4v0CMuPV0AuI8dxLlKvt+AT5Cg/0cNRJxB7nEs6EltfjtALqnAWFhZXg7DjR71PxjhmtQ7+CF6TKPyJrWOJgeqK80gwB35yDUdv3EbODBFkEroT+V9oCwuLq0HY8SP1RAk/Abbi7CGnHcVMdh0nkjj6NONWMKyZkKBr5Vq4VUJJShqyJ6csAym+hYVF6hF2/CgRzCRUOMgRJrAc/inhy4zDkqRFEqheiZaYj/T10fOMLv2UN0nEYnFzGSfgBWBhYZFahB0/ygEJnCWklkfPR32gnUQ5M842QRKoiwElPe5T93SFR9P+PXI+lExHWuPawiKUEXb8aByfbU7/kb9WrFixZMmS7NmzN2jQYPPmzQcPHly+fDn47t13342Njd29e/fjjz9eokSJEydOREVFPfLII9QESYhikq9cuRKfzzzzDNTDGjVqNGrUKDo6Gv8VFxd34MCByZMn48F7772XWxL515YfLSxCGWHHj6I2yjmc+HzttdfWrFkDpoNy99FHH2XJkmXv3r3Fixdft25d+fLlkRJ3uM+6bt261apVAzl+9dVXCxcuhNFdpEiRvn37Go+p/n8eQD0sVqzYxx9/DH48c+bMuXPnqHVWrlyZLOlyqwxiaVhYWCSDMO2ceurw2LFj2bJl400AhNW+fftZs2a1bNmyVKlSn3/+ufxknFhn4LWyZcuOHTtWMgThQm0Uk/zixYt16tRZu3YtdE+onP3798dNMOajjz7atGnT8+fPg3Ct34+FRYgj7PhRDjzgwgs0uwIFCoAiZSkG3FeyZMkff/xx/Pjxo0eP/uKLLzj/CIAEZeHlyy+/BIfiJ6iKPXv2RLaZM2eGOmk8XAkaff7551u3bg22hRZJVoX+OGTIkK5du4Ix9eE2QS4RCwuLJBB2/KgXZ2gL407Hjh2ffvrpXLly1a9fH/fBgPi6ceNG3OEWmpMnT0KpRPqYmBjmU7FiRVjcskOGqzGvv/76+vXru3fvjjugyxw5csCaFldHZJs3b17k+dNPPxUtWtRuPbSwCHGEKT+SmCS4d6NGjWD2clIS17jZrFmz5s2b42LBggXgPnAlWVU7k9M7R/x1GjZs+OSTT1I/XbhwIZ4FXfJPkQk+J0+ejEemTp2K9HwHey62hUUoI+z4UVQ22RdIdhO/SKqWTCO7Bsmq+nRshvYhu+Fx1xmHRhnyQqMMg0bL2iTae2NhYRFqCDt+NI6LOJebYfOS3bicbRxe057hxmE3ui5K5EfSJZ/Vp78yf/E/F+tb9s/IurndX2hhEcoIR36UmLVcciG7kaokZBkXYSQYj3HYjbypo+GK1slzsRnax+W4I97jxnFQZ+JgSG9hYZFahGMXFaduca8hLV68eJELzVx1AeWBCpmSFGk8vMnEQnMSOpcJRLvUOw7FlYfPiglvTWwLi1BG2PGjTDsyTgQ1REa3BTmCDcFZ3CUtkR+1MohrKphiRJMQud7CmzqmGacpaZXLs1zOlulLCwuL0ETY8SPIS2xk4+Evo+xo7jvkXmzyFw1hWbmWFRuuPouJTa1T8iE58rwa+qLjkxOdwqSWHC0sQhxhx49GxXA0KkKEsJtxphrlZC65lrVvfdOVj04mfyQXOp6FL0WysLDwA8KRHy0sLCxSA8uPFhYWFt5h+dHCwsLCOyw/WlhYWHiH5UcLCwsL77D8aGFhYeEdlh8tLCwsvMPyo4WFhYV3WH60sLCw8A7LjxYWFhbeYfnRwsLCwjv+HwL/Rd+0hQisAAAAAElFTkSuQmCC;" vertex="1" parent="1">
          <mxGeometry x="430" y="330" width="373.39" height="270" as="geometry" />
        </mxCell>
      </root>
    </mxGraphModel>
  </diagram>
</mxfile>
